<?xml version="1.0" encoding="utf-8"?>
<!-- Generator: Adobe Illustrator 22.1.0, SVG Export Plug-In . SVG Version: 6.00 Build 0)  -->
<svg version="1.1" id="Calque_1" xmlns="http://www.w3.org/2000/svg" xmlns:xlink="http://www.w3.org/1999/xlink" x="0px" y="0px"
	 viewBox="0 0 1538 457" style="enable-background:new 0 0 1538 457;" xml:space="preserve">
<style type="text/css">
	.st0{fill:#123456;}
	.st1{fill:#FFFFFF;}
</style>
<title>Download_on_the_App_Store_Badge_US-UK_135x40</title>
<desc>Created with Sketch.</desc>
<g id="Print">
	<g id="Kakemonos_2018_product" transform="translate(-2669.000000, -11070.000000)">
		<g id="Group-3" transform="translate(812.000000, 10266.000000)">
			<g id="Group-2" transform="translate(0.000000, 801.000000)">
				<g id="Download_on_the_App_Store_Badge_US-UK_135x40" transform="translate(1857.700859, 3.523550)">
					<path id="Shape" class="st0" d="M1481.8,455.1H53.9c-29.7,0-53.8-24.2-53.8-53.8V54.5c0-29.6,24.2-53.7,53.8-53.7h1427.9
						c29.7,0,54.7,24.1,54.7,53.7v346.9C1536.5,431,1511.5,455.1,1481.8,455.1z"/>
					<path id="Shape_1_" class="st1" d="M1525.5,401.4c0,24-19.5,43.5-43.6,43.5H53.9c-24.1,0-43.7-19.5-43.7-43.5V54.5
						c0-24,19.6-43.6,43.7-43.6h1427.9c24.1,0,43.6,19.5,43.6,43.6L1525.5,401.4z"/>
					<g id="Group" transform="translate(142.037715, 68.144767)">
						<path id="Shape_2_" class="st0" d="M200.9,157.4c-0.3-36.6,30-54.4,31.4-55.2c-17.2-25-43.9-28.4-53.2-28.7
							c-22.4-2.4-44.1,13.4-55.5,13.4C112,86.8,94.4,73.7,75.5,74c-24.4,0.4-47.1,14.4-59.6,36.3c-25.8,44.6-6.6,110,18.2,146
							C46.4,274,60.8,293.7,79.7,293c18.5-0.8,25.4-11.8,47.7-11.8c22.1,0,28.6,11.8,47.9,11.3c19.8-0.3,32.3-17.7,44.3-35.5
							c14.3-20.2,20-40.1,20.2-41.1C239.4,215.8,201.3,201.3,200.9,157.4z"/>
						<path id="Shape_3_" class="st0" d="M164.5,49.7c9.9-12.4,16.8-29.3,14.9-46.4C165,3.9,147,13.2,136.6,25.4
							c-9.2,10.7-17.4,28.2-15.3,44.7C137.5,71.3,154.1,62,164.5,49.7z"/>
					</g>
					<g id="Group_1_" transform="translate(477.995184, 204.434302)">
						<path id="Shape_4_" class="st0" d="M132.6,154.2h-25.8l-14.2-44.4H43.4l-13.5,44.4H4.8L53.5,3.1h30.1L132.6,154.2z M88.4,91.2
							L75.5,51.7c-1.4-4-3.9-13.5-7.6-28.5h-0.5c-1.5,6.4-3.9,15.9-7.2,28.5L47.7,91.2H88.4z"/>
						<path id="Shape_5_" class="st0" d="M258,98.4c0,18.5-5,33.2-15.1,43.9c-9,9.6-20.2,14.4-33.5,14.4c-14.4,0-24.7-5.2-31-15.5
							H178v57.4h-24.3V81.1c0-11.7-0.3-23.6-0.9-35.9h21.3l1.4,17.3h0.5c8.1-13,20.4-19.5,36.9-19.5c12.9,0,23.6,5.1,32.2,15.2
							C253.7,68.4,258,81.8,258,98.4z M233.3,99.3c0-10.6-2.4-19.4-7.2-26.2c-5.2-7.2-12.3-10.8-21.1-10.8c-6,0-11.4,2-16.3,5.9
							c-4.9,4-8.1,9.2-9.5,15.6c-0.8,3-1.1,5.5-1.1,7.4v18.2c0,7.9,2.4,14.6,7.3,20.1c4.9,5.5,11.2,8.2,19,8.2
							c9.1,0,16.3-3.5,21.3-10.5C230.7,120,233.3,110.8,233.3,99.3z"/>
						<path id="Shape_6_" class="st0" d="M383.6,98.4c0,18.5-5,33.2-15.1,43.9c-9,9.6-20.1,14.4-33.5,14.4c-14.4,0-24.7-5.2-31-15.5
							h-0.5v57.4h-24.3V81.1c0-11.7-0.3-23.6-0.9-35.9h21.3l1.4,17.3h0.5c8.1-13,20.4-19.5,36.9-19.5c12.9,0,23.6,5.1,32.3,15.2
							C379.3,68.4,383.6,81.8,383.6,98.4z M358.9,99.3c0-10.6-2.4-19.4-7.2-26.2c-5.2-7.2-12.3-10.8-21.1-10.8c-6,0-11.4,2-16.3,5.9
							c-4.9,4-8,9.2-9.5,15.6c-0.7,3-1.1,5.5-1.1,7.4v18.2c0,7.9,2.4,14.6,7.3,20.1c4.9,5.5,11.2,8.2,19,8.2
							c9.1,0,16.3-3.5,21.3-10.5C356.3,120,358.9,110.8,358.9,99.3z"/>
						<path id="Shape_7_" class="st0" d="M524.1,111.8c0,12.9-4.5,23.3-13.5,31.4c-9.9,8.8-23.6,13.2-41.3,13.2
							c-16.3,0-29.4-3.1-39.3-9.4l5.6-20.2c10.7,6.4,22.3,9.7,35.1,9.7c9.1,0,16.3-2.1,21.4-6.2c5.1-4.1,7.6-9.6,7.6-16.5
							c0-6.1-2.1-11.3-6.3-15.5c-4.2-4.2-11.2-8.1-20.9-11.7c-26.5-9.9-39.8-24.3-39.8-43.3c0-12.4,4.6-22.6,13.9-30.5
							c9.3-7.9,21.6-11.9,37.1-11.9c13.8,0,25.2,2.4,34.4,7.2l-6.1,19.7c-8.5-4.6-18.2-7-29-7c-8.5,0-15.2,2.1-20,6.3
							c-4,3.7-6.1,8.3-6.1,13.7c0,6,2.3,10.9,7,14.8c4,3.6,11.4,7.5,22,11.7c13,5.2,22.6,11.4,28.8,18.4
							C521,92.6,524.1,101.4,524.1,111.8z"/>
						<path id="Shape_8_" class="st0" d="M604.3,63.4h-26.7v52.9c0,13.5,4.7,20.2,14.2,20.2c4.3,0,7.9-0.4,10.8-1.1l0.7,18.4
							c-4.8,1.8-11.1,2.7-18.9,2.7c-9.6,0-17.1-2.9-22.5-8.7c-5.4-5.8-8.1-15.6-8.1-29.4V63.4h-15.9V45.2h15.9v-20l23.8-7.2v27.1
							h26.7V63.4z"/>
						<path id="Shape_9_" class="st0" d="M724.9,98.8c0,16.8-4.8,30.5-14.4,41.3c-10,11.1-23.4,16.6-40,16.6
							c-16,0-28.8-5.3-38.3-15.9c-9.5-10.6-14.3-24-14.3-40.1c0-16.9,4.9-30.7,14.7-41.5c9.8-10.8,23-16.2,39.7-16.2
							c16,0,28.9,5.3,38.6,15.9C720.3,69.2,724.9,82.5,724.9,98.8z M699.8,99.6c0-10.1-2.2-18.7-6.5-25.9c-5.1-8.7-12.4-13-21.8-13
							c-9.8,0-17.2,4.3-22.2,13c-4.4,7.2-6.5,16-6.5,26.3c0,10.1,2.2,18.7,6.5,25.8c5.2,8.7,12.6,13,22,13c9.3,0,16.5-4.4,21.8-13.3
							C697.5,118.3,699.8,109.6,699.8,99.6z"/>
						<path id="Shape_10_" class="st0" d="M803.8,66.5c-2.4-0.4-5-0.7-7.6-0.7c-8.5,0-15.1,3.2-19.8,9.7c-4,5.7-6.1,12.9-6.1,21.5
							v57.2h-24.3l0.2-74.7c0-12.6-0.3-24-0.9-34.3h21.1l0.9,20.9h0.7c2.6-7.2,6.6-12.9,12.1-17.3c5.4-3.9,11.2-5.8,17.5-5.8
							c2.2,0,4.3,0.2,6.1,0.4V66.5z"/>
						<path id="Shape_11_" class="st0" d="M912.3,94.5c0,4.3-0.3,8-0.9,11h-72.8c0.3,10.8,3.8,19,10.6,24.7
							c6.1,5.1,14.1,7.6,23.8,7.6c10.8,0,20.6-1.7,29.5-5.2l3.8,16.8c-10.3,4.5-22.5,6.7-36.6,6.7c-16.9,0-30.2-5-39.9-14.9
							c-9.7-9.9-14.5-23.3-14.5-40c0-16.4,4.5-30.1,13.5-41c9.4-11.7,22.2-17.5,38.2-17.5c15.7,0,27.7,5.8,35.7,17.5
							C909.1,69.5,912.3,81,912.3,94.5z M889.2,88.3c0.2-7.2-1.4-13.4-4.7-18.6c-4.2-6.7-10.7-10.1-19.3-10.1
							c-7.9,0-14.4,3.3-19.3,9.9c-4,5.2-6.4,11.5-7.2,18.8L889.2,88.3L889.2,88.3z"/>
					</g>
					<g id="Group_2_" transform="translate(494.843684, 73.618243)">
						<path id="Shape_12_" class="st0" d="M63.5,40.9c0,13.4-4,23.4-12,30.2c-7.4,6.2-18,9.4-31.7,9.4c-6.8,0-12.6-0.3-17.4-0.9v-73
							C8.7,5.5,15.5,5,22.9,5c13,0,22.9,2.8,29.5,8.5C59.8,19.8,63.5,29,63.5,40.9z M50.9,41.2c0-8.7-2.3-15.3-6.9-19.9
							c-4.6-4.6-11.3-6.9-20.2-6.9c-3.8,0-7,0.2-9.6,0.8v55.5c1.5,0.2,4.2,0.3,8.1,0.3c9.1,0,16.2-2.5,21.1-7.6S50.9,50.9,50.9,41.2
							z"/>
						<path id="Shape_13_" class="st0" d="M130.2,52.6c0,8.2-2.4,15-7.1,20.3c-4.9,5.4-11.5,8.2-19.7,8.2c-7.9,0-14.1-2.6-18.8-7.8
							c-4.7-5.2-7-11.8-7-19.7c0-8.3,2.4-15.1,7.2-20.4s11.3-7.9,19.5-7.9c7.9,0,14.2,2.6,19,7.8C127.9,38,130.2,44.6,130.2,52.6z
							 M117.8,52.9c0-4.9-1.1-9.2-3.2-12.7c-2.5-4.3-6.1-6.4-10.7-6.4c-4.8,0-8.4,2.1-10.9,6.4c-2.1,3.5-3.2,7.8-3.2,12.9
							c0,4.9,1.1,9.2,3.2,12.7c2.6,4.3,6.2,6.4,10.8,6.4c4.6,0,8.1-2.2,10.7-6.5C116.7,62.2,117.8,57.9,117.8,52.9z"/>
						<path id="Shape_14_" class="st0" d="M219.6,26.2l-16.8,53.5h-10.9l-7-23.2c-1.8-5.8-3.2-11.6-4.3-17.3h-0.2
							c-1,5.9-2.5,11.6-4.3,17.3l-7.4,23.2h-11.1l-15.8-53.5h12.3l6.1,25.5c1.5,6,2.7,11.8,3.6,17.2h0.2c0.9-4.5,2.4-10.2,4.4-17.1
							l7.6-25.6h9.7l7.3,25c1.8,6.1,3.2,12,4.3,17.6h0.3c0.8-5.5,2-11.4,3.6-17.6l6.5-25L219.6,26.2L219.6,26.2z"/>
						<path id="Shape_15_" class="st0" d="M281.4,79.8h-11.9V49.1c0-9.4-3.6-14.2-10.8-14.2c-3.5,0-6.4,1.3-8.6,3.9
							c-2.2,2.6-3.3,5.7-3.3,9.2v31.8h-11.9V41.5c0-4.7-0.1-9.8-0.4-15.3h10.5l0.6,8.4h0.3c1.4-2.6,3.5-4.7,6.2-6.5
							c3.2-2,6.9-3,10.8-3c5,0,9.2,1.6,12.5,4.8c4.1,4,6.2,9.9,6.2,17.7V79.8z"/>
						<polygon id="Shape_16_" class="st0" points="314.3,79.8 302.4,79.8 302.4,1.7 314.3,1.7 						"/>
						<path id="Shape_17_" class="st0" d="M384.5,52.6c0,8.2-2.4,15-7.1,20.3c-4.9,5.4-11.5,8.2-19.7,8.2c-7.9,0-14.2-2.6-18.8-7.8
							c-4.7-5.2-7-11.8-7-19.7c0-8.3,2.4-15.1,7.2-20.4s11.3-7.9,19.5-7.9c7.9,0,14.2,2.6,19,7.8C382.2,38,384.5,44.6,384.5,52.6z
							 M372.1,52.9c0-4.9-1.1-9.2-3.2-12.7c-2.5-4.3-6.1-6.4-10.7-6.4c-4.8,0-8.4,2.1-10.9,6.4c-2.1,3.5-3.2,7.8-3.2,12.9
							c0,4.9,1.1,9.2,3.2,12.7c2.6,4.3,6.2,6.4,10.8,6.4c4.6,0,8.1-2.2,10.7-6.5C371,62.2,372.1,57.9,372.1,52.9z"/>
						<path id="Shape_18_" class="st0" d="M442.2,79.8h-10.7l-0.9-6.2h-0.3c-3.7,4.9-8.9,7.4-15.7,7.4c-5.1,0-9.2-1.6-12.2-4.8
							c-2.8-2.9-4.2-6.6-4.2-10.9c0-6.5,2.7-11.5,8.2-15c5.5-3.5,13.2-5.1,23.1-5.1v-1c0-7.1-3.7-10.6-11.1-10.6c-5.3,0-10,1.3-14,4
							l-2.4-7.8c5-3.1,11.1-4.6,18.4-4.6c14,0,21.1,7.4,21.1,22.1V67C441.5,72.4,441.7,76.6,442.2,79.8z M429.9,61.4v-8.3
							c-13.2-0.2-19.7,3.4-19.7,10.8c0,2.8,0.8,4.9,2.3,6.3c1.5,1.4,3.5,2.1,5.8,2.1c2.6,0,5.1-0.8,7.3-2.5c2.2-1.7,3.6-3.8,4.1-6.3
							C429.8,62.9,429.9,62.2,429.9,61.4z"/>
						<path id="Shape_19_" class="st0" d="M510,79.8h-10.6l-0.6-8.6h-0.3c-3.4,6.5-9.1,9.8-17.2,9.8c-6.5,0-11.8-2.5-16.1-7.6
							c-4.3-5.1-6.4-11.6-6.4-19.7c0-8.7,2.3-15.7,7-21c4.5-5,10-7.5,16.6-7.5c7.2,0,12.2,2.4,15.1,7.3h0.2V1.7h11.9v63.7
							C509.6,70.6,509.7,75.4,510,79.8z M497.6,57.2v-8.9c0-1.5-0.1-2.8-0.3-3.7c-0.7-2.9-2.1-5.3-4.3-7.2c-2.2-1.9-4.9-2.9-8-2.9
							c-4.4,0-7.9,1.8-10.5,5.3c-2.5,3.5-3.8,8-3.8,13.5c0,5.3,1.2,9.6,3.7,12.9c2.6,3.5,6.1,5.3,10.4,5.3c3.9,0,7-1.5,9.4-4.4
							C496.5,64.3,497.6,61,497.6,57.2z"/>
						<path id="Shape_20_" class="st0" d="M612,52.6c0,8.2-2.4,15-7.1,20.3c-4.9,5.4-11.5,8.2-19.7,8.2c-7.9,0-14.1-2.6-18.8-7.8
							c-4.7-5.2-7-11.8-7-19.7c0-8.3,2.4-15.1,7.2-20.4c4.8-5.3,11.3-7.9,19.5-7.9c7.9,0,14.2,2.6,19,7.8
							C609.7,38,612,44.6,612,52.6z M599.7,52.9c0-4.9-1.1-9.2-3.2-12.7c-2.5-4.3-6.1-6.4-10.7-6.4c-4.8,0-8.4,2.1-10.9,6.4
							c-2.1,3.5-3.2,7.8-3.2,12.9c0,4.9,1.1,9.2,3.2,12.7c2.6,4.3,6.2,6.4,10.8,6.4c4.6,0,8.1-2.2,10.7-6.5
							C598.5,62.2,599.7,57.9,599.7,52.9z"/>
						<path id="Shape_21_" class="st0" d="M676.1,79.8h-11.9V49.1c0-9.4-3.6-14.2-10.8-14.2c-3.5,0-6.4,1.3-8.6,3.9
							c-2.2,2.6-3.3,5.7-3.3,9.2v31.8h-11.9V41.5c0-4.7-0.1-9.8-0.4-15.3h10.5l0.6,8.4h0.3c1.4-2.6,3.5-4.7,6.2-6.5
							c3.2-2,6.9-3,10.8-3c5,0,9.2,1.6,12.5,4.8c4.1,4,6.2,9.9,6.2,17.7V79.8z"/>
						<path id="Shape_22_" class="st0" d="M756.4,35.2h-13.1v26c0,6.6,2.3,9.9,7,9.9c2.1,0,3.9-0.2,5.3-0.6l0.3,9
							c-2.4,0.9-5.5,1.3-9.3,1.3c-4.7,0-8.4-1.4-11-4.3c-2.7-2.9-4-7.7-4-14.4v-27h-7.8v-8.9h7.8v-9.8l11.7-3.5v13.3h13.1
							L756.4,35.2L756.4,35.2z"/>
						<path id="Shape_23_" class="st0" d="M819.6,79.8h-11.9V49.3c0-9.6-3.6-14.4-10.8-14.4c-5.5,0-9.3,2.8-11.4,8.3
							c-0.4,1.2-0.6,2.6-0.6,4.3v32.2H773V1.7h11.9v32.3h0.2c3.8-5.9,9.1-8.8,16.1-8.8c4.9,0,9,1.6,12.3,4.8c4,4,6.1,10,6.1,18V79.8
							z"/>
						<path id="Shape_24_" class="st0" d="M884.7,50.5c0,2.1-0.2,3.9-0.4,5.4h-35.8c0.2,5.3,1.9,9.3,5.2,12.1
							c3,2.5,6.9,3.7,11.7,3.7c5.3,0,10.1-0.8,14.5-2.5l1.9,8.3c-5.1,2.2-11.1,3.3-18,3.3c-8.3,0-14.9-2.4-19.6-7.3
							c-4.8-4.9-7.1-11.4-7.1-19.7c0-8.1,2.2-14.8,6.6-20.2c4.6-5.7,10.9-8.6,18.8-8.6c7.7,0,13.6,2.9,17.5,8.6
							C883.1,38.2,884.7,43.8,884.7,50.5z M873.3,47.4c0.1-3.5-0.7-6.6-2.3-9.1c-2.1-3.3-5.2-5-9.5-5c-3.9,0-7.1,1.6-9.5,4.8
							c-2,2.6-3.2,5.7-3.5,9.3H873.3z"/>
					</g>
				</g>
			</g>
		</g>
	</g>
</g>
</svg>
