<?xml version="1.0" encoding="UTF-8"?>
<svg width="12px" height="10px" viewBox="0 0 12 10" version="1.1" xmlns="http://www.w3.org/2000/svg" xmlns:xlink="http://www.w3.org/1999/xlink">
    <!-- Generator: Sketch 51.3 (57544) - http://www.bohemiancoding.com/sketch -->
    <title>Mask</title>
    <desc>Created with Sketch.</desc>
    <defs>
        <path d="M11.707,5.70725 L7.707,9.70725 C7.512,9.90225 7.256,10.00025 7,10.00025 C6.744,10.00025 6.488,9.90225 6.293,9.70725 C5.902,9.31625 5.902,8.68425 6.293,8.29325 L8.586,6.00025 L1,6.00025 C0.448,6.00025 0,5.55325 0,5.00025 C0,4.44725 0.448,4.00025 1,4.00025 L8.586,4.00025 L6.293,1.70725 C5.902,1.31625 5.902,0.68425 6.293,0.29325 C6.684,-0.09775 7.316,-0.09775 7.707,0.29325 L11.707,4.29325 C12.098,4.68425 12.098,5.31625 11.707,5.70725 Z" id="path-1"></path>
    </defs>
    <g id="Page-1" stroke="none" stroke-width="1" fill="none" fill-rule="evenodd">
        <g id="meeting_matchmaking" transform="translate(-393.000000, -405.000000)">
            <g id="header" transform="translate(170.000000, 111.000000)">
                <g id="Title-+-Text" transform="translate(0.000000, 92.000000)">
                    <g id="Buttons" transform="translate(0.000000, 193.000000)">
                        <g id="arrow_right" transform="translate(223.000000, 9.000000)">
                            <mask id="mask-2" fill="white">
                                <use xlink:href="#path-1"></use>
                            </mask>
                            <use id="Mask" fill="#58B570" fill-rule="nonzero" xlink:href="#path-1"></use>
                        </g>
                    </g>
                </g>
            </g>
        </g>
    </g>
</svg>