<?xml version="1.0" encoding="UTF-8"?>
<svg width="206px" height="36px" viewBox="0 0 206 36" version="1.1" xmlns="http://www.w3.org/2000/svg" xmlns:xlink="http://www.w3.org/1999/xlink">
    <!-- Generator: Sketch 52 (66869) - http://www.bohemiancoding.com/sketch -->
    <title>GDPR</title>
    <desc>Created with Sketch.</desc>
    <g id="Page-1" stroke="none" stroke-width="1" fill="none" fill-rule="evenodd">
        <g id="homepage_V2" transform="translate(-452.000000, -5565.000000)">
            <g id="Footer" transform="translate(90.000000, 5189.000000)">
                <g id="logos" transform="translate(362.000000, 357.000000)">
                    <g id="GDPR" transform="translate(0.000000, 19.000000)">
                        <rect id="Rectangle" fill="#1565C0" x="0" y="0" width="36.0258065" height="36" rx="18"></rect>
                        <path d="M57.9887076,16.5302734 L62.7172232,16.5302734 L62.7172232,22.9814453 C61.9437818,23.2333997 61.2011135,23.4121088 60.4891959,23.5175781 C59.7772782,23.6230474 59.008243,23.6757812 58.182067,23.6757812 C56.2367447,23.6757812 54.7367597,23.1001034 53.682067,21.9487305 C52.6273742,20.7973575 52.1000357,19.1728621 52.1000357,17.0751953 C52.1000357,15.0068256 52.6947563,13.3881894 53.8842154,12.2192383 C55.0736745,11.0502871 56.7113534,10.4658203 58.7973013,10.4658203 C60.1391049,10.4658203 61.4105766,10.7236302 62.6117545,11.2392578 L61.8734732,12.9882812 C60.8304992,12.5078101 59.7875409,12.2675781 58.744567,12.2675781 C57.3734663,12.2675781 56.2894928,12.6982379 55.4926138,13.5595703 C54.6957348,14.4209027 54.2973013,15.5986253 54.2973013,17.0927734 C54.2973013,18.6630938 54.6561845,19.8569295 55.3739615,20.6743164 C56.0917385,21.4917033 57.124443,21.9003906 58.472106,21.9003906 C59.1517969,21.9003906 59.8783521,21.8154305 60.6517935,21.6455078 L60.6517935,18.3320312 L57.9887076,18.3320312 L57.9887076,16.5302734 Z M76.2523795,16.9521484 C76.2523795,19.0732528 75.6635182,20.6948186 74.4857779,21.8168945 C73.3080376,22.9389705 71.6117655,23.5 69.3969107,23.5 L65.8021841,23.5 L65.8021841,10.6503906 L69.7748404,10.6503906 C71.8197725,10.6503906 73.4105769,11.2011664 74.5473013,12.3027344 C75.6840258,13.4043024 76.2523795,14.9540916 76.2523795,16.9521484 Z M74.0375357,17.0224609 C74.0375357,13.9462737 72.5990735,12.4082031 69.722106,12.4082031 L67.9027701,12.4082031 L67.9027701,21.7333984 L69.3969107,21.7333984 C72.4906762,21.7333984 74.0375357,20.1631016 74.0375357,17.0224609 Z M87.5199576,14.5351562 C87.5199576,15.8769598 87.0805088,16.9052699 86.2015982,17.6201172 C85.3226876,18.3349645 84.0717235,18.6923828 82.4486685,18.6923828 L81.112731,18.6923828 L81.112731,23.5 L79.0121451,23.5 L79.0121451,10.6503906 L82.7123404,10.6503906 C84.3178172,10.6503906 85.5204419,10.9785123 86.3202505,11.6347656 C87.1200592,12.2910189 87.5199576,13.2578061 87.5199576,14.5351562 Z M81.112731,16.9257812 L82.228942,16.9257812 C83.3070723,16.9257812 84.0980801,16.7382831 84.6019888,16.3632812 C85.1058976,15.9882794 85.3578482,15.4023477 85.3578482,14.6054688 C85.3578482,13.8671838 85.1322645,13.3164081 84.6810904,12.953125 C84.2299163,12.5898419 83.5267983,12.4082031 82.5717154,12.4082031 L81.112731,12.4082031 L81.112731,16.9257812 Z M92.1869498,16.6269531 L93.6459341,16.6269531 C94.6244547,16.6269531 95.3334319,16.4453143 95.7728873,16.0820312 C96.2123426,15.7187482 96.432067,15.1796911 96.432067,14.4648438 C96.432067,13.7382776 96.1947646,13.2167985 95.7201529,12.9003906 C95.2455411,12.5839828 94.5307045,12.4257812 93.5756216,12.4257812 L92.1869498,12.4257812 L92.1869498,16.6269531 Z M92.1869498,18.3671875 L92.1869498,23.5 L90.0863638,23.5 L90.0863638,10.6503906 L93.7162466,10.6503906 C95.3744581,10.6503906 96.6019848,10.9609344 97.3988638,11.5820312 C98.1957428,12.2031281 98.5941763,13.1406187 98.5941763,14.3945312 C98.5941763,15.9941486 97.7621534,17.1337857 96.0980826,17.8134766 L99.7279654,23.5 L97.3373404,23.5 L94.2611685,18.3671875 L92.1869498,18.3671875 Z M111.733825,12.2675781 C110.526787,12.2675781 109.577578,12.6953082 108.886169,13.5507812 C108.194759,14.4062543 107.849059,15.5869065 107.849059,17.0927734 C107.849059,18.6689532 108.181575,19.8613241 108.846618,20.6699219 C109.51166,21.4785197 110.474053,21.8828125 111.733825,21.8828125 C112.278749,21.8828125 112.806088,21.8286138 113.315856,21.7202148 C113.825624,21.6118159 114.355892,21.4726571 114.906676,21.3027344 L114.906676,23.1044922 C113.898859,23.4853535 112.756292,23.6757812 111.478942,23.6757812 C109.598073,23.6757812 108.153752,23.1059627 107.145934,21.9663086 C106.138117,20.8266545 105.634215,19.1962997 105.634215,17.0751953 C105.634215,15.7392511 105.878842,14.5703175 106.368102,13.5683594 C106.857362,12.5664012 107.564875,11.7988308 108.490661,11.265625 C109.416447,10.7324192 110.50335,10.4658203 111.751403,10.4658203 C113.063909,10.4658203 114.276788,10.7412082 115.390075,11.2919922 L114.634215,13.0410156 C114.200619,12.8359365 113.742128,12.6557625 113.258727,12.5004883 C112.775326,12.3452141 112.267031,12.2675781 111.733825,12.2675781 Z M126.077575,18.6220703 C126.077575,20.2099689 125.670352,21.4492143 124.855895,22.3398438 C124.041438,23.2304732 122.90766,23.6757812 121.454528,23.6757812 C120.54632,23.6757812 119.743594,23.4707052 119.046325,23.0605469 C118.349056,22.6503886 117.812928,22.0615273 117.437926,21.2939453 C117.062924,20.5263633 116.875426,19.6357473 116.875426,18.6220703 C116.875426,17.0458906 117.279719,15.8154341 118.088317,14.9306641 C118.896915,14.045894 120.036552,13.6035156 121.507262,13.6035156 C122.913519,13.6035156 124.026789,14.0561478 124.847106,14.9614258 C125.667423,15.8667037 126.077575,17.0869064 126.077575,18.6220703 Z M119.002379,18.6220703 C119.002379,20.8662222 119.831473,21.9882812 121.489684,21.9882812 C123.130317,21.9882812 123.950622,20.8662222 123.950622,18.6220703 C123.950622,16.4013561 123.124458,15.2910156 121.472106,15.2910156 C120.604914,15.2910156 119.976502,15.5781221 119.586852,16.1523438 C119.197202,16.7265654 119.002379,17.5497993 119.002379,18.6220703 Z M136.642028,23.5 L134.567809,23.5 L134.567809,17.5058594 C134.567809,16.761715 134.427186,16.2065448 134.145934,15.840332 C133.864683,15.4741193 133.425234,15.2910156 132.827575,15.2910156 C132.030696,15.2910156 131.446229,15.5502904 131.074157,16.0688477 C130.702085,16.5874049 130.516051,17.4501893 130.516051,18.6572266 L130.516051,23.5 L128.450622,23.5 L128.450622,13.7792969 L130.067809,13.7792969 L130.357848,15.0537109 L130.463317,15.0537109 C130.73285,14.590818 131.123959,14.2333997 131.636657,13.9814453 C132.149355,13.7294909 132.713314,13.6035156 133.328551,13.6035156 C134.822699,13.6035156 135.812924,14.1132762 136.299254,15.1328125 L136.439879,15.1328125 C136.72699,14.6523413 137.131283,14.2773451 137.65277,14.0078125 C138.174257,13.7382799 138.771907,13.6035156 139.445739,13.6035156 C140.605901,13.6035156 141.451107,13.8964814 141.981383,14.4824219 C142.511659,15.0683623 142.776794,15.9619081 142.776794,17.1630859 L142.776794,23.5 L140.711364,23.5 L140.711364,17.5058594 C140.711364,16.761715 140.569275,16.2065448 140.285094,15.840332 C140.000913,15.4741193 139.56,15.2910156 138.96234,15.2910156 C138.159602,15.2910156 137.572206,15.5415014 137.200133,16.0424805 C136.828061,16.5434595 136.642028,17.3124948 136.642028,18.3496094 L136.642028,23.5 Z M150.59027,23.6757812 C149.359795,23.6757812 148.404727,23.2334029 147.725036,22.3486328 L147.601989,22.3486328 C147.68402,23.1689494 147.725036,23.6669913 147.725036,23.8427734 L147.725036,27.8242188 L145.659606,27.8242188 L145.659606,13.7792969 L147.329528,13.7792969 C147.376403,13.9609384 147.473082,14.3945278 147.619567,15.0800781 L147.725036,15.0800781 C148.36957,14.0956982 149.336357,13.6035156 150.625426,13.6035156 C151.838323,13.6035156 152.783138,14.0429644 153.459899,14.921875 C154.13666,15.8007856 154.475036,17.0341717 154.475036,18.6220703 C154.475036,20.2099689 154.130801,21.4492143 153.442321,22.3398438 C152.753841,23.2304732 151.803167,23.6757812 150.59027,23.6757812 Z M150.089294,15.2910156 C149.268977,15.2910156 148.669862,15.5312476 148.29193,16.0117188 C147.913999,16.4921899 147.725036,17.2597604 147.725036,18.3144531 L147.725036,18.6220703 C147.725036,19.80567 147.912534,20.662595 148.287536,21.1928711 C148.662538,21.7231472 149.274836,21.9882812 150.12445,21.9882812 C150.839297,21.9882812 151.390073,21.6953154 151.776794,21.109375 C152.163514,20.5234346 152.356872,19.688482 152.356872,18.6044922 C152.356872,17.514643 152.164979,16.6899442 151.781188,16.1303711 C151.397397,15.570798 150.833438,15.2910156 150.089294,15.2910156 Z M158.939879,23.5 L156.87445,23.5 L156.87445,9.82421875 L158.939879,9.82421875 L158.939879,23.5 Z M163.958434,23.5 L161.893004,23.5 L161.893004,13.7792969 L163.958434,13.7792969 L163.958434,23.5 Z M161.769958,11.2041016 C161.769958,10.8349591 161.871031,10.5507822 162.07318,10.3515625 C162.27533,10.1523428 162.563901,10.0527344 162.938903,10.0527344 C163.302186,10.0527344 163.584898,10.1523428 163.787047,10.3515625 C163.989197,10.5507822 164.09027,10.8349591 164.09027,11.2041016 C164.09027,11.5556658 163.989197,11.8325185 163.787047,12.034668 C163.584898,12.2368174 163.302186,12.3378906 162.938903,12.3378906 C162.563901,12.3378906 162.27533,12.2368174 162.07318,12.034668 C161.871031,11.8325185 161.769958,11.5556658 161.769958,11.2041016 Z M172.99359,23.5 L172.580504,22.1464844 L172.510192,22.1464844 C172.04144,22.7382842 171.569765,23.1411122 171.095153,23.3549805 C170.620541,23.5688487 170.011172,23.6757812 169.267028,23.6757812 C168.311945,23.6757812 167.566347,23.4179713 167.030211,22.9023438 C166.494076,22.3867162 166.226012,21.6572313 166.226012,20.7138672 C166.226012,19.7119091 166.598079,18.9560572 167.342223,18.4462891 C168.086368,17.9365209 169.220145,17.6582034 170.74359,17.6113281 L172.422301,17.5585938 L172.422301,17.0400391 C172.422301,16.4189422 172.277283,15.9545914 171.987243,15.6469727 C171.697202,15.3393539 171.2475,15.1855469 170.638122,15.1855469 C170.140072,15.1855469 169.662538,15.2587883 169.205504,15.4052734 C168.748471,15.5517585 168.309022,15.7246084 167.887145,15.9238281 L167.219176,14.4472656 C167.746523,14.1718736 168.323665,13.9624031 168.950622,13.8188477 C169.577578,13.6752923 170.169369,13.6035156 170.726012,13.6035156 C171.962347,13.6035156 172.895443,13.8730442 173.525329,14.4121094 C174.155215,14.9511746 174.470153,15.7978458 174.470153,16.9521484 L174.470153,23.5 L172.99359,23.5 Z M169.917419,22.09375 C170.667422,22.09375 171.269467,21.8842794 171.723571,21.465332 C172.177675,21.0463846 172.404723,20.4589882 172.404723,19.703125 L172.404723,18.859375 L171.156676,18.9121094 C170.184015,18.9472658 169.476503,19.1098618 169.034118,19.3999023 C168.591733,19.6899429 168.370544,20.1337861 168.370544,20.7314453 C168.370544,21.1650412 168.499448,21.5004871 168.757262,21.737793 C169.015076,21.9750988 169.401791,22.09375 169.917419,22.09375 Z M185.904723,23.5 L183.830504,23.5 L183.830504,17.5234375 C183.830504,16.7734337 183.679627,16.213869 183.377868,15.8447266 C183.076108,15.4755841 182.597109,15.2910156 181.940856,15.2910156 C181.067805,15.2910156 180.429139,15.5488255 180.02484,16.0644531 C179.620541,16.5800807 179.418395,17.4443299 179.418395,18.6572266 L179.418395,23.5 L177.352965,23.5 L177.352965,13.7792969 L178.970153,13.7792969 L179.260192,15.0537109 L179.365661,15.0537109 C179.658631,14.590818 180.074642,14.2333997 180.613708,13.9814453 C181.152773,13.7294909 181.750423,13.6035156 182.406676,13.6035156 C184.738719,13.6035156 185.904723,14.7900272 185.904723,17.1630859 L185.904723,23.5 Z M192.698669,23.6757812 C191.227958,23.6757812 190.110293,23.2465863 189.345641,22.3881836 C188.580989,21.5297809 188.198669,20.2978596 188.198669,18.6923828 C188.198669,17.057609 188.598567,15.8007856 189.398376,14.921875 C190.198184,14.0429644 191.353934,13.6035156 192.865661,13.6035156 C193.891056,13.6035156 194.813899,13.7939434 195.634215,14.1748047 L195.010192,15.8359375 C194.137141,15.4960921 193.416445,15.3261719 192.848083,15.3261719 C191.166434,15.3261719 190.325622,16.4423717 190.325622,18.6748047 C190.325622,19.7646539 190.535092,20.5834934 190.95404,21.1313477 C191.372987,21.679202 191.98675,21.953125 192.795348,21.953125 C193.715275,21.953125 194.585383,21.7246117 195.4057,21.2675781 L195.4057,23.0693359 C195.036557,23.2861339 194.642518,23.4414058 194.223571,23.5351562 C193.804623,23.6289067 193.296328,23.6757812 192.698669,23.6757812 Z M201.935973,23.6757812 C200.424247,23.6757812 199.24213,23.2348677 198.389586,22.3530273 C197.537043,21.471187 197.110778,20.2568437 197.110778,18.7099609 C197.110778,17.1220624 197.506282,15.874028 198.297301,14.9658203 C199.088321,14.0576126 200.175224,13.6035156 201.558044,13.6035156 C202.841253,13.6035156 203.854915,13.9931602 204.599059,14.7724609 C205.343203,15.5517617 205.71527,16.6240166 205.71527,17.9892578 L205.71527,19.1054688 L199.237731,19.1054688 C199.267028,20.0488328 199.521908,20.7739232 200.002379,21.2807617 C200.482851,21.7876002 201.159602,22.0410156 202.032653,22.0410156 C202.606875,22.0410156 203.141537,21.9868169 203.636657,21.878418 C204.131776,21.770019 204.663509,21.589845 205.231872,21.3378906 L205.231872,23.0166016 C204.727963,23.2568371 204.218202,23.4267573 203.702575,23.5263672 C203.186947,23.6259771 202.598086,23.6757812 201.935973,23.6757812 Z M201.558044,15.1679688 C200.90179,15.1679688 200.375917,15.3759745 199.980407,15.7919922 C199.584897,16.2080099 199.34906,16.8144491 199.272887,17.6113281 L203.684997,17.6113281 C203.673278,16.8085897 203.47992,16.2006857 203.104919,15.7875977 C202.729917,15.3745097 202.214297,15.1679688 201.558044,15.1679688 Z" id="GDPR-Compliance" fill="#1565C0"></path>
                        <g id="GDPR_icon" transform="translate(7.004301, 7.000000)">
                            <path d="M14.6402359,16.0806452 L7.37696844,16.0806452 C6.94117239,16.0806452 6.65064169,15.7903226 6.65064169,15.3548387 L6.65064169,10.2741935 C6.65064169,9.83870968 6.94117239,9.5483871 7.37696844,9.5483871 L14.6402359,9.5483871 C15.0760319,9.5483871 15.3665626,9.83870968 15.3665626,10.2741935 L15.3665626,15.3548387 C15.3665626,15.7903226 15.0760319,16.0806452 14.6402359,16.0806452 Z" id="Path" fill="#FFFFFF"></path>
                            <path d="M13.9139091,13.1774194 L8.10329518,13.1774194 L8.10329518,7.37096774 C8.10329518,6.20967742 8.9022546,4.46774194 11.0086022,4.46774194 C13.1149497,4.46774194 13.9139091,6.20967742 13.9139091,7.37096774 L13.9139091,13.1774194 Z M9.55594866,11.7258065 L12.4612556,11.7258065 L12.4612556,7.37096774 C12.4612556,7.22580645 12.388623,5.91935484 11.0086022,5.91935484 C9.62858134,5.91935484 9.55594866,7.22580645 9.55594866,7.37096774 L9.55594866,11.7258065 Z" id="Shape" fill="#FFFFFF" fill-rule="nonzero"></path>
                            <polygon id="Path" fill="#FFEB3B" points="11.0086022 0.112903226 11.3717655 0.911290323 12.3159903 1.05645161 11.6622962 1.70967742 11.8075616 2.58064516 11.0086022 2.14516129 10.2096427 2.58064516 10.3549081 1.70967742 9.70121401 1.05645161 10.6454388 0.911290323"></polygon>
                            <polygon id="Path" fill="#FFEB3B" points="6.0695803 1.56451613 6.50537634 2.36290323 7.37696844 2.50806452 6.72327437 3.16129032 6.86853972 4.03225806 6.0695803 3.59677419 5.27062088 4.03225806 5.41588623 3.16129032 4.83482484 2.50806452 5.70641693 2.36290323"></polygon>
                            <polygon id="Path" fill="#FFEB3B" points="2.87374263 4.90322581 3.236906 5.7016129 4.10849809 5.84677419 3.5274367 6.5 3.67270205 7.37096774 2.87374263 6.93548387 2.07478321 7.37096774 2.22004856 6.5 1.56635449 5.84677419 2.43794658 5.7016129"></polygon>
                            <polygon id="Path" fill="#FFEB3B" points="19.1434617 14.6290323 19.5792577 15.4274194 20.4508498 15.5725806 19.7971557 16.2258065 19.9424211 17.0967742 19.1434617 16.6612903 18.3445023 17.0967742 18.4897676 16.2258065 17.9087062 15.5725806 18.7802983 15.4274194"></polygon>
                            <polygon id="Path" fill="#FFEB3B" points="15.947624 17.9677419 16.3107874 18.766129 17.1823795 18.9112903 16.6013181 19.5645161 16.7465834 20.4354839 15.947624 20 15.1486646 20.4354839 15.2939299 19.5645161 14.6402359 18.9112903 15.511828 18.766129"></polygon>
                            <polygon id="Path" fill="#FFEB3B" points="16.3107874 2.36290323 17.1823795 2.50806452 16.6013181 3.16129032 16.7465834 4.03225806 15.947624 3.59677419 15.1486646 4.03225806 15.2939299 3.16129032 14.6402359 2.50806452 15.511828 2.36290323 15.947624 1.56451613"></polygon>
                            <polygon id="Path" fill="#FFEB3B" points="19.5792577 5.7016129 20.4508498 5.84677419 19.7971557 6.5 19.9424211 7.37096774 19.1434617 6.93548387 18.3445023 7.37096774 18.4897676 6.5 17.9087062 5.84677419 18.7802983 5.7016129 19.1434617 4.90322581"></polygon>
                            <polygon id="Path" fill="#FFEB3B" points="3.236906 15.4274194 4.10849809 15.5725806 3.5274367 16.2258065 3.67270205 17.0967742 2.87374263 16.6612903 2.07478321 17.0967742 2.22004856 16.2258065 1.56635449 15.5725806 2.43794658 15.4274194 2.87374263 14.6290323"></polygon>
                            <polygon id="Path" fill="#FFEB3B" points="6.50537634 18.766129 7.37696844 18.9112903 6.72327437 19.5645161 6.86853972 20.4354839 6.0695803 20 5.27062088 20.4354839 5.41588623 19.5645161 4.83482484 18.9112903 5.70641693 18.766129 6.0695803 17.9677419"></polygon>
                            <polygon id="Path" fill="#FFEB3B" points="20.5961152 9.76612903 21.0319112 10.5645161 21.9035033 10.7096774 21.2498092 11.3629032 21.3950746 12.233871 20.5961152 11.7983871 19.7971557 12.233871 19.9424211 11.3629032 19.3613597 10.7096774 20.2329518 10.5645161"></polygon>
                            <polygon id="Path" fill="#FFEB3B" points="1.42108914 9.76612903 1.78425251 10.5645161 2.65584461 10.7096774 2.07478321 11.3629032 2.22004856 12.233871 1.42108914 11.7983871 0.622129726 12.233871 0.767395075 11.3629032 0.113701006 10.7096774 0.985293097 10.5645161"></polygon>
                            <polygon id="Path" fill="#FFEB3B" points="11.0086022 19.4193548 11.3717655 20.2177419 12.3159903 20.3629032 11.6622962 21.016129 11.8075616 21.8870968 11.0086022 21.4516129 10.2096427 21.8870968 10.3549081 21.016129 9.70121401 20.3629032 10.6454388 20.2177419"></polygon>
                            <path d="M11.0086022,11 C10.5728061,11 10.2822754,11.2903226 10.2822754,11.7258065 L10.2822754,13.9032258 C10.2822754,14.3387097 10.5728061,14.6290323 11.0086022,14.6290323 C11.4443982,14.6290323 11.7349289,14.3387097 11.7349289,13.9032258 L11.7349289,11.7258065 C11.7349289,11.2903226 11.4443982,11 11.0086022,11 Z" id="Path" fill="#1565C0"></path>
                        </g>
                    </g>
                </g>
            </g>
        </g>
    </g>
</svg>