<?xml version="1.0" encoding="UTF-8" standalone="no"?>
<svg
   xmlns:dc="http://purl.org/dc/elements/1.1/"
   xmlns:cc="http://creativecommons.org/ns#"
   xmlns:rdf="http://www.w3.org/1999/02/22-rdf-syntax-ns#"
   xmlns:svg="http://www.w3.org/2000/svg"
   xmlns="http://www.w3.org/2000/svg"
   viewBox="0 0 264.56668 151.18134"
   height="151.18134"
   width="264.56668"
   xml:space="preserve"
   id="svg2"
   version="1.1"><metadata
     id="metadata8"><rdf:RDF><cc:Work
         rdf:about=""><dc:format>image/svg+xml</dc:format><dc:type
           rdf:resource="http://purl.org/dc/dcmitype/StillImage" /></cc:Work></rdf:RDF></metadata><defs
     id="defs6"><clipPath
       id="clipPath22"
       clipPathUnits="userSpaceOnUse"><path
         id="path20"
         d="M 0,113.386 H 198.425 V 0 H 0 Z" /></clipPath><clipPath
       id="clipPath110"
       clipPathUnits="userSpaceOnUse"><path
         id="path108"
         d="m 126.295,92.969 4.183,-4.182 v 4.182 z M 101.747,33.994 h 14.073 v 58.975 h -14.073 z m 14.073,0 h 14.658 v 14.657 z" /></clipPath><linearGradient
       id="linearGradient124"
       spreadMethod="pad"
       gradientTransform="matrix(-30.935976,0,0,-30.935976,130.54468,63.481506)"
       gradientUnits="userSpaceOnUse"
       y2="0"
       x2="1"
       y1="0"
       x1="0"><stop
         id="stop116"
         offset="0"
         style="stop-opacity:1;stop-color:#f2531e" /><stop
         id="stop118"
         offset="0.26605"
         style="stop-opacity:1;stop-color:#f2531e" /><stop
         id="stop120"
         offset="0.82171491"
         style="stop-opacity:1;stop-color:#ed157b" /><stop
         id="stop122"
         offset="1"
         style="stop-opacity:1;stop-color:#ed157b" /></linearGradient><clipPath
       id="clipPath134"
       clipPathUnits="userSpaceOnUse"><path
         id="path132"
         d="M 0,113.386 H 198.425 V 0 H 0 Z" /></clipPath><clipPath
       id="clipPath154"
       clipPathUnits="userSpaceOnUse"><path
         id="path152"
         d="m 115.82,33.994 34.725,34.725 -20.067,20.068 -4.183,4.182 -10.475,10.475 z" /></clipPath><linearGradient
       id="linearGradient168"
       spreadMethod="pad"
       gradientTransform="matrix(-44.572659,0,0,-44.572659,149.83685,68.718994)"
       gradientUnits="userSpaceOnUse"
       y2="0"
       x2="1"
       y1="0"
       x1="0"><stop
         id="stop160"
         offset="0"
         style="stop-opacity:1;stop-color:#f2531e" /><stop
         id="stop162"
         offset="0.26605"
         style="stop-opacity:1;stop-color:#f2531e" /><stop
         id="stop164"
         offset="0.82171491"
         style="stop-opacity:1;stop-color:#ed157b" /><stop
         id="stop166"
         offset="1"
         style="stop-opacity:1;stop-color:#ed157b" /></linearGradient><clipPath
       id="clipPath178"
       clipPathUnits="userSpaceOnUse"><path
         id="path176"
         d="m 26.111,69.519 c 0,-19.488 15.798,-35.286 35.283,-35.286 v 0 c 19.487,0 35.285,15.798 35.285,35.286 v 0 z" /></clipPath><linearGradient
       id="linearGradient192"
       spreadMethod="pad"
       gradientTransform="matrix(45.003082,9.074213,-9.074213,45.003082,51.34642,49.849831)"
       gradientUnits="userSpaceOnUse"
       y2="0"
       x2="1"
       y1="0"
       x1="0"><stop
         id="stop184"
         offset="0"
         style="stop-opacity:1;stop-color:#ed157b" /><stop
         id="stop186"
         offset="0.17828509"
         style="stop-opacity:1;stop-color:#ed157b" /><stop
         id="stop188"
         offset="0.73395"
         style="stop-opacity:1;stop-color:#f2531e" /><stop
         id="stop190"
         offset="1"
         style="stop-opacity:1;stop-color:#f2531e" /></linearGradient><clipPath
       id="clipPath202"
       clipPathUnits="userSpaceOnUse"><path
         id="path200"
         d="m 26.111,69.519 c 0,-19.488 15.798,-35.286 35.283,-35.286 v 0 70.569 c -19.485,0 -35.283,-15.796 -35.283,-35.283" /></clipPath><linearGradient
       id="linearGradient216"
       spreadMethod="pad"
       gradientTransform="matrix(53.666374,0,0,53.666374,27.708252,69.51799)"
       gradientUnits="userSpaceOnUse"
       y2="0"
       x2="1"
       y1="0"
       x1="0"><stop
         id="stop208"
         offset="0"
         style="stop-opacity:1;stop-color:#ed157b" /><stop
         id="stop210"
         offset="0.17828509"
         style="stop-opacity:1;stop-color:#ed157b" /><stop
         id="stop212"
         offset="0.73395"
         style="stop-opacity:1;stop-color:#f2531e" /><stop
         id="stop214"
         offset="1"
         style="stop-opacity:1;stop-color:#f2531e" /></linearGradient><clipPath
       id="clipPath226"
       clipPathUnits="userSpaceOnUse"><path
         id="path224"
         d="M 61.394,69.519 96.678,34.233 v 35.286 z" /></clipPath><linearGradient
       id="linearGradient240"
       spreadMethod="pad"
       gradientTransform="matrix(17.64246,17.64246,-17.64246,17.64246,79.035782,51.875782)"
       gradientUnits="userSpaceOnUse"
       y2="0"
       x2="1"
       y1="0"
       x1="0"><stop
         id="stop232"
         offset="0"
         style="stop-opacity:1;stop-color:#ed157b" /><stop
         id="stop234"
         offset="0.17828509"
         style="stop-opacity:1;stop-color:#ed157b" /><stop
         id="stop236"
         offset="0.73395"
         style="stop-opacity:1;stop-color:#f2531e" /><stop
         id="stop238"
         offset="1"
         style="stop-opacity:1;stop-color:#f2531e" /></linearGradient><clipPath
       id="clipPath250"
       clipPathUnits="userSpaceOnUse"><path
         id="path248"
         d="M 101.747,104.561 V 33.995 l 70.116,70.116 v 0.45 z" /></clipPath><linearGradient
       id="linearGradient264"
       spreadMethod="pad"
       gradientTransform="matrix(70.5672,0,0,70.5672,101.74699,69.278488)"
       gradientUnits="userSpaceOnUse"
       y2="0"
       x2="1"
       y1="0"
       x1="0"><stop
         id="stop256"
         offset="0"
         style="stop-opacity:1;stop-color:#ed157b" /><stop
         id="stop258"
         offset="0.17828509"
         style="stop-opacity:1;stop-color:#ed157b" /><stop
         id="stop260"
         offset="0.73395"
         style="stop-opacity:1;stop-color:#f2531e" /><stop
         id="stop262"
         offset="1"
         style="stop-opacity:1;stop-color:#f2531e" /></linearGradient><clipPath
       id="clipPath274"
       clipPathUnits="userSpaceOnUse"><path
         id="path272"
         d="M 0,113.386 H 198.425 V 0 H 0 Z" /></clipPath></defs><g
     transform="matrix(1.3333333,0,0,-1.3333333,0,151.18133)"
     id="g10"><g
       transform="translate(115.8198,103.4443)"
       id="g12"><path
         id="path14"
         style="fill:#ffffff;fill-opacity:1;fill-rule:nonzero;stroke:none"
         d="M 0,0 34.725,-34.726 0,-69.45 Z" /></g><g
       id="g16"><g
         clip-path="url(#clipPath22)"
         id="g18"><g
           transform="translate(37.0825,12.4189)"
           id="g24"><path
             id="path26"
             style="fill:#231f20;fill-opacity:1;fill-rule:nonzero;stroke:none"
             d="m 0,0 h 1.649 v -1.242 c -0.286,-0.311 -1.285,-1.27 -2.772,-1.27 -2.05,0 -3.538,1.616 -3.538,3.841 0,2.191 1.554,3.842 3.617,3.842 1.589,0 2.611,-0.836 2.621,-0.844 L 1.889,4.068 2.708,5.105 2.438,5.352 C 2.388,5.4 1.167,6.496 -1.044,6.496 c -2.803,0 -4.996,-2.27 -4.996,-5.167 0,-2.898 2.159,-5.165 4.917,-5.165 1.262,0 2.195,0.471 2.772,0.886 v -0.728 h 1.352 v 4.99 L 0,1.312 Z" /></g><path
           id="path28"
           style="fill:#231f20;fill-opacity:1;fill-rule:nonzero;stroke:none"
           d="m 41.909,8.741 h 1.353 v 10.016 h -1.353 z" /><g
           transform="translate(44.269,17.4434)"
           id="g30"><path
             id="path32"
             style="fill:#231f20;fill-opacity:1;fill-rule:nonzero;stroke:none"
             d="M 0,0 H 3.443 V -8.703 H 4.795 V 0 H 8.238 V 1.314 H 0 Z" /></g><g
           transform="translate(54.854,13.1318)"
           id="g34"><path
             id="path36"
             style="fill:#231f20;fill-opacity:1;fill-rule:nonzero;stroke:none"
             d="M 0,0 H 3.679 V 1.313 H 0 V 4.312 H 4.483 V 5.626 H -1.353 V -4.391 h 6.087 v 1.313 l -4.734,0 z" /></g><g
           transform="translate(67.7983,18.7568)"
           id="g38"><path
             id="path40"
             style="fill:#231f20;fill-opacity:1;fill-rule:nonzero;stroke:none"
             d="M 0,0 H -1.61 L -3.505,-3.128 C -3.593,-3.271 -3.684,-3.43 -3.766,-3.581 L -5.914,0 h -1.607 l 2.89,-4.746 -3.221,-5.27 h 1.595 l 2.226,3.684 c 0.085,0.143 0.17,0.293 0.247,0.432 l 2.504,-4.116 h 1.596 l -3.235,5.27 z" /></g><g
           transform="translate(71.9395,8.7412)"
           id="g42"><path
             id="path44"
             style="fill:#231f20;fill-opacity:1;fill-rule:nonzero;stroke:none"
             d="M 0,0 H 1.352 V 4.325 H 4.885 V 5.639 H 1.352 V 8.703 H 5.44 v 1.313 H 0 Z" /></g><g
           transform="translate(85.0874,12.3516)"
           id="g46"><path
             id="path48"
             style="fill:#231f20;fill-opacity:1;fill-rule:nonzero;stroke:none"
             d="m 0,0 c 0,-1.531 -0.934,-2.444 -2.495,-2.444 -1.554,0 -2.482,0.903 -2.482,2.416 V 6.405 H -6.33 v -6.461 c 0,-2.221 1.547,-3.714 3.848,-3.714 2.294,0 3.835,1.493 3.835,3.714 V 6.405 L 0,6.405 Z" /></g><g
           transform="translate(87.3022,17.4434)"
           id="g50"><path
             id="path52"
             style="fill:#231f20;fill-opacity:1;fill-rule:nonzero;stroke:none"
             d="M 0,0 H 3.442 V -8.703 H 4.796 V 0 H 8.237 V 1.314 H 0 Z" /></g><g
           transform="translate(102.7329,12.3516)"
           id="g54"><path
             id="path56"
             style="fill:#231f20;fill-opacity:1;fill-rule:nonzero;stroke:none"
             d="m 0,0 c 0,-1.531 -0.934,-2.444 -2.495,-2.444 -1.556,0 -2.482,0.903 -2.482,2.416 v 6.433 h -1.352 v -6.461 c 0,-2.221 1.546,-3.714 3.847,-3.714 2.294,0 3.835,1.493 3.835,3.714 V 6.405 L 0,6.405 Z" /></g><g
           transform="translate(112.71,15.8711)"
           id="g58"><path
             id="path60"
             style="fill:#231f20;fill-opacity:1;fill-rule:nonzero;stroke:none"
             d="m 0,0 c 0,1.157 -0.546,2.094 -1.495,2.567 -0.462,0.231 -0.976,0.32 -1.838,0.32 H -6.428 V -7.131 h 1.352 v 4.089 h 2.024 l 2.187,-4.089 h 1.567 l -2.355,4.363 C -0.648,-2.319 0,-1.269 0,0 m -5.076,-1.73 v 3.302 h 1.716 c 0.738,0 0.957,-0.071 1.133,-0.15 C -1.688,1.18 -1.379,0.66 -1.379,0 c 0,-1.067 -0.606,-1.73 -1.586,-1.73 z" /></g><g
           transform="translate(116.0859,13.1318)"
           id="g62"><path
             id="path64"
             style="fill:#231f20;fill-opacity:1;fill-rule:nonzero;stroke:none"
             d="M 0,0 H 3.68 V 1.313 H 0 V 4.312 H 4.483 V 5.626 H -1.352 V -4.391 h 6.087 v 1.313 l -4.735,0 z" /></g><g
           transform="translate(128.9722,14.4531)"
           id="g66"><path
             id="path68"
             style="fill:#231f20;fill-opacity:1;fill-rule:nonzero;stroke:none"
             d="m 0,0 c -1.187,0.502 -1.914,0.852 -1.914,1.695 0,0.702 0.673,1.428 1.798,1.428 1.04,0 1.733,-0.672 1.741,-0.679 L 1.971,2.105 2.719,3.264 2.498,3.486 c -0.039,0.041 -0.977,0.977 -2.629,0.977 -1.979,0 -3.161,-1.413 -3.161,-2.781 0,-1.738 1.426,-2.35 2.683,-2.891 1.268,-0.544 2.037,-0.942 2.037,-1.895 0,-0.841 -0.683,-1.428 -1.662,-1.428 -1.328,0 -2.169,0.893 -2.178,0.901 l -0.296,0.321 -0.901,-1.021 0.229,-0.261 c 0.045,-0.051 1.142,-1.278 3.119,-1.278 1.778,0 3.068,1.173 3.068,2.791 C 2.807,-1.184 1.25,-0.527 0,0" /></g><g
           transform="translate(140.6162,18.7568)"
           id="g70"><path
             id="path72"
             style="fill:#231f20;fill-opacity:1;fill-rule:nonzero;stroke:none"
             d="m 0,0 h -8.237 v -1.313 h 3.444 v -8.703 h 1.351 v 8.703 H 0 Z" /></g><g
           transform="translate(143.4863,18.7568)"
           id="g74"><path
             id="path76"
             style="fill:#231f20;fill-opacity:1;fill-rule:nonzero;stroke:none"
             d="m 0,0 -3.751,-10.016 h 1.447 l 1.186,3.191 h 3.372 l 1.201,-3.191 H 4.901 L 1.154,0 Z m -0.623,-5.513 1.198,3.184 1.189,-3.184 z" /></g><g
           transform="translate(155.7837,15.8711)"
           id="g78"><path
             id="path80"
             style="fill:#231f20;fill-opacity:1;fill-rule:nonzero;stroke:none"
             d="m 0,0 c 0,1.157 -0.546,2.094 -1.497,2.567 -0.459,0.231 -0.974,0.32 -1.838,0.32 H -6.431 V -7.131 h 1.355 v 4.089 h 2.021 l 2.19,-4.089 h 1.566 l -2.356,4.366 C -0.648,-2.319 0,-1.269 0,0 m -5.076,-1.73 v 3.302 h 1.716 c 0.74,0 0.954,-0.069 1.131,-0.15 0.538,-0.242 0.85,-0.762 0.85,-1.422 0,-1.067 -0.606,-1.73 -1.586,-1.73 z" /></g><g
           transform="translate(160.5986,14.4531)"
           id="g82"><path
             id="path84"
             style="fill:#231f20;fill-opacity:1;fill-rule:nonzero;stroke:none"
             d="m 0,0 c -1.187,0.502 -1.913,0.852 -1.913,1.695 0,0.702 0.672,1.428 1.795,1.428 1.039,0 1.734,-0.672 1.741,-0.679 L 1.968,2.105 2.716,3.264 2.495,3.486 c -0.037,0.041 -0.977,0.977 -2.626,0.977 -1.979,0 -3.161,-1.413 -3.161,-2.781 0,-1.738 1.426,-2.35 2.683,-2.891 1.268,-0.544 2.037,-0.942 2.037,-1.895 0,-0.841 -0.685,-1.428 -1.665,-1.428 -1.327,0 -2.168,0.893 -2.178,0.901 l -0.297,0.321 -0.893,-1.021 0.225,-0.261 c 0.045,-0.051 1.142,-1.278 3.116,-1.278 1.781,0 3.071,1.173 3.071,2.791 C 2.807,-1.184 1.25,-0.527 0,0" /></g><g
           transform="translate(136.5752,37.9453)"
           id="g86"><path
             id="path88"
             style="fill:#f2551f;fill-opacity:1;fill-rule:nonzero;stroke:none"
             d="m 0,0 h 1.425 c 1.261,0 2.07,-0.734 2.07,-1.996 0,-1.262 -0.809,-2.014 -2.07,-2.014 H 0 Z m 1.386,-3.168 c 0.678,0 1.093,0.404 1.093,1.172 0,0.763 -0.432,1.155 -1.093,1.155 H 0.981 v -2.327 z" /></g><g
           transform="translate(140.7021,37.9453)"
           id="g90"><path
             id="path92"
             style="fill:#f2551f;fill-opacity:1;fill-rule:nonzero;stroke:none"
             d="m 0,0 h 0.983 v -2.535 c 0,-0.42 0.274,-0.645 0.695,-0.645 0.421,0 0.695,0.225 0.695,0.645 V 0 h 0.981 v -2.535 c 0,-0.903 -0.661,-1.542 -1.67,-1.542 C 0.662,-4.077 0,-3.438 0,-2.535 Z" /></g><g
           transform="translate(144.8306,37.9453)"
           id="g94"><path
             id="path96"
             style="fill:#f2551f;fill-opacity:1;fill-rule:nonzero;stroke:none"
             d="m 0,0 h 1.474 c 0.803,0 1.363,-0.358 1.363,-1.048 0,-0.337 -0.162,-0.679 -0.465,-0.853 V -1.912 C 2.831,-2.052 2.999,-2.461 2.999,-2.815 2.999,-3.69 2.271,-4.01 1.474,-4.01 H 0 Z m 1.485,-1.553 c 0.247,0 0.354,0.179 0.354,0.37 0,0.185 -0.107,0.342 -0.371,0.342 H 0.981 V -1.553 Z M 1.57,-3.168 c 0.286,0 0.425,0.196 0.425,0.42 0,0.225 -0.133,0.41 -0.419,0.41 H 0.981 v -0.83 z" /></g><g
           transform="translate(150.6455,34.7773)"
           id="g98"><path
             id="path100"
             style="fill:#f2551f;fill-opacity:1;fill-rule:nonzero;stroke:none"
             d="m 0,0 h -1.251 l -0.241,-0.842 h -1.009 l 1.362,4.01 h 1.033 l 1.363,-4.01 h -1.01 z m -0.628,2.254 c 0,0 -0.09,-0.437 -0.162,-0.691 L -1.021,0.785 h 0.791 l -0.224,0.778 c -0.073,0.254 -0.164,0.691 -0.164,0.691 z" /></g><path
           id="path102"
           style="fill:#f2551f;fill-opacity:1;fill-rule:nonzero;stroke:none"
           d="m 152.463,33.935 h 0.981 v 4.011 h -0.981 z" /></g></g><g
       id="g104"><g
         clip-path="url(#clipPath110)"
         id="g106"><g
           id="g112"><g
             id="g114"><path
               id="path126"
               style="fill:url(#linearGradient124);stroke:none"
               d="m 126.295,92.969 4.183,-4.182 v 4.182 z M 101.747,33.994 h 14.073 v 58.975 h -14.073 z m 14.073,0 h 14.658 v 14.657 z" /></g></g></g></g><g
       id="g128"><g
         clip-path="url(#clipPath134)"
         id="g130"><g
           transform="translate(61.3945,69.5186)"
           id="g136"><path
             id="path138"
             style="fill:#ffffff;fill-opacity:1;fill-rule:nonzero;stroke:none"
             d="M 0,0 H 35.284 V -35.285 Z" /></g><g
           transform="translate(61.3945,69.5186)"
           id="g140"><path
             id="path142"
             style="fill:#ffffff;fill-opacity:1;fill-rule:nonzero;stroke:none"
             d="M 0,0 H 35.284 V -35.285 Z" /></g><g
           transform="translate(115.8198,103.4443)"
           id="g144"><path
             id="path146"
             style="fill:#ffffff;fill-opacity:1;fill-rule:nonzero;stroke:none"
             d="M 0,0 34.725,-34.726 0,-69.45 Z" /></g></g></g><g
       id="g148"><g
         clip-path="url(#clipPath154)"
         id="g150"><g
           id="g156"><g
             id="g158"><path
               id="path170"
               style="fill:url(#linearGradient168);stroke:none"
               d="m 115.82,33.994 34.725,34.725 -20.067,20.068 -4.183,4.182 -10.475,10.475 z" /></g></g></g></g><g
       id="g172"><g
         clip-path="url(#clipPath178)"
         id="g174"><g
           id="g180"><g
             id="g182"><path
               id="path194"
               style="fill:url(#linearGradient192);stroke:none"
               d="m 26.111,69.519 c 0,-19.488 15.798,-35.286 35.283,-35.286 v 0 c 19.487,0 35.285,15.798 35.285,35.286 v 0 z" /></g></g></g></g><g
       id="g196"><g
         clip-path="url(#clipPath202)"
         id="g198"><g
           id="g204"><g
             id="g206"><path
               id="path218"
               style="fill:url(#linearGradient216);stroke:none"
               d="m 26.111,69.519 c 0,-19.488 15.798,-35.286 35.283,-35.286 v 0 70.569 c -19.485,0 -35.283,-15.796 -35.283,-35.283" /></g></g></g></g><g
       id="g220"><g
         clip-path="url(#clipPath226)"
         id="g222"><g
           id="g228"><g
             id="g230"><path
               id="path242"
               style="fill:url(#linearGradient240);stroke:none"
               d="M 61.394,69.519 96.678,34.233 v 35.286 z" /></g></g></g></g><g
       id="g244"><g
         clip-path="url(#clipPath250)"
         id="g246"><g
           id="g252"><g
             id="g254"><path
               id="path266"
               style="fill:url(#linearGradient264);stroke:none"
               d="M 101.747,104.561 V 33.995 l 70.116,70.116 v 0.45 z" /></g></g></g></g><g
       id="g268"><g
         clip-path="url(#clipPath274)"
         id="g270"><g
           transform="translate(147.3906,90.3643)"
           id="g276"><path
             id="path278"
             style="fill:#ffffff;fill-opacity:1;fill-rule:nonzero;stroke:none"
             d="M 0,0 -3.851,-2.025 -3.116,2.264 -6.231,5.3 -1.925,5.926 0,9.826 1.926,5.926 6.231,5.3 3.115,2.264 3.851,-2.025 Z" /></g><g
           transform="translate(138.8223,81.7383)"
           id="g280"><path
             id="path282"
             style="fill:#ffffff;fill-opacity:1;fill-rule:nonzero;stroke:none"
             d="M 0,0 -2.521,-1.324 -2.04,1.481 -4.078,3.47 -1.261,3.879 0,6.432 1.26,3.879 4.078,3.47 2.038,1.481 2.521,-1.324 Z" /></g><g
           transform="translate(132.0293,74.6826)"
           id="g284"><path
             id="path286"
             style="fill:#ffffff;fill-opacity:1;fill-rule:nonzero;stroke:none"
             d="M 0,0 -1.699,-0.893 -1.375,0.998 -2.748,2.337 -0.85,2.613 0,4.333 0.849,2.613 2.746,2.337 1.373,0.998 1.698,-0.893 Z" /></g></g></g></g></svg>