<?xml version="1.0" encoding="UTF-8" standalone="no"?>
<svg
   xmlns:dc="http://purl.org/dc/elements/1.1/"
   xmlns:cc="http://creativecommons.org/ns#"
   xmlns:rdf="http://www.w3.org/1999/02/22-rdf-syntax-ns#"
   xmlns:svg="http://www.w3.org/2000/svg"
   xmlns="http://www.w3.org/2000/svg"
   viewBox="0 0 340.15732 151.18134"
   height="151.18134"
   width="340.15732"
   xml:space="preserve"
   id="svg2"
   version="1.1"><metadata
     id="metadata8"><rdf:RDF><cc:Work
         rdf:about=""><dc:format>image/svg+xml</dc:format><dc:type
           rdf:resource="http://purl.org/dc/dcmitype/StillImage" /></cc:Work></rdf:RDF></metadata><defs
     id="defs6"><clipPath
       id="clipPath26"
       clipPathUnits="userSpaceOnUse"><path
         id="path24"
         d="M 0,113.386 H 255.118 V 0 H 0 Z" /></clipPath><clipPath
       id="clipPath86"
       clipPathUnits="userSpaceOnUse"><path
         id="path84"
         d="m 12.156,56.693 c 0,-21.391 12.457,-34.533 29.253,-36.925 v 0 h 10.939 c 5.641,0.904 10.287,3.39 14.13,7.795 v 0 l 0.415,-6.738 c 0,-0.417 0.519,-0.727 1.038,-0.727 v 0 h 10.366 c 0.518,0 0.933,0.416 0.933,0.829 v 0 40.639 c 0,0.414 -0.415,0.83 -0.933,0.83 v 0 H 53.625 c -0.623,0 -1.038,-0.416 -1.038,-0.83 v 0 -10.99 c 0,-0.414 0.415,-0.727 1.038,-0.727 v 0 H 65.341 V 40.416 C 61.089,35.751 55.283,32.85 48.647,32.85 v 0 c -12.439,0 -22.6,7.154 -22.6,23.843 v 0 c 0,15.03 10.161,23.845 22.6,23.845 v 0 c 6.221,0 11.921,-2.593 16.068,-6.738 v 0 c 0.314,-0.311 0.933,-0.311 1.35,0 v 0 l 8.289,8.289 c 0.417,0.313 0.417,0.939 0,1.246 v 0 C 67.931,89.974 58.806,94.014 48.647,94.014 v 0 c -20.112,0 -36.491,-15.758 -36.491,-37.321" /></clipPath></defs><g
     transform="matrix(1.3333333,0,0,-1.3333333,0,151.18133)"
     id="g10"><g
       transform="translate(93.2112,43.7578)"
       id="g12"><path
         id="path14"
         style="fill:#231f20;fill-opacity:1;fill-rule:nonzero;stroke:none"
         d="m 0,0 h -1.12 v 16.124 h -4.549 v 1.022 H 4.55 V 16.124 H 0 Z" /></g><g
       transform="translate(100.9095,59.8818)"
       id="g16"><path
         id="path18"
         style="fill:#231f20;fill-opacity:1;fill-rule:nonzero;stroke:none"
         d="M 0,0 V -6.231 H 7.092 V -7.255 H 0 v -7.847 h 7.28 v -1.022 h -8.4 V 1.022 h 8.4 V 0 Z" /></g><g
       id="g20"><g
         clip-path="url(#clipPath26)"
         id="g22"><g
           transform="translate(125.5921,57.4014)"
           id="g28"><path
             id="path30"
             style="fill:#231f20;fill-opacity:1;fill-rule:nonzero;stroke:none"
             d="m 0,0 c -0.343,0.409 -0.739,0.776 -1.191,1.104 -0.451,0.325 -0.935,0.61 -1.456,0.852 -0.522,0.241 -1.059,0.428 -1.61,0.558 -0.553,0.128 -1.1,0.194 -1.646,0.194 -1.104,0 -2.138,-0.213 -3.105,-0.636 -0.96,-0.426 -1.81,-1.003 -2.538,-1.726 -0.734,-0.733 -1.308,-1.573 -1.729,-2.529 -0.42,-0.953 -0.63,-1.954 -0.63,-3.002 0,-0.999 0.206,-1.956 0.619,-2.866 0.411,-0.909 0.993,-1.719 1.74,-2.432 0.744,-0.682 1.61,-1.247 2.598,-1.694 0.989,-0.447 2.002,-0.672 3.045,-0.672 0.513,0 1.047,0.067 1.599,0.194 0.551,0.13 1.091,0.306 1.622,0.534 0.528,0.227 1.025,0.5 1.491,0.819 0.469,0.321 0.866,0.675 1.191,1.069 v -1.5 c -0.839,-0.683 -1.755,-1.209 -2.742,-1.58 -0.987,-0.372 -2.026,-0.558 -3.113,-0.558 -1.23,0 -2.397,0.232 -3.502,0.692 -1.104,0.463 -2.074,1.094 -2.915,1.888 -0.841,0.797 -1.508,1.729 -2.005,2.799 -0.499,1.067 -0.748,2.201 -0.748,3.4 0,1.209 0.246,2.357 0.735,3.435 0.491,1.074 1.157,2.01 1.997,2.805 0.838,0.798 1.813,1.425 2.926,1.888 1.113,0.464 2.288,0.694 3.534,0.694 1.074,0 2.117,-0.193 3.127,-0.58 C -1.695,2.764 -0.793,2.213 0,1.501 Z" /></g><g
           transform="translate(140.6629,53.6289)"
           id="g32"><path
             id="path34"
             style="fill:#231f20;fill-opacity:1;fill-rule:nonzero;stroke:none"
             d="M 0,0 V 7.275 H 1.119 V -9.871 H 0 v 8.846 h -10.687 v -8.846 h -1.119 V 7.275 h 1.119 V 0 Z" /></g><g
           transform="translate(161.4485,43.1895)"
           id="g36"><path
             id="path38"
             style="fill:#231f20;fill-opacity:1;fill-rule:nonzero;stroke:none"
             d="M 0,0 -14.769,15.305 V 0.568 h -1.12 V 17.941 L -1.119,2.753 V 17.715 H 0 Z" /></g><g
           transform="translate(173.3001,61.1318)"
           id="g40"><path
             id="path42"
             style="fill:#231f20;fill-opacity:1;fill-rule:nonzero;stroke:none"
             d="m 0,0 c 1.228,0 2.398,-0.23 3.512,-0.693 1.112,-0.463 2.08,-1.097 2.902,-1.899 0.825,-0.804 1.482,-1.738 1.973,-2.81 0.489,-1.069 0.734,-2.202 0.734,-3.398 0,-1.214 -0.245,-2.351 -0.734,-3.41 -0.491,-1.062 -1.148,-1.996 -1.973,-2.799 -0.822,-0.805 -1.79,-1.437 -2.902,-1.9 -1.114,-0.46 -2.284,-0.693 -3.512,-0.693 -1.245,0 -2.418,0.233 -3.524,0.693 -1.104,0.463 -2.068,1.095 -2.892,1.9 -0.826,0.803 -1.482,1.737 -1.971,2.799 -0.492,1.059 -0.734,2.196 -0.734,3.41 0,1.196 0.239,2.329 0.72,3.398 0.486,1.072 1.143,2.006 1.973,2.81 0.83,0.802 1.8,1.436 2.904,1.899 C -2.418,-0.23 -1.245,0 0,0 m 0,-1.022 c -1.104,0 -2.14,-0.21 -3.105,-0.628 -0.965,-0.416 -1.808,-0.976 -2.54,-1.682 -0.73,-0.704 -1.31,-1.527 -1.729,-2.466 -0.419,-0.941 -0.629,-1.942 -0.629,-3.002 0,-1.061 0.21,-2.062 0.629,-3.002 0.419,-0.94 0.999,-1.763 1.729,-2.469 0.732,-0.705 1.575,-1.265 2.54,-1.682 0.965,-0.417 2.001,-0.626 3.105,-0.626 1.087,0 2.119,0.209 3.092,0.626 0.973,0.417 1.82,0.977 2.541,1.682 0.723,0.706 1.298,1.534 1.726,2.478 0.43,0.95 0.643,1.945 0.643,2.993 0,1.06 -0.213,2.061 -0.643,3.002 C 6.931,-4.859 6.356,-4.036 5.633,-3.332 4.912,-2.626 4.065,-2.066 3.092,-1.65 2.119,-1.232 1.087,-1.022 0,-1.022" /></g><g
           transform="translate(186.2708,44.7803)"
           id="g44"><path
             id="path46"
             style="fill:#231f20;fill-opacity:1;fill-rule:nonzero;stroke:none"
             d="M 0,0 H 4.479 V -1.022 H -1.119 V 16.124 H 0 Z" /></g><g
           transform="translate(200.8519,61.1318)"
           id="g48"><path
             id="path50"
             style="fill:#231f20;fill-opacity:1;fill-rule:nonzero;stroke:none"
             d="M 0,0 C 1.229,0 2.399,-0.23 3.51,-0.693 4.622,-1.156 5.591,-1.79 6.413,-2.592 7.242,-3.396 7.897,-4.33 8.387,-5.402 8.875,-6.471 9.122,-7.604 9.122,-8.8 c 0,-1.214 -0.247,-2.351 -0.735,-3.41 -0.49,-1.062 -1.145,-1.996 -1.974,-2.799 -0.822,-0.805 -1.791,-1.437 -2.903,-1.9 -1.111,-0.46 -2.281,-0.693 -3.51,-0.693 -1.247,0 -2.419,0.233 -3.523,0.693 -1.106,0.463 -2.07,1.095 -2.892,1.9 -0.826,0.803 -1.483,1.737 -1.971,2.799 -0.493,1.059 -0.737,2.196 -0.737,3.41 0,1.196 0.241,2.329 0.724,3.398 0.482,1.072 1.139,2.006 1.971,2.81 0.831,0.802 1.799,1.436 2.905,1.899 C -2.419,-0.23 -1.247,0 0,0 m 0,-1.022 c -1.106,0 -2.14,-0.21 -3.104,-0.628 -0.964,-0.416 -1.811,-0.976 -2.543,-1.682 -0.73,-0.704 -1.306,-1.527 -1.727,-2.466 -0.42,-0.941 -0.629,-1.942 -0.629,-3.002 0,-1.061 0.209,-2.062 0.629,-3.002 0.421,-0.94 0.997,-1.763 1.727,-2.469 0.732,-0.705 1.579,-1.265 2.543,-1.682 0.964,-0.417 1.998,-0.626 3.104,-0.626 1.086,0 2.119,0.209 3.09,0.626 0.972,0.417 1.822,0.977 2.541,1.682 0.725,0.706 1.301,1.534 1.728,2.478 0.427,0.95 0.644,1.945 0.644,2.993 0,1.06 -0.217,2.061 -0.644,3.002 C 6.932,-4.859 6.356,-4.036 5.631,-3.332 4.912,-2.626 4.062,-2.066 3.09,-1.65 2.119,-1.232 1.086,-1.022 0,-1.022" /></g><g
           transform="translate(229.1961,52.0137)"
           id="g52"><path
             id="path54"
             style="fill:#231f20;fill-opacity:1;fill-rule:nonzero;stroke:none"
             d="m 0,0 c 0.016,-0.546 0,-1.071 -0.047,-1.571 -0.047,-0.499 -0.136,-0.989 -0.267,-1.464 -0.133,-0.479 -0.325,-0.944 -0.572,-1.39 -0.249,-0.447 -0.569,-0.874 -0.956,-1.283 -0.84,-0.896 -1.852,-1.583 -3.034,-2.059 -1.182,-0.477 -2.395,-0.715 -3.639,-0.715 -1.214,0 -2.369,0.231 -3.464,0.691 -1.098,0.463 -2.056,1.093 -2.883,1.888 -0.823,0.798 -1.477,1.726 -1.96,2.785 -0.481,1.062 -0.721,2.183 -0.721,3.367 0,1.23 0.24,2.38 0.721,3.455 0.483,1.078 1.141,2.019 1.974,2.822 0.829,0.802 1.801,1.435 2.916,1.898 1.11,0.464 2.298,0.694 3.558,0.694 1.601,0 3.039,-0.36 4.314,-1.08 1.275,-0.72 2.381,-1.692 3.313,-2.921 l -0.91,-0.708 c -0.795,1.138 -1.764,2.037 -2.913,2.696 -1.152,0.66 -2.445,0.991 -3.878,0.991 -1.072,0 -2.091,-0.213 -3.053,-0.637 -0.965,-0.425 -1.813,-0.994 -2.544,-1.706 -0.732,-0.714 -1.31,-1.541 -1.738,-2.481 -0.426,-0.939 -0.641,-1.924 -0.641,-2.955 0,-1.06 0.209,-2.061 0.629,-3.002 0.42,-0.939 0.992,-1.762 1.714,-2.469 0.723,-0.702 1.57,-1.265 2.533,-1.681 0.964,-0.417 1.998,-0.626 3.1,-0.626 0.951,0 1.869,0.17 2.755,0.513 0.887,0.342 1.695,0.802 2.427,1.374 0.763,0.638 1.302,1.321 1.622,2.05 0.318,0.726 0.493,1.558 0.524,2.5 H -7.419 V 0 Z" /></g><g
           transform="translate(230.1292,60.9043)"
           id="g56"><path
             id="path58"
             style="fill:#231f20;fill-opacity:1;fill-rule:nonzero;stroke:none"
             d="M 0,0 H 1.238 L 6.416,-8.688 11.598,0 h 1.235 L 6.975,-9.825 v -7.321 H 5.858 v 7.321 z" /></g><g
           transform="translate(93.7478,22.7598)"
           id="g60"><path
             id="path62"
             style="fill:#231f20;fill-opacity:1;fill-rule:nonzero;stroke:none"
             d="M 0,0 6.579,15.599 13.158,0 18.033,14.733 h 1.121 L 13.226,-2.981 6.509,12.869 -0.188,-2.981 -6.064,14.733 h 1.117 z" /></g><g
           transform="translate(116.1897,36.4717)"
           id="g64"><path
             id="path66"
             style="fill:#231f20;fill-opacity:1;fill-rule:nonzero;stroke:none"
             d="M 0,0 V -6.23 H 7.093 V -7.255 H 0 V -15.1 h 7.279 v -1.024 H -1.117 V 1.021 H 7.279 V 0 Z" /></g><g
           transform="translate(128.0179,36.4717)"
           id="g68"><path
             id="path70"
             style="fill:#231f20;fill-opacity:1;fill-rule:nonzero;stroke:none"
             d="M 0,0 V -6.23 H 7.093 V -7.255 H 0 V -15.1 h 7.279 v -1.024 h -8.4 V 1.021 h 8.4 V 0 Z" /></g><g
           transform="translate(148.198,37.4941)"
           id="g72"><path
             id="path74"
             style="fill:#231f20;fill-opacity:1;fill-rule:nonzero;stroke:none"
             d="m 0,0 h 1.491 l -8.607,-8.254 9.144,-8.892 H 0.559 l -8.445,8.188 -0.466,-0.457 v -7.731 H -9.473 V 0 h 1.121 v -8.006 z" /></g><g
           transform="translate(97.3768,77.1367)"
           id="g76"><path
             id="path78"
             style="fill:#231f20;fill-opacity:1;fill-rule:nonzero;stroke:none"
             d="m 0,0 v -3.576 h 3.813 c -0.19,-2.025 -1.739,-3.047 -3.765,-3.047 -3.078,0 -4.748,2.768 -4.748,5.484 0,2.674 1.599,5.534 4.676,5.534 1.883,0 3.242,-1.117 3.885,-2.791 L 8.294,3.418 C 6.745,6.693 3.885,8.319 0.191,8.319 c -5.796,0 -9.752,-3.738 -9.752,-9.434 0,-5.508 3.932,-9.247 9.585,-9.247 3.003,0 5.649,1.045 7.412,3.437 1.597,2.186 1.788,4.37 1.835,6.925 z m 16.567,7.739 h -4.67 V -9.782 h 4.67 z M 27.248,3.884 H 31.11 V 7.739 H 18.715 V 3.884 h 3.863 V -9.781 h 4.67 z m 16.259,0 V 7.739 H 33.282 v -17.52 h 10.225 v 3.855 h -5.555 v 3.024 h 5.269 v 3.855 h -5.269 v 2.931 z m 8.68,-4.301 -7.032,-9.364 h 5.65 l 4.124,5.716 3.766,-5.716 h 5.626 l -6.651,9.364 5.745,8.156 H 57.67 L 54.929,3.208 52.187,7.739 h -5.745 z" /></g></g></g><g
       id="g80"><g
         clip-path="url(#clipPath86)"
         id="g82"><g
           transform="translate(-14.2316,63.6699)"
           id="g88"><path
             id="path90"
             style="fill:none;stroke:#ec008c;stroke-width:0.55800003;stroke-linecap:butt;stroke-linejoin:miter;stroke-miterlimit:10;stroke-dasharray:none;stroke-opacity:1"
             d="m 0,0 c 0,0 42.121,-39.958 89.689,-10.006 m -90.123,9.407 c 0,0 43.728,-42.053 90.127,-10.349 m -90.56,9.752 c 0,0 45.335,-44.151 90.562,-10.695 M -1.303,-1.794 c 0,0 46.944,-46.245 91,-11.038 M -1.736,-2.394 c 0,0 48.551,-48.339 91.436,-11.38 M -2.17,-2.991 c 0,0 50.157,-50.436 91.872,-11.725 M -2.604,-3.588 c 0,0 51.766,-52.533 92.31,-12.07 M -3.038,-4.187 c 0,0 53.372,-54.627 92.746,-12.414 M -3.473,-4.785 c 0,0 54.981,-56.723 93.182,-12.756 M -3.907,-5.383 c 0,0 56.588,-58.818 93.62,-13.101 M -4.341,-5.982 c 0,0 58.196,-60.914 94.056,-13.443 m -94.49,12.846 c 0,0 59.803,-63.01 94.494,-13.788 m -94.928,13.19 c 0,0 61.411,-65.105 94.929,-14.133 M -5.644,-7.776 c 0,0 63.02,-67.201 95.366,-14.475 m -95.8,13.877 c 0,0 64.627,-69.296 95.804,-14.819 m -96.238,14.22 c 0,0 66.235,-71.39 96.24,-15.162 M -6.946,-9.57 c 0,0 67.842,-73.488 96.675,-15.507 M -7.38,-10.168 c 0,0 69.45,-75.583 97.113,-15.852 M 70.071,28.675 c 0,0 -56.17,-14.686 -55.839,-70.898 m 55.561,71.582 c 0,0 -58.798,-14.945 -56.362,-71.087 m 56.082,71.772 c 0,0 -61.425,-15.206 -56.882,-71.276 m 56.604,71.96 c 0,0 -64.055,-15.464 -57.405,-71.465 m 57.125,72.149 c 0,0 -66.682,-15.724 -57.927,-71.654 m 57.649,72.339 c 0,0 -69.311,-15.985 -58.45,-71.845 m 58.171,72.529 c 0,0 -71.939,-16.243 -58.972,-72.033 M 68.12,33.466 c 0,0 -74.568,-16.503 -59.495,-72.223 m 59.217,72.906 c 0,0 -77.197,-16.761 -60.018,-72.41 m 59.738,73.095 c 0,0 -79.825,-17.022 -60.54,-72.602 m 60.262,73.287 c 0,0 -82.454,-17.282 -61.063,-72.791 m 60.783,73.475 c 0,0 -85.081,-17.54 -61.584,-72.98 m 61.306,73.665 c 0,0 -87.71,-17.8 -62.108,-73.169 m 61.828,73.853 c 0,0 -90.337,-18.06 -62.628,-73.359 m 62.35,74.043 c 0,0 -92.966,-18.319 -63.152,-73.548 m 62.873,74.231 c 0,0 -95.595,-18.578 -63.674,-73.736 m 63.396,74.422 c 0,0 -98.224,-18.838 -64.198,-73.927 m 63.92,74.611 c 0,0 -100.852,-19.097 -64.721,-74.117" /></g><g
           transform="translate(2.2586,9.3848)"
           id="g92"><path
             id="path94"
             style="fill:none;stroke:#1574c4;stroke-width:0.55800003;stroke-linecap:butt;stroke-linejoin:miter;stroke-miterlimit:10;stroke-dasharray:none;stroke-opacity:1"
             d="M 0,0 C 0,0 57.928,-3.926 75.474,49.479 M 0.045,-0.738 c 0,0 60.503,-4.515 76.03,49.491 M 0.093,-1.476 c 0,0 63.076,-5.104 76.585,49.506 M 0.14,-2.214 c 0,0 65.651,-5.692 77.141,49.519 M 0.187,-2.951 c 0,0 68.225,-6.281 77.696,49.533 M 0.234,-3.688 c 0,0 70.8,-6.873 78.252,49.546 M 0.282,-4.426 c 0,0 73.373,-7.462 78.807,49.559 M 0.327,-5.165 c 0,0 75.95,-8.05 79.363,49.575 M 0.374,-5.903 c 0,0 78.524,-8.639 79.919,49.589 M 0.421,-6.64 c 0,0 81.099,-9.228 80.474,49.601 M 0.469,-7.378 c 0,0 83.672,-9.817 81.029,49.615 M 0.516,-8.116 c 0,0 86.247,-10.405 81.585,49.629 M 0.563,-8.854 c 0,0 88.819,-10.996 82.139,49.643 M 0.61,-9.591 c 0,0 91.394,-11.586 82.695,49.656 M 0.656,-10.329 c 0,0 93.969,-12.175 83.253,49.67 M 0.703,-11.066 c 0,0 96.544,-12.764 83.807,49.683 M 0.75,-11.805 c 0,0 99.118,-13.352 84.363,49.699 M 0.798,-12.543 c 0,0 101.692,-13.942 84.916,49.712" /></g><g
           transform="translate(-17.2434,64.4893)"
           id="g96"><path
             id="path98"
             style="fill:none;stroke:#ec008c;stroke-width:0.55800003;stroke-linecap:butt;stroke-linejoin:miter;stroke-miterlimit:10;stroke-dasharray:none;stroke-opacity:1"
             d="m 0,0 c 0,0 89.68,57.892 97.073,0 m 0.232,-2.176 C 90.296,52.376 4.865,-0.04 1.134,-0.8 M 97.539,-4.352 C 90.914,46.857 9.73,-0.082 2.267,-1.601 M 97.772,-6.527 C 91.532,41.341 14.595,-0.122 3.401,-2.4 M 98.006,-8.703 C 92.147,35.824 19.459,-0.163 4.535,-3.2 m 93.704,-7.678 C 92.765,30.307 24.324,-0.204 5.669,-3.999 m 92.804,-9.055 C 93.381,24.789 29.189,-0.244 6.803,-4.799 M 98.706,-15.23 C 93.999,19.271 34.054,-0.285 7.936,-5.6 M 98.94,-17.406 C 94.616,13.755 38.919,-0.326 9.07,-6.399 M 99.173,-19.582 C 95.232,8.237 43.785,-0.367 10.204,-7.199 M 99.405,-21.757 C 95.85,2.721 48.65,-0.407 11.337,-7.999 M 99.639,-23.934 C 96.466,-2.796 53.515,-0.448 12.471,-8.799 m 87.401,-17.31 C 97.083,-8.314 58.38,-0.488 13.605,-9.6 m 86.501,-18.685 C 97.699,-13.831 63.245,-0.53 14.738,-10.398 M 100.339,-30.46 C 98.317,-19.349 68.11,-0.57 15.872,-11.198 m 84.701,-21.439 c -1.638,7.772 -27.597,32.027 -83.569,20.639 m 83.802,-22.815 C 99.55,-30.382 77.841,-0.652 18.14,-12.798 m 82.9,-24.19 c -0.872,1.088 -18.334,36.296 -81.766,23.389" /></g><g
           transform="translate(7.7723,51.9502)"
           id="g100"><path
             id="path102"
             style="fill:none;stroke:#1574c4;stroke-width:0.55800003;stroke-linecap:butt;stroke-linejoin:miter;stroke-miterlimit:10;stroke-dasharray:none;stroke-opacity:1"
             d="M 0,0 C 0,0 62.606,12.85 39.815,51.299 M 0.336,-1.053 c 0,0 65.627,14.283 41.34,52.407 M 0.674,-2.107 c 0,0 68.645,15.72 42.862,53.518 M 1.012,-3.161 c 0,0 71.662,17.156 44.384,54.628 M 1.348,-4.214 c 0,0 74.682,18.591 45.908,55.736 M 1.686,-5.269 c 0,0 77.701,20.028 47.431,56.849 M 2.024,-6.321 c 0,0 80.718,21.462 48.953,57.957 M 2.36,-7.374 c 0,0 83.738,22.895 50.477,59.066 M 2.698,-8.428 c 0,0 86.755,24.332 52,60.176 M 3.034,-9.482 c 0,0 89.775,25.768 53.524,61.286 M 3.372,-10.535 c 0,0 92.794,27.202 55.046,62.395 M 3.71,-11.589 c 0,0 95.812,28.638 56.569,63.506 M 4.046,-12.644 c 0,0 98.831,30.075 58.093,64.617 M 4.384,-13.696 c 0,0 101.849,31.508 59.615,65.725" /></g></g></g></g></svg>