<?xml version="1.0" encoding="utf-8"?>
<!-- Generator: Adobe Illustrator 24.0.1, SVG Export Plug-In . SVG Version: 6.00 Build 0)  -->
<svg version="1.1" id="Calque_1" xmlns="http://www.w3.org/2000/svg" xmlns:xlink="http://www.w3.org/1999/xlink" x="0px" y="0px"
	 viewBox="0 0 1200 1200" style="enable-background:new 0 0 1200 1200;" xml:space="preserve">
<style type="text/css">
	.st0{enable-background:new    ;}
	.st1{font-family:'SofiaProLight';}
	.st2{font-size:137.7781px;}
</style>
<title>heavent-award</title>
<polygon points="567.3,373.6 655.2,359.9 731.4,219.2 690.3,126.4 "/>
<polygon points="481.3,522 254.7,522 215.6,484 414.9,457.6 "/>
<polygon points="417.3,1070.5 531.6,994.3 555.1,865.4 454,865.4 "/>
<polygon points="695.7,916.7 991.7,1070.5 939,941.6 821.7,874.2 "/>
<g class="st0">
	<path d="M172.9,576h-19.5v58h-14.2v-58h-19.5v-12.6h53.2V576z"/>
	<path d="M238.3,563.4V634h-14.2v-28.7h-26.3V634h-14.2v-70.6h14.2v29.1h26.3v-29.1H238.3z"/>
	<path d="M300.7,621.3v12.6h-45.2v-70.6h44.3V576h-30v16.8h26.3v12.8h-26.3v15.8L300.7,621.3L300.7,621.3z"/>
	<path d="M334.4,598.7c0-20.1,15.8-36.3,36.1-36.3c10.7,0,20,4.4,26.1,11.3l-10.3,8.9c-4-4.3-9.6-7-15.8-7
		c-12.3,0-21.8,10.4-21.8,23s9.5,23.5,21.8,23.5c9.2,0,16.5-4.4,18.3-11.8c0.2-0.5,0.3-1.1,0.4-1.7h-20V597h35.5
		c0,26.1-14,37.8-34.3,37.8C350.2,634.9,334.4,618.7,334.4,598.7z"/>
	<path d="M435.1,608.6h-4.8v25.3H416v-70.6h28.2c16.2,0,23.1,11.5,23.1,23c0,10-5.2,19.1-17.1,21.5l18.3,26h-16.7L435.1,608.6z
		 M430.3,597.2h11.4c8,0,11.4-4.8,11.4-10.4s-3.6-10.8-10.2-10.8h-12.5L430.3,597.2L430.3,597.2z"/>
	<path d="M526.4,621.3v12.6h-45.2v-70.6h44.3V576h-30v16.8h26.3v12.8h-26.3v15.8L526.4,621.3L526.4,621.3z"/>
	<path d="M578.1,617h-26.4l-5.6,16.9h-15.2l26.3-70.6h15.4l26.2,70.6h-15L578.1,617z M573.8,604.6l-9-26.5l-8.9,26.5H573.8z"/>
	<path d="M647.6,576h-19.5v58h-14.2v-58h-19.5v-12.6h53.2V576z"/>
	<path d="M715,617h-26.4l-5.6,16.9h-15.2l26.3-70.6h15.4l26.2,70.6h-15L715,617z M710.7,604.6l-9-26.5l-8.9,26.5H710.7z"/>
	<path d="M823.1,563.4l-24,70.6h-11.4l-10.2-38.3l-10,38.3h-11.4l-23.9-70.6h15.4l14.3,46l9.9-36.1h11.6l9.7,36.1l14.4-46H823.1z"/>
	<path d="M866.7,617h-26.4l-5.6,16.9h-15.2l26.3-70.6h15.4l26.2,70.6h-15L866.7,617z M862.4,604.6l-9-26.5l-8.9,26.5H862.4z"/>
	<path d="M914.6,608.6h-4.8v25.3h-14.2v-70.6h28.2c16.2,0,23.1,11.5,23.1,23c0,10-5.2,19.1-17.1,21.5l18.3,26h-16.7L914.6,608.6z
		 M909.7,597.2h11.4c8,0,11.4-4.8,11.4-10.4s-3.6-10.8-10.2-10.8h-12.5v21.2H909.7z"/>
	<path d="M960.6,563.4h27.7c20.3,0,32.1,15.4,32.1,35.4s-11.8,35.1-32.1,35.1h-27.7V563.4z M988.3,621.3c11.8,0,17.8-10.4,17.8-22.5
		s-6-22.8-17.8-22.8h-13.4v45.4h13.4V621.3z"/>
	<path d="M1029.6,613.1h14.2c0.1,5.1,5,9.3,11.6,9.3c6.4,0,10.5-3.3,10.5-8.3c0-3.9-2.9-6.7-8.9-8.5l-8.6-2.5
		c-15.5-4.1-18.2-13.4-18.2-19.8c0-12.6,10.9-21,24.4-21c13.3,0,23.6,8.1,23.6,21.5H1064c0-5-3.5-8.9-9.6-8.9
		c-5.5,0-9.7,3.4-9.7,8.1c0,1.7,0.5,5.4,7.9,7.5l7.9,2.3c10.7,3,20,8.6,20,20.6c0,14-12,21.4-25.3,21.4
		C1039.9,634.9,1029.6,625.6,1029.6,613.1z"/>
</g>
<g class="st0">
	<path d="M195.6,658.7v94.9h-9.1v-43.1h-52.2v43.1h-9.1v-94.9h9.1v43.7h52.2v-43.7H195.6z"/>
	<path d="M279.4,745v8.5h-55.7v-94.9h54.1v8.5h-45.2v35.5H272v8.5h-39.4V745H279.4z"/>
	<path d="M350.5,728.4h-43.8l-9.5,25.2h-9.6l36.2-94.9h9.6l36.1,94.9H360L350.5,728.4z M347.3,720.2l-18.7-49.5l-18.7,49.5H347.3z"
		/>
	<path d="M436.9,658.7l-28.4,94.9H399l-28.8-94.9h9.5l24,80.6l23.8-80.6H436.9z"/>
	<path d="M510.9,745v8.5h-55.7v-94.9h54.1v8.5h-45.2v35.5h39.4v8.5h-39.4V745H510.9z"/>
	<path d="M599.2,658.7v94.9h-9.4l-48.6-79.1v79.1h-9.1v-94.9h9.5l48.5,78.9v-78.9H599.2z"/>
	<path d="M685.6,667.2h-30.3v86.4h-9.1v-86.4H616v-8.5h69.6V667.2z"/>
	<path d="M798.4,687.6c0,14.7-7.7,28.9-27.6,28.9H743v37.1h-9.1v-94.9h37.3C790.7,658.7,798.4,673,798.4,687.6z M789.3,687.6
		c0-10.2-5.1-20.4-18.2-20.4H743V708h27.4C784.1,708,789.3,697.9,789.3,687.6z"/>
	<path d="M861.9,728.4h-43.8l-9.5,25.2H799l36.2-94.9h9.6l36.1,94.9h-9.5L861.9,728.4z M858.7,720.2L840,670.8l-18.7,49.5
		L858.7,720.2L858.7,720.2z"/>
	<path d="M931.6,716.4l26.3,37.2h-11l-26-37.2H905v37.2h-9.1v-94.9h35.3c19.8,0,27.4,14.3,27.4,28.9
		C958.6,702.1,951.2,716,931.6,716.4z M905,708h24c14.9,0,20.5-9.1,20.5-20.4c0-11.3-6.1-20.4-18.2-20.4H905V708z"/>
	<path d="M980.5,658.7h9.1v94.9h-9.1V658.7z"/>
	<path d="M1011.1,728.1h9c1,9.4,9.5,18.3,22.9,18.3c15.2,0,22.7-9.6,22.7-18.6c0-10.3-9.2-15.3-18.6-17.6l-12.8-3
		c-19.6-4.7-22.5-16.1-22.5-23.7c0-15.7,14.5-25.9,30.2-25.9c16.1,0,28.9,9.9,29.5,25.8h-9.1c-0.6-10.5-9.2-17.2-20.7-17.2
		c-10.7,0-20.8,6.8-20.8,17.4c0,4.4,1.4,12,15.6,15.3l12.8,3c15,3.7,25.5,11.8,25.5,25.6c0,13.4-11,27.6-31.8,27.6
		C1024.4,755,1011.8,741.9,1011.1,728.1z"/>
</g>
<text transform="matrix(1 0 0 1 685.6816 753.5908)" class="st1 st2"> </text>
<g class="st0">
	<path d="M166,822.7c0,8.5-6.3,16.5-16.9,16.5h-23.8v-59.7H147c9.6,0,15.9,5.5,15.9,14.7c0,5.4-2.3,10.9-7.9,13.2
		C162.5,809.3,166,816.4,166,822.7z M130.9,784.8v20.3h17c5.9,0,9.1-4.6,9.1-10.5c0-6.1-3.9-9.8-10.2-9.8H130.9z M160.2,822.2
		c0-6.4-4.6-12.1-12.4-12.1h-16.9v23.7h17.2C155.8,833.8,160.2,828.4,160.2,822.2z"/>
	<path d="M214.7,833.8v5.4h-35v-59.7h34.1v5.4h-28.4v22.4h24.8v5.4h-24.8v21.2h29.3V833.8z"/>
	<path d="M223.9,823.1h5.6c0.6,5.9,6,11.5,14.4,11.5c9.5,0,14.3-6.1,14.3-11.7c0-6.5-5.8-9.6-11.7-11.1l-8.1-1.9
		c-12.3-2.9-14.1-10.1-14.1-14.9c0-9.9,9.1-16.3,19-16.3c10.1,0,18.2,6.2,18.5,16.2h-5.7c-0.3-6.6-5.8-10.8-13-10.8
		c-6.8,0-13.1,4.2-13.1,10.9c0,2.8,0.9,7.5,9.8,9.6l8.1,1.9c9.4,2.3,16,7.5,16,16.1c0,8.4-6.9,17.3-20,17.3
		C232.2,840,224.4,831.8,223.9,823.1z"/>
	<path d="M312.8,784.8h-19.1v54.3H288v-54.3h-19v-5.4h43.8L312.8,784.8L312.8,784.8z"/>
	<path d="M343.3,779.4h22.6c16.9,0,26.7,13,26.7,30c0,16.9-9.8,29.7-26.7,29.7h-22.6V779.4z M365.9,833.8c13.6,0,21-10.6,21-24.4
		c0-13.9-7.4-24.6-21-24.6H349v49H365.9z"/>
	<path d="M406.2,779.4h5.7v59.7h-5.7V779.4z"/>
	<path d="M425.2,809.4c0-17,13.2-30.7,30.2-30.7c7.3,0,14,2.7,19,6.9l-3.8,3.9c-4.1-3.3-9.4-5.5-15.2-5.5
		c-13.8,0-24.4,11.4-24.4,25.3s10.7,25.2,24.4,25.2c11.3,0,20-6.4,21.6-18l0.1-1.3h-17.9v-5.1h24.2c-0.3,20.2-11.7,29.8-27.9,29.8
		C438.4,840,425.2,826.3,425.2,809.4z"/>
	<path d="M495,779.4h5.7v59.7H495V779.4z"/>
	<path d="M555.1,784.8H536v54.3h-5.7v-54.3h-19v-5.4h43.8V784.8z"/>
	<path d="M592.1,823.3h-27.6l-6,15.9h-6.1l22.8-59.7h6.1l22.7,59.7h-6L592.1,823.3z M590.1,818.2l-11.8-31.1l-11.8,31.1H590.1z"/>
	<path d="M613.5,779.4h5.7v54.3h25.4v5.4h-31.1L613.5,779.4L613.5,779.4z"/>
	<path d="M671.3,823.1h5.6c0.6,5.9,6,11.5,14.4,11.5c9.5,0,14.3-6.1,14.3-11.7c0-6.5-5.8-9.6-11.7-11.1l-8.1-1.9
		c-12.3-2.9-14.1-10.1-14.1-14.9c0-9.9,9.1-16.3,19-16.3c10.1,0,18.2,6.2,18.5,16.2h-5.7c-0.3-6.6-5.8-10.8-13-10.8
		c-6.8,0-13.1,4.2-13.1,10.9c0,2.8,0.9,7.5,9.8,9.6l8.1,1.9c9.4,2.3,16,7.5,16,16.1c0,8.4-6.9,17.3-20,17.3
		C679.6,840,671.7,831.8,671.3,823.1z"/>
	<path d="M720.1,809.4c0-17,13.2-30.7,30.2-30.7s30.2,13.7,30.2,30.7c0,16.9-13.2,30.6-30.2,30.6C733.2,840,720.1,826.3,720.1,809.4
		z M774.7,809.4c0-13.9-10.7-25.3-24.4-25.3c-13.8,0-24.4,11.4-24.4,25.3s10.7,25.2,24.4,25.2C764,834.6,774.7,823.3,774.7,809.4z"
		/>
	<path d="M793.8,779.4h5.7v54.3h25.4v5.4h-31.1L793.8,779.4L793.8,779.4z"/>
	<path d="M832.9,819v-39.6h5.7V819c0,10,7.1,15.5,15.6,15.5s15.6-5.5,15.6-15.5v-39.6h5.7V819c0,13.1-9.8,21-21.3,21
		S832.9,832.1,832.9,819z"/>
	<path d="M929.2,784.8h-19.1v54.3h-5.7v-54.3h-19v-5.4h43.8V784.8z"/>
	<path d="M939.8,779.4h5.7v59.7h-5.7V779.4z"/>
	<path d="M958.8,809.4c0-17,13.2-30.7,30.2-30.7s30.2,13.7,30.2,30.7c0,16.9-13.2,30.6-30.2,30.6S958.8,826.3,958.8,809.4z
		 M1013.4,809.4c0-13.9-10.7-25.3-24.4-25.3c-13.8,0-24.4,11.4-24.4,25.3s10.7,25.2,24.4,25.2
		C1002.8,834.6,1013.4,823.3,1013.4,809.4z"/>
	<path d="M1074.8,779.4v59.7h-5.9l-30.6-49.7v49.7h-5.7v-59.7h6l30.5,49.7v-49.7H1074.8z"/>
</g>
</svg>
