<svg id="Calque_1" data-name="Calque 1" xmlns="http://www.w3.org/2000/svg" viewBox="0 0 299.2 71.61"><defs><style>.cls-1{fill:#58b36f;}.cls-2{fill:#133555;}</style></defs><title>logo-swapcard-bleu-vert</title><path class="cls-1" d="M296,27.13V28.6a18.29,18.29,0,0,0-2-1.47,17.61,17.61,0,0,0-8.89-2.67h-0.7a18,18,0,0,0-3.21.29,16.54,16.54,0,0,0-6,2.39,19.34,19.34,0,0,0-3.34,2.71,18.3,18.3,0,0,0-5.55,13.36,18.2,18.2,0,0,0,5.12,12.92,17.41,17.41,0,0,0,9.81,5.34,19.5,19.5,0,0,0,2.83.3h0.71a17.77,17.77,0,0,0,12.68-5.33,17.49,17.49,0,0,0,5.5-13.31v-35a1.26,1.26,0,0,0-1.26-1.26h-4.36A1.26,1.26,0,0,0,296,8.17v19Zm-3.5,24.35a10.1,10.1,0,0,1-7.72,3.41l-0.64,0a11.06,11.06,0,0,1-3-.5,10.77,10.77,0,0,1-4.81-3.16,11.68,11.68,0,0,1-3.17-8.34,11.74,11.74,0,0,1,8-11,11,11,0,0,1,3.35-.51h0.22a10.25,10.25,0,0,1,7.77,3.34,11.61,11.61,0,0,1,3.38,8.14A11.42,11.42,0,0,1,292.54,51.48Z" transform="translate(-3.74 -6.9)"/><path class="cls-1" d="M271,27.33a0.61,0.61,0,0,0-.1-1,13.88,13.88,0,0,0-14.24.17V25.73a1.26,1.26,0,0,0-1.26-1.26h-4.12A1.26,1.26,0,0,0,250,25.73V60.41a1.26,1.26,0,0,0,1.26,1.26h4.12a1.26,1.26,0,0,0,1.26-1.26v-22a7.26,7.26,0,0,1,10-6.71,0.6,0.6,0,0,0,.73-0.22,22.48,22.48,0,0,1,2.74-3.31C270.39,27.86,270.67,27.59,271,27.33Z" transform="translate(-3.74 -6.9)"/><path class="cls-1" d="M245.84,43.14a17,17,0,0,0-5-12.9,17.91,17.91,0,0,0-12.74-5.75,17.1,17.1,0,0,0-13.34,5.31,18.76,18.76,0,0,0-.37,26.27A17.74,17.74,0,0,0,227,61.75h0.67A17.06,17.06,0,0,0,239,57.58V60.5a1.26,1.26,0,0,0,1.26,1.26h4.29a1.26,1.26,0,0,0,1.26-1.26V43.14Zm-10.4,8.33a10.28,10.28,0,0,1-7.75,3.41l-0.59,0a10.83,10.83,0,0,1-7.8-3.72,11.55,11.55,0,0,1-3.11-8.33,11.25,11.25,0,0,1,3.42-8.15,11,11,0,0,1,8.13-3.36,10.23,10.23,0,0,1,7.76,3.34,11.58,11.58,0,0,1,3.38,8.11A11.8,11.8,0,0,1,235.45,51.47Z" transform="translate(-3.74 -6.9)"/><path class="cls-2" d="M129.94,54.82a0.61,0.61,0,0,0-.68-0.24,0.6,0.6,0,0,0-.43.58V77.25a1.26,1.26,0,0,0,1.27,1.26h4.74a1.26,1.26,0,0,0,1.27-1.26V61.54a1.26,1.26,0,0,0-.54-1A21.26,21.26,0,0,1,129.94,54.82Z" transform="translate(-3.74 -6.9)"/><path class="cls-2" d="M198.2,37.89a1.26,1.26,0,0,1-1.08-.61,11.55,11.55,0,0,0-18.62-1.47l-16,18.71a18.65,18.65,0,1,1-.57-23.37h0l3.77,4.43a0.6,0.6,0,0,1,0,.78l-4,4.65a0.61,0.61,0,0,1-.92,0l-4.42-5.19h0a11.44,11.44,0,1,0-1.12,15.9c0.22-.19,18.85-21.85,19.49-22.42a18.84,18.84,0,0,1,29.9,6.85,1.25,1.25,0,0,1-.12,1.18,1.27,1.27,0,0,1-1.05.56H198.2Z" transform="translate(-3.74 -6.9)"/><path class="cls-1" d="M187.28,61.85a18.81,18.81,0,0,1-14.34-6.61h0l-3.79-4.45a0.6,0.6,0,0,1,0-.78l4-4.65a0.61,0.61,0,0,1,.92,0l4.44,5.21a11.55,11.55,0,0,0,18.63-1.46,1.27,1.27,0,0,1,1.08-.61h5.29a1.27,1.27,0,0,1,1.05.56,1.25,1.25,0,0,1,.12,1.18A18.81,18.81,0,0,1,187.28,61.85Z" transform="translate(-3.74 -6.9)"/><path class="cls-2" d="M124.91,43.14a17.06,17.06,0,0,0-5-12.9,17.91,17.91,0,0,0-12.74-5.75A17.12,17.12,0,0,0,93.83,29.8a18.77,18.77,0,0,0-.37,26.27A17.73,17.73,0,0,0,106,61.75h0.68a17.06,17.06,0,0,0,11.37-4.18V60.5a1.26,1.26,0,0,0,1.26,1.26h4.3a1.26,1.26,0,0,0,1.26-1.26V43.14ZM106.83,31.31a10.22,10.22,0,0,1,7.76,3.34A11.56,11.56,0,0,1,118,42.76a11.76,11.76,0,0,1-3.43,8.71,10.26,10.26,0,0,1-7.74,3.41l-0.59,0a10.84,10.84,0,0,1-7.81-3.72,11.52,11.52,0,0,1-3.1-8.33,11.27,11.27,0,0,1,3.41-8.15A11,11,0,0,1,106.83,31.31Z" transform="translate(-3.74 -6.9)"/><path class="cls-2" d="M78.89,24.47a1.26,1.26,0,0,0-1.26,1.26v22a7.26,7.26,0,1,1-14.52,0v-22a1.26,1.26,0,0,0-1.26-1.26H57.71a1.26,1.26,0,0,0-1.26,1.26v22a7.26,7.26,0,0,1-14.52,0v-22a1.26,1.26,0,0,0-1.26-1.26H36.54a1.26,1.26,0,0,0-1.26,1.26v22a13.9,13.9,0,0,0,24.5,9,13.91,13.91,0,0,0,24.5-9v-22A1.26,1.26,0,0,0,83,24.47H78.89Z" transform="translate(-3.74 -6.9)"/><path class="cls-2" d="M25.56,41.91c-3.9-2-6.67-2.09-10-3-3.5-1-5.24-2.07-4.86-4.75C11.13,31.27,13.56,30,17,30.07c5.44,0,6.76,2.94,7.09,4.54a1.26,1.26,0,0,0,1.24,1H30.3a0.87,0.87,0,0,0,.86-1c-0.36-2.72-2.39-10.16-14-10.15-11.74,0-13.5,7.2-13.45,10.79,0.08,5.66,5.6,8.11,7.36,8.77s7.44,1.94,8.67,2.38c4.32,1.52,4.55,3.54,4.51,4.75,0,2.84-2.49,4.82-6.78,4.59-4.88-.26-6.21-4.27-6.56-6.2a1.26,1.26,0,0,0-1.24-1H5.17A1.27,1.27,0,0,0,3.92,50a14.14,14.14,0,0,0,2.57,6.6C9,59.71,11.42,61.66,18.3,61.66c8.1,0,12.11-4.28,12.85-9.11A9.76,9.76,0,0,0,25.56,41.91Z" transform="translate(-3.74 -6.9)"/></svg>