<?xml version="1.0" encoding="UTF-8"?>
<svg xmlns="http://www.w3.org/2000/svg" xmlns:xlink="http://www.w3.org/1999/xlink" width="90pt" height="90pt" viewBox="0 0 90 90" version="1.1">
<g id="surface19363371">
<path style=" stroke:none;fill-rule:nonzero;fill:rgb(0%,80%,53.333333%);fill-opacity:1;" d="M 45 9 C 41.683594 9 39 11.683594 39 15 L 39 15.785156 C 28.65625 18.453125 21 27.820312 21 39 L 21 46.183594 C 21 50.953125 20.019531 55.640625 18.191406 60 L 71.808594 60 C 69.980469 55.644531 69 50.953125 69 46.183594 L 69 39 C 69 27.820312 61.34375 18.453125 51 15.785156 L 51 15 C 51 11.683594 48.316406 9 45 9 Z M 15 66 C 13.917969 65.984375 12.910156 66.554688 12.367188 67.488281 C 11.820312 68.421875 11.820312 69.578125 12.367188 70.511719 C 12.910156 71.445312 13.917969 72.015625 15 72 L 36.527344 72 C 36.183594 72.960938 36.003906 73.976562 36 75 C 36 79.96875 40.03125 84 45 84 C 49.96875 84 54 79.96875 54 75 C 53.996094 73.976562 53.820312 72.964844 53.480469 72 L 75 72 C 76.082031 72.015625 77.089844 71.445312 77.632812 70.511719 C 78.179688 69.578125 78.179688 68.421875 77.632812 67.488281 C 77.089844 66.554688 76.082031 65.984375 75 66 Z M 15 66 "/>
</g>
</svg>
