<?xml version="1.0" encoding="utf-8"?>
<!-- Generator: Adobe Illustrator 22.1.0, SVG Export Plug-In . SVG Version: 6.00 Build 0)  -->
<svg version="1.1" id="Calque_1" xmlns="http://www.w3.org/2000/svg" xmlns:xlink="http://www.w3.org/1999/xlink" x="0px" y="0px"
	 viewBox="0 0 1538 457" style="enable-background:new 0 0 1538 457;" xml:space="preserve">
<style type="text/css">
	.st0{fill:#FFFFFF;}
	.st1{fill:#123456;}
	.st2{fill:#123456;stroke:#123456;stroke-width:3.4164;}
	.st3{fill:url(#Shape_17_);}
	.st4{fill:url(#Shape_18_);}
	.st5{fill:url(#Shape_19_);}
	.st6{fill:url(#Shape_20_);}
	.st7{opacity:0.2;enable-background:new    ;}
	.st8{opacity:0.12;enable-background:new    ;}
	.st9{opacity:0.25;fill:#FFFFFF;enable-background:new    ;}
</style>
<title>google-play-badge</title>
<desc>Created with Sketch.</desc>
<g id="Print">
	<g id="Kakemonos_2018_product" transform="translate(-812.000000, -11068.000000)">
		<g id="Group-3" transform="translate(812.000000, 10266.000000)">
			<g id="Group-2" transform="translate(0.000000, 801.000000)">
				<g id="google-play-badge">
					<path id="Shape" class="st0" d="M1478.9,457.6H59.1c-31.2,0-56.8-25.7-56.8-57V58.5c0-31.4,25.6-57,56.8-57h1419.8
						c31.2,0,56.8,25.7,56.8,57v342.1C1535.7,431.9,1510.2,457.6,1478.9,457.6z"/>
					<path id="Shape_1_" class="st1" d="M1478.9,10.6c26.3,0,47.7,21.5,47.7,47.9v342.1c0,26.4-21.4,47.9-47.7,47.9H59.1
						c-26.3,0-47.7-21.5-47.7-47.9V58.5c0-26.4,21.4-47.9,47.7-47.9H1478.9z M1478.9,1.4H59.1c-31.2,0-56.8,25.7-56.8,57v342.1
						c0,31.4,25.6,57,56.8,57h1419.8c31.2,0,56.8-25.7,56.8-57V58.5C1535.7,27.1,1510.2,1.4,1478.9,1.4z"/>
					<g id="Group" transform="translate(466.662729, 75.134851)">
						<path id="Shape_2_" class="st2" d="M74.2,43.1c0,9.6-2.8,17.2-8.5,22.8c-6.4,6.8-14.8,10.1-25,10.1c-9.8,0-18.2-3.4-25.1-10.3
							C8.8,59,5.3,50.5,5.3,40.3c0-10.1,3.4-18.6,10.3-25.5C22.5,8,30.9,4.6,40.7,4.6c4.9,0,9.6,1,14,2.9c4.4,1.9,8,4.5,10.7,7.6
							l-6,6C54.9,15.7,48.7,13,40.7,13c-7.2,0-13.4,2.5-18.6,7.6s-7.8,11.6-7.8,19.7s2.6,14.7,7.8,19.7s11.4,7.6,18.6,7.6
							c7.6,0,14-2.5,19-7.6c3.3-3.3,5.2-7.9,5.7-13.9H40.7v-8.2h33C74.1,39.7,74.2,41.5,74.2,43.1z"/>
						<polygon id="Shape_3_" class="st2" points="126.6,14.5 95.6,14.5 95.6,36.2 123.6,36.2 123.6,44.4 95.6,44.4 95.6,66.1 
							126.6,66.1 126.6,74.5 86.8,74.5 86.8,6.1 126.6,6.1 						"/>
						<polygon id="Shape_4_" class="st2" points="163.5,74.5 154.8,74.5 154.8,14.5 135.7,14.5 135.7,6.1 182.6,6.1 182.6,14.5 
							163.5,14.5 						"/>
						<polygon id="Shape_5_" class="st2" points="216.4,74.5 216.4,6.1 225.2,6.1 225.2,74.5 						"/>
						<polygon id="Shape_6_" class="st2" points="264,74.5 255.3,74.5 255.3,14.5 236.2,14.5 236.2,6.1 283.1,6.1 283.1,14.5 
							264,14.5 						"/>
						<path id="Shape_7_" class="st2" d="M371.7,65.7c-6.7,6.9-15,10.4-25,10.4s-18.3-3.5-25-10.4c-6.7-6.9-10-15.4-10-25.4
							s3.3-18.5,10-25.4c6.7-6.9,15-10.4,25-10.4c9.9,0,18.2,3.5,24.9,10.4s10.1,15.4,10.1,25.3C381.8,50.3,378.4,58.8,371.7,65.7z
							 M328.2,60c5,5.1,11.2,7.7,18.5,7.7c7.3,0,13.5-2.6,18.5-7.7c5-5.1,7.6-11.7,7.6-19.6s-2.5-14.5-7.6-19.6
							c-5-5.1-11.2-7.7-18.5-7.7c-7.3,0-13.5,2.6-18.5,7.7c-5,5.1-7.6,11.7-7.6,19.6S323.2,54.8,328.2,60z"/>
						<polygon id="Shape_8_" class="st2" points="394.1,74.5 394.1,6.1 404.7,6.1 437.8,59.3 438.2,59.3 437.8,46.2 437.8,6.1 
							446.6,6.1 446.6,74.5 437.4,74.5 402.8,18.7 402.4,18.7 402.8,31.9 402.8,74.5 						"/>
					</g>
					<path id="Shape_9_" class="st1" d="M776.2,249.5c-26.7,0-48.5,20.4-48.5,48.5c0,27.9,21.8,48.5,48.5,48.5
						c26.7,0,48.5-20.6,48.5-48.5C824.7,269.9,802.9,249.5,776.2,249.5z M776.2,327.4c-14.6,0-27.3-12.1-27.3-29.4
						c0-17.5,12.6-29.4,27.3-29.4c14.6,0,27.3,11.9,27.3,29.4C803.5,315.2,790.9,327.4,776.2,327.4z M670.4,249.5
						c-26.7,0-48.5,20.4-48.5,48.5c0,27.9,21.8,48.5,48.5,48.5c26.7,0,48.5-20.6,48.5-48.5C718.9,269.9,697.2,249.5,670.4,249.5z
						 M670.4,327.4c-14.6,0-27.3-12.1-27.3-29.4c0-17.5,12.6-29.4,27.3-29.4c14.6,0,27.3,11.9,27.3,29.4
						C697.7,315.2,685.1,327.4,670.4,327.4z M544.6,264.4v20.6h49c-1.5,11.6-5.3,20-11.2,25.9c-7.1,7.2-18.3,15.1-37.9,15.1
						c-30.2,0-53.8-24.4-53.8-54.7c0-30.3,23.6-54.7,53.8-54.7c16.3,0,28.2,6.4,37,14.7l14.5-14.5c-12.3-11.8-28.5-20.8-51.4-20.8
						c-41.4,0-76.1,33.8-76.1,75.3s34.8,75.3,76.1,75.3c22.3,0,39.2-7.4,52.3-21.1c13.5-13.6,17.8-32.7,17.8-48.1
						c0-4.8-0.4-9.2-1.1-12.9L544.6,264.4L544.6,264.4z M1059.2,280.3c-4-10.8-16.3-30.9-41.4-30.9c-24.9,0-45.6,19.7-45.6,48.5
						c0,27.2,20.5,48.5,47.9,48.5c22.1,0,35-13.6,40.3-21.5l-16.5-11c-5.5,8.1-13,13.4-23.8,13.4c-10.8,0-18.5-5-23.4-14.7
						l64.6-26.8L1059.2,280.3z M993.4,296.5c-0.5-18.7,14.5-28.3,25.3-28.3c8.4,0,15.5,4.2,17.9,10.3L993.4,296.5z M940.8,343.5
						h21.2V201h-21.2V343.5z M906.1,260.3h-0.7c-4.8-5.7-13.9-10.8-25.4-10.8c-24.2,0-46.3,21.3-46.3,48.7
						c0,27.2,22.1,48.3,46.3,48.3c11.5,0,20.7-5.1,25.4-11h0.7v7c0,18.6-9.9,28.5-25.8,28.5c-13,0-21-9.4-24.3-17.3l-18.5,7.7
						c5.3,12.9,19.4,28.7,42.8,28.7c24.9,0,45.9-14.7,45.9-50.5v-87.1h-20.1L906.1,260.3L906.1,260.3z M881.7,327.4
						c-14.6,0-26.9-12.3-26.9-29.2c0-17.1,12.3-29.6,26.9-29.6c14.4,0,25.8,12.5,25.8,29.6C907.5,315.1,896.2,327.4,881.7,327.4z
						 M1158.7,201h-50.8v142.5h21.2v-54h29.6c23.5,0,46.6-17.1,46.6-44.3S1182.2,201,1158.7,201z M1159.2,269.7h-30.1v-48.9h30.1
						c15.8,0,24.8,13.2,24.8,24.4C1184.1,256.3,1175.1,269.7,1159.2,269.7z M1290.2,249.2c-15.3,0-31.2,6.8-37.8,21.8l18.8,7.9
						c4-7.9,11.5-10.5,19.4-10.5c11,0,22.1,6.6,22.3,18.3v1.5c-3.8-2.2-12.1-5.5-22.1-5.5c-20.3,0-40.9,11.2-40.9,32.1
						c0,19.1,16.6,31.4,35.3,31.4c14.2,0,22.1-6.4,27-13.9h0.7v11h20.5v-54.7C1333.3,263.3,1314.5,249.2,1290.2,249.2z
						 M1287.6,327.3c-6.9,0-16.6-3.5-16.6-12.1c0-11,12.1-15.2,22.5-15.2c9.3,0,13.7,2,19.4,4.8
						C1311.2,318,1299.9,327.3,1287.6,327.3z M1407.8,252.3l-24.3,61.8h-0.7l-25.2-61.8h-22.8l37.8,86.4l-21.6,48.1h22.1l58.3-134.4
						H1407.8z M1217,343.5h21.2V201H1217V343.5z"/>
					<g id="Group_1_" transform="translate(114.121977, 81.064450)">
						
							<linearGradient id="Shape_17_" gradientUnits="userSpaceOnUse" x1="-60.5588" y1="687.7974" x2="-61.8571" y2="687.128" gradientTransform="matrix(146.8216 0 0 -285.8864 9027.1436 196651.6406)">
							<stop  offset="0" style="stop-color:#00A0FF"/>
							<stop  offset="6.599999e-03" style="stop-color:#00A1FF"/>
							<stop  offset="0.2601" style="stop-color:#00BEFF"/>
							<stop  offset="0.5122" style="stop-color:#00D2FF"/>
							<stop  offset="0.7604" style="stop-color:#00DFFF"/>
							<stop  offset="1" style="stop-color:#00E3FF"/>
						</linearGradient>
						<path id="Shape_10_" class="st3" d="M6.7,6.3c-3.3,3.5-5.3,9-5.3,16v252.2c0,7.1,2,12.5,5.3,16l0.8,0.8l140.7-141.3v-1.7v-1.7
							L7.5,5.5L6.7,6.3z"/>
						
							<linearGradient id="Shape_18_" gradientUnits="userSpaceOnUse" x1="-60.4937" y1="685.2448" x2="-62.8743" y2="685.2448" gradientTransform="matrix(115.4463 0 0 -97.5305 7256.2422 66980.7188)">
							<stop  offset="0" style="stop-color:#FFE000"/>
							<stop  offset="0.4087" style="stop-color:#FFBD00"/>
							<stop  offset="0.7754" style="stop-color:#FFA500"/>
							<stop  offset="1" style="stop-color:#FF9C00"/>
						</linearGradient>
						<path id="Shape_11_" class="st4" d="M195.2,197.2l-46.9-47.1v-1.7v-1.7l46.9-47.1l1.1,0.6l55.6,31.7
							c15.9,9.1,15.9,23.9,0,32.9l-55.6,31.7L195.2,197.2z"/>
						
							<linearGradient id="Shape_19_" gradientUnits="userSpaceOnUse" x1="-60.5321" y1="686.6352" x2="-61.896" y2="684.8655" gradientTransform="matrix(189.53 0 0 -146.6513 11642.8271 100870.5156)">
							<stop  offset="0" style="stop-color:#FF3A44"/>
							<stop  offset="1" style="stop-color:#C31162"/>
						</linearGradient>
						<path id="Shape_12_" class="st5" d="M196.2,196.6l-48-48.2L6.7,290.6c5.2,5.6,13.9,6.2,23.6,0.7L196.2,196.6"/>
						
							<linearGradient id="Shape_20_" gradientUnits="userSpaceOnUse" x1="-61.5827" y1="687.3551" x2="-60.9736" y2="686.5649" gradientTransform="matrix(189.53 0 0 -146.6558 11642.8271 100726.9922)">
							<stop  offset="0" style="stop-color:#32A071"/>
							<stop  offset="6.850000e-02" style="stop-color:#2DA771"/>
							<stop  offset="0.4762" style="stop-color:#15CF74"/>
							<stop  offset="0.8009" style="stop-color:#06E775"/>
							<stop  offset="1" style="stop-color:#00F076"/>
						</linearGradient>
						<path id="Shape_13_" class="st6" d="M196.2,100.3L30.3,5.6C20.6,0.1,11.9,0.8,6.7,6.3l141.6,142.1L196.2,100.3z"/>
						<g id="Shape_14_" transform="translate(0.000000, 193.852250)">
							<path class="st7" d="M195.2,1.7L30.3,95.8c-9.2,5.3-17.5,4.9-22.8,0.1l-0.8,0.8l0.8,0.8c5.3,4.8,13.5,5.1,22.8-0.1L196.2,2.8
								L195.2,1.7z"/>
							<path class="st8" d="M6.7,95c-3.3-3.5-5.3-9-5.3-16v1.7c0,7.1,2,12.5,5.3,16l0.8-0.8L6.7,95z"/>
						</g>
						<path id="Shape_15_" class="st8" d="M251.8,163.2l-56.6,32.3l1.1,1.1l55.6-31.7c7.9-4.5,11.9-10.5,11.9-16.5
							C263.1,153.9,259,159.1,251.8,163.2z"/>
						<path id="Shape_16_" class="st9" d="M30.3,7.3l221.5,126.3c7.2,4.1,11.2,9.4,11.9,14.8c0-6-4-11.9-11.9-16.5L30.3,5.6
							C14.4-3.4,1.5,4.1,1.5,22.4V24C1.5,5.8,14.4-1.8,30.3,7.3z"/>
					</g>
				</g>
			</g>
		</g>
	</g>
</g>
</svg>
