<?xml version="1.0" encoding="UTF-8"?>
<svg width="48px" height="48px" viewBox="0 0 48 48" version="1.1" xmlns="http://www.w3.org/2000/svg" xmlns:xlink="http://www.w3.org/1999/xlink">
    <!-- Generator: Sketch 55.2 (78181) - https://sketchapp.com -->
    <title>icon/actions/arrow-up</title>
    <desc>Created with Sketch.</desc>
    <g id="icon/actions/arrow-up" stroke="none" stroke-width="1" fill="none" fill-rule="evenodd">
        <path d="M23.9744615,14 C23.5499375,14.0069611 23.1447093,14.178668 22.8445609,14.4789636 L6.50248995,30.8210346 C6.07557326,31.2309219 5.90360153,31.8395807 6.05289822,32.4122726 C6.20219491,32.9849645 6.64943083,33.4322003 7.22212277,33.5814969 C7.79481471,33.7307934 8.40347347,33.5588215 8.81336071,33.1319047 L24,17.9452691 L39.1866316,33.1319047 C39.5965178,33.5588262 40.2051789,33.7308018 40.7778738,33.5815058 C41.3505687,33.4322098 41.7978068,32.9849717 41.9471028,32.4122768 C42.0963988,31.8395819 41.9244232,31.2309208 41.4975017,30.8210346 L25.155431,14.4789636 C24.8427692,14.1661571 24.4166825,13.9934192 23.9744615,14 Z" id="Shape" fill="#000000"></path>
    </g>
</svg>