<?xml version="1.0" standalone="no"?>
<!DOCTYPE svg PUBLIC "-//W3C//DTD SVG 1.1//EN" "http://www.w3.org/Graphics/SVG/1.1/DTD/svg11.dtd" >
<!--
2019-1-3: Created.
-->
<svg xmlns="http://www.w3.org/2000/svg">
<metadata>
Created by FontForge 20120731 at Thu Jan  3 04:30:43 2019
 By icons8

</metadata>
<defs>
<font id="Showcase-icons" horiz-adv-x="512" >
  <font-face 
    font-family="Showcase-icons"
    font-weight="500"
    font-stretch="normal"
    units-per-em="512"
    panose-1="2 0 6 3 0 0 0 0 0 0"
    ascent="448"
    descent="-64"
    bbox="-0.243164 -64.2471 512.247 448"
    underline-thickness="25.6"
    underline-position="-51.2"
    unicode-range="U+0020-F1BA"
  />
    <missing-glyph />
    <glyph glyph-name="space" unicode=" " horiz-adv-x="200" 
 />
    <glyph glyph-name="shop" unicode="&#xf117;" 
d="M102.4 396.8h307.199c18.8594 0 34.1338 -15.2744 34.1338 -34.1328v-17.0674l51.2002 -68.2666c0 -18.8584 -15.2754 -34.1328 -34.1338 -34.1328s-34.1328 15.2744 -34.1328 34.1328l-34.1338 68.2666h-51.2002l17.0674 -68.2666
c0 -16.501 -11.71 -30.252 -27.2666 -33.4326c-2.22266 -0.455078 -4.50977 -0.700195 -6.86719 -0.700195c-18.8584 0 -34.1328 15.2744 -34.1328 34.1328v68.2666h-68.2676v-68.2666c0 -18.8584 -15.2744 -34.1328 -34.1328 -34.1328s-34.1338 15.2744 -34.1338 34.1328
l17.0674 68.2666h-51.2002l-34.1338 -68.2666c0 -18.8584 -15.2744 -34.1328 -34.1328 -34.1328s-34.1338 15.2744 -34.1338 34.1328l51.2002 68.2666v17.0674c0 18.8584 15.2744 34.1328 34.1338 34.1328zM221.866 218.566c10.0869 -5.87109 21.6406 -9.5 34.1338 -9.5
s24.0469 3.62891 34.1338 9.5c10.0859 -5.87109 21.6396 -9.5 34.1328 -9.5c12.459 0 23.9639 3.61328 34.0332 9.4668c10.0869 -5.90527 21.7236 -9.4668 34.2334 -9.4668c12.4072 0 23.8984 3.59766 33.9336 9.40039c10.1035 -5.92188 21.8066 -9.40039 34.333 -9.40039
v-187.733c0 -18.8584 -15.2744 -34.1328 -34.1328 -34.1328h-34.1338v170.666h-119.467v-170.666h-34.1328v170.666h-119.467v-170.666h-34.1338c-18.8584 0 -34.1328 15.2744 -34.1328 34.1328v187.733c12.5264 0 24.2295 3.47852 34.333 9.40039
c10.0352 -5.80273 21.5264 -9.40039 33.9336 -9.40039c12.5098 0 24.1465 3.56152 34.2334 9.4668c10.0693 -5.85352 21.5742 -9.4668 34.0332 -9.4668c12.4932 0 24.0469 3.62891 34.1328 9.5zM204.8 89.5996c9.4209 0 17.0664 -7.64551 17.0664 -17.0664
s-7.64551 -17.0664 -17.0664 -17.0664s-17.0664 7.64551 -17.0664 17.0664s7.64551 17.0664 17.0664 17.0664zM307.2 89.5996c9.4209 0 17.0664 -7.64551 17.0664 -17.0664s-7.64551 -17.0664 -17.0664 -17.0664s-17.0664 7.64551 -17.0664 17.0664
s7.64551 17.0664 17.0664 17.0664z" />
    <glyph glyph-name="vers-l-apos-avant" unicode="&#xf12b;" 
d="M170.5 379.9c3.97852 -0.000976562 9.45898 -2.31543 12.2334 -5.16699l170.667 -170.667c2.75781 -2.75879 4.99609 -8.16504 4.99609 -12.0664s-2.23828 -9.30762 -4.99609 -12.0664l-170.667 -170.667c-2.78125 -2.89648 -8.29688 -5.24707 -12.3125 -5.24707
c-9.42188 0 -17.0684 7.64648 -17.0684 17.0684c0 4.01562 2.35059 9.53125 5.24707 12.3125l158.601 158.6l-158.601 158.6c-2.84961 2.77441 -5.16309 8.25391 -5.16309 12.2324c0 9.41895 7.64453 17.0654 17.0635 17.0684z" />
    <glyph glyph-name="r--quilibrer-le-portefeuille" unicode="&#xf17d;" 
d="M290.134 430.066c43.707 -3.61816 83.4922 -20.873 115.1 -47.5996l-115.1 -115.134v162.733zM238.934 395.934v-186.867h-186.867c8.22656 99.4648 87.4023 178.641 186.867 186.867zM412.3 324.167c30.1914 -35.6865 48.5 -81.752 48.5 -132.167
s-18.3086 -96.4805 -48.5 -132.167l-132.166 132.167zM52.0664 174.934h196.867l139.233 -139.233c-35.6865 -30.1914 -81.752 -48.5 -132.167 -48.5c-107.35 0 -195.229 82.6367 -203.934 187.733z" />
    <glyph glyph-name="money" unicode="&#xf10c;" 
d="M68.2666 379.733h375.467c15.2197 -0.0205078 30.1523 -12.1162 33.333 -27c0.0390625 -0.179688 0.0976562 -0.352539 0.133789 -0.533203c0.361328 -1.80371 0.660156 -4.76074 0.666992 -6.60059v-204.8c-0.0214844 -15.2188 -12.1172 -30.1523 -27 -33.333
c-0.180664 -0.0390625 -0.353516 -0.0976562 -0.53418 -0.133789c-1.80371 -0.361328 -4.75977 -0.660156 -6.59961 -0.666016h-375.467c-15.2197 0.0205078 -30.1523 12.1162 -33.333 27c-0.0390625 0.179688 -0.0976562 0.352539 -0.133789 0.533203
c-0.361328 1.80371 -0.660156 4.75977 -0.666016 6.59961v204.8c0.0205078 15.2197 12.1162 30.1533 27 33.334c0.179688 0.0390625 0.352539 0.0966797 0.533203 0.132812c1.80371 0.362305 4.75977 0.661133 6.59961 0.666992zM102.4 345.6
c0 -18.8408 -15.292 -34.1328 -34.1338 -34.1328v-136.533c18.8418 0 34.1338 -15.292 34.1338 -34.1338h307.199c0 18.8418 15.292 34.1338 34.1338 34.1338v136.533c-18.8418 0 -34.1338 15.292 -34.1338 34.1328h-307.199zM256 311.467
c37.7002 0 68.2666 -34.3896 68.2666 -76.7998c0 -24.2695 -10.2002 -45.6533 -25.833 -59.7334h-84.8672c-15.6328 14.0801 -25.833 35.4639 -25.833 59.7334c0 42.4102 30.5664 76.7998 68.2666 76.7998zM119.467 260.267c9.4209 0 17.0664 -7.64551 17.0664 -17.0664
s-7.64551 -17.0664 -17.0664 -17.0664s-17.0664 7.64551 -17.0664 17.0664s7.64551 17.0664 17.0664 17.0664zM392.533 260.267c9.4209 0 17.0664 -7.64551 17.0664 -17.0664s-7.64551 -17.0664 -17.0664 -17.0664s-17.0664 7.64551 -17.0664 17.0664
s7.64551 17.0664 17.0664 17.0664zM443.467 72.7666h0.0859375c0.782227 0 2.04297 -0.104492 2.81445 -0.233398h14.4326v-17.0664v-17.0664v-33.4668v-0.0205078c0 -0.660156 -0.0742188 -1.72656 -0.166016 -2.37988
c-0.912109 -18.0469 -15.6016 -32.5664 -33.9668 -32.5664c-0.480469 0 -0.924805 0.256836 -1.40039 0.299805c-4.18555 0.194336 -5.37891 0.941406 -7.13281 1.5332c-1.99707 0.673828 -4.05273 1.46484 -6.53418 2.43359
c-4.96094 1.9375 -11.4463 4.55957 -19.6328 7.7002c-16.374 6.2793 -39.5186 14.6084 -69.2666 22.9668c-59.4971 16.7148 -145.251 33.5 -254.434 33.5c-0.0664062 -0.000976562 -0.174805 -0.00195312 -0.241211 -0.00195312
c-9.42188 0 -17.0684 7.64648 -17.0684 17.0684s7.64648 17.0684 17.0684 17.0684c0.0664062 0 0.174805 -0.000976562 0.241211 -0.00195312c112.684 0 201.671 -17.3486 263.667 -34.7666c26.417 -7.42188 46.8242 -14.5938 63.1328 -20.667
c5.07324 12.4883 17.2861 21.3008 31.6006 21.3008v17.0664v17.0664h14.333c0.675781 0.114258 1.78125 0.21875 2.4668 0.233398z" />
    <glyph glyph-name="podium-with-speaker" unicode="&#xf120;" 
d="M256 396.8c26.0439 0 34.1338 -17.0664 34.1338 -17.0664c23.2959 0 34.1328 -23.5693 34.1328 -51.2002c0 -13.7725 -6 -25.1826 -6 -25.2002c2.40625 -1.38184 6.40723 -5.7998 5.40039 -13.6328c-1.86035 -14.5918 -8.20605 -18.293 -12.2334 -18.6006
c-1.53613 -13.6191 -16.1807 -31.0742 -21.2998 -33.5996v-22.7666c9.31738 -27.9395 71.9268 -17.8125 94.3662 -56.8672h76.2998l0.241211 0.00195312c9.42188 0 17.0684 -7.64648 17.0684 -17.0684s-7.64648 -17.0684 -17.0684 -17.0684
c-0.0664062 0 -0.174805 0.000976562 -0.241211 0.00195312h-409.6c-0.0664062 -0.000976562 -0.174805 -0.00195312 -0.241211 -0.00195312c-9.42188 0 -17.0684 7.64648 -17.0684 17.0684s7.64648 17.0684 17.0684 17.0684l0.241211 -0.00195312h76.2998
c22.4395 39.0586 85.0488 28.9619 94.3662 56.9004v22.7666c-5.11914 2.54297 -19.7637 19.9473 -21.2998 33.5664c-4.02734 0.307617 -10.373 4.00879 -12.2334 18.6006c-1.00684 7.83301 2.99414 12.251 5.40039 13.6328c0 0 -6 12.6396 -6 25.2002
c0 37.3076 20.002 68.2666 68.2666 68.2666zM68.2666 89.5996h375.467l-20.4668 -102.399h-334.533z" />
    <glyph glyph-name="job-seeker" unicode="&#xf18b;" 
d="M238.934 396.8h34.1328c18.8594 0 34.1338 -15.2744 34.1338 -34.1328h136.533c18.8584 0 34.1338 -15.2754 34.1338 -34.1338v-153.6c0 -3.65234 -0.742188 -7.12305 -1.80078 -10.4336c-24.9854 27.3066 -60.7656 44.5664 -100.6 44.5664
c-50.415 0 -94.4121 -27.5283 -118.066 -68.2666h-189.134c-18.8584 0 -34.1328 15.2744 -34.1328 34.1338v153.6c0 18.8584 15.2744 34.1338 34.1328 34.1338h136.533c0 18.8584 15.2744 34.1328 34.1338 34.1328zM256 209.066
c-9.4209 0 -17.0664 -7.64551 -17.0664 -17.0664s7.64551 -17.0664 17.0664 -17.0664s17.0664 7.64551 17.0664 17.0664s-7.64551 17.0664 -17.0664 17.0664zM375.467 174.934c56.3516 0 102.4 -46.0488 102.4 -102.4c0 -22.041 -7.11621 -42.4502 -19.0674 -59.2002
l48.2002 -48.2002c2.89648 -2.78027 5.24707 -8.2959 5.24707 -12.3115c0 -9.42188 -7.64648 -17.0684 -17.0684 -17.0684c-4.01562 0 -9.53125 2.35059 -12.3115 5.24707l-48.2002 48.2002c-16.75 -11.9512 -37.1592 -19.0674 -59.2002 -19.0674
c-56.3516 0 -102.4 46.0488 -102.4 102.4s46.0488 102.4 102.4 102.4zM375.467 140.8c-37.9053 0 -68.2666 -30.3613 -68.2666 -68.2666c0 -37.9043 30.3613 -68.2666 68.2666 -68.2666c37.9043 0 68.2666 30.3623 68.2666 68.2666
c0 37.9053 -30.3623 68.2666 -68.2666 68.2666zM34.1338 116.167c10.0859 -5.87109 21.6396 -9.5 34.1328 -9.5h175.167c-2.81641 -10.9404 -4.5 -22.3232 -4.5 -34.1338c0 -18.1074 3.63184 -35.3789 10.0664 -51.2002h-180.733
c-18.8584 0 -34.1328 15.2754 -34.1328 34.1338v60.7002z" />
    <glyph glyph-name="heures-suppl-mentaires" unicode="&#xf140;" 
d="M102.4 379.733h307.199c18.8594 0 34.1338 -15.2744 34.1338 -34.1338v-182.399c40.2598 -19.2539 68.2666 -60.2842 68.2666 -107.733c0 -65.7773 -53.6895 -119.467 -119.467 -119.467c-47.4492 0 -88.4795 28.0068 -107.733 68.2666h-182.399
c-18.8594 0 -34.1338 15.2744 -34.1338 34.1338v307.199c0 18.8594 15.2744 34.1338 34.1338 34.1338zM102.4 345.6v-68.2666h307.199v68.2666h-307.199zM187.733 226.134c-9.4209 0 -17.0664 -7.64648 -17.0664 -17.0674s7.64551 -17.0664 17.0664 -17.0664
s17.0664 7.64551 17.0664 17.0664s-7.64551 17.0674 -17.0664 17.0674zM256 226.134c-9.4209 0 -17.0664 -7.64648 -17.0664 -17.0674s7.64551 -17.0664 17.0664 -17.0664s17.0664 7.64551 17.0664 17.0664s-7.64551 17.0674 -17.0664 17.0674zM324.267 226.134
c-9.4209 0 -17.0664 -7.64648 -17.0664 -17.0674s7.64551 -17.0664 17.0664 -17.0664s17.0664 7.64551 17.0664 17.0664s-7.64551 17.0674 -17.0664 17.0674zM392.533 226.134c-9.4209 0 -17.0664 -7.64648 -17.0664 -17.0674s7.64551 -17.0664 17.0664 -17.0664
s17.0664 7.64551 17.0664 17.0664s-7.64551 17.0674 -17.0664 17.0674zM119.467 157.866c-9.4209 0 -17.0664 -7.64551 -17.0664 -17.0664s7.64551 -17.0664 17.0664 -17.0664s17.0664 7.64551 17.0664 17.0664s-7.64551 17.0664 -17.0664 17.0664zM187.733 157.866
c-9.4209 0 -17.0664 -7.64551 -17.0664 -17.0664s7.64551 -17.0664 17.0664 -17.0664s17.0664 7.64551 17.0664 17.0664s-7.64551 17.0664 -17.0664 17.0664zM256 157.866c-9.4209 0 -17.0664 -7.64551 -17.0664 -17.0664s7.64551 -17.0664 17.0664 -17.0664
s17.0664 7.64551 17.0664 17.0664s-7.64551 17.0664 -17.0664 17.0664zM392.533 140.8c-47.3301 0 -85.333 -38.0029 -85.333 -85.333c0 -47.3311 38.0029 -85.334 85.333 -85.334c47.3311 0 85.334 38.0029 85.334 85.334c0 47.3301 -38.0029 85.333 -85.334 85.333z
M392.267 123.967c0.0732422 0.000976562 0.193359 0.00195312 0.266602 0.00195312c9.42188 0 17.0684 -7.64648 17.0684 -17.0684l-0.00195312 -0.233398v-44.1338l20.4668 -20.4668c2.89648 -2.78027 5.24707 -8.29688 5.24707 -12.3115
c0 -9.42188 -7.64648 -17.0684 -17.0684 -17.0684c-4.01465 0 -9.53125 2.35059 -12.3115 5.24707l-30.4668 30.4668v58.2666l-0.00195312 0.233398c0 9.27539 7.52734 16.9209 16.8018 17.0664zM119.467 89.5996c-9.4209 0 -17.0664 -7.64551 -17.0664 -17.0664
s7.64551 -17.0664 17.0664 -17.0664s17.0664 7.64551 17.0664 17.0664s-7.64551 17.0664 -17.0664 17.0664zM187.733 89.5996c-9.4209 0 -17.0664 -7.64551 -17.0664 -17.0664s7.64551 -17.0664 17.0664 -17.0664s17.0664 7.64551 17.0664 17.0664
s-7.64551 17.0664 -17.0664 17.0664zM256 89.5996c-9.4209 0 -17.0664 -7.64551 -17.0664 -17.0664s7.64551 -17.0664 17.0664 -17.0664s17.0664 7.64551 17.0664 17.0664s-7.64551 17.0664 -17.0664 17.0664z" />
    <glyph glyph-name="comma" unicode="&#xf19f;" 
d="M256 396.8c83.8223 -0.03125 152.605 -68.082 153.533 -151.899c0.0371094 -0.418945 0.0673828 -1.09863 0.0673828 -1.51855l-0.000976562 -0.181641c-0.0214844 -4.65234 -0.46875 -12.1787 -1 -16.7998c-10.2305 -138.905 -142.366 -235.801 -142.366 -235.801
c-2.51172 -1.87988 -7.0957 -3.40625 -10.2324 -3.40625c-9.4248 0 -17.0732 7.64941 -17.0732 17.0742c0 2.99805 1.40625 7.41797 3.13867 9.86523c0.0654297 0.0888672 21.4248 29.7988 32 76.7334c-4.96582 -0.643555 -13.0596 -1.21094 -18.0664 -1.2666
c-84.7871 0 -153.6 68.8135 -153.6 153.601s68.8125 153.6 153.6 153.6z" />
    <glyph glyph-name="conf-rence" unicode="&#xf13e;" 
d="M170.667 362.667h170.666c18.8594 0 34.1338 -15.2754 34.1338 -34.1338v-273.066c0 -18.8584 -15.2744 -34.1338 -34.1338 -34.1338h-170.666c-18.8594 0 -34.1338 15.2754 -34.1338 34.1338v273.066c0 18.8584 15.2744 34.1338 34.1338 34.1338zM51.2002 328.533
h51.2334v-54.167c-14.4561 -5.25586 -24.5674 -17.4736 -24.5674 -35.666c0 -10.4619 5.86719 -18.6006 5.86719 -18.6006s-2.66699 -1.30176 -2.66699 -6.89941c0 -10.8545 6.9668 -13.4668 6.9668 -13.4668c0.972656 -8.60156 14.3672 -21.2002 14.3672 -21.2002v-14.3994
c-7.18555 -21.5557 -51.2002 -7.3252 -51.2002 -57.4668h51.2002v-51.2002h-51.2002c-18.8584 0 -34.1338 15.2744 -34.1338 34.1328v204.801c0 18.8584 15.2754 34.1328 34.1338 34.1328zM409.6 328.533h51.2002c18.8584 0 34.1338 -15.2744 34.1338 -34.1328v-204.768
c0 -18.8584 -15.2754 -34.1328 -34.1338 -34.1328h-51.2002v51.2002h51.2002c0 50.2949 -44.0146 35.9111 -51.2002 57.4668v14.3662s13.3945 12.5811 14.3672 21.2002c0 0 6.9668 4.83105 6.9668 13.4668c0 5.99023 -2.66699 6.89941 -2.66699 6.89941
s4.7998 9.12988 4.7998 17.834c0 17.4414 -8.75488 30.8662 -23.4668 30.8662v59.7334zM256 277.333c-22.9717 0 -41.6172 -13.8525 -41.5996 -38.6328c0 -10.4619 5.86621 -18.6006 5.86621 -18.6006s-2.66699 -1.30176 -2.66699 -6.89941
c0 -10.8545 6.9668 -13.4668 6.9668 -13.4668c0.972656 -8.60156 14.3672 -21.2002 14.3672 -21.2002v-14.3994c-7.18359 -21.5508 -51.1787 -7.33496 -51.2002 -57.4336h136.533c0 50.2949 -44.0146 35.9111 -51.2002 57.4668v14.3662s13.3945 12.5811 14.3672 21.2002
c0 0 6.9668 4.83105 6.9668 13.4668c0 5.99023 -2.66699 6.89941 -2.66699 6.89941s4.7998 9.12988 4.7998 17.834c0 17.4414 -8.75488 30.8662 -23.4668 30.8662c0 0 -6.24609 8.5332 -17.0664 8.5332z" />
    <glyph glyph-name="play-property" unicode="&#xf19c;" 
d="M68.2666 379.733h375.467c18.8584 0 34.1338 -15.2744 34.1338 -34.1338v-51.1992v-169.334l-34.1338 20.4668v131.8h-375.467v-238.933h204.8v-34.1338h-238.933v273.066v17.0674v51.1992c0 18.8594 15.2744 34.1338 34.1328 34.1338zM136.533 226.134
c9.4209 0 17.0664 -7.64648 17.0664 -17.0674s-7.64551 -17.0664 -17.0664 -17.0664s-17.0664 7.64551 -17.0664 17.0664s7.64551 17.0674 17.0664 17.0674zM204.8 226.134h153.601c9.4209 0 17.0664 -7.64648 17.0664 -17.0674
c0 -7.35547 -4.68066 -13.4932 -11.2002 -15.8994l-12 7.19922c-8.58398 5.68359 -18.2373 8.7002 -28 8.7002c-15.0693 0 -28.5303 -6.67285 -37.9004 -17.0664h-81.5664c-9.4209 0 -17.0664 7.64551 -17.0664 17.0664s7.64551 17.0674 17.0664 17.0674zM324.267 174.934
c3.65234 0 6.85156 -1.3877 9.63379 -3.33398l169.199 -101.433c5.22266 -2.91895 8.90039 -8.2832 8.90039 -14.7002s-3.69336 -11.7822 -8.93359 -14.7002l-169.199 -101.434c-2.76562 -1.94531 -5.94824 -3.33301 -9.60059 -3.33301
c-9.4209 0 -17.0664 7.64551 -17.0664 17.0664c0 0.0175781 0.0332031 0.0664062 0.0332031 0.100586h-0.0332031v102.3v102.333h0.0332031c0 0.0175781 -0.0332031 0.0498047 -0.0332031 0.0664062c0 9.4209 7.64551 17.0674 17.0664 17.0674zM136.533 157.866
c9.4209 0 17.0664 -7.64551 17.0664 -17.0664s-7.64551 -17.0664 -17.0664 -17.0664s-17.0664 7.64551 -17.0664 17.0664s7.64551 17.0664 17.0664 17.0664zM204.8 157.866h68.2666c0 -0.324219 0.0166016 -0.641602 0.0332031 -0.96582v-33.167h-68.2998
c-9.4209 0 -17.0664 7.64551 -17.0664 17.0664s7.64551 17.0664 17.0664 17.0664z" />
    <glyph glyph-name="synchroniser" unicode="&#xf131;" 
d="M256 396.8c56.4785 0 107.532 -23.1689 144.566 -60.2334l26.1006 26.1006l17.0664 -102.4l-102.4 17.0664l35.1338 35.1338c-30.8574 30.9395 -73.2451 50.2002 -120.467 50.2002c-86.8945 0 -158.123 -64.6719 -169.033 -148.434
c-0.823242 -8.51465 -8.43457 -15.4258 -16.9893 -15.4258c-9.42188 0 -17.0684 7.64648 -17.0684 17.0684c0 0.766602 0.100586 2.00098 0.224609 2.75781c13.085 100.456 98.9893 178.166 202.866 178.166zM442.233 184.866
c9.27832 -0.141602 16.8076 -7.78711 16.8076 -17.0654c0 -0.675781 -0.078125 -1.76562 -0.173828 -2.43457c-13.0859 -100.456 -98.9902 -178.166 -202.867 -178.166c-60.8242 0 -115.281 26.9189 -152.767 69.0996l-34.9668 -34.9668l-17.0664 102.4l102.399 -17.0664
l-26.1992 -26.2002c31.2988 -36.0977 77.0225 -59.1338 128.6 -59.1338c86.8945 0 158.123 64.6719 169.033 148.434c0.966797 8.33594 8.5625 15.1016 16.9551 15.1016z" />
    <glyph glyph-name="web" unicode="&#xf123;" 
d="M256 396.8c112.906 0 204.8 -91.8936 204.8 -204.8s-91.8936 -204.8 -204.8 -204.8s-204.8 91.8936 -204.8 204.8s91.8936 204.8 204.8 204.8zM256 362.667c-6.70898 0 -13.6611 -2.7793 -21.5996 -10.167c-7.93945 -7.3877 -16.1562 -19.3018 -23.2002 -34.7998
c-3.2041 -7.04785 -6.10547 -14.917 -8.7666 -23.2998h107.133c-2.66113 8.38281 -5.5625 16.252 -8.7666 23.2998c-7.04395 15.498 -15.2607 27.4121 -23.2002 34.7998c-7.93848 7.3877 -14.8906 10.167 -21.5996 10.167zM189.233 349.134
c-27.8447 -11.8086 -51.7549 -30.8809 -69.667 -54.7334h47.2334c3.75391 13.4316 8.16602 26.0303 13.334 37.3994c2.7998 6.16016 5.8877 11.8564 9.09961 17.334zM322.767 349.134c3.21191 -5.47754 6.2998 -11.1738 9.10059 -17.334
c5.16699 -11.3691 9.5791 -23.9678 13.333 -37.3994h47.2334c-17.9121 23.8525 -41.8223 42.9248 -69.667 54.7334zM99.5664 260.267c-6.94629 -15.9443 -11.6152 -33.1377 -13.3994 -51.2002h67.833c0.692383 17.8311 2.4873 34.9531 5.2334 51.2002h-59.667z
M193.934 260.267c-2.99316 -15.96 -5.01465 -33.1465 -5.7998 -51.2002h135.732c-0.785156 18.0537 -2.80664 35.2402 -5.7998 51.2002h-124.133zM352.767 260.267c2.74609 -16.2471 4.54102 -33.3691 5.2334 -51.2002h67.833
c-1.78418 18.0625 -6.45312 35.2559 -13.3994 51.2002h-59.667zM86.167 174.934c1.78418 -18.0625 6.45312 -35.2559 13.3994 -51.2002h59.667c-2.74609 16.2471 -4.54102 33.3691 -5.2334 51.2002h-67.833zM188.134 174.934
c0.785156 -18.0537 2.80664 -35.2402 5.7998 -51.2002h124.133c2.99316 15.96 5.01465 33.1465 5.7998 51.2002h-135.732zM358 174.934c-0.692383 -17.8311 -2.4873 -34.9531 -5.2334 -51.2002h59.667c6.94629 15.9443 11.6152 33.1377 13.3994 51.2002h-67.833z
M119.566 89.5996c17.9121 -23.8525 41.8223 -42.9248 69.667 -54.7334c-3.21191 5.47754 -6.2998 11.1738 -9.09961 17.334c-5.16797 11.3691 -9.58008 23.9678 -13.334 37.3994h-47.2334zM202.434 89.5996c2.66113 -8.38281 5.5625 -16.252 8.7666 -23.2998
c7.04395 -15.498 15.2607 -27.4121 23.2002 -34.7998c7.93848 -7.3877 14.8906 -10.167 21.5996 -10.167s13.6611 2.7793 21.5996 10.167c7.93945 7.3877 16.1562 19.3018 23.2002 34.7998c3.2041 7.04785 6.10547 14.917 8.7666 23.2998h-107.133zM345.2 89.5996
c-3.75391 -13.4316 -8.16602 -26.0303 -13.333 -37.3994c-2.80078 -6.16016 -5.88867 -11.8564 -9.10059 -17.334c27.8447 11.8086 51.7549 30.8809 69.667 54.7334h-47.2334z" />
    <glyph glyph-name="rounded-arrow" unicode="&#xf194;" 
d="M256 396.8c112.904 0 204.8 -91.8955 204.8 -204.8s-91.8955 -204.8 -204.8 -204.8s-204.8 91.8955 -204.8 204.8c0 50.4863 18.5459 96.6816 48.9336 132.434l-31.8672 38.2334l119.467 17.0664l-34.1338 -119.467l-31.3994 37.667
c-23.0674 -29.0791 -36.8672 -65.8311 -36.8672 -105.934c0 -94.4561 76.2109 -170.667 170.667 -170.667s170.667 76.2109 170.667 170.667s-76.2109 170.667 -170.667 170.667l-0.241211 -0.00195312c-9.42188 0 -17.0684 7.64648 -17.0684 17.0684
s7.64648 17.0684 17.0684 17.0684z" />
    <glyph glyph-name="attirer" unicode="&#xf176;" 
d="M375.467 413.866c28.2627 0 51.2002 -22.9375 51.2002 -51.1992c0 -28.2627 -22.9375 -51.2002 -51.2002 -51.2002s-51.2002 22.9375 -51.2002 51.2002c0 28.2617 22.9375 51.1992 51.2002 51.1992zM153.6 311.467h85.334v-51.2002h-85.334
c-37.7002 0 -68.2666 -30.5664 -68.2666 -68.2666s30.5664 -68.2666 68.2666 -68.2666h85.334v-51.2002h-85.334c-65.9795 0 -119.466 53.4873 -119.466 119.467s53.4863 119.467 119.466 119.467zM350.934 277.333h24.5332h24.5332
c23.4033 0 43.9912 -16.0713 49.667 -38.7666v-0.0332031l27.7002 -110.667c0.280273 -1.12305 0.507812 -2.97461 0.507812 -4.13281c0 -9.4248 -7.64941 -17.0742 -17.0752 -17.0742c-7.3623 0 -14.7842 5.79688 -16.5664 12.9404l-17.5664 70.2666v-185.033
c0 -9.72754 -7.90527 -17.6328 -17.6338 -17.6328c-9.28418 0 -16.9854 7.21582 -17.5996 16.4668l-7.4668 112.1c-0.307617 4.47168 -4.01172 7.9668 -8.5 7.9668s-8.19336 -3.47949 -8.5 -7.93359l-7.4668 -112.133
c-0.614258 -9.26758 -8.31543 -16.4668 -17.5996 -16.4668c-9.72852 0 -17.6338 7.90527 -17.6338 17.6328v185.033l-17.5664 -70.2666c-1.78223 -7.14355 -9.2041 -12.9404 -16.5664 -12.9404c-9.42578 0 -17.0752 7.64941 -17.0752 17.0742
c0 1.1582 0.227539 3.00977 0.507812 4.13281l27.7002 110.667c5.66504 22.7109 26.2529 38.7998 49.667 38.7998zM170.667 226.134l68.2666 -34.1338h-51.2002v-34.1338l-68.2666 34.1338h51.2002v34.1338z" />
    <glyph glyph-name="handshake-heart" unicode="&#xf1ad;" 
d="M170.667 362.667c22.4082 0 43.2969 -6.28125 61.2002 -17.0332l-39.1338 -39.167c-28.6553 -28.6377 -25.0889 -77.4971 10.7002 -101.101c26.0264 -17.1689 60.9834 -12.0166 83.0332 10.0342l27.5 27.5c6.31445 6.29688 16.4072 6.71875 23.2002 0.932617
c16.9131 -14.5068 48.1572 -41.2627 69.8994 -59.8994c13.7051 -11.7422 16.1104 -32.2666 5 -46.5c-36.9316 -47.3096 -86.834 -92.1504 -120.2 -119.9c-20.8379 -17.3398 -50.8945 -17.3398 -71.7324 0c-1.09277 0.921875 -2.32324 1.97754 -3.4668 2.93359
c3.24219 5.22266 5.19922 11.3281 5.19922 17.9336c0 18.8584 -15.2744 34.1328 -34.1328 34.1328c0 18.8584 -15.2744 34.1338 -34.1338 34.1338c0 18.8584 -15.2744 34.1328 -34.1328 34.1328c0 18.8584 -15.2744 34.1338 -34.1338 34.1338
c-3.56641 0 -6.95703 -0.709961 -10.1992 -1.7334c-14.541 24.2686 -23.9336 48.2568 -23.9336 70c0 65.9795 53.4863 119.467 119.467 119.467zM341.333 362.667c65.9805 0 119.467 -53.4873 119.467 -119.467c0 -8.05566 -1.32715 -16.416 -3.7002 -25
c-3.36133 -12.083 -18.1768 -16.708 -27.6992 -8.5332l-82.0332 70.333c-13.5518 11.6055 -33.7217 10.8457 -46.334 -1.7666l-38.7998 -38.7998c-10.9912 -11.0078 -28.6865 -13.7295 -41.333 -4.66699c-16.0947 11.5371 -17.4307 34.1689 -4.03418 47.5664l63.334 63.334
c17.8857 10.7178 38.7412 17 61.1328 17z" />
    <glyph glyph-name="donn-es-dans-les-deux-directions" unicode="&#xf16e;" 
d="M392.533 396.8l68.2666 -68.2666l-68.2666 -68.2666v51.2002h-324.267l-0.241211 -0.00195312c-9.42188 0 -17.0684 7.64648 -17.0684 17.0684s7.64648 17.0684 17.0684 17.0684l0.241211 -0.00195312h324.267v51.2002zM119.467 123.733v-51.2002h324.267
c0.0664062 0.000976562 0.174805 0.00195312 0.241211 0.00195312c9.42188 0 17.0684 -7.64648 17.0684 -17.0684s-7.64648 -17.0684 -17.0684 -17.0684c-0.0664062 0 -0.174805 0.000976562 -0.241211 0.00195312h-324.267v-51.2002l-68.2666 68.2666z" />
    <glyph glyph-name="volume-moyen" unicode="&#xf106;" 
d="M341.967 351.634c4.55566 -0.101562 10.4844 -3.13281 13.2334 -6.76758c33.9092 -43.3867 54.3994 -97.9795 54.3994 -157.232c0 -55.0703 -17.7051 -106.134 -47.3994 -147.9c-2.78906 -4.26465 -9.18848 -7.72559 -14.2842 -7.72559
c-9.42188 0 -17.0684 7.64746 -17.0684 17.0684c0 3.21094 1.5918 7.88086 3.55273 10.4238c25.8057 36.2969 41.0664 80.3594 41.0664 128.134c0 51.4062 -17.6914 98.5195 -47.167 136.232c-2.08203 2.58691 -3.77148 7.38184 -3.77148 10.7031
c0 9.4209 7.64648 17.0684 17.0684 17.0684zM187.733 328.533v-273.066l-71.7998 68.2666h-64.7334c-28.2793 0 -51.2002 22.9209 -51.2002 51.2002v34.1328c0 28.2793 22.9209 51.2002 51.2002 51.2002h64.7334zM251.533 301.366
c3.9834 -0.0830078 9.41895 -2.51758 12.1338 -5.43262c26.8711 -28.1523 43.5332 -66.3799 43.5332 -108.3c0 -37.459 -13.3135 -72.0186 -35.2998 -99.0342c-2.82812 -3.70801 -8.9082 -6.7168 -13.5723 -6.7168c-9.4209 0 -17.0684 7.64648 -17.0684 17.0684
c0 3.51562 1.87012 8.52539 4.17383 11.1816c17.2656 21.2158 27.6328 48.0918 27.6328 77.501c0 32.8994 -12.9795 62.6064 -34.0996 84.7324c-2.68652 2.74707 -4.86719 8.09375 -4.86719 11.9355c0 9.42188 7.64648 17.0684 17.0684 17.0684z" />
    <glyph glyph-name="organisation" unicode="&#xf156;" 
d="M204.8 396.8h102.4c9.4209 0 17.0664 -7.64551 17.0664 -17.0664h34.1338l0.241211 0.00195312c9.42188 0 17.0684 -7.64648 17.0684 -17.0684s-7.64648 -17.0684 -17.0684 -17.0684l-0.241211 0.000976562h-204.801l-0.241211 -0.000976562
c-9.42188 0 -17.0684 7.64648 -17.0684 17.0684s7.64648 17.0684 17.0684 17.0684l0.241211 -0.00195312h34.1338c0 9.4209 7.64551 17.0664 17.0664 17.0664zM102.4 311.467h307.199l0.242188 0.00195312c9.4209 0 17.0684 -7.64746 17.0684 -17.0684
c0 -9.42188 -7.64746 -17.0684 -17.0684 -17.0684l-0.242188 0.000976562v-187.733c9.4209 0 17.0674 -7.64551 17.0674 -17.0664v-85.333h-17.0674h-34.1328h-68.2666v68.2666h-102.4v-68.2666h-68.2666h-34.1328h-17.0674v85.333
c0 9.4209 7.64648 17.0664 17.0674 17.0664v187.733l-0.242188 -0.000976562c-9.4209 0 -17.0684 7.64648 -17.0684 17.0684c0 9.4209 7.64746 17.0684 17.0684 17.0684zM136.533 260.267v-34.1328h34.1338v34.1328h-34.1338zM204.8 260.267v-34.1328h34.1338v34.1328
h-34.1338zM273.066 260.267v-34.1328h34.1338v34.1328h-34.1338zM341.333 260.267v-34.1328h34.1338v34.1328h-34.1338zM136.533 192v-34.1338h34.1338v34.1338h-34.1338zM204.8 192v-34.1338h34.1338v34.1338h-34.1338zM273.066 192v-34.1338h34.1338v34.1338h-34.1338z
M341.333 192v-34.1338h34.1338v34.1338h-34.1338zM136.533 123.733v-34.1338h34.1338v34.1338h-34.1338zM204.8 123.733v-34.1338h34.1338v34.1338h-34.1338zM273.066 123.733v-34.1338h34.1338v34.1338h-34.1338zM341.333 123.733v-34.1338h34.1338v34.1338h-34.1338z
M136.533 55.4668v-34.1338h34.1338v34.1338h-34.1338zM341.333 55.4668v-34.1338h34.1338v34.1338h-34.1338z" />
    <glyph glyph-name="iphone-x" unicode="&#xf12a;" 
d="M375.467 430.934c18.8584 0 34.1328 -15.2754 34.1328 -34.1338v-409.6c0 -18.8584 -15.2744 -34.1338 -34.1328 -34.1338h-238.934c-18.8584 0 -34.1328 15.2754 -34.1328 34.1338v409.6c0 18.8584 15.2744 34.1338 34.1328 34.1338h238.934zM298.667 413.866
c-4.71094 0 -8.5332 -3.82227 -8.5332 -8.5332c0 -4.70996 3.82227 -8.5332 8.5332 -8.5332c4.70996 0 8.5332 3.82324 8.5332 8.5332c0 4.71094 -3.82324 8.5332 -8.5332 8.5332zM230.4 413.866c-4.71094 0 -8.53418 -3.82227 -8.53418 -8.5332
c0 -4.70996 3.82324 -8.5332 8.53418 -8.5332h34.1328c4.71094 0 8.5332 3.82324 8.5332 8.5332c0 4.71094 -3.82227 8.5332 -8.5332 8.5332h-34.1328zM375.467 -12.7998v409.6h-51.2002l-7.08301 -7.06543c-6.39941 -6.40039 -15.0869 -10.001 -24.1318 -10.001h-74.1201
c-9.0459 0 -17.7324 3.60059 -24.1328 10.001l-7.06543 7.06543h-51.2002v-409.6h238.934z" />
    <glyph glyph-name="casque----couteurs" unicode="&#xf168;" 
d="M256 396.8c103.482 0 187.733 -84.251 187.733 -187.733v-17.0664v-51.2002c0 -18.8584 -15.2744 -34.1328 -34.1338 -34.1328h-34.1328v85.333c0 18.5156 14.75 33.4912 33.1328 34.0332c-8.41602 76.9941 -73.3086 136.634 -152.6 136.634
s-144.184 -59.6396 -152.6 -136.634c18.3828 -0.541992 33.1328 -15.5176 33.1328 -34.0332v-85.333h-34.1328c-18.8594 0 -34.1338 15.2744 -34.1338 34.1328v11.4004v56.8662c0 103.482 84.251 187.733 187.733 187.733zM375.467 72.5332h34.1328v-17.0664
c0 -37.501 -30.7646 -68.2666 -68.2666 -68.2666h-55.7998c-5.43359 -9.41211 -18.665 -17.0586 -29.5332 -17.0674c-18.8418 0 -34.1338 15.292 -34.1338 34.1338s15.292 34.1338 34.1338 34.1338c10.8564 -0.0195312 24.0723 -7.66504 29.5 -17.0674h55.833
c19.0586 0 34.1338 15.0762 34.1338 34.1338v17.0664z" />
    <glyph glyph-name="main-avec-stylo" unicode="&#xf12e;" 
d="M307.833 411.934c2.46094 -0.319336 4.88867 -1.13574 7.16699 -2.4668c9.09668 -5.3252 12.1582 -17.0195 6.83301 -26.1338l-8.19922 -13.833l-32.9668 19.2666l8.19922 13.8672c3.99414 6.82227 11.585 10.2559 18.9668 9.2998zM267.366 371.267
c2.45508 -0.260742 4.90527 -0.999023 7.2002 -2.2666l24.0674 -13.2998c9.28418 -5.1377 12.6055 -16.8672 7.36621 -26.1006l-16.667 -29.4326l-8.33301 5.2666l-0.166992 0.0332031c-4.43652 3.70312 -10.0703 6 -16.2998 6
c-3.03809 0 -5.91992 -0.626953 -8.63281 -1.60059l-0.100586 0.0341797l-41.9668 -10.4336l34.8672 62.167c3.85254 6.86035 11.3027 10.416 18.666 9.63281zM289.333 300.167l144.4 -91.1006h44.1338v-187.733h-145.067
c-6.98047 0.0117188 -17.8223 2.32715 -24.2002 5.16699l-0.0332031 -0.0332031c-0.00390625 0.00195312 -0.393555 0.230469 -0.399414 0.233398c-2.82129 1.27539 -7.16602 3.75488 -9.7002 5.5332c-18.6445 10.5225 -140.367 80 -140.367 80l0.0341797 0.0332031
c-11.9121 6.76367 -21.5889 23.3691 -21.6006 37.0664c0 23.5527 19.1152 42.667 42.667 42.667c4.86328 -0.00292969 12.4346 -1.57031 16.8994 -3.5l67.5 -18.333c15.7363 -4.2666 32.3945 2.27734 41.167 16.0332c2.66211 4.18066 5.31348 8.19238 7.56641 11.333
c8.20898 11.5205 -12.7949 24.8965 -20.7998 11.5332c-3.9082 -6.51953 -6.42773 -10.6865 -8.06641 -13.3662c-1.77539 -2.90137 -5.18945 -4.23535 -8.5 -3.43359l-39.9336 9.56641zM213.833 299.467l-44.4668 -80.5332
c-34.2861 -4.83008 -60.7666 -33.9824 -60.7666 -69.6006c0 -10.3076 2.35742 -20.0264 6.33398 -28.833l-0.0332031 -0.0332031c7.90137 -29.7812 48.7334 -47.9336 48.7334 -47.9336l-25.6338 -46.4004c-5.71973 -10.3701 -16.2188 -16.3389 -27.2334 -16.8662
l-2.63281 -4.5332c-2.71875 -4.72461 -9.34961 -8.55859 -14.8008 -8.55859c-9.42578 0 -17.0752 7.64941 -17.0752 17.0752c0 2.51855 1.01953 6.33398 2.27539 8.5166l2.2666 3.9668c-5.49902 9.62402 -6.08301 21.7412 -0.333008 32.167l32 58.1328l-14.0332 -25.333
c-5.30762 -10.0273 -18.8223 -18.166 -30.167 -18.167c-18.8418 0 -34.1328 15.292 -34.1328 34.1338c0 2.82129 0.671875 7.30176 1.5 10v0.0332031c0.00878906 0.0185547 0.0234375 0.0478516 0.0332031 0.0664062c0.808594 2.5957 2.69043 6.53809 4.19922 8.7998
l63.6006 133.5l0.166992 0.166992c2.56055 8.31445 9.18164 14.748 17.5996 17.0664l0.166992 0.166992z" />
    <glyph glyph-name="line-graphic" unicode="&#xf109;" 
d="M85.0664 379.967l0.266602 0.00195312c9.42188 0 17.0684 -7.64648 17.0684 -17.0684l-0.000976562 -0.233398v-324.267h324.267c0.0664062 0.000976562 0.174805 0.000976562 0.241211 0.000976562c9.42188 0 17.0684 -7.64648 17.0684 -17.0684
s-7.64648 -17.0684 -17.0684 -17.0684c-0.0664062 0 -0.174805 0.000976562 -0.241211 0.00195312h-324.267c-18.6553 0 -34.1338 15.4785 -34.1338 34.1338v324.267c-0.000976562 0.0644531 -0.00195312 0.168945 -0.00195312 0.233398
c0 9.27539 7.52734 16.9209 16.8018 17.0664zM170.667 379.733c9.4209 0 17.0664 -7.64551 17.0664 -17.0664s-7.64551 -17.0674 -17.0664 -17.0674s-17.0674 7.64648 -17.0674 17.0674s7.64648 17.0664 17.0674 17.0664zM256 379.733
c9.4209 0 17.0664 -7.64551 17.0664 -17.0664s-7.64551 -17.0674 -17.0664 -17.0674s-17.0664 7.64648 -17.0664 17.0674s7.64551 17.0664 17.0664 17.0664zM341.333 379.733c9.4209 0 17.0674 -7.64551 17.0674 -17.0664s-7.64648 -17.0674 -17.0674 -17.0674
s-17.0664 7.64648 -17.0664 17.0674s7.64551 17.0664 17.0664 17.0664zM426.667 379.733c9.4209 0 17.0664 -7.64551 17.0664 -17.0664s-7.64551 -17.0674 -17.0664 -17.0674s-17.0674 7.64648 -17.0674 17.0674s7.64648 17.0664 17.0674 17.0664zM426.333 294.566
c0.139648 0.00390625 0.364258 0.0078125 0.503906 0.0078125c9.4209 0 17.0684 -7.64648 17.0684 -17.0684c0 -3.98145 -2.31738 -9.46484 -5.17188 -12.2393l-85.333 -85.333c-2.75977 -2.75879 -8.16602 -4.99707 -12.0674 -4.99707s-9.30664 2.23828 -12.0664 4.99707
l-73.2666 73.2666l-107.4 -107.4c-2.78027 -2.89648 -8.29688 -5.24707 -12.3115 -5.24707c-9.42188 0 -17.0684 7.64648 -17.0684 17.0684c0 4.01562 2.35059 9.53125 5.24707 12.3125l119.467 119.467c2.75879 2.75781 8.16504 4.99609 12.0664 4.99609
s9.30762 -2.23828 12.0664 -4.99609l73.2666 -73.2676l73.2666 73.2676c2.66113 2.73828 7.91797 5.05273 11.7334 5.16602zM170.667 294.4c9.4209 0 17.0664 -7.64648 17.0664 -17.0674s-7.64551 -17.0664 -17.0664 -17.0664s-17.0674 7.64551 -17.0674 17.0664
s7.64648 17.0674 17.0674 17.0674zM341.333 294.4c9.4209 0 17.0674 -7.64648 17.0674 -17.0674s-7.64648 -17.0664 -17.0674 -17.0664s-17.0664 7.64551 -17.0664 17.0664s7.64551 17.0674 17.0664 17.0674zM256 209.066c9.4209 0 17.0664 -7.64551 17.0664 -17.0664
s-7.64551 -17.0664 -17.0664 -17.0664s-17.0664 7.64551 -17.0664 17.0664s7.64551 17.0664 17.0664 17.0664zM426.667 209.066c9.4209 0 17.0664 -7.64551 17.0664 -17.0664s-7.64551 -17.0664 -17.0664 -17.0664s-17.0674 7.64551 -17.0674 17.0664
s7.64648 17.0664 17.0674 17.0664zM170.667 123.733c9.4209 0 17.0664 -7.64551 17.0664 -17.0664s-7.64551 -17.0674 -17.0664 -17.0674s-17.0674 7.64648 -17.0674 17.0674s7.64648 17.0664 17.0674 17.0664zM256 123.733c9.4209 0 17.0664 -7.64551 17.0664 -17.0664
s-7.64551 -17.0674 -17.0664 -17.0674s-17.0664 7.64648 -17.0664 17.0674s7.64551 17.0664 17.0664 17.0664zM341.333 123.733c9.4209 0 17.0674 -7.64551 17.0674 -17.0664s-7.64648 -17.0674 -17.0674 -17.0674s-17.0664 7.64648 -17.0664 17.0674
s7.64551 17.0664 17.0664 17.0664zM426.667 123.733c9.4209 0 17.0664 -7.64551 17.0664 -17.0664s-7.64551 -17.0674 -17.0664 -17.0674s-17.0674 7.64648 -17.0674 17.0674s7.64648 17.0664 17.0674 17.0664z" />
    <glyph glyph-name="mail" unicode="&#xf118;" 
d="M460.749 213.385c0 -77.4492 -37.6318 -125.389 -98.9014 -125.389c-31.7275 0 -54.375 13.7725 -61.0137 37.1191h-4.67578c-10.0869 -24.832 -29.2695 -37.376 -57.5664 -37.376c-51.166 0 -85.1113 41.3018 -85.1113 103.749c0 59.75 32.7168 100.062 81.4248 100.062
c26.5732 0 47.4795 -12.7832 57.3271 -34.918h4.67676v29.0127h56.5752v-124.894c0 -17.459 7.86816 -27.7842 21.1631 -27.7842c21.6406 0 35.4307 28.7568 35.4307 74.4951c0 89.0029 -58.2998 146.04 -149.077 146.04c-94.7207 0 -159.164 -66.3896 -159.164 -163.004
c0 -97.8428 64.9385 -159.078 169.25 -159.078c22.6309 0 45.9951 2.95215 58.7949 6.87793v-43.7588c-17.7158 -4.64258 -40.8408 -7.33887 -64.2217 -7.33887c-128.649 0 -214.512 81.8682 -214.512 204.561c0 121.208 86.1016 205.039 210.586 205.039
c118.579 0 199.015 -74.2568 199.015 -183.415zM218.181 189.781c0 -31.9658 13.2773 -51.1318 35.6689 -51.1318c22.6309 0 36.4033 19.4219 36.4033 51.1318s-14.0293 51.1318 -36.4033 51.1318s-35.6689 -19.166 -35.6689 -51.1318z" />
    <glyph glyph-name="mail-2" unicode="&#xf150;" 
d="M43.2998 345.6h425.4l-192.4 -179.566c-11.3662 -10.6494 -29.2168 -10.6494 -40.5996 0zM17.0664 323.4l195.334 -182.301c12.2363 -11.417 27.915 -17.1328 43.5996 -17.1328s31.3633 5.71582 43.5996 17.1328l195.334 182.301v-285h-477.867v285z" />
    <glyph glyph-name="phone-receiver" unicode="&#xf14e;" 
d="M273.066 396.8c103.482 0 187.733 -84.251 187.733 -187.733l0.00195312 -0.241211c0 -9.42188 -7.64648 -17.0684 -17.0684 -17.0684s-17.0684 7.64648 -17.0684 17.0684l0.00195312 0.241211c0 85.0361 -68.5645 153.601 -153.601 153.601l-0.241211 -0.00195312
c-9.42188 0 -17.0684 7.64648 -17.0684 17.0684s7.64648 17.0684 17.0684 17.0684zM132.066 362.6c6.42188 -0.53125 12.3291 -4.14746 15.7334 -9.93262l46.7998 -79.9004c3.7041 -6.33203 3.68848 -14.1689 -0.0664062 -20.4668l-19 -31.8662
c-4.2666 -7.13379 -3.76953 -16.0635 1.33301 -22.6006c8.82422 -11.3145 23.7119 -29.5117 39.5674 -45.3662c15.8545 -15.8379 34.0508 -30.7266 45.3662 -39.5664c6.55371 -5.10352 15.4668 -5.58301 22.6006 -1.33398l31.8662 19
c6.29785 3.73828 14.0684 3.80371 20.4004 0.100586c19.2676 -11.2812 60.8154 -35.6367 80.0664 -46.9004c7.71387 -4.50586 11.4658 -13.4463 9.36621 -22.1338c-2.06445 -8.48145 -7.0791 -19.4785 -18.6328 -31.0332
c-36.0791 -36.0781 -96.8721 -55.2109 -232.467 80.4004s-116.462 196.404 -80.4004 232.467c11.5205 11.5195 22.502 16.5352 30.9668 18.5996c2.18066 0.533203 4.35938 0.710938 6.5 0.533203zM273.066 328.533c65.7812 0 119.467 -53.6855 119.467 -119.467
l0.00195312 -0.241211c0 -9.42188 -7.64648 -17.0684 -17.0684 -17.0684s-17.0684 7.64648 -17.0684 17.0684l0.00195312 0.241211c0 47.3379 -37.9961 85.334 -85.334 85.334l-0.241211 -0.00195312c-9.42188 0 -17.0684 7.64648 -17.0684 17.0684
s7.64648 17.0684 17.0684 17.0684zM273.066 260.267c28.0742 0 51.2002 -23.126 51.2002 -51.2002l0.00195312 -0.241211c0 -9.42188 -7.64648 -17.0684 -17.0684 -17.0684s-17.0684 7.64648 -17.0684 17.0684l0.00195312 0.241211
c0 9.64355 -7.42383 17.0674 -17.0674 17.0674l-0.241211 -0.00195312c-9.42188 0 -17.0684 7.64648 -17.0684 17.0684s7.64648 17.0684 17.0684 17.0684z" />
    <glyph glyph-name="fl-che-droite" unicode="&#xf12c;" 
d="M256 396.8c113.101 0 204.8 -91.6992 204.8 -204.8s-91.6992 -204.8 -204.8 -204.8s-204.8 91.6992 -204.8 204.8s91.6992 204.8 204.8 204.8zM353.399 179.934c6.67285 6.67383 6.67285 17.459 0 24.1328l-68.2666 68.2666c-6.67285 6.67285 -17.459 6.67285 -24.1318 0
c-6.67383 -6.67285 -6.67383 -17.459 0 -24.1328l39.1338 -39.1338h-129.468c-9.4209 0 -17.0674 -7.62891 -17.0674 -17.0664s7.64648 -17.0664 17.0674 -17.0664h129.468l-39.1338 -39.1338c-6.67383 -6.67383 -6.67383 -17.46 0 -24.1328
c3.32715 -3.32812 7.69629 -5 12.0654 -5s8.73828 1.67188 12.0664 5z" />
    <glyph glyph-name="right-pointing-arrow" unicode="&#xf161;" 
d="M298.667 334.042c5.45801 0 10.9121 -2.12109 15.083 -6.29199l120.667 -120.667c8.34082 -8.31934 8.34082 -21.8252 0 -30.166l-120.667 -120.667c-8.32031 -8.3418 -21.8252 -8.3418 -30.167 0l-1.83301 1.83301c-8.3418 8.32031 -8.3418 21.8252 0 30.167
l82.417 82.417h-278.834c-11.7754 0 -21.333 9.55664 -21.333 21.333s9.55762 21.333 21.333 21.333h278.834l-82.417 82.417c-8.3418 8.32031 -8.3418 21.8252 0 30.167l1.83301 1.83301c4.16016 4.1709 9.625 6.29199 15.084 6.29199z" />
    <glyph glyph-name="world-map" unicode="&#xf14d;" 
d="M256 396.8c112.906 0 204.8 -91.8936 204.8 -204.8s-91.8936 -204.8 -204.8 -204.8s-204.8 91.8936 -204.8 204.8s91.8936 204.8 204.8 204.8zM238.934 361.833c-11.7686 -1.16211 -23.1992 -3.54785 -34.1338 -6.9668v-26.333h34.1338v33.2998zM273.066 361.833
v-67.4326l-34.1328 -17.0674l-17.0674 17.0674h-34.1328v-34.1338l-85.333 -51.2002v-34.1328h51.1992l51.2002 -51.2002l-0.599609 -68.8672l33.2666 -32.5c6.0957 -0.655273 12.2588 -1.0332 18.5332 -1.0332c23.5889 0 46.0234 4.76465 66.4336 13.3672l35.9668 71.9668
l-17.0674 34.1328h-34.1328l-34.1338 34.1338v34.1328l34.1338 34.1338h34.1328l34.1338 -17.0664l17.0664 34.1328l-51.2002 17.0664l-34.1328 -17.0664v34.1338l17.0664 17.0664h17.0664v17.0664l11.6006 3.9668c-23.1172 15.9561 -50.3535 26.417 -79.8672 29.333z" />
    <glyph glyph-name="pouce-en-l-apos-air" unicode="&#xf178;" 
d="M187.733 413.866h17.0664c51.2002 0 51.2002 -46.916 51.2002 -85.333c0 -12.5264 -17.0664 -68.2666 -17.0664 -68.2666h162.133c23.5527 0 42.667 -19.1143 42.667 -42.667c-0.0136719 -11.7871 -7.68945 -27.0791 -17.1338 -34.1328
c9.44434 -7.05469 17.1201 -22.3457 17.1338 -34.1338c-0.0195312 -16.3799 -12.5039 -34.2842 -27.8662 -39.9668c5.94629 -6.67871 10.7842 -19.3574 10.7998 -28.2998c-0.0322266 -19.1973 -15.3242 -37.8936 -34.1338 -41.7334v-18
c0 -18.8408 -15.292 -34.1328 -34.1328 -34.1328h-173.601c-30.9072 0 -60.5371 12.2705 -82.3994 34.1328h-34.1338v221.867h10.4004c25.1387 0 48.2373 13.7979 60.1328 35.9336l40.3672 75.166z" />
    <glyph glyph-name="quote-left" unicode="&#xf19e;" 
d="M136.934 379.866c9.28516 -0.133789 16.8213 -7.7793 16.8213 -17.0664c0 -3.02344 -1.42871 -7.47363 -3.18848 -9.93359c-29.25 -48.4141 -32.2236 -113.411 -31.7998 -143.8h68.9668c18.8584 0 34.1328 -15.2744 34.1328 -34.1328v-136.533
c0 -18.8594 -15.2744 -34.1338 -34.1328 -34.1338h-102.4c-18.8584 0 -34.1328 15.2744 -34.1328 34.1338v170.666c0 109.985 75.0996 167.267 75.0996 167.267c2.53906 1.95117 7.19824 3.53516 10.4014 3.53516zM375.867 379.866
c9.28516 -0.133789 16.8213 -7.7793 16.8213 -17.0664c0 -3.02344 -1.42871 -7.47363 -3.18848 -9.93359c-29.25 -48.4141 -32.2246 -113.411 -31.7998 -143.8h68.9668c18.8584 0 34.1328 -15.2744 34.1328 -34.1328v-136.533
c0 -18.8594 -15.2744 -34.1338 -34.1328 -34.1338h-102.4c-18.8584 0 -34.1328 15.2744 -34.1328 34.1338v170.666c0 109.985 75.0996 167.267 75.0996 167.267c2.53906 1.95117 7.19824 3.53516 10.4004 3.53516z" />
    <glyph glyph-name="user-male" unicode="&#xf115;" 
d="M307.2 123.733c17.0664 -51.2002 153.6 -17.0664 153.6 -136.533h-409.6c0 119.467 136.533 85.333 153.6 136.533v34.1328c-7.67969 3.80664 -29.6445 29.9521 -31.9482 50.3809c-6.04199 0.460938 -15.5312 6.00781 -18.3301 27.9043
c-1.50195 11.7422 4.47168 18.3643 8.08984 20.4463c0 0 -9.01172 18.9434 -9.01172 37.7852c0 55.9619 30.0039 102.4 102.4 102.4c39.0654 0 51.2002 -25.6006 51.2002 -25.6006c34.9355 0 51.2002 -35.3623 51.2002 -76.7998
c0 -20.668 -9.01172 -37.7852 -9.01172 -37.7852c3.61816 -2.08203 9.5918 -8.6875 8.08984 -20.4463c-2.79883 -21.8965 -12.2881 -27.4434 -18.3301 -27.9043c-2.30371 -20.4287 -24.2686 -46.5742 -31.9482 -50.3809v-34.1328z" />
    <glyph glyph-name="restaurant-building" unicode="&#xf125;" 
d="M426.581 289.707c10.2061 -5.88867 17.1523 -16.8105 17.1523 -29.4404v-238.934c0 -18.8584 -15.2744 -34.1328 -34.1338 -34.1328h-307.199c-18.8594 0 -34.1338 15.2744 -34.1338 34.1328v238.934c0 12.6299 6.94629 23.5518 17.1523 29.4404l154.402 85.7764
c4.8291 2.62891 10.291 4.25 16.1787 4.25s11.3496 -1.62109 16.1797 -4.25zM353.399 43.4004c6.67285 6.65625 6.67285 17.4766 0 24.1328l-51.2002 51.1992l-24.1318 -24.1318l51.2002 -51.2002c6.65527 -6.67285 17.459 -6.67285 24.1318 0zM357.052 176.299
c21.709 21.709 24.6445 53.9814 6.53613 72.0898c-18.1074 18.1074 -50.3809 15.1719 -72.1064 -6.55371c-16.5889 -16.5889 -22.1357 -39.3223 -15.7861 -57.208l-19.6953 -19.6943l-94.4639 94.4805c-17.0664 -31.8799 -11.2471 -71.168 14.3184 -96.7334
l38.9463 -38.9463l-56.1836 -56.1836c-6.67285 -6.65625 -6.67285 -17.459 0 -24.1318c6.65625 -6.67383 17.46 -6.67383 24.1328 0l117.095 117.094c17.8857 -6.34863 40.6182 -0.801758 57.207 15.7871z" />
    <glyph glyph-name="montre" unicode="&#xf13b;" 
d="M256 396.8c112.906 0 204.8 -91.8936 204.8 -204.8s-91.8936 -204.8 -204.8 -204.8s-204.8 91.8936 -204.8 204.8s91.8936 204.8 204.8 204.8zM238.967 361.833c-80.8027 -7.96777 -144.832 -71.9971 -152.8 -152.8c8.9541 -0.4375 16.2266 -8.06836 16.2334 -17.0332
c-0.00683594 -8.96484 -7.2793 -16.5957 -16.2334 -17.0332c7.96777 -80.8027 71.9971 -144.832 152.8 -152.8c0.4375 8.9541 8.06836 16.2266 17.0332 16.2334c8.96484 -0.00683594 16.5957 -7.2793 17.0332 -16.2334c80.8027 7.96777 144.832 71.9971 152.8 152.8
c-8.9541 0.4375 -16.2266 8.06836 -16.2334 17.0332c0.00683594 8.96484 7.2793 16.5957 16.2334 17.0332c-7.96777 80.8027 -71.9971 144.832 -152.8 152.8c-0.4375 -8.9541 -8.06836 -16.2266 -17.0332 -16.2334c-8.96484 0.00683594 -16.5957 7.2793 -17.0332 16.2334z
M256 328.533c75.4004 0 136.533 -61.1328 136.533 -136.533s-61.1328 -136.533 -136.533 -136.533s-136.533 61.1328 -136.533 136.533s61.1328 136.533 136.533 136.533zM256 294.4c-9.4375 0 -17.0664 -7.64648 -17.0664 -17.0674v-92.3994l56.2002 -56.2002
c3.32715 -3.32812 7.69727 -5 12.0664 -5s8.73828 1.67188 12.0664 5c6.67285 6.67285 6.67285 17.46 0 24.1328l-46.2002 46.2002v78.2666c0 9.4209 -7.62891 17.0674 -17.0664 17.0674z" />
    <glyph glyph-name="grid" unicode="&#xf124;" 
d="M170.4 379.967h0.0859375c0.782227 0 2.04199 -0.104492 2.81348 -0.233398h79.9668c0.675781 0.114258 1.78125 0.21875 2.4668 0.233398h0.0859375c0.782227 0 2.04297 -0.104492 2.81445 -0.233398h79.9658c0.676758 0.114258 1.78125 0.21875 2.4668 0.233398
h0.0859375c0.782227 0 2.04297 -0.104492 2.81445 -0.233398h65.6328c18.6553 0 34.1338 -15.4785 34.1338 -34.1338v-65.5664c0.125977 -0.762695 0.228516 -2.00977 0.228516 -2.7832s-0.102539 -2.02051 -0.228516 -2.7832v-79.7666
c0.125977 -0.763672 0.228516 -2.00977 0.228516 -2.7832s-0.102539 -2.02051 -0.228516 -2.7832v-79.7676c0.125977 -0.762695 0.228516 -2.00977 0.228516 -2.7832s-0.102539 -2.02051 -0.228516 -2.7832v-65.3994c0 -18.6553 -15.4785 -34.1338 -34.1338 -34.1338
h-65.5664c-0.762695 -0.125977 -2.00977 -0.228516 -2.7832 -0.228516s-2.02051 0.102539 -2.7832 0.228516h-79.7666c-0.763672 -0.125977 -2.00977 -0.228516 -2.7832 -0.228516s-2.02051 0.102539 -2.7832 0.228516h-79.7676
c-0.762695 -0.125977 -2.00977 -0.228516 -2.7832 -0.228516s-2.01953 0.102539 -2.7832 0.228516h-65.3994c-18.6553 0 -34.1338 15.4785 -34.1338 34.1338v65.5664c-0.125977 0.762695 -0.228516 2.00977 -0.228516 2.7832s0.102539 2.02051 0.228516 2.7832v79.7666
c-0.125977 0.763672 -0.228516 2.00977 -0.228516 2.7832s0.102539 2.02051 0.228516 2.7832v79.7676c-0.125977 0.762695 -0.228516 2.00977 -0.228516 2.7832s0.102539 2.01953 0.228516 2.7832v65.3994c0 18.6553 15.4785 34.1338 34.1338 34.1338h65.5332
c0.675781 0.114258 1.78125 0.21875 2.4668 0.233398zM102.4 345.6v-51.1992h51.1992v51.1992h-51.1992zM187.733 345.6v-51.1992h51.2002v51.1992h-51.2002zM273.066 345.6v-51.1992h51.2002v51.1992h-51.2002zM358.4 345.6v-51.1992h51.1992v51.1992h-51.1992z
M102.4 260.267v-51.2002h51.1992v51.2002h-51.1992zM187.733 260.267v-51.2002h51.2002v51.2002h-51.2002zM273.066 260.267v-51.2002h51.2002v51.2002h-51.2002zM358.4 260.267v-51.2002h51.1992v51.2002h-51.1992zM102.4 174.934v-51.2002h51.1992v51.2002h-51.1992z
M187.733 174.934v-51.2002h51.2002v51.2002h-51.2002zM273.066 174.934v-51.2002h51.2002v51.2002h-51.2002zM358.4 174.934v-51.2002h51.1992v51.2002h-51.1992zM102.4 89.5996v-51.1992h51.1992v51.1992h-51.1992zM187.733 89.5996v-51.1992h51.2002v51.1992h-51.2002z
M273.066 89.5996v-51.1992h51.2002v51.1992h-51.2002zM358.4 89.5996v-51.1992h51.1992v51.1992h-51.1992z" />
    <glyph glyph-name="air-play-button" unicode="&#xf19b;" 
d="M85.333 362.667h341.334c18.8242 0 34.1328 -15.3096 34.1328 -34.1338v-187.733c0 -18.8242 -15.3086 -34.1328 -34.1328 -34.1328h-70.7002l-29.2002 34.1328h99.9336l-0.0332031 187.733h-341.334v-187.733h99.9004l-29.2334 -34.1328h-70.667
c-18.8242 0 -34.1328 15.3086 -34.1328 34.1328v187.733c0 18.8242 15.3086 34.1338 34.1328 34.1338zM256 174.934c4.55176 -0.00292969 10.54 -2.89941 13.3662 -6.4668l100.768 -117.7l0.0332031 -0.0332031c2.91895 -2.77832 5.29297 -8.30371 5.2998 -12.333
c-0.00585938 -8.50293 -6.875 -16.1035 -15.333 -16.9668l-0.0341797 -0.100586h-208.199l-0.0341797 0.100586c-8.45801 0.863281 -15.3271 8.46387 -15.333 16.9668c0.00683594 4.0293 2.38086 9.55469 5.2998 12.333l100.834 117.8
c2.82812 3.5332 8.79688 6.40039 13.3223 6.40039h0.0107422z" />
    <glyph glyph-name="green-check-mark-4" unicode="&#xf1a5;" 
d="M409.6 379.733c18.8418 0 34.1338 -15.2744 34.1338 -34.1338v-307.199c0 -18.8594 -15.2744 -34.1338 -34.1338 -34.1338h-307.199c-18.8594 0 -34.1338 15.2744 -34.1338 34.1338v307.199c0 18.8594 15.2744 34.1338 34.1338 34.1338h307.199zM370.466 248.2
c6.67383 6.67383 6.67383 17.46 0 24.1328c-6.67285 6.67285 -17.459 6.67285 -24.1318 0l-116.958 -116.958l-46.8652 46.8652c-6.67285 6.67285 -17.459 6.67285 -24.1318 0s-6.67285 -17.459 0 -24.1328l58.9307 -58.9307
c3.19141 -3.20898 7.54395 -5.00098 12.0664 -5.00098s8.85742 1.79199 12.0664 5.00098z" />
    <glyph glyph-name="ev-nement-accept--provisoirement" unicode="&#xf144;" 
d="M102.4 379.733h307.199c18.8594 0 34.1338 -15.2744 34.1338 -34.1338v-145.467c-16.043 5.68359 -33.2119 8.93359 -51.2002 8.93359c-27.9717 0 -54.1025 -7.59375 -76.7334 -20.666l-35.5332 0.399414l-17.167 50.7998c-2.30371 6.80957 -11.9287 6.80957 -14.2334 0
l-17.166 -50.7998l-53.6006 -0.599609c-7.20215 -0.0859375 -10.168 -9.25 -4.39941 -13.5332l43 -32.0332l-15.9668 -51.167c-2.13379 -6.86133 5.66211 -12.5312 11.5332 -8.36719l36.4004 25.834c-6.19531 -16.6748 -9.7334 -34.6426 -9.7334 -53.4668
c0 -17.9883 3.25 -35.1572 8.93359 -51.2002h-145.467c-18.8594 0 -34.1338 15.2744 -34.1338 34.1338v307.199c0 18.8594 15.2744 34.1338 34.1338 34.1338zM102.4 345.6v-68.2666h307.199v68.2666h-307.199zM392.533 174.934c65.7773 0 119.467 -53.6895 119.467 -119.467
s-53.6895 -119.467 -119.467 -119.467s-119.467 53.6895 -119.467 119.467s53.6895 119.467 119.467 119.467zM392.533 140.8c-47.3301 0 -85.333 -38.0029 -85.333 -85.333c0 -47.3311 38.0029 -85.334 85.333 -85.334c47.3311 0 85.334 38.0029 85.334 85.334
c0 47.3301 -38.0029 85.333 -85.334 85.333zM392.267 123.967c0.0732422 0.000976562 0.193359 0.00195312 0.266602 0.00195312c9.42188 0 17.0684 -7.64648 17.0684 -17.0684l-0.00195312 -0.233398v-51.2002c0 -3.90234 -2.24023 -9.30762 -5 -12.0664l-25.5996 -25.6006
c-2.78125 -2.89648 -8.29688 -5.24707 -12.3125 -5.24707c-9.42188 0 -17.0684 7.64648 -17.0684 17.0684c0 4.01562 2.35156 9.53125 5.24805 12.3125l20.5996 20.5996v44.1338l-0.00195312 0.233398c0 9.27539 7.52734 16.9209 16.8018 17.0664z" />
    <glyph glyph-name="green-check-mark-3" unicode="&#xf188;" 
d="M429.44 359.68c7.75977 0.360352 15.0791 -3.67969 18.8799 -10.4395c3.7998 -6.7998 3.43945 -15.1201 -0.959961 -21.5605l-205.761 -314.239c-3.19922 -4.9209 -8.35938 -8.24023 -14.1992 -9.12012c-5.80078 -0.839844 -11.7207 0.839844 -16.2002 4.63965
l-142.72 123.521c-6.24023 4.59961 -9.32031 12.2793 -8.04004 19.9199c1.2793 7.59961 6.75977 13.8398 14.1191 16.1191c7.40039 2.32031 15.4404 0.240234 20.8008 -5.31934l124.8 -107.84l192.64 294.72c3.60059 5.75977 9.83984 9.36035 16.6406 9.59961z" />
    <glyph glyph-name="drop-down-arrow" unicode="&#xf152;" 
d="M426.5 294.634l0.402344 0.00390625c9.42188 0 17.0684 -7.64648 17.0684 -17.0684c0 -4.01074 -2.3457 -9.52246 -5.2373 -12.3027l-170.667 -170.667c-2.75879 -2.75781 -8.16504 -4.99609 -12.0664 -4.99609s-9.30762 2.23828 -12.0664 4.99609l-170.667 170.667
c-2.85059 2.77441 -5.16406 8.25391 -5.16406 12.2314c0 9.41992 7.64453 17.0664 17.0645 17.0684c3.97852 0 9.45898 -2.31445 12.2334 -5.16602l158.6 -158.601l158.6 158.601c2.68945 2.79688 8.02148 5.1416 11.9004 5.2334z" />
    <glyph glyph-name="edit" unicode="&#xf122;" 
d="M389.6 396.8c8.73438 0 17.4688 -3.33496 24.1338 -10l37.0664 -37.0664c13.3291 -13.3291 13.3291 -34.9375 0 -48.2666l-41.2002 -41.2002l-85.333 85.333l41.2002 41.2002c6.66406 6.66504 15.3994 10 24.1328 10zM290.134 311.467l85.333 -85.333l-200.367 -200.367
s0.37793 16.6895 -5.06641 22.1338c-5.44434 5.44336 -43.3984 0.398438 -50.5664 7.56641s-2.36328 45.3633 -8.2002 51.2002s-21.5 4.43262 -21.5 4.43262zM68.2666 55.4668l25.5996 -25.6006l25.6006 -25.5996l-44.9004 -15.833
c-0.0273438 -0.0185547 -0.0722656 -0.0488281 -0.0996094 -0.0673828l-0.433594 -0.132812c-0.0458984 -0.0185547 -0.120117 -0.0488281 -0.166992 -0.0664062c-1.5 -0.52832 -4.00879 -0.960938 -5.59961 -0.966797c-9.4209 0 -17.0664 7.64551 -17.0664 17.0664
c0.00585938 1.59082 0.438477 4.09961 0.966797 5.59961z" />
    <glyph glyph-name="green-check-mark-2" unicode="&#xf187;" 
d="M444.385 354.846c9.76953 -6.61523 12.3076 -19.9229 5.69238 -29.6152l-208.308 -307.308c-6.30762 -9.15332 -16.0771 -15.2305 -25.7695 -15.2305s-20.4619 5.23047 -27.3076 12.0771l-122.308 122.308c-8.30762 8.38477 -8.30762 21.9229 0 30.2305l30.2305 30.2305
c8.30762 8.30762 21.8467 8.30762 30.1543 0l79.5381 -79.5381l173.077 255.23c6.53809 9.69238 19.9229 12.2314 29.6924 5.61523z" />
    <glyph glyph-name="support-en-ligne" unicode="&#xf15d;" 
d="M256 413.866c68.2666 0 85.333 -34.1328 85.333 -34.1328c68.2666 0 102.4 -85.333 102.4 -153.6v-38.8672c10.165 -5.90918 17.0664 -16.7881 17.0664 -29.4004v-17.0664c0 -13.0586 -7.40039 -24.2598 -18.166 -30
c-6.29688 -40.8311 -41.7148 -72.3994 -84.2334 -72.3994h-85.334c-0.0273438 -0.000976562 -0.0732422 -0.000976562 -0.101562 -0.000976562c-1.10938 0 -2.88574 0.209961 -3.96484 0.466797c-1.4541 -0.256836 -2.93945 -0.46582 -4.4668 -0.46582h-17.0664
c-14.1309 0 -25.6006 11.4688 -25.6006 25.5996s11.4697 25.5996 25.6006 25.5996h17.0664c11.126 0 20.5059 -7.14648 24.0332 -17.0664h69.834c22.4395 0 41.1094 14.2158 48.0996 34.1338h-13.9668v51.1992c0 106.496 -51.2002 153.601 -51.2002 153.601
c-51.1992 -119.467 -221.866 -34.1338 -221.866 -153.601h-17.0664v-17.0664c0 -16.7822 5.73047 -23.9521 11.2334 -28.7666c5.50195 -4.81445 9.96582 -5.86621 9.96582 -5.86621l9.10059 -2.2666l2.9668 -8.90039s29.3105 -90.7334 120.333 -90.7334h95.9668
c-23.8711 -19.2686 -55.0439 -33.6191 -94.1338 -34.0664h-0.0654297h-0.0673828c-0.578125 -0.00683594 -1.11816 -0.0673828 -1.7002 -0.0673828c-104.26 0 -143.899 92.0752 -150.1 108.101c-4.73145 1.86621 -7.68262 1.96387 -14.7334 8.13281
c-11.5645 10.1191 -22.9004 28.5498 -22.9004 54.4336v17.0664v68.2676c0 119.466 102.4 187.732 187.733 187.732z" />
    <glyph glyph-name="id-e" unicode="&#xf15b;" 
d="M111.434 405.066c3.82617 -0.0527344 9.12793 -2.29297 11.833 -5c2.75879 -2.75879 4.99707 -8.16504 4.99707 -12.0664s-2.23828 -9.30762 -4.99707 -12.0664s-8.16504 -4.99805 -12.0664 -4.99805s-9.30762 2.23926 -12.0664 4.99805
s-4.99805 8.16504 -4.99805 12.0664s2.23926 9.30762 4.99805 12.0664c2.75879 2.76074 8.16699 5.00195 12.0703 5.00195zM401.066 405.066c3.81641 -0.0605469 9.10254 -2.30078 11.8008 -5c2.75781 -2.75879 4.99707 -8.16504 4.99707 -12.0664
s-2.23926 -9.30762 -4.99707 -12.0664c-2.75977 -2.75879 -8.16602 -4.99805 -12.0674 -4.99805s-9.30762 2.23926 -12.0664 4.99805s-4.99707 8.16504 -4.99707 12.0664s2.23828 9.30762 4.99707 12.0664c2.75977 2.76172 8.16699 5.00195 12.0713 5.00195zM256 396.8
c84.8389 0 153.6 -68.7617 153.6 -153.6c0 -85.334 -68.2666 -119.467 -102.399 -187.733h-102.4c-34.1328 68.2666 -102.399 102.399 -102.399 187.733c0 84.8379 68.7617 153.6 153.6 153.6zM256 345.6l-68.2666 -119.466h68.2666v-85.334l68.2666 119.467h-68.2666
v85.333zM51.2002 260.267c9.4209 0 17.0664 -7.64551 17.0664 -17.0664s-7.64551 -17.0664 -17.0664 -17.0664s-17.0664 7.64551 -17.0664 17.0664s7.64551 17.0664 17.0664 17.0664zM460.8 260.267c9.4209 0 17.0674 -7.64551 17.0674 -17.0664
s-7.64648 -17.0664 -17.0674 -17.0664s-17.0664 7.64551 -17.0664 17.0664s7.64551 17.0664 17.0664 17.0664zM111.434 115.467c3.82617 -0.0537109 9.12793 -2.29297 11.833 -5c2.75879 -2.75977 4.99707 -8.16504 4.99707 -12.0664
c0 -3.90234 -2.23828 -9.30762 -4.99707 -12.0674c-2.76074 -2.76758 -8.17383 -5.01367 -12.083 -5.01367s-9.32324 2.24609 -12.084 5.01367c-2.75781 2.75977 -4.99707 8.16504 -4.99707 12.0674c0 3.90137 2.23926 9.30664 4.99707 12.0664
c2.75977 2.76074 8.16797 5.00195 12.0713 5.00195c0.0722656 0 0.19043 -0.000976562 0.262695 -0.00195312zM401.033 115.434c3.82227 -0.0458984 9.12402 -2.27148 11.834 -4.9668c2.76758 -2.76074 5.01367 -8.17383 5.01367 -12.084
c0 -3.90918 -2.24609 -9.32227 -5.01367 -12.083c-2.75977 -2.75879 -8.16602 -4.99707 -12.0674 -4.99707s-9.30762 2.23828 -12.0664 4.99707c-2.76758 2.76074 -5.01367 8.17383 -5.01367 12.083c0 3.91016 2.24609 9.32324 5.01367 12.084
c2.75684 2.74219 8.14941 4.96875 12.0381 4.96875c0.0722656 0 0.189453 -0.000976562 0.261719 -0.00195312zM204.8 21.333h102.4v-17.0664c0 -18.8584 -15.2744 -34.1338 -34.1338 -34.1338c0 -9.41992 -7.64551 -17.0664 -17.0664 -17.0664
s-17.0664 7.64648 -17.0664 17.0664c-18.8594 0 -34.1338 15.2754 -34.1338 34.1338v17.0664z" />
    <glyph glyph-name="visible" unicode="&#xf18d;" 
d="M256 362.667c152.206 0 250.521 -157.204 252.3 -160.067c0.00976562 -0.00878906 0.0244141 -0.0234375 0.0332031 -0.0332031c2.02344 -2.56543 3.66699 -7.29883 3.66699 -10.5664c-0.00292969 -2.79297 -1.24219 -6.95996 -2.7666 -9.2998
c-0.0537109 -0.0927734 -0.143555 -0.242188 -0.200195 -0.333984c-1.00391 -1.9502 -83.4102 -161.033 -253.033 -161.033c-170.346 0 -252.873 160.661 -253.167 161.267c-0.0185547 0.0283203 -0.0478516 0.0722656 -0.0664062 0.100586
c-1.52441 2.33984 -2.76367 6.50684 -2.7666 9.2998c0.00195312 3.28125 1.66016 8.03027 3.7002 10.5996c1.77832 2.86328 100.094 160.067 252.3 160.067zM256 311.467c-65.9795 0 -119.467 -53.4873 -119.467 -119.467s53.4873 -119.467 119.467 -119.467
s119.467 53.4873 119.467 119.467s-53.4873 119.467 -119.467 119.467zM256 243.2c28.2627 0 51.2002 -22.9375 51.2002 -51.2002s-22.9375 -51.2002 -51.2002 -51.2002s-51.2002 22.9375 -51.2002 51.2002s22.9375 51.2002 51.2002 51.2002z" />
    <glyph glyph-name="team" unicode="&#xf11f;" 
d="M161.134 396.8c23.2617 0 41.1523 -5.8457 48.1328 -17.3994c26.0947 -2.57715 38.2744 -22.124 42.9336 -45.3008c-13.3467 -34.4912 -13.0332 -78.5498 -13.0332 -99.8662c0 -3.8916 -1.06836 -21.1699 -2.43359 -26
c-2.32129 -20.4287 -24.2529 -46.5605 -31.9336 -50.3672v-34.1328c8.14062 -24.4229 35.6768 -25.582 62.2666 -34.9004c-28.3135 -15.001 -62.2666 -41.0801 -62.2666 -101.633h-204.8c0 136.533 102.4 85.333 119.467 136.533v34.1328
c-7.67969 3.80664 -29.6299 29.9541 -31.9336 50.4004c-6.04102 0.460938 -15.5342 6.00391 -18.333 27.9004c-1.50195 11.7412 4.44824 18.3506 8.06641 20.4326c-18.6709 74.0869 -9.16406 138.596 83.8672 140.2zM377.566 379.733
c134.417 0 73.7686 -202.965 108.533 -231.5c0 0 -14.3936 -24.5996 -76.5 -24.5996v-21.9668c17.0674 -46.2002 102.4 -29.1338 102.4 -114.467h-273.066c0 85.333 85.333 68.2666 102.399 114.467v21.7666c-61.7979 0 -78.9668 25.4326 -78.9668 25.4326
c32.291 26.8633 -28.7432 213.801 81.2002 213.801c0 0 14.8174 17.0664 34 17.0664z" />
    <glyph glyph-name="security" unicode="&#xf1af;" 
d="M256 396.8c78.541 0 160.233 -17.7002 160.233 -17.7002c15.1797 -3.00684 27.5 -18.0068 27.5 -33.4824v-0.0175781v-102.399c0 -177.459 -171.017 -251.634 -171.033 -251.634h-0.0664062c-4.27734 -2.40039 -11.7295 -4.35645 -16.6338 -4.36621
c-4.92383 0 -12.4062 1.95703 -16.7002 4.36621c0 0 -171.033 74.1748 -171.033 251.634v102.399c0.0166016 15.4277 12.3066 30.4053 27.4336 33.4336l0.0664062 0.0664062s81.6924 17.7002 160.233 17.7002zM358.4 294.4c-4.36523 0 -8.73047 -1.66406 -12.0674 -5
l-116.967 -116.967l-46.8662 46.8662c-6.67285 6.67285 -17.46 6.67285 -24.1338 0c-6.67285 -6.67285 -6.67285 -17.46 0 -24.1328l58.9336 -58.9336c3.19141 -3.20898 7.54395 -5 12.0664 -5c4.52344 0 8.8584 1.79102 12.0674 5l129.033 129.033
c6.67285 6.67285 6.67285 17.46 0 24.1338c-3.33691 3.33594 -7.70215 5 -12.0664 5z" />
    <glyph glyph-name="poign-e-de-main" unicode="&#xf101;" 
d="M34.1338 362.667h179.199s-35.1602 -12.25 -46.7998 -16.5332c-11.6562 -4.26758 -30 -9.78418 -30 -34.667c0 -79.9062 66.4561 -87.8555 90.3672 -84.0664c23.9102 3.78809 86.3994 13.6992 86.3994 13.6992l100.834 -90.9658
c0.650391 -0.53418 1.66602 -1.44434 2.2666 -2.03418l0.432617 -0.399414c5.42773 -5.50195 9.83301 -16.2393 9.83398 -23.9668c0 -18.8418 -15.292 -34.1338 -34.1338 -34.1338c-5.1875 0.00683594 -13.0127 2.17188 -17.4668 4.83398
c0.206055 -1.32617 0.384766 -3.49219 0.400391 -4.83398c0 -18.8408 -15.292 -34.1328 -34.1338 -34.1328c-5.1875 0.00683594 -13.0127 2.17188 -17.4668 4.83301c0.206055 -1.32617 0.384766 -3.49121 0.400391 -4.83301c0 -18.8418 -15.292 -34.1338 -34.1328 -34.1338
c-5.18848 0.00683594 -13.0137 2.17188 -17.4668 4.83398c0.205078 -1.32617 0.383789 -3.49219 0.399414 -4.83398c0 -18.8408 -15.291 -34.1328 -34.1328 -34.1328c-9.48438 0.0107422 -21.7598 6.20801 -27.4004 13.833l-150 156.833h-27.1328zM324.267 362.667
c4.19336 -0.0136719 10.6748 -1.47656 14.4668 -3.2666h0.133789l0.799805 -0.433594c0.514648 -0.260742 1.33594 -0.708984 1.83301 -1l85.167 -46.5l68.2666 17.0664v-204.8h-34.3672c-1.17773 31.4883 -16.0146 42.8145 -31.0332 57.833
c-15.6504 15.6504 -105.267 95.834 -105.267 95.834l-102.066 -16.167c-0.330078 -0.0703125 -0.666992 -0.104492 -1 -0.166992l-3.5332 -0.566406l-0.166992 0.200195c-1.3916 -0.136719 -2.73926 -0.433594 -4.16699 -0.433594
c-23.5684 0 -42.666 19.0977 -42.666 42.667v8.5332l140.899 48.7334c0.96582 0.394531 2.56348 0.947266 3.56738 1.2334c0.0273438 0.00878906 0.0722656 0.0234375 0.0996094 0.0332031l0.132812 0.0332031h0.0175781h0.0166016
c2.39941 0.643555 6.36328 1.16699 8.84766 1.16699h0.0185547z" />
    <glyph glyph-name="remarque-importante" unicode="&#xf13a;" 
d="M256 448c28.0752 0 51.2002 -23.125 51.2002 -51.2002h68.2666c28.0742 0 51.2002 -23.126 51.2002 -51.2002v-307.199c0 -28.0742 -23.126 -51.2002 -51.2002 -51.2002h-238.934c-28.0742 0 -51.2002 23.126 -51.2002 51.2002v307.199
c0 28.0742 23.126 51.2002 51.2002 51.2002h68.2666c0 28.0752 23.125 51.2002 51.2002 51.2002zM256 413.866c-9.62793 0 -17.0664 -7.43848 -17.0664 -17.0664s7.43848 -17.0664 17.0664 -17.0664s17.0664 7.43848 17.0664 17.0664s-7.43848 17.0664 -17.0664 17.0664z
M136.533 362.667c-9.64258 0 -17.0664 -7.42383 -17.0664 -17.0674v-307.199c0 -9.64355 7.42383 -17.0674 17.0664 -17.0674h238.934c9.64258 0 17.0664 7.42383 17.0664 17.0674v307.199c0 9.64355 -7.42383 17.0674 -17.0664 17.0674h-68.2666v-17.0674
c0 -9.41992 -7.64648 -17.0664 -17.0664 -17.0664h-68.2676c-9.41992 0 -17.0664 7.64648 -17.0664 17.0664v17.0674h-68.2666zM236.533 277.333h38.9336l-3.2002 -119.467h-32.5332zM256.066 117.366c15.002 0 24.0332 -8.07617 24.0332 -21.8662
c0 -13.5508 -9.03125 -21.5996 -24.0332 -21.5996c-15.1211 0 -24.1328 8.06543 -24.1328 21.5996c0 13.79 9.01172 21.8662 24.1328 21.8662z" />
    <glyph glyph-name="interface-utilisateur-naturelle-2" unicode="&#xf102;" 
d="M221.866 430.934c56.4736 0 102.4 -45.9268 102.4 -102.4c0 -30.2422 -13.2432 -57.377 -34.1328 -76.1328v76.1328c0 37.6494 -30.6182 68.2666 -68.2676 68.2666c-37.6484 0 -68.2666 -30.6172 -68.2666 -68.2666v-76.1328
c-20.8896 18.7734 -34.1328 45.9082 -34.1328 76.1328c0 56.4736 45.9268 102.4 102.399 102.4zM219.733 362.6c2.55176 0.158203 5.19336 0.0332031 7.86621 -0.399414c16.7773 -2.73047 28.4004 -18.502 28.4004 -35.5v-119.834
c0 -5.47754 6.29883 -8.8457 10.5996 -5.46582c5.30859 4.18066 12.9355 7.66602 23.5342 7.66602c17.0664 0 26.1699 -8.67969 31 -17.3662c3.49805 -6.26367 11.1572 -8.95605 17.2334 -5.16699c4.91504 3.05469 11.5 5.4668 20.0332 5.4668
c14.3359 0 22.7021 -7.2002 27.5664 -15c3.66895 -5.87109 11.2568 -8.64355 17.3662 -5.36621c3.9082 2.09863 9.19922 3.50488 16.3672 3.2666c13.5 -0.444336 24.0332 -12.0674 24.0332 -25.5674v-93.8662v-34.1338c0 -37.7002 -30.5664 -68.2666 -68.2666 -68.2666
h-117.667c-23.2617 0 -45.8076 7.91016 -63.9668 22.4336l-57.2998 45.833l-85.333 51.2002v7.2998c0 19.2686 20.5996 26.834 37.666 26.834c37.5127 0 55.3135 -11.9639 98.8672 -34.1338v256c0 18.1445 14.1357 32.9648 32 34.0664z" />
    <glyph glyph-name="poste-de-travail" unicode="&#xf16f;" 
d="M68.2666 362.667h68.2666c18.8584 0 34.1338 -15.2754 34.1338 -34.1338v-273.066c0 -18.8584 -15.2754 -34.1338 -34.1338 -34.1338h-68.2666c-18.8584 0 -34.1328 15.2754 -34.1328 34.1338v273.066c0 18.8584 15.2744 34.1338 34.1328 34.1338zM204.8 362.667h238.934
c18.8584 0 34.1338 -15.2754 34.1338 -34.1338v-204.8c0 -18.8584 -15.2754 -34.1338 -34.1338 -34.1338h-238.934v68.2666h238.934v170.667h-238.934v34.1338zM290.134 140.8c-9.4209 0 -17.0674 -7.64551 -17.0674 -17.0664s7.64648 -17.0664 17.0674 -17.0664
c9.41992 0 17.0664 7.64551 17.0664 17.0664s-7.64648 17.0664 -17.0664 17.0664zM102.4 123.733c-9.4209 0 -17.0674 -7.64551 -17.0674 -17.0664s7.64648 -17.0674 17.0674 -17.0674s17.0664 7.64648 17.0664 17.0674s-7.64551 17.0664 -17.0664 17.0664zM204.8 55.4668
h170.667c9.4209 0 17.0664 -7.64648 17.0664 -17.0664c0 -9.4209 -7.64551 -17.0674 -17.0664 -17.0674h-170.667v34.1338z" />
    <glyph glyph-name="people" unicode="&#xf10f;" 
d="M112.667 396.8c43.1953 0 61.4238 -24.9463 69.6328 -56.3662c-27.2207 -19.6436 -43.6328 -50.9902 -43.6328 -89.1006c0 -14.9844 6.4209 -41.708 14.0332 -53.4326c-3.3623 -0.750977 -12.9238 -1.5 -16.167 -1.5v-17.2334
c4.04492 -10.5479 13.0508 -16.8252 23.7002 -22.167c4.86426 -12.9531 18.2324 -30.0684 27.5 -39.9668c0 0 -38.7852 -20.1631 -50.7998 -27.4336h-136.934c-0 66.7822 71.458 53.4199 85.333 89.5674v17.0332c-50.21 0 -66.2998 19.8994 -66.2998 19.8994
c26.249 21.0264 -23.0439 163.634 66.2998 163.634c0 0 11.7344 17.0664 27.334 17.0664zM392.533 396.8c26.7432 0 34.1338 -17.0664 34.1338 -17.0664c25.7363 0 34.1328 -28.6553 34.1328 -59.7334c0 -15.5137 -5.7666 -28.333 -5.7666 -28.333
c2.67969 -1.57031 5.7666 -5.65625 5.7666 -15.3672s-8.8291 -20.5586 -13.2666 -20.8994c-1.70605 -15.3262 -15.2002 -34.9502 -20.8662 -37.8008v-25.5996c12.5781 -38.4004 85.333 -12.7998 85.333 -102.4h-136.7c-12.1172 7.35645 -41.7656 22.4219 -51.0332 26.4668
c0 0 42.667 42.0459 42.667 84.2002c0 5.71777 -0.65625 10.875 -1.83398 15.5c3.1748 9.35254 6.10059 21.4229 6.10059 33.9668c0 40.124 -17.9541 71.9873 -45.5332 86.7666c5.63184 34.2012 28.9268 60.2998 66.8662 60.2998zM256 328.533
c21.6406 0 34.1338 -17.0664 34.1338 -17.0664c29.4229 0 46.9326 -26.832 46.9326 -61.7334c0 -17.4082 -9.59961 -35.667 -9.59961 -35.667s5.33301 -1.81934 5.33301 -13.7998c0 -17.2881 -13.9668 -26.9336 -13.9668 -26.9336
c-1.94531 -17.2031 -28.6992 -42.3994 -28.6992 -42.3994v-28.7666c14.3701 -43.1104 102.399 -14.3594 102.399 -114.967h-273.066c0 100.267 88.0293 71.8564 102.399 114.967v28.7666s-26.7539 25.1963 -28.6992 42.3994c0 0 -13.9668 5.20801 -13.9668 26.9336
c0 11.1787 5.33301 13.7998 5.33301 13.7998s-11.7334 16.3262 -11.7334 37.2666c0 49.5273 37.2568 77.2002 83.2002 77.2002z" />
    <glyph glyph-name="play-2" unicode="&#xf19a;" 
d="M102.4 396.8c3.01172 0 7.44629 -1.41895 9.89941 -3.16602h0.0332031l338.034 -185.9c5.75879 -2.42969 10.4326 -9.47461 10.4326 -15.7246v-0.00878906c-0.00683594 -6.04199 -4.47168 -12.9863 -9.9668 -15.5l-338.5 -186.134l-0.0332031 0.0341797
c-2.44922 -1.75781 -6.88477 -3.19141 -9.89941 -3.2002c-9.4209 0 -17.0674 7.64551 -17.0674 17.0664v0.0332031v0.0332031v187.667v187.667v0.0332031v0.0332031c0 9.4209 7.64648 17.0664 17.0674 17.0664z" />
    <glyph glyph-name="qr-code" unicode="&#xf133;" 
d="M102.4 379.733h68.2666c18.8584 0 34.1328 -15.2744 34.1328 -34.1338v-68.2666c0 -18.8584 -15.2744 -34.1328 -34.1328 -34.1328h-68.2666c-18.8594 0 -34.1338 15.2744 -34.1338 34.1328v68.2666c0 18.8594 15.2744 34.1338 34.1338 34.1338zM341.333 379.733h68.2666
c18.8594 0 34.1338 -15.2744 34.1338 -34.1338v-68.2666c0 -18.8584 -15.2744 -34.1328 -34.1338 -34.1328h-68.2666c-18.8584 0 -34.1328 15.2744 -34.1328 34.1328v68.2666c0 18.8594 15.2744 34.1338 34.1328 34.1338zM102.4 345.6v-68.2666h68.2666v68.2666h-68.2666z
M238.934 345.6h34.1328v-34.1328h-34.1328v34.1328zM341.333 345.6v-68.2666h68.2666v68.2666h-68.2666zM119.467 328.533h34.1328v-34.1328h-34.1328v34.1328zM358.4 328.533h34.1328v-34.1328h-34.1328v34.1328zM238.934 277.333h34.1328v-34.1328h-34.1328v34.1328z
M102.4 209.066h34.1328v-34.1328h-34.1328v34.1328zM170.667 209.066h34.1328v-34.1328h-34.1328v34.1328zM238.934 209.066h34.1328v-34.1328h-34.1328v34.1328zM273.066 174.934h34.1338v-34.1338h-34.1338v34.1338zM307.2 174.934v34.1328h34.1328v-34.1328h-34.1328z
M341.333 174.934h34.1338v-34.1338h-34.1338v34.1338zM375.467 174.934v34.1328h34.1328v-34.1328h-34.1328zM409.6 174.934h34.1338v-34.1338h-34.1338v34.1338zM409.6 140.8v-34.1328h-34.1328v34.1328h34.1328zM409.6 106.667h34.1338v-34.1338h-34.1338v34.1338z
M409.6 72.5332v-34.1328h-34.1328v34.1328h34.1328zM375.467 38.4004v-34.1338h-34.1338v34.1338h34.1338zM341.333 38.4004h-34.1328v34.1328h34.1328v-34.1328zM307.2 38.4004v-34.1338h-34.1338v34.1338h34.1338zM273.066 38.4004h-34.1328v34.1328h34.1328v-34.1328z
M273.066 72.5332v34.1338h34.1338v-34.1338h-34.1338zM273.066 106.667h-34.1328v34.1328h34.1328v-34.1328zM307.2 106.667v34.1328h34.1328v-34.1328h-34.1328zM341.333 106.667h34.1338v-34.1338h-34.1338v34.1338zM102.4 140.8h68.2666
c18.8584 0 34.1328 -15.2744 34.1328 -34.1328v-68.2666c0 -18.8594 -15.2744 -34.1338 -34.1328 -34.1338h-68.2666c-18.8594 0 -34.1338 15.2744 -34.1338 34.1338v68.2666c0 18.8584 15.2744 34.1328 34.1338 34.1328zM102.4 106.667v-68.2666h68.2666v68.2666h-68.2666z
M119.467 89.5996h34.1328v-34.1328h-34.1328v34.1328z" />
    <glyph glyph-name="product" unicode="&#xf1a4;" 
d="M85.333 379.733h341.334c18.8584 0 34.1328 -15.2744 34.1328 -34.1338v-34.1328h-409.6v34.1328c0 18.8594 15.2744 34.1338 34.1328 34.1338zM68.2666 277.333h375.467v-238.933c0 -18.8594 -15.2744 -34.1338 -34.1338 -34.1338h-307.199
c-18.8594 0 -34.1338 15.2744 -34.1338 34.1338v238.933zM204.8 226.134c-9.4209 0 -17.0664 -7.64648 -17.0664 -17.0674s7.64551 -17.0664 17.0664 -17.0664h102.4c9.4209 0 17.0664 7.64551 17.0664 17.0664s-7.64551 17.0674 -17.0664 17.0674h-102.4z" />
    <glyph glyph-name="aide" unicode="&#xf128;" 
d="M256 396.8c113.101 0 204.8 -91.6992 204.8 -204.8s-91.6992 -204.8 -204.8 -204.8s-204.8 91.6992 -204.8 204.8s91.6992 204.8 204.8 204.8zM256 64c14.1309 0 25.5996 11.4688 25.5996 25.5996c0 14.1318 -11.4688 25.6006 -25.5996 25.6006
s-25.5996 -11.4688 -25.5996 -25.6006c0 -14.1309 11.4688 -25.5996 25.5996 -25.5996zM291.294 183.467c14.6943 13.585 32.9727 30.4639 32.9727 59.7334c0 37.6484 -30.6172 68.2666 -68.2666 68.2666s-68.2666 -30.6182 -68.2666 -68.2666h34.1328
c0 18.8242 15.3096 34.1328 34.1338 34.1328s34.1338 -15.3086 34.1338 -34.1328c0 -13.6367 -8.36328 -22.0508 -21.999 -34.6455c-13.0049 -12.0322 -29.2012 -26.9824 -29.2012 -50.6885h34.1328c0 8.3291 6.92969 15.1729 18.2275 25.6006z" />
    <glyph glyph-name="green-check-mark" unicode="&#xf12d;" 
d="M256 396.8c63.4541 0 120.137 -28.8545 157.7 -74.166l-184.334 -184.334l-63.9326 63.9336c-6.67285 6.67285 -17.4609 6.67285 -24.1338 0s-6.67285 -17.46 0 -24.1338l76 -76c3.19141 -3.20801 7.54395 -5 12.0664 -5c4.54004 0 8.87598 1.80859 12.0674 5
l191.967 191.934c17.3301 -30.0654 27.3994 -64.8389 27.3994 -102.033c0 -113.101 -91.6992 -204.8 -204.8 -204.8s-204.8 91.6992 -204.8 204.8s91.6992 204.8 204.8 204.8zM413.7 322.634l35.0332 35.0332c6.67285 6.67285 17.46 6.67285 24.1338 0
c6.67285 -6.67383 6.67285 -17.4434 0 -24.1338l-39.4668 -39.4668c-5.81641 10.0605 -12.334 19.6826 -19.7002 28.5674z" />
    <glyph glyph-name="design" unicode="&#xf114;" 
d="M146.533 413.866c4.36914 0 8.73926 -1.67188 12.0664 -5l76.8008 -76.7998l22.0664 -22.0664l-59.7334 -59.7334l-22.0664 22.0664l35.5996 35.6006l-18.5332 18.5332l-22.0664 -22.0664l-24.1338 24.1328l22.0664 22.0664l-22.0664 22.0674l-71.2002 -71.2002
l86.8008 -86.7998l-24.1338 -24.1338l-98.8662 98.8672c-6.67383 6.65527 -6.67383 17.46 0 24.1328l95.333 95.333c3.32812 3.32812 7.69727 5 12.0664 5zM406.634 396.8c8.72461 0.00878906 17.4346 -3.33496 24.0996 -10l20.0664 -20.0664
c13.3291 -13.3291 13.2959 -34.9043 -0.0332031 -48.2334l-24.0996 -24.0996l-68.2666 68.2666l24.0996 24.0996c6.66406 6.66504 15.4082 10.0244 24.1338 10.0332zM324.267 328.533l68.2666 -68.2666l-235 -235l-12.4668 21.667l-25.5996 8.5332l-8.5332 25.5996
l-21.667 12.4668zM374 193.467l22.0664 -22.0664l76.8008 -76.8008c6.67285 -6.67285 6.67285 -17.4766 0 -24.1328l-95.334 -95.334c-3.32812 -3.32715 -7.69727 -5 -12.0664 -5s-8.73828 1.67285 -12.0664 5l-98.8672 98.8672l24.1338 24.1328l86.7998 -86.7998
l71.2002 71.2002l-22.0674 22.0664l-22.0664 -22.0664l-24.1328 24.1338l22.0664 22.0664l-18.5332 18.5332l-35.6006 -35.5996l-22.0664 22.0664zM66.4336 40.2334l37.833 -37.833l-41.4336 -14.6338c-0.814453 -0.3125 -2.18457 -0.566406 -3.05762 -0.566406h-0.0419922
c-4.71094 0 -8.5332 3.82227 -8.5332 8.5332v0.0400391c0 0.924805 0.283203 2.37012 0.632812 3.22656z" />
    <glyph glyph-name="home" unicode="&#xf11c;" 
d="M256 413.866c3.68555 -0.0107422 8.86719 -2.05664 11.5664 -4.56641l107.9 -88.2666v24.5664c0 9.4209 7.64551 17.0674 17.0664 17.0674h17.0664c9.4209 0 17.0674 -7.64648 17.0674 -17.0674v-66.4326l27.2666 -22.3008
c0.333984 -0.251953 0.856445 -0.685547 1.16602 -0.96582l0.267578 -0.200195c2.99902 -2.79395 5.43262 -8.38867 5.43262 -12.4873v-0.0126953c0 -9.4209 -7.64551 -17.0664 -17.0664 -17.0664h-17.0664v-187.733c0 -18.8594 -15.2754 -34.1338 -34.1338 -34.1338
h-273.066c-18.8584 0 -34.1338 15.2744 -34.1338 34.1338v187.733h-17.0664c-9.4209 0 -17.0664 7.64551 -17.0664 17.0664c0.00488281 4.0918 2.43848 9.67676 5.43359 12.4668v0.0332031l0.632812 0.533203c0.171875 0.141602 0.455078 0.366211 0.633789 0.5
l186.166 152.267c2.74609 2.68652 8.09277 4.86621 11.9336 4.86621zM307.2 192v-136.533h68.2666v136.533h-68.2666z" />
    <glyph glyph-name="questionnaire" unicode="&#xf1ac;" 
d="M102.4 388.267c14.1309 0 25.5996 -11.4688 25.5996 -25.5996c0 -14.1318 -11.4688 -25.6006 -25.5996 -25.6006c-14.1318 0 -25.6006 11.4688 -25.6006 25.6006c0 14.1309 11.4688 25.5996 25.6006 25.5996zM187.733 379.733h238.934l0.241211 0.00195312
c9.42188 0 17.0684 -7.64648 17.0684 -17.0684s-7.64648 -17.0684 -17.0684 -17.0684l-0.241211 0.000976562h-238.934l-0.241211 -0.000976562c-9.42188 0 -17.0684 7.64648 -17.0684 17.0684s7.64648 17.0684 17.0684 17.0684zM102.4 302.934
c14.1309 0 25.5996 -11.4688 25.5996 -25.6006c0 -14.1309 -11.4688 -25.5996 -25.5996 -25.5996c-14.1318 0 -25.6006 11.4688 -25.6006 25.5996c0 14.1318 11.4688 25.6006 25.6006 25.6006zM187.733 294.4h238.934l0.241211 0.000976562
c9.42188 0 17.0684 -7.64648 17.0684 -17.0684s-7.64648 -17.0684 -17.0684 -17.0684l-0.241211 0.00195312h-238.934l-0.241211 -0.00195312c-9.42188 0 -17.0684 7.64648 -17.0684 17.0684s7.64648 17.0684 17.0684 17.0684zM102.4 132.267
c14.1309 0 25.5996 -11.4688 25.5996 -25.5996c0 -14.1318 -11.4688 -25.6006 -25.5996 -25.6006c-14.1318 0 -25.6006 11.4688 -25.6006 25.6006c0 14.1309 11.4688 25.5996 25.6006 25.5996zM187.733 123.733h238.934
c0.0664062 0.000976562 0.174805 0.00195312 0.241211 0.00195312c9.42188 0 17.0684 -7.64746 17.0684 -17.0684c0 -9.42188 -7.64648 -17.0684 -17.0684 -17.0684l-0.241211 0.000976562h-238.934l-0.241211 -0.000976562c-9.42188 0 -17.0684 7.64648 -17.0684 17.0684
c0 9.4209 7.64648 17.0684 17.0684 17.0684c0.0664062 0 0.174805 -0.000976562 0.241211 -0.00195312zM102.4 46.9336c14.1309 0 25.5996 -11.4688 25.5996 -25.6006c0 -14.1309 -11.4688 -25.5996 -25.5996 -25.5996c-14.1318 0 -25.6006 11.4688 -25.6006 25.5996
c0 14.1318 11.4688 25.6006 25.6006 25.6006zM187.733 38.4004h238.934c0.0664062 0.000976562 0.174805 0.000976562 0.241211 0.000976562c9.42188 0 17.0684 -7.64648 17.0684 -17.0684s-7.64648 -17.0684 -17.0684 -17.0684
c-0.0664062 0 -0.174805 0.000976562 -0.241211 0.00195312h-238.934c-0.0664062 -0.000976562 -0.174805 -0.00195312 -0.241211 -0.00195312c-9.42188 0 -17.0684 7.64648 -17.0684 17.0684s7.64648 17.0684 17.0684 17.0684
c0.0664062 0 0.174805 0 0.241211 -0.000976562z" />
    <glyph glyph-name="contacts" unicode="&#xf149;" 
d="M409.6 413.866c18.8594 0 34.1338 -15.2744 34.1338 -34.1328v-375.467c0 -18.8584 -15.2744 -34.1338 -34.1338 -34.1338h-341.333v443.733h341.333zM153.6 89.5996h204.801c0 64.7168 -68.2666 46.2168 -76.8008 73.9678v18.4824
c3.84082 2.06543 14.8145 16.2305 15.9746 27.29c3.02051 0.255859 7.76562 3.25977 9.16504 15.1211c0.750977 6.36523 -2.23535 9.94922 -4.04492 11.0762c0 0 4.50586 9.26758 4.50586 20.4629c0 22.46 -8.14062 41.6084 -25.6006 41.6084
c0 0 -6.05859 13.8584 -25.5996 13.8584c-36.1982 0 -51.2002 -25.1562 -51.2002 -55.4834c0 -10.1895 4.50586 -20.4639 4.50586 -20.4639c-1.80957 -1.12598 -4.7959 -4.70996 -4.04492 -11.0762c1.39941 -11.8613 6.14453 -14.8643 9.16504 -15.1211
c1.16016 -11.0586 12.1338 -25.2246 15.9746 -27.2891v-18.4834c-8.53418 -27.7334 -76.8008 -9.2334 -76.8008 -73.9502z" />
    <glyph glyph-name="notification" unicode="&#xf11e;" 
d="M256 396.8c18.8584 0 34.1338 -15.2744 34.1338 -34.1328v-5c49.3389 -14.6924 85.333 -60.3545 85.333 -114.467v-47.0664c0 -46.3701 18.415 -90.8154 51.2002 -123.601c9.4209 0 17.0664 -7.64551 17.0664 -17.0664s-7.64551 -17.0664 -17.0664 -17.0664h-341.334
c-9.4209 0 -17.0664 7.64551 -17.0664 17.0664s7.64551 17.0664 17.0664 17.0664c32.7852 32.7852 51.2002 77.2305 51.2002 123.601v47.0664c0 54.1123 35.9941 99.7744 85.333 114.467v5c0 18.8584 15.2754 34.1328 34.1338 34.1328zM204.8 4.2666h102.4
c0 -28.2793 -22.9209 -51.2002 -51.2002 -51.2002s-51.2002 22.9209 -51.2002 51.2002z" />
    <glyph glyph-name="access-granted" unicode="&#xf1b7;" 
d="M256 413.866c51.8428 0 96.1172 -33.2344 112.533 -79.6328c0.619141 -1.62207 1.12109 -4.34766 1.12109 -6.08398c0 -9.42188 -7.64648 -17.0684 -17.0684 -17.0684c-6.82617 0 -14.0928 5.26465 -16.2188 11.752c-11.7109 33.0977 -43.0879 56.9004 -80.3672 56.9004
c-47.3369 0 -85.333 -37.9961 -85.333 -85.333v-34.1338h238.933c18.8594 0 34.1338 -15.2744 34.1338 -34.1328v-204.801c0 -18.8584 -15.2744 -34.1328 -34.1338 -34.1328h-307.199c-18.8594 0 -34.1338 15.2744 -34.1338 34.1328v204.801
c0 18.8584 15.2744 34.1328 34.1338 34.1328h34.1328v34.1338c0 65.7803 53.6865 119.466 119.467 119.466z" />
    <glyph glyph-name="close-button" unicode="&#xf119;" 
d="M136.167 345.934h0.03125c7.95801 0 18.9199 -4.62988 24.4688 -10.334l95.333 -95.333l95.333 95.333c5.32129 5.47656 15.835 10.1064 23.4668 10.334c0.27832 0.0078125 0.728516 0.0146484 1.00684 0.0146484c18.8428 0 34.1367 -15.293 34.1367 -34.1367
c0 -7.96191 -4.63379 -18.9287 -10.3438 -24.4785l-95.333 -95.333l95.333 -95.333c5.79297 -5.5625 10.4951 -16.5938 10.4951 -24.625c0 -18.8428 -15.2939 -34.1367 -34.1367 -34.1367c-8.03125 0 -19.0625 4.70215 -24.625 10.4951l-95.333 95.333l-95.333 -95.333
c-5.5625 -5.79297 -16.5938 -10.4951 -24.625 -10.4951c-18.8428 0 -34.1367 15.2939 -34.1367 34.1367c0 8.03125 4.70215 19.0625 10.4951 24.625l95.333 95.333l-95.333 95.333c-5.70117 5.54883 -10.3281 16.5088 -10.3281 24.4639
c0 18.8203 15.2744 34.1133 34.0947 34.1367z" />
    <glyph glyph-name="comma-2" unicode="&#xf1a0;" 
d="M256 396.8c83.8223 -0.03125 152.605 -68.082 153.533 -151.899c0.0371094 -0.418945 0.0673828 -1.09863 0.0673828 -1.51855l-0.000976562 -0.181641c-0.0214844 -4.65234 -0.46875 -12.1787 -1 -16.7998c-10.2305 -138.905 -142.366 -235.801 -142.366 -235.801
c-2.51172 -1.87988 -7.0957 -3.40625 -10.2324 -3.40625c-9.4248 0 -17.0732 7.64941 -17.0732 17.0742c0 2.99805 1.40625 7.41797 3.13867 9.86523c0.0654297 0.0888672 21.4248 29.7988 32 76.7334c-4.96582 -0.643555 -13.0596 -1.21094 -18.0664 -1.2666
c-84.7871 0 -153.6 68.8135 -153.6 153.601s68.8125 153.6 153.6 153.6z" />
    <glyph glyph-name="content" unicode="&#xf192;" 
d="M85.333 379.733h68.2666c9.4209 0 17.0674 -7.64551 17.0674 -17.0664v-68.2666c0 -9.4209 -7.64648 -17.0674 -17.0674 -17.0674h-68.2666c-9.4209 0 -17.0664 7.64648 -17.0664 17.0674v68.2666c0 9.4209 7.64551 17.0664 17.0664 17.0664zM119.467 345.6
c-9.4209 0 -17.0664 -7.64551 -17.0664 -17.0664s7.64551 -17.0664 17.0664 -17.0664s17.0664 7.64551 17.0664 17.0664s-7.64551 17.0664 -17.0664 17.0664zM221.866 345.6h204.801l0.241211 0.00195312c9.42188 0 17.0684 -7.64648 17.0684 -17.0684
s-7.64648 -17.0684 -17.0684 -17.0684l-0.241211 0.00195312h-204.801l-0.241211 -0.00195312c-9.42188 0 -17.0684 7.64648 -17.0684 17.0684s7.64648 17.0684 17.0684 17.0684zM85.333 243.2h68.2666c9.4209 0 17.0674 -7.64648 17.0674 -17.0664v-68.2676
c0 -9.41992 -7.64648 -17.0664 -17.0674 -17.0664h-68.2666c-9.4209 0 -17.0664 7.64648 -17.0664 17.0664v68.2676c0 9.41992 7.64551 17.0664 17.0664 17.0664zM119.467 209.066l-25.6006 -34.1328h51.2002zM221.866 209.066h204.801l0.241211 0.00195312
c9.42188 0 17.0684 -7.64648 17.0684 -17.0684s-7.64648 -17.0684 -17.0684 -17.0684l-0.241211 0.00195312h-204.801l-0.241211 -0.00195312c-9.42188 0 -17.0684 7.64648 -17.0684 17.0684s7.64648 17.0684 17.0684 17.0684zM85.333 106.667h68.2666
c9.4209 0 17.0674 -7.64648 17.0674 -17.0674v-68.2666c0 -9.4209 -7.64648 -17.0664 -17.0674 -17.0664h-68.2666c-9.4209 0 -17.0664 7.64551 -17.0664 17.0664v68.2666c0 9.4209 7.64551 17.0674 17.0664 17.0674zM102.4 72.5332v-34.1328h34.1328v34.1328h-34.1328z
M221.866 72.5332h204.801c0.0664062 0.000976562 0.174805 0.00195312 0.241211 0.00195312c9.42188 0 17.0684 -7.64648 17.0684 -17.0684s-7.64648 -17.0684 -17.0684 -17.0684c-0.0664062 0 -0.174805 0.000976562 -0.241211 0.00195312h-204.801
c-0.0664062 -0.000976562 -0.173828 -0.00195312 -0.241211 -0.00195312c-9.42188 0 -17.0684 7.64648 -17.0684 17.0684s7.64648 17.0684 17.0684 17.0684c0.0673828 0 0.174805 -0.000976562 0.241211 -0.00195312z" />
    <glyph glyph-name="e-mail" unicode="&#xf151;" 
d="M43.2998 345.6h425.4l-192.4 -179.566c-11.3662 -10.6494 -29.2168 -10.6494 -40.5996 0zM17.0664 323.4l134.934 -125.934l-134.934 -134.934v260.867zM494.934 323.4v-260.867l-134.934 134.934zM176.934 174.167l35.4326 -33.0674
c12.2373 -11.417 27.916 -17.1328 43.6006 -17.1328s31.3965 5.71582 43.6328 17.1328l35.4336 33.0674l135.767 -135.767h-429.6z" />
    <glyph glyph-name="locked-smartphone" unicode="&#xf1b6;" 
d="M136.533 430.934h238.934c18.8584 0 34.1328 -15.2754 34.1328 -34.1338v-409.6c0 -18.8584 -15.2744 -34.1338 -34.1328 -34.1338h-238.934c-18.8584 0 -34.1328 15.2754 -34.1328 34.1338v68.2666h34.1328v-68.2666h238.934v409.6h-51.2002l-7.06641 -7.06641
c-6.40039 -6.40039 -15.0879 -10 -24.1338 -10h-74.1328c-9.0459 0 -17.7334 3.59961 -24.1338 10l-7.06641 7.06641h-51.2002v-85.333h-34.1328v85.333c0 18.8584 15.2744 34.1338 34.1328 34.1338zM230.4 413.866c-4.71094 0 -8.53418 -3.82227 -8.53418 -8.5332
c0 -4.70996 3.82324 -8.5332 8.53418 -8.5332h34.1328c4.71094 0 8.5332 3.82324 8.5332 8.5332c0 4.71094 -3.82227 8.5332 -8.5332 8.5332h-34.1328zM298.667 413.866c-4.71094 0 -8.5332 -3.82227 -8.5332 -8.5332c0 -4.70996 3.82227 -8.5332 8.5332 -8.5332
c4.70996 0 8.5332 3.82324 8.5332 8.5332c0 4.71094 -3.82324 8.5332 -8.5332 8.5332zM119.467 277.333c37.6494 0 68.2666 -30.6172 68.2666 -68.2666v-17.0664c9.4209 0 17.0664 -7.64551 17.0664 -17.0664v-68.2666c0 -9.4209 -7.64551 -17.0674 -17.0664 -17.0674
h-136.533c-9.4209 0 -17.0664 7.64648 -17.0664 17.0674v68.2666c0 9.4209 7.64551 17.0664 17.0664 17.0664v17.0664c0 37.6494 30.6172 68.2666 68.2666 68.2666zM119.467 243.2c-18.8242 0 -34.1338 -15.3086 -34.1338 -34.1338v-17.0664h68.2666v17.0664
c0 18.8252 -15.3086 34.1338 -34.1328 34.1338z" />
    <glyph glyph-name="wifi--teint" unicode="&#xf12f;" 
d="M29.1338 443l103.6 -103.6c38.2363 14.918 79.7393 23.2666 123.267 23.2666c94.2588 0 179.603 -38.2031 241.367 -99.9668l-60.4336 -60.4336c-46.3535 46.3535 -110.346 75.0664 -180.934 75.0664c-18.8887 0 -37.168 -2.36133 -54.8662 -6.33301l29.4326 -29.4336
c8.3584 0.969727 16.8174 1.63379 25.4336 1.63379c61.167 0 116.625 -24.8916 156.8 -65.0664l-59.3994 -59.4004l153.6 -153.601l-24.1328 -24.1328l-477.867 477.866zM69.4004 306.967l62.0996 -62.1338c-20.7363 -11.5879 -39.7422 -25.875 -56.4336 -42.5664
l-60.4326 60.4336c16.6055 16.623 35.0371 31.3467 54.7666 44.2666zM156.833 219.533l65.9336 -65.9336c-24.2861 -6.10938 -46.0977 -18.5801 -63.2666 -35.7666l-60.2998 60.3008c16.7422 16.7588 36.2656 30.665 57.6328 41.3994zM252.8 123.566l52.7002 -52.7334
l-49.5 -49.5l-72.3662 72.3672c17.834 17.8174 42.2178 29.0303 69.166 29.8662z" />
    <glyph glyph-name="carte-contact" unicode="&#xf160;" 
d="M68.2666 396.8h83.0664c11.998 0 23.1055 -6.29199 29.2666 -16.5664l10.5342 -17.5664h252.6c18.8584 0 34.1338 -15.2754 34.1338 -34.1338v-273.066c0 -18.8584 -15.2754 -34.1338 -34.1338 -34.1338h-34.1338v8.5332c0 14.1318 -11.4688 25.6006 -25.5996 25.6006
s-25.5996 -11.4688 -25.5996 -25.6006v-8.5332h-204.801v8.5332c0 14.1318 -11.4688 25.6006 -25.5996 25.6006s-25.5996 -11.4688 -25.5996 -25.6006v-8.5332h-34.1338c-18.8584 0 -34.1328 15.2754 -34.1328 34.1338v256v51.2002
c0 18.8584 15.2744 34.1328 34.1328 34.1328zM170.667 294.4c-30.1572 0 -42.6504 -20.9414 -42.6338 -46.2002c0 -8.5166 3.7334 -17.0664 3.7334 -17.0664c-1.51855 -0.939453 -3.99805 -3.92578 -3.36621 -9.2334c1.16016 -9.88184 5.12402 -12.3955 7.63281 -12.6006
c0.956055 -9.21582 10.0918 -21.0264 13.2998 -22.7334v-15.4326c-6.38281 -20.7705 -37.5459 -10.5879 -46.9326 -47.4004h136.566c-9.38672 36.8125 -40.5508 26.6299 -46.9336 47.4004v15.4326c3.20898 1.70703 12.3447 13.5176 13.2998 22.7334
c2.50879 0.205078 6.47363 2.71875 7.63379 12.6006c0.614258 5.30762 -1.89844 8.29395 -3.40039 9.2334c0 0 3.7666 7.73047 3.7666 17.0664c0 18.7051 -6.77539 34.6328 -21.333 34.6328c0 0 -5.05176 11.5674 -21.333 11.5674zM290.134 243.2
c-9.4209 0 -17.0674 -7.64648 -17.0674 -17.0664c0 -9.4209 7.64648 -17.0674 17.0674 -17.0674h102.399c9.4209 0 17.0664 7.64648 17.0664 17.0674c0 9.41992 -7.64551 17.0664 -17.0664 17.0664h-102.399zM290.134 174.934
c-9.4209 0 -17.0674 -7.64648 -17.0674 -17.0674c0 -9.41992 7.64648 -17.0664 17.0674 -17.0664h102.399c9.4209 0 17.0664 7.64648 17.0664 17.0664c0 9.4209 -7.64551 17.0674 -17.0664 17.0674h-102.399z" />
    <glyph glyph-name="visible-2" unicode="&#xf18e;" 
d="M256 362.667c152.206 0 250.521 -157.204 252.3 -160.067c0.00976562 -0.00878906 0.0244141 -0.0234375 0.0332031 -0.0332031c2.02344 -2.56543 3.66699 -7.29883 3.66699 -10.5664c-0.00292969 -2.79297 -1.24219 -6.95996 -2.7666 -9.2998
c-0.0537109 -0.0927734 -0.143555 -0.242188 -0.200195 -0.333984c-1.00391 -1.9502 -83.4102 -161.033 -253.033 -161.033c-170.346 0 -252.873 160.661 -253.167 161.267c-0.0185547 0.0283203 -0.0478516 0.0722656 -0.0664062 0.100586
c-1.52441 2.33984 -2.76367 6.50684 -2.7666 9.2998c0.00195312 3.28125 1.66016 8.03027 3.7002 10.5996c1.77832 2.86328 100.094 160.067 252.3 160.067zM256 311.467c-65.9795 0 -119.467 -53.4873 -119.467 -119.467s53.4873 -119.467 119.467 -119.467
s119.467 53.4873 119.467 119.467s-53.4873 119.467 -119.467 119.467zM256 243.2c28.2627 0 51.2002 -22.9375 51.2002 -51.2002s-22.9375 -51.2002 -51.2002 -51.2002s-51.2002 22.9375 -51.2002 51.2002s22.9375 51.2002 51.2002 51.2002z" />
    <glyph glyph-name="nuage" unicode="&#xf16c;" 
d="M307.2 362.667c75.3662 0 136.533 -61.167 136.533 -136.533c-0.0478516 -1.63086 -0.181641 -4.27344 -0.299805 -5.90039c37.79 -13.2295 68.5078 -56.4609 68.5664 -96.5c0 -56.5244 -45.875 -102.4 -102.4 -102.4h-307.199c-56.5254 0 -102.4 45.876 -102.4 102.4
c0.0576172 40.2891 31.0293 83.6113 69.1338 96.7002c5.48047 40.7783 43.3213 73.915 84.4658 73.9668c9.19043 -0.0126953 23.5557 -2.83496 32.0674 -6.30078c20.9424 41.1182 75.3896 74.5234 121.533 74.5674z" />
    <glyph glyph-name="star-filled" unicode="&#xf116;" 
d="M269.056 406.46l49.0674 -145.271l153.31 -1.77539c13.1924 -0.15332 18.6533 -16.9639 8.07227 -24.832l-122.999 -91.5449l45.6875 -146.364c3.9248 -12.5947 -10.3594 -22.9717 -21.1289 -15.3428l-125.064 88.6953l-125.082 -88.6787
c-10.752 -7.62793 -25.0537 2.76562 -21.1279 15.3438l45.6875 146.363l-123 91.5459c-10.5811 7.86719 -5.12012 24.6777 8.07324 24.832l153.31 1.77441l49.0664 145.271c4.23242 12.4932 21.9141 12.4932 26.1289 -0.0166016z" />
    <glyph glyph-name="schedule" unicode="&#xf121;" 
d="M409.6 379.733c18.8594 0 34.1338 -15.2744 34.1338 -34.1338v-307.199c0 -18.8594 -15.2744 -34.1338 -34.1338 -34.1338h-307.199c-18.8594 0 -34.1338 15.2744 -34.1338 34.1338v307.199c0 18.8594 15.2744 34.1338 34.1338 34.1338h307.199zM119.467 55.4668
c9.4209 0 17.0664 7.64551 17.0664 17.0664s-7.64551 17.0664 -17.0664 17.0664s-17.0664 -7.64551 -17.0664 -17.0664s7.64551 -17.0664 17.0664 -17.0664zM119.467 123.733c9.4209 0 17.0664 7.64551 17.0664 17.0664s-7.64551 17.0664 -17.0664 17.0664
s-17.0664 -7.64551 -17.0664 -17.0664s7.64551 -17.0664 17.0664 -17.0664zM187.733 55.4668c9.4209 0 17.0664 7.64551 17.0664 17.0664s-7.64551 17.0664 -17.0664 17.0664s-17.0664 -7.64551 -17.0664 -17.0664s7.64551 -17.0664 17.0664 -17.0664zM187.733 123.733
c9.4209 0 17.0664 7.64551 17.0664 17.0664s-7.64551 17.0664 -17.0664 17.0664s-17.0664 -7.64551 -17.0664 -17.0664s7.64551 -17.0664 17.0664 -17.0664zM187.733 192c9.4209 0 17.0664 7.64551 17.0664 17.0664s-7.64551 17.0674 -17.0664 17.0674
s-17.0664 -7.64648 -17.0664 -17.0674s7.64551 -17.0664 17.0664 -17.0664zM256 55.4668c9.4209 0 17.0664 7.64551 17.0664 17.0664s-7.64551 17.0664 -17.0664 17.0664s-17.0664 -7.64551 -17.0664 -17.0664s7.64551 -17.0664 17.0664 -17.0664zM256 123.733
c9.4209 0 17.0664 7.64551 17.0664 17.0664s-7.64551 17.0664 -17.0664 17.0664s-17.0664 -7.64551 -17.0664 -17.0664s7.64551 -17.0664 17.0664 -17.0664zM256 192c9.4209 0 17.0664 7.64551 17.0664 17.0664s-7.64551 17.0674 -17.0664 17.0674
s-17.0664 -7.64648 -17.0664 -17.0674s7.64551 -17.0664 17.0664 -17.0664zM324.267 55.4668c9.4209 0 17.0664 7.64551 17.0664 17.0664s-7.64551 17.0664 -17.0664 17.0664s-17.0664 -7.64551 -17.0664 -17.0664s7.64551 -17.0664 17.0664 -17.0664zM324.267 123.733
c9.4209 0 17.0664 7.64551 17.0664 17.0664s-7.64551 17.0664 -17.0664 17.0664s-17.0664 -7.64551 -17.0664 -17.0664s7.64551 -17.0664 17.0664 -17.0664zM307.2 209.066c0 -9.4209 7.64551 -17.0664 17.0664 -17.0664s17.0664 7.64551 17.0664 17.0664
s-7.64551 17.0674 -17.0664 17.0674s-17.0664 -7.64648 -17.0664 -17.0674zM392.533 123.733c9.4209 0 17.0664 7.64551 17.0664 17.0664s-7.64551 17.0664 -17.0664 17.0664s-17.0664 -7.64551 -17.0664 -17.0664s7.64551 -17.0664 17.0664 -17.0664zM392.533 192
c9.4209 0 17.0664 7.64551 17.0664 17.0664s-7.64551 17.0674 -17.0664 17.0674s-17.0664 -7.64648 -17.0664 -17.0674s7.64551 -17.0664 17.0664 -17.0664zM409.6 277.333v68.2666h-307.199v-68.2666h307.199z" />
    <glyph glyph-name="quitter-la-queue" unicode="&#xf148;" 
d="M119.467 448l51.2002 -51.2002h-34.1338v-85.333h-34.1328v85.333h-34.1338zM392.533 379.733c28.2627 0 51.2002 -22.9375 51.2002 -51.2002s-22.9375 -51.2002 -51.2002 -51.2002s-51.2002 22.9375 -51.2002 51.2002s22.9375 51.2002 51.2002 51.2002zM256 328.533
c28.2627 0 51.2002 -22.9375 51.2002 -51.2002c0 -28.2617 -22.9375 -51.1992 -51.2002 -51.1992s-51.2002 22.9375 -51.2002 51.1992c0 28.2627 22.9375 51.2002 51.2002 51.2002zM119.467 277.333c28.2627 0 51.2002 -22.9375 51.2002 -51.1992
c0 -28.2627 -22.9375 -51.2002 -51.2002 -51.2002s-51.2002 22.9375 -51.2002 51.2002c0 28.2617 22.9375 51.1992 51.2002 51.1992zM375.467 243.2h34.1328c28.2803 0 51.2002 -22.9209 51.2002 -51.2002v-85.333h-102.399v34.1328
c0 26.6582 -12.5332 50.1992 -31.7334 65.8672c6.33105 21.0771 25.6572 36.5332 48.7998 36.5332zM238.934 192h34.1328c28.2793 0 51.2002 -22.9209 51.2002 -51.2002v-85.333h-102.4v34.1328c0 26.6582 -12.5332 50.2002 -31.7324 65.8672
c6.33105 21.0771 25.6572 36.5332 48.7998 36.5332zM102.4 140.8h34.1328c28.2793 0 51.2002 -22.9199 51.2002 -51.2002v-85.333h-136.533v85.333c0 28.2803 22.9199 51.2002 51.2002 51.2002z" />
    <glyph glyph-name="commercial" unicode="&#xf1a2;" 
d="M401.066 379.733c14.1318 0 25.6006 -11.4688 25.6006 -25.5996v-290.134c0 -14.1309 -11.4688 -25.5996 -25.6006 -25.5996c-14.1309 0 -25.5996 11.4688 -25.5996 25.5996v1.9668l-187.733 57.7666v170.667l187.733 57.7666v1.9668
c0 14.1309 11.4688 25.5996 25.5996 25.5996zM153.6 291v-163.866h-0.0664062l0.0664062 -105.801c0 -9.4209 -7.64551 -17.0664 -17.0664 -17.0664h-10.833c-8.31152 0 -15.418 5.99121 -16.7998 14.2002l-19.6338 115.1l-41.4668 4.16699
c-17.4424 1.74023 -30.7334 16.4219 -30.7334 33.9668v74.7334c0 17.5439 13.291 32.2256 30.7334 33.9668zM460.8 251.733l8.2666 -2.06641c15.1895 -3.80664 25.8672 -17.4668 25.8672 -33.1338v-14.9668c0 -15.6494 -10.6777 -29.2939 -25.8672 -33.0996
l-8.2666 -2.06641v85.333z" />
    <glyph glyph-name="agreement" unicode="&#xf1ae;" 
d="M119.467 413.866h179.2c4.52246 0 8.85742 -1.79102 12.0664 -5l110.934 -110.933c3.20801 -3.20898 5 -7.54395 5 -12.0674v-281.6c0 -18.8584 -15.2754 -34.1338 -34.1338 -34.1338h-273.066c-18.8584 0 -34.1338 15.2754 -34.1338 34.1338v375.467
c0 18.8584 15.2754 34.1328 34.1338 34.1328zM290.134 381.366v-86.9658c0 -9.4209 7.64551 -17.0674 17.0664 -17.0674h86.9668zM221.866 243.2c-30.6172 0 -51.1992 -30.874 -51.1992 -76.7998c0 -10.002 1.81934 -31.9629 7.36621 -54.9004
c-14.3018 -3.83984 -25.5752 -4.86621 -25.8994 -4.90039c-9.37012 -0.801758 -16.3027 -9.08008 -15.5 -18.4668c0.78418 -9.38574 8.84277 -16.5742 18.3662 -15.5332c1.63867 0.136719 15.7793 1.41699 33.7334 6.40039
c10.0693 -22.6982 25.3682 -40.5996 48.0664 -40.5996c30.4473 0 49.7998 25.8818 62.6006 43l0.0332031 0.0332031c5.87109 -10.9404 15.3438 -25.9668 33.3662 -25.9668c16.1963 0 26.0479 12.1875 33.9668 21.9668c3.92578 4.84668 9.84375 12.166 12.9668 12.166
c9.4375 0 17.0664 7.62891 17.0664 17.0674c0 9.4375 -7.62891 17.0664 -17.0664 17.0664c-19.4053 0 -31.002 -14.3379 -39.4668 -24.7998c-2.16699 -2.67969 -5.18262 -6.42383 -6.63281 -8.2666c-1.87793 2.55957 -4.23438 7.10352 -5.63379 9.7998
c-5.12012 9.83008 -12.1299 23.2666 -27.2002 23.2666c-12.373 0 -19.5684 -9.64746 -28.7334 -21.8672c-9.25 -12.3896 -21.9199 -29.333 -35.2666 -29.333c-5.23926 0 -10.9951 7.30273 -16.166 18.5664c27.1865 13.7051 52.4326 37.2246 52.4326 77.4336
c0 43.2637 -21.5381 74.667 -51.2002 74.667zM221.866 209.066c8.05566 0 17.0674 -17.3398 17.0674 -40.5332c0 -20.9746 -13.0752 -35.0146 -29.0674 -44.333c-3.12305 13.79 -5.06641 28.6143 -5.06641 42.2002c0 26.6914 8.6875 42.666 17.0664 42.666z" />
    <glyph glyph-name="download-from-cloud" unicode="&#xf111;" 
d="M443.443 220.297c39.9014 -13.9951 68.5566 -51.8828 68.5566 -96.5635c0 -56.5586 -45.8408 -102.4 -102.4 -102.4h-307.199c-56.5596 0 -102.4 45.8418 -102.4 102.4c0 45.0049 29.0645 83.1318 69.4268 96.8701c5.68359 41.626 40.9941 73.7969 84.1729 73.7969
c11.3496 0 22.1191 -2.32129 32.0342 -6.33203c22.5791 44.2363 68.4893 74.5986 121.566 74.5986c75.4004 0 136.533 -61.1328 136.533 -136.533c0 -1.98047 -0.205078 -3.8916 -0.290039 -5.83691zM319.267 128.733c6.67285 6.67383 6.67285 17.46 0 24.1328
c-6.67383 6.67285 -17.46 6.67285 -24.1328 0l-22.0674 -22.0674v95.335c0 9.41992 -7.62891 17.0664 -17.0664 17.0664s-17.0664 -7.64648 -17.0664 -17.0664v-95.335l-22.0674 22.0674c-6.67285 6.67285 -17.459 6.67285 -24.1318 0
c-6.67383 -6.67285 -6.67383 -17.459 0 -24.1328l51.1992 -51.1992c3.32812 -3.32812 7.69727 -5.00098 12.0664 -5.00098s8.73828 1.67285 12.0664 5.00098z" />
    <glyph glyph-name="update" unicode="&#xf196;" 
d="M256 396.8c41.5713 0 80.1855 -12.6494 112.533 -34l29 29c2.64453 2.64844 7.82617 4.8877 11.5664 5c0.137695 0.00390625 0.361328 0.0078125 0.499023 0.0078125c9.42188 0 17.0684 -7.64746 17.0684 -17.0684v-0.00585938v-85.333
c-0.000976562 -9.41992 -7.64746 -17.0664 -17.0674 -17.0674h-85.333c-9.41797 0.00390625 -17.0615 7.65039 -17.0615 17.0684c0 3.90137 2.2373 9.30566 4.99512 12.0654l31.7002 31.7002c-25.6611 15.4844 -55.6504 24.5 -87.9004 24.5
c-94.4561 0 -170.667 -76.2109 -170.667 -170.667s76.2109 -170.667 170.667 -170.667c17.9043 0 35.0508 2.88086 51.2002 7.9668v77.3672c0 18.8584 15.2744 34.1328 34.1328 34.1328h136.534c18.8584 0 34.1328 -15.2744 34.1328 -34.1328v-136.534
c0 -18.8584 -15.2744 -34.1328 -34.1328 -34.1328h-136.534c-18.8584 0 -34.1328 15.2744 -34.1328 34.1328v23.7002c-16.3926 -4.22363 -33.5215 -6.63281 -51.2002 -6.63281c-112.904 0 -204.8 91.8955 -204.8 204.8s91.8955 204.8 204.8 204.8zM371.467 317.467l-6 -6
h12.0996c-1.99805 2.03418 -4.00293 4.06738 -6.09961 6zM460.8 89.5996c-4.36426 0 -8.72949 -1.66309 -12.0664 -5l-56.2002 -56.1992l-22.0664 22.0664c-6.67285 6.67285 -17.46 6.67285 -24.1338 0c-6.67285 -6.67285 -6.67285 -17.46 0 -24.1338l34.1338 -34.1328
c3.32812 -3.32812 7.69727 -5 12.0664 -5s8.73926 1.67188 12.0664 5l68.2676 68.2666c6.67285 6.67285 6.67285 17.46 0 24.1328c-3.33691 3.33691 -7.70215 5 -12.0674 5z" />
    <glyph glyph-name="technologie-lifestyle" unicode="&#xf14a;" 
d="M273.066 379.733h102.4c18.8584 0 34.1328 -15.2744 34.1328 -34.1338v-136.533l-51.1992 51.2002h-34.1338v17.0664c0 37.6494 -30.6172 68.2666 -68.2666 68.2666h-17.0664c0 18.8594 15.2744 34.1338 34.1328 34.1338zM68.2666 328.533h40.667
c-14.3359 -12.5264 -23.6006 -30.7197 -23.6006 -51.2002h-17.0664v-238.933h34.1338c0 -9.4209 7.64551 -17.0674 17.0664 -17.0674h34.1328c9.4209 0 17.0674 7.64648 17.0674 17.0674h34.1328v119.466h34.1338v-136.533c0 -18.8584 -15.2754 -34.1328 -34.1338 -34.1328
h-136.533c-18.8584 0 -34.1328 15.2744 -34.1328 34.1328v273.067c0 18.8584 15.2744 34.1328 34.1328 34.1328zM443.733 328.533c18.8584 0 34.1338 -15.2744 34.1338 -34.1328v-273.067c0 -18.8584 -15.2754 -34.1328 -34.1338 -34.1328h-136.533
c-18.8584 0 -34.1338 15.2744 -34.1338 34.1328v138.967c13.4834 3.49902 25.2422 10.9785 34.1338 21.167v-143.066h34.1328c0 -9.4209 7.64648 -17.0674 17.0674 -17.0674h34.1328c9.4209 0 17.0664 7.64648 17.0664 17.0674h34.1338v88.2666v82.3994v68.2666v51.2002z
M153.6 311.467h102.4c18.8584 0 34.1338 -15.2744 34.1338 -34.1338v-51.1992c0 -18.8594 -15.2754 -34.1338 -34.1338 -34.1338h-85.333l-51.2002 -51.2002v136.533c0 18.8594 15.2744 34.1338 34.1328 34.1338z" />
    <glyph glyph-name="chat-room" unicode="&#xf113;" 
d="M136.533 396.8h307.2c18.8584 0 34.1338 -15.2744 34.1338 -34.1328v-238.934c0 -18.8584 -15.2754 -34.1338 -34.1338 -34.1338v221.867c0 28.2793 -22.9209 51.2002 -51.2002 51.2002h-290.133c0 18.8584 15.2744 34.1328 34.1328 34.1328zM68.2666 328.533h307.2
c18.8584 0 34.1328 -15.2744 34.1328 -34.1328v-238.934c0 -18.8584 -15.2744 -34.1338 -34.1328 -34.1338h-179.233l-45.4004 -60.4668c-2.77734 -4.2959 -9.18359 -7.79004 -14.2998 -7.7998c-9.4209 0 -17.0664 7.64648 -17.0664 17.0664v51.2002h-51.2002
c-18.8584 0 -34.1328 15.2754 -34.1328 34.1338v238.934c0 18.8584 15.2744 34.1328 34.1328 34.1328z" />
    <glyph glyph-name="webcam-man" unicode="&#xf177;" 
d="M443.733 362.667c18.8584 0 34.1338 -15.2754 34.1338 -34.1338v-273.066c0 -18.8584 -15.2754 -34.1338 -34.1338 -34.1338h-375.467c-18.8584 0 -34.1328 15.2754 -34.1328 34.1338v273.066c0 18.8584 15.2744 34.1338 34.1328 34.1338h375.467zM138.138 55.4668
h235.725c-9.64258 52.4795 -64.2217 45.4824 -83.7285 65.1436v36.4375c6.29688 6.68945 14.4893 18.7051 15.6152 28.7061c4.02832 0.306641 10.3594 4.01074 12.2197 18.6025c1.00684 7.83301 -2.98633 12.2539 -5.39258 13.6357c0 0 6.00684 11.418 6.00684 25.1904
c0 27.6309 -10.8369 51.2002 -34.1328 51.2002c0 0 -4.2666 17.0664 -28.4502 17.0664c-39.6973 0 -62.583 -30.959 -62.583 -68.2666c0 -12.5605 6.00684 -25.1904 6.00684 -25.1904c-2.40625 -1.38184 -6.39941 -5.80273 -5.39258 -13.6357
c1.86035 -14.5918 8.19141 -18.2959 12.2197 -18.6025c1.12598 -9.98438 9.31836 -21.999 15.6152 -28.7061v-36.4375c-19.5234 -19.6777 -74.0859 -12.6641 -83.7285 -65.1436z" />
    <glyph glyph-name="key" unicode="&#xf1b5;" 
d="M315.733 396.8c80.1113 0 145.066 -64.9561 145.066 -145.066c0 -80.1113 -64.9551 -145.066 -145.066 -145.066c-17.7881 0 -34.751 3.37305 -50.5 9.2334l-26.2998 -26.3008h-51.2002v-51.1992h-51.2002v-51.2002h-85.333v85.333l128.7 128.7
c-5.86035 15.749 -9.2334 32.7119 -9.2334 50.5c0 80.1104 64.9551 145.066 145.066 145.066zM349.867 328.533c-23.5693 0 -42.667 -19.0977 -42.667 -42.667c0 -23.5684 19.0977 -42.666 42.667 -42.666c23.5684 0 42.666 19.0977 42.666 42.666
c0 23.5693 -19.0977 42.667 -42.666 42.667z" />
    <glyph glyph-name="graphique-combin" unicode="&#xf13d;" 
d="M409.6 379.733c18.8418 0 34.1338 -15.292 34.1338 -34.1338c0 -18.8408 -15.292 -34.1328 -34.1338 -34.1328c-3.34277 0.0136719 -8.59863 0.969727 -11.7324 2.13281l-57.0342 -47.5332c0.275391 -1.58887 0.499023 -4.1875 0.5 -5.7998
c0 -18.8418 -15.291 -34.1328 -34.1328 -34.1328c-17.7139 0.0185547 -32.9609 14.3848 -34.0332 32.0664l-49.5674 24.7998c-4.71875 -3.12207 -13.1406 -5.66113 -18.7998 -5.66699c-4.39746 0.0117188 -11.1621 1.61035 -15.0996 3.56738l-53.2666 -35.5342
c0.0458984 -0.59668 0.0908203 -1.56738 0.0996094 -2.16602c0 -18.8418 -15.292 -34.1338 -34.1328 -34.1338c-18.8418 0 -34.1338 15.292 -34.1338 34.1338s15.292 34.1328 34.1338 34.1328c4.39648 -0.0117188 11.1621 -1.60938 15.0996 -3.56641l53.2666 35.5
c-0.046875 0.606445 -0.0917969 1.5918 -0.0996094 2.2002c0 18.8418 15.291 34.1328 34.1328 34.1328c17.7139 -0.0185547 32.9609 -14.3848 34.0332 -32.0664l49.5674 -24.7998c4.71875 3.12207 13.1416 5.66113 18.7998 5.66699
c3.34277 -0.0146484 8.59961 -0.970703 11.7334 -2.13379l57.0332 47.5332c-0.275391 1.58887 -0.499023 4.1875 -0.5 5.7998c0 18.8418 15.292 34.1338 34.1328 34.1338zM392.533 243.2h34.1338c9.4209 0 17.0664 -7.64648 17.0664 -17.0664v-221.867h-68.2666v221.867
c0 9.41992 7.64551 17.0664 17.0664 17.0664zM187.733 209.066h34.1328c9.4209 0 17.0674 -7.64551 17.0674 -17.0664v-187.733h-68.2666v187.733c0 9.4209 7.64551 17.0664 17.0664 17.0664zM290.134 174.934h34.1328c9.4209 0 17.0664 -7.64648 17.0664 -17.0674v-153.6
h-68.2666v153.6c0 9.4209 7.64648 17.0674 17.0674 17.0674zM85.333 140.8h34.1338c9.4209 0 17.0664 -7.64551 17.0664 -17.0664v-119.467h-68.2666v119.467c0 9.4209 7.64551 17.0664 17.0664 17.0664z" />
    <glyph glyph-name="invisible" unicode="&#xf189;" 
d="M29.1338 443l111.399 -111.4c33.5352 18.2637 72.2861 31.0674 115.467 31.0674c152.206 0 250.521 -157.204 252.3 -160.067c2.04004 -2.56934 3.69824 -7.31836 3.7002 -10.5996v-0.0175781c0 -2.90625 -1.3291 -7.21484 -2.9668 -9.61621
c-0.460938 -0.889648 -34.9648 -67.0693 -104.866 -114.399l102.833 -102.834l-24.1328 -24.1328l-477.867 477.866zM256 311.467c-26.8281 0 -51.4189 -9.04492 -71.333 -24l49.3662 -49.3672c6.64453 3.2168 14.0674 5.10059 21.9668 5.10059
c28.2793 0 51.2002 -22.9209 51.2002 -51.2002c0 -7.89941 -1.88379 -15.3232 -5.10059 -21.9668l49.3672 -49.3662c14.9551 19.9141 24 44.5049 24 71.333c0 65.9795 -53.4873 119.467 -119.467 119.467zM84.5 293.1l59.5996 -59.5996
c-4.8125 -12.9531 -7.56641 -26.8906 -7.56641 -41.5c0 -65.9795 53.4873 -119.467 119.467 -119.467c14.6094 0 28.5469 2.75391 41.5 7.56641l44.167 -44.1992c-25.583 -8.99414 -54.0938 -14.5674 -85.667 -14.5674c-170.346 0 -252.873 160.661 -253.167 161.267
c-0.0185547 0.0283203 -0.0478516 0.0722656 -0.0664062 0.100586c-1.52441 2.33984 -2.76367 6.50684 -2.7666 9.2998c0.00390625 3.29492 1.67676 8.05859 3.7334 10.6338c0.959961 1.53418 30.0439 47.8008 80.7666 90.4658z" />
    <glyph glyph-name="bulle" unicode="&#xf15c;" 
d="M256 396.8c122.539 0 221.867 -84.0527 221.867 -187.733c0 -103.68 -99.3281 -187.733 -221.867 -187.733c-16.5889 0 -32.7363 1.54785 -48.2666 4.5c-10.5986 1.99707 -21.3525 -1.70703 -29.0664 -9.2334c-24.3281 -23.7168 -59.5928 -46.167 -101.134 -46.4326
c-0.0185547 -0.000976562 -0.0478516 -0.000976562 -0.0664062 -0.000976562s-0.0488281 0 -0.0664062 0.000976562c-0.204102 -0.000976562 -0.396484 -0.0341797 -0.600586 -0.0341797c-4.70996 0 -8.5332 3.82324 -8.5332 8.53418
c0.00390625 3.24414 2.46777 6.81348 5.5 7.96582c0.0185547 0.00976562 0.0478516 0.0244141 0.0664062 0.0341797c36.166 16.6885 40.2285 52.8857 39 79.0996c-48.0938 34.4404 -78.6992 85.8193 -78.6992 143.3c0 103.681 99.3271 187.733 221.866 187.733z" />
    </font>
</defs>
</svg>
