<?xml version="1.0" encoding="utf-8"?>
<!-- Generator: Adobe Illustrator 17.0.0, SVG Export Plug-In . SVG Version: 6.00 Build 0)  -->
<!DOCTYPE svg PUBLIC "-//W3C//DTD SVG 1.1//EN" "http://www.w3.org/Graphics/SVG/1.1/DTD/svg11.dtd">
<svg version="1.1" id="Calque_1" xmlns="http://www.w3.org/2000/svg" xmlns:xlink="http://www.w3.org/1999/xlink" x="0px" y="0px"
	 width="219px" height="53px" viewBox="0 0 219 53" enable-background="new 0 0 219 53" xml:space="preserve">
<title>7224D28D-DE19-49DF-AF4B-D8B92D81E9E1</title>
<desc>Created with sketchtool.</desc>
<g id="LEGAL">
	<g id="LEGAL-_x7C_-Desktop-HD" transform="translate(-71.000000, -22.000000)">
		<g id="HEAD" transform="translate(71.000000, 20.000000)">
			<g id="Logo_Swapcard_Vectoriel" transform="translate(0.000000, 2.000000)">
				<g id="Calque_2">
					<g id="Group">
						<path id="Shape" fill="#F9A70C" d="M213.865,15.167v1.072c-0.478-0.401-0.973-0.751-1.483-1.072
							c-1.918-1.203-4.09-1.864-6.491-1.947c-0.17-0.007-0.339-0.01-0.507-0.01c-0.804,0-1.588,0.074-2.345,0.211
							c-1.573,0.285-3.045,0.872-4.406,1.746c-0.857,0.549-1.672,1.198-2.441,1.975c-2.689,2.69-4.053,5.969-4.053,9.749
							c0,3.644,1.259,6.818,3.738,9.431c2.013,2.12,4.419,3.415,7.163,3.895c0.668,0.114,1.352,0.199,2.065,0.217
							c0.17,0.009,0.345,0.011,0.522,0.011c3.472,0,6.587-1.305,9.253-3.887c2.757-2.711,4.106-5.982,4.018-9.713V15.167V1.33
							c0-0.509-0.413-0.923-0.923-0.923h-3.186c-0.51,0-0.923,0.413-0.923,0.923V15.167L213.865,15.167z M211.308,32.938
							c-1.567,1.673-3.406,2.487-5.636,2.487c-0.144,0-0.296-0.004-0.465-0.013c-0.769-0.028-1.486-0.151-2.167-0.368
							c-1.316-0.41-2.482-1.173-3.513-2.309c-1.578-1.724-2.354-3.773-2.313-6.083c0.038-2.363,0.854-4.31,2.489-5.949
							c0.999-0.999,2.114-1.689,3.337-2.08c0.775-0.247,1.588-0.374,2.444-0.374l0.161,0.001c2.255,0,4.105,0.797,5.672,2.434
							c1.619,1.702,2.428,3.638,2.464,5.944C213.859,29.058,213.053,31.115,211.308,32.938L211.308,32.938z"/>
						<path id="Shape_1_" fill="#F9A70C" d="M195.558,15.311c0.105-0.094,0.158-0.233,0.144-0.374
							c-0.015-0.14-0.095-0.265-0.217-0.336c-1.499-0.873-3.24-1.375-5.096-1.375c-1.94,0-3.755,0.548-5.3,1.496v-0.573
							c0-0.509-0.413-0.923-0.923-0.923h-3.011c-0.51,0-0.923,0.413-0.923,0.923v9.23v16.072c0,0.509,0.413,0.923,0.923,0.923h3.011
							c0.51,0,0.923-0.413,0.923-0.923V23.379c0-2.921,2.378-5.297,5.3-5.297c0.713,0,1.392,0.142,2.013,0.398
							c0.194,0.08,0.416,0.013,0.534-0.161c0.572-0.846,1.237-1.654,1.999-2.416C195.136,15.699,195.345,15.502,195.558,15.311
							L195.558,15.311z"/>
						<path id="Shape_2_" fill="#F9A70C" d="M177.221,26.849c0.138-3.599-1.091-6.765-3.651-9.416
							c-2.508-2.645-5.638-4.057-9.297-4.193c-3.807-0.144-7.073,1.169-9.737,3.878c-2.686,2.687-4.054,5.964-4.054,9.741
							c0,3.606,1.272,6.779,3.781,9.428c2.485,2.615,5.57,4.008,9.179,4.148c0.167,0.005,0.326,0.009,0.491,0.009
							c3.146,0,5.929-1.027,8.307-3.053v2.13c0,0.509,0.413,0.923,0.923,0.923h3.135c0.51,0,0.923-0.413,0.923-0.923V26.985
							L177.221,26.849L177.221,26.849z M169.631,32.928c-1.605,1.675-3.451,2.49-5.658,2.49c-0.14,0-0.288-0.01-0.432-0.017
							c-2.271-0.114-4.138-1-5.695-2.712c-1.563-1.716-2.308-3.707-2.267-6.076c0.038-2.364,0.853-4.314,2.494-5.949
							c1.648-1.646,3.59-2.45,5.934-2.45c2.248,0,4.102,0.798,5.663,2.436c1.624,1.697,2.426,3.634,2.468,5.919
							C172.177,29.047,171.356,31.121,169.631,32.928L169.631,32.928z"/>
						<g id="Shape_3_" transform="translate(91.250000, 13.135135)">
							<path fill="#FFFFFF" d="M1.359,22.241c-0.107-0.161-0.31-0.232-0.496-0.177s-0.314,0.227-0.314,0.42v16.123
								c0,0.507,0.413,0.918,0.924,0.918H4.93c0.51,0,0.924-0.41,0.924-0.918v-11.46c0-0.301-0.148-0.583-0.397-0.755
								C3.841,25.28,2.448,23.869,1.359,22.241L1.359,22.241z"/>
							<path fill="#FFFFFF" d="M51.193,9.886c-0.323,0-0.623-0.167-0.79-0.441c-1.475-2.409-4.143-4.021-7.183-4.021
								c-2.07,0-4.058,0.752-5.599,2.122c-0.288,0.255-0.562,0.534-0.812,0.828L25.143,22.029c-0.52,0.674-1.104,1.304-1.751,1.88
								c-2.514,2.233-5.76,3.463-9.136,3.463c-7.558,0-13.707-6.104-13.707-13.608S6.698,0.156,14.256,0.156
								c4.041,0,7.856,1.757,10.468,4.821l0,0l2.753,3.231c0.139,0.164,0.139,0.404,0,0.567l-2.9,3.395
								c-0.083,0.099-0.207,0.155-0.337,0.154c-0.13,0-0.254-0.055-0.338-0.155l-3.226-3.784L20.673,8.38l0,0V8.379
								c-1.602-1.878-3.941-2.956-6.417-2.956c-4.633,0-8.402,3.741-8.402,8.341s3.77,8.341,8.402,8.341
								c2.07,0,4.058-0.754,5.598-2.122c0.158-0.139,13.76-15.948,14.229-16.363c2.515-2.234,5.76-3.463,9.137-3.463
								c5.725,0,10.64,3.505,12.688,8.465c0.116,0.284,0.083,0.606-0.088,0.86c-0.171,0.254-0.459,0.406-0.767,0.406L51.193,9.886
								L51.193,9.886z"/>
							<path fill="#F9A70C" d="M43.22,27.372c-4.041,0-7.856-1.759-10.468-4.823l0,0l0,0l-2.767-3.245
								c-0.139-0.164-0.139-0.404,0.001-0.567l2.9-3.395c0.084-0.099,0.207-0.155,0.338-0.154c0.13,0,0.253,0.055,0.337,0.155
								l3.243,3.804c1.601,1.878,3.941,2.958,6.417,2.958c3.04,0,5.707-1.613,7.183-4.022c0.167-0.274,0.468-0.441,0.79-0.441h3.86
								c0.308,0,0.596,0.153,0.767,0.406c0.172,0.255,0.204,0.577,0.088,0.86C53.859,23.867,48.945,27.372,43.22,27.372
								L43.22,27.372z"/>
						</g>
						<path id="Shape_4_" fill="#FFFFFF" d="M88.94,26.849c0.137-3.599-1.094-6.765-3.651-9.416
							c-2.512-2.648-5.641-4.058-9.302-4.193c-3.795-0.144-7.069,1.169-9.734,3.878c-2.688,2.687-4.051,5.964-4.051,9.741
							c0,3.606,1.272,6.779,3.778,9.428c2.482,2.615,5.568,4.008,9.178,4.148c0.166,0.005,0.329,0.009,0.493,0.009
							c3.142,0,5.926-1.027,8.304-3.053v2.13c0,0.509,0.413,0.923,0.923,0.923h3.14c0.51,0,0.923-0.413,0.923-0.923V26.985
							L88.94,26.849L88.94,26.849z M75.739,18.219c2.251,0,4.105,0.798,5.666,2.436c1.621,1.699,2.429,3.634,2.464,5.919
							c0.042,2.479-0.778,4.552-2.506,6.358c-1.6,1.676-3.45,2.491-5.652,2.491c-0.142,0-0.289-0.004-0.432-0.015
							c-2.275-0.114-4.141-1.003-5.698-2.714c-1.567-1.716-2.308-3.707-2.266-6.076c0.038-2.364,0.854-4.311,2.491-5.949
							C71.455,19.023,73.398,18.219,75.739,18.219L75.739,18.219z"/>
						<path id="Shape_5_" fill="#FFFFFF" d="M55.341,13.228c-0.51,0-0.923,0.413-0.923,0.923v16.072c0,2.92-2.377,5.297-5.299,5.297
							c-2.922,0-5.299-2.377-5.299-5.297V14.151c0-0.509-0.413-0.923-0.923-0.923h-3.011c-0.51,0-0.923,0.413-0.923,0.923v16.072
							c0,2.92-2.378,5.297-5.3,5.297c-2.921,0-5.3-2.377-5.3-5.297V14.151c0-0.509-0.413-0.923-0.923-0.923h-3.011
							c-0.51,0-0.923,0.413-0.923,0.923v16.072c0,5.598,4.556,10.153,10.156,10.153c3.092,0,5.863-1.389,7.728-3.575
							c1.865,2.186,4.637,3.575,7.729,3.575c5.601,0,10.156-4.554,10.156-10.153V14.151c0-0.509-0.413-0.923-0.923-0.923H55.341
							L55.341,13.228z"/>
						<path id="Shape_6_" fill="#FFFFFF" d="M16.415,25.951c-2.844-1.473-4.868-1.527-7.288-2.191
							C6.574,23.059,5.3,22.247,5.58,20.295c0.302-2.105,2.074-2.998,4.616-2.981c3.968,0.027,4.938,2.148,5.173,3.309
							c0.086,0.431,0.464,0.741,0.903,0.741l3.603,0.001c0.182,0,0.355-0.078,0.475-0.215c0.12-0.137,0.174-0.318,0.151-0.5
							c-0.261-1.983-1.745-7.413-10.201-7.405c-8.569,0.007-9.853,5.254-9.816,7.872c0.056,4.127,4.087,5.92,5.374,6.397
							c1.207,0.445,5.431,1.416,6.331,1.733c3.155,1.112,3.321,2.584,3.292,3.469c0.016,2.076-1.819,3.518-4.951,3.35
							c-3.566-0.193-4.532-3.113-4.79-4.527c-0.08-0.438-0.461-0.756-0.906-0.757L1.532,30.78c-0.267,0-0.522,0.116-0.697,0.318
							C0.659,31.3,0.579,31.57,0.617,31.834c0.177,1.227,0.645,3.279,1.875,4.818c1.835,2.294,3.599,3.717,8.623,3.717
							c5.913,0,8.839-3.12,9.38-6.646C20.901,31.072,20.136,27.879,16.415,25.951L16.415,25.951z"/>
					</g>
				</g>
			</g>
		</g>
	</g>
</g>
</svg>
