<svg id="Calque_1" data-name="Calque 1" xmlns="http://www.w3.org/2000/svg" viewBox="0 0 218.42 52.25"><defs><style>.cls-1{fill:#fff;}</style></defs><title>logo-swapcard-blanc-orange</title><g id="LEGAL"><g id="LEGAL-_-Desktop-HD" data-name="LEGAL-|-Desktop-HD"><g id="HEAD"><g id="Logo_Swapcard_Vectoriel" data-name="Logo Swapcard Vectoriel"><g id="Calque_2" data-name="Calque 2"><g id="Group"><path id="Shape" class="cls-1" d="M213.87,15.17v1.07a13.37,13.37,0,0,0-1.48-1.07,12.86,12.86,0,0,0-6.49-1.95h-0.51a13.16,13.16,0,0,0-2.35.21,12.08,12.08,0,0,0-4.41,1.75,14.17,14.17,0,0,0-2.44,2,13.35,13.35,0,0,0-4.05,9.75,13.28,13.28,0,0,0,3.74,9.43,12.71,12.71,0,0,0,7.16,3.9,14.36,14.36,0,0,0,2.07.22h0.52a13,13,0,0,0,9.25-3.89,12.76,12.76,0,0,0,4-9.71V1.33A0.92,0.92,0,0,0,218,.41h-3.19a0.92,0.92,0,0,0-.92.92V15.17h0Zm-2.56,17.77a7.37,7.37,0,0,1-5.64,2.49h-0.46A8,8,0,0,1,203,35a7.86,7.86,0,0,1-3.51-2.31,8.52,8.52,0,0,1-2.31-6.08,8.57,8.57,0,0,1,5.83-8,8,8,0,0,1,2.44-.37h0.16a7.48,7.48,0,0,1,5.67,2.43,8.47,8.47,0,0,1,2.46,5.94,8.34,8.34,0,0,1-2.47,6.31h0Z" transform="translate(-0.48 -0.41)"/><path id="Shape-2" data-name="Shape" class="cls-1" d="M195.56,15.31a0.44,0.44,0,0,0-.07-0.71,10.13,10.13,0,0,0-10.4.12V14.15a0.92,0.92,0,0,0-.92-0.92h-3a0.92,0.92,0,0,0-.92.92v25.3a0.92,0.92,0,0,0,.92.92h3a0.92,0.92,0,0,0,.92-0.92V23.38a5.3,5.3,0,0,1,7.31-4.9,0.44,0.44,0,0,0,.53-0.16,16.43,16.43,0,0,1,2-2.42c0.2-.2.41-0.4,0.62-0.59h0Z" transform="translate(-0.48 -0.41)"/><path id="Shape-3" data-name="Shape" class="cls-1" d="M177.22,26.85a12.43,12.43,0,0,0-3.65-9.42,13.08,13.08,0,0,0-9.3-4.19,12.49,12.49,0,0,0-9.74,3.88,13.35,13.35,0,0,0-4.05,9.74,13.31,13.31,0,0,0,3.78,9.43,13,13,0,0,0,9.18,4.15h0.49a12.46,12.46,0,0,0,8.31-3.05v2.13a0.92,0.92,0,0,0,.92.92h3.13a0.92,0.92,0,0,0,.92-0.92V26.85h0Zm-7.59,6.08A7.51,7.51,0,0,1,164,35.42l-0.43,0a7.91,7.91,0,0,1-5.7-2.71,8.42,8.42,0,0,1-2.27-6.08,8.21,8.21,0,0,1,2.49-5.95A8,8,0,0,1,164,18.21a7.47,7.47,0,0,1,5.66,2.44,8.44,8.44,0,0,1,2.47,5.92,8.61,8.61,0,0,1-2.51,6.36h0Z" transform="translate(-0.48 -0.41)"/><g id="Shape-4" data-name="Shape"><path class="cls-1" d="M92.61,35.38a0.45,0.45,0,0,0-.5-0.18,0.44,0.44,0,0,0-.31.42V51.74a0.92,0.92,0,0,0,.92.92h3.46a0.92,0.92,0,0,0,.92-0.92V40.28a0.92,0.92,0,0,0-.4-0.75,15.52,15.52,0,0,1-4.1-4.15h0Z" transform="translate(-0.48 -0.41)"/><path class="cls-1" d="M142.44,23a0.92,0.92,0,0,1-.79-0.44,8.43,8.43,0,0,0-12.78-1.9,8.25,8.25,0,0,0-.81.83L116.39,35.16a13.67,13.67,0,1,1-10.89-21.87A13.73,13.73,0,0,1,116,18.11h0l2.75,3.23a0.44,0.44,0,0,1,0,.57l-2.9,3.39a0.43,0.43,0,0,1-.34.15,0.44,0.44,0,0,1-.34-0.15l-3.23-3.78h0a8.35,8.35,0,1,0-.82,11.6c0.16-.14,13.76-15.95,14.23-16.36a13.76,13.76,0,0,1,21.83,5A0.92,0.92,0,0,1,146.3,23h-3.86Z" transform="translate(-0.48 -0.41)"/><path class="cls-1" d="M134.47,40.51A13.73,13.73,0,0,1,124,35.68h0l-2.77-3.24a0.44,0.44,0,0,1,0-.57l2.9-3.4a0.45,0.45,0,0,1,.68,0l3.24,3.8a8.43,8.43,0,0,0,13.6-1.06,0.93,0.93,0,0,1,.79-0.44h3.86a0.93,0.93,0,0,1,.77.41,0.92,0.92,0,0,1,.09.86,13.73,13.73,0,0,1-12.69,8.46h0Z" transform="translate(-0.48 -0.41)"/></g><path id="Shape-5" data-name="Shape" class="cls-1" d="M88.94,26.85a12.44,12.44,0,0,0-3.65-9.42A13.08,13.08,0,0,0,76,13.24a12.5,12.5,0,0,0-9.73,3.88,13.33,13.33,0,0,0-4.05,9.74A13.32,13.32,0,0,0,66,36.29a12.94,12.94,0,0,0,9.18,4.15h0.49A12.46,12.46,0,0,0,84,37.39v2.13a0.92,0.92,0,0,0,.92.92H88a0.92,0.92,0,0,0,.92-0.92V26.85h0Zm-13.2-8.63a7.47,7.47,0,0,1,5.67,2.44,8.43,8.43,0,0,1,2.46,5.92,8.58,8.58,0,0,1-2.51,6.36,7.49,7.49,0,0,1-5.65,2.49H75.28a7.91,7.91,0,0,1-5.7-2.71,8.4,8.4,0,0,1-2.27-6.08,8.23,8.23,0,0,1,2.49-5.95,8,8,0,0,1,5.93-2.45h0Z" transform="translate(-0.48 -0.41)"/><path id="Shape-6" data-name="Shape" class="cls-1" d="M55.34,13.23a0.92,0.92,0,0,0-.92.92V30.22a5.3,5.3,0,0,1-10.6,0V14.15a0.92,0.92,0,0,0-.92-0.92h-3a0.92,0.92,0,0,0-.92.92V30.22a5.3,5.3,0,0,1-10.6,0V14.15a0.92,0.92,0,0,0-.92-0.92h-3a0.92,0.92,0,0,0-.92.92V30.22A10.15,10.15,0,0,0,41.39,36.8a10.15,10.15,0,0,0,17.89-6.58V14.15a0.92,0.92,0,0,0-.92-0.92h-3Z" transform="translate(-0.48 -0.41)"/><path id="Shape-7" data-name="Shape" class="cls-1" d="M16.42,26c-2.84-1.47-4.87-1.53-7.29-2.19S5.3,22.25,5.58,20.3c0.3-2.1,2.07-3,4.62-3,4,0,4.94,2.15,5.17,3.31a0.92,0.92,0,0,0,.9.74h3.6a0.63,0.63,0,0,0,.63-0.72c-0.26-2-1.75-7.41-10.2-7.41S0.45,18.5.48,21.12c0.06,4.13,4.09,5.92,5.37,6.4s5.43,1.42,6.33,1.73c3.15,1.11,3.32,2.58,3.29,3.47,0,2.08-1.82,3.52-5,3.35a5.06,5.06,0,0,1-4.79-4.53,0.92,0.92,0,0,0-.91-0.76H1.53a0.93,0.93,0,0,0-.91,1.05,10.33,10.33,0,0,0,1.88,4.82c1.84,2.29,3.6,3.72,8.62,3.72,5.91,0,8.84-3.12,9.38-6.65A7.12,7.12,0,0,0,16.42,26h0Z" transform="translate(-0.48 -0.41)"/></g></g></g></g></g></g></svg>