<?xml version="1.0" encoding="UTF-8" standalone="no"?>
<svg width="219px" height="53px" viewBox="0 0 219 53" version="1.1" xmlns="http://www.w3.org/2000/svg" xmlns:xlink="http://www.w3.org/1999/xlink">
    <!-- Generator: sketchtool 3.7.1 (28215) - http://www.bohemiancoding.com/sketch -->
    <title>7224D28D-DE19-49DF-AF4B-D8B92D81E9E1</title>
    <desc>Created with sketchtool.</desc>
    <defs></defs>
    <g id="LEGAL" stroke="none" stroke-width="1" fill="none" fill-rule="evenodd">
        <g id="LEGAL-|-Desktop-HD" transform="translate(-71.000000, -22.000000)">
            <g id="HEAD" transform="translate(71.000000, 20.000000)">
                <g id="Logo_Swapcard_Vectoriel" transform="translate(0.000000, 2.000000)">
                    <g id="Calque_2">
                        <g id="Group">
                            <path d="M213.86518,15.1674324 L213.86518,16.2394054 C213.38703,15.8380541 212.89209,15.4885135 212.38255,15.1674324 C210.46411,13.9641081 208.29236,13.3037027 205.89139,13.2205135 C205.7213,13.2132162 205.55194,13.2102973 205.38404,13.2102973 C204.57958,13.2102973 203.79556,13.2847297 203.03928,13.4211892 C201.46613,13.7057838 199.99445,14.2932162 198.633,15.1674324 C197.77598,15.7161892 196.96057,16.3656486 196.19188,17.1428108 C193.50256,19.8325946 192.13892,23.112 192.13892,26.892 C192.13892,30.5362703 193.39744,33.7098649 195.87652,36.323027 C197.88986,38.4428919 200.29521,39.7381622 203.03928,40.2175946 C203.70723,40.3314324 204.39124,40.4168108 205.10445,40.4343243 C205.27454,40.4430811 205.44974,40.4452703 205.6264,40.4452703 C209.09828,40.4452703 212.21319,39.1405135 214.87988,36.5587297 C217.63709,33.8477838 218.98613,30.5764054 218.8978,26.846027 L218.8978,15.1674324 L218.8978,1.3302973 C218.8978,0.820945946 218.48462,0.407189189 217.97435,0.407189189 L214.78863,0.407189189 C214.27909,0.407189189 213.86518,0.820216216 213.86518,1.3302973 L213.86518,15.1674324 L213.86518,15.1674324 Z M211.30799,32.9378108 C209.74141,34.6110811 207.90181,35.4247297 205.67166,35.4247297 C205.52785,35.4247297 205.37528,35.4203514 205.20665,35.4115946 C204.43796,35.3831351 203.72037,35.2605405 203.03928,35.0438108 C201.72309,34.6337027 200.55728,33.8711351 199.52652,32.7349459 C197.94826,31.0105946 197.17227,28.9622432 197.21388,26.6519189 C197.25184,24.2890541 198.06798,22.3421351 199.70245,20.7031622 C200.70182,19.7041622 201.81653,19.0145676 203.03928,18.6234324 C203.81454,18.3767838 204.62776,18.2498108 205.48332,18.2498108 L205.64465,18.2512703 C207.89962,18.2512703 209.74944,19.0481351 211.31675,20.6856486 C212.93589,22.3873784 213.74473,24.3240811 213.78123,26.6292973 C213.85861,29.0578378 213.05342,31.1149459 211.30799,32.9378108 L211.30799,32.9378108 Z" id="Shape" fill="#59B570"></path>
                            <path d="M195.55751,15.3111892 C195.66263,15.2170541 195.71592,15.0784054 195.70132,14.9375676 C195.68672,14.7974595 195.60642,14.6726757 195.48451,14.6011622 C193.98582,13.7284054 192.24477,13.2263514 190.38838,13.2263514 C188.44804,13.2263514 186.63326,13.7743784 185.08858,14.7222973 L185.08858,14.1494595 C185.08858,13.6401081 184.6754,13.2263514 184.16513,13.2263514 L181.15388,13.2263514 C180.64434,13.2263514 180.23043,13.6393784 180.23043,14.1494595 L180.23043,23.3790811 L180.23043,39.4513784 C180.23043,39.9607297 180.64361,40.3744865 181.15388,40.3744865 L184.16513,40.3744865 C184.67467,40.3744865 185.08858,39.9614595 185.08858,39.4513784 L185.08858,23.3790811 C185.08858,20.457973 187.46619,18.081973 190.38838,18.081973 C191.10159,18.081973 191.78049,18.2235405 192.40172,18.4796757 C192.5959,18.5599459 192.81782,18.4928108 192.93535,18.3184054 C193.50767,17.4719189 194.17197,16.6641081 194.93482,15.9022703 C195.1363,15.6994054 195.34508,15.5023784 195.55751,15.3111892 L195.55751,15.3111892 Z" id="Shape" fill="#59B570"></path>
                            <path d="M177.22064,26.8489459 C177.35861,23.2499189 176.13002,20.0836216 173.56918,17.4325135 C171.06163,14.7872432 167.93139,13.3759459 164.2719,13.2394865 C160.46495,13.0957297 157.19893,14.4085135 154.53516,17.1172703 C151.84949,19.8041351 150.48147,23.0813514 150.48147,26.8584324 C150.48147,30.4647568 151.75313,33.6376216 154.26287,36.2865405 C156.74779,38.9011622 159.83277,40.2942162 163.44189,40.4343243 C163.60906,40.4394324 163.7682,40.4430811 163.93245,40.4430811 C167.07802,40.4430811 169.86151,39.4156216 172.23912,37.3898919 L172.23912,39.519973 C172.23912,40.0293243 172.6523,40.4430811 173.16257,40.4430811 L176.29792,40.4430811 C176.80746,40.4430811 177.22137,40.0300541 177.22137,39.519973 L177.22137,26.9846757 L177.22137,26.8489459 L177.22064,26.8489459 Z M169.63083,32.9275946 C168.02556,34.6023243 166.18012,35.4174324 163.97333,35.4174324 C163.83317,35.4174324 163.68498,35.4072162 163.54117,35.4006486 C161.27014,35.2868108 159.40353,34.4001892 157.84644,32.6882432 C156.28351,30.9719189 155.53891,28.9812162 155.57906,26.6125135 C155.61702,24.2481892 156.43243,22.2983514 158.07347,20.6637568 C159.72181,19.0174865 161.66361,18.2140541 164.00764,18.2140541 C166.25604,18.2140541 168.10951,19.0123784 169.67098,20.6498919 C171.2945,22.3472432 172.09677,24.2839459 172.13911,26.5687297 C172.17707,29.0468919 171.35582,31.1207838 169.63083,32.9275946 L169.63083,32.9275946 Z" id="Shape" fill="#59B570"></path>
                            <g transform="translate(91.250000, 13.135135)" id="Shape">
                                <path d="M1.35853,22.2407027 C1.25122,22.0794324 1.04901,22.0086486 0.86213,22.0641081 C0.67525,22.1195676 0.54823,22.2910541 0.54823,22.4844324 L0.54823,38.6070811 C0.54823,39.1142432 0.96141,39.5250811 1.47241,39.5250811 L4.92969,39.5250811 C5.43996,39.5250811 5.85387,39.114973 5.85387,38.6070811 L5.85387,27.1466757 C5.85387,26.846027 5.70568,26.5636216 5.45675,26.3914054 C3.84126,25.280027 2.44842,23.8687297 1.35853,22.2407027 L1.35853,22.2407027 Z" fill="#FFFFFF"></path>
                                <path d="M51.19271,9.88564865 C50.86932,9.88564865 50.56929,9.71854054 50.40285,9.44416216 C48.92752,7.03532432 46.2601,5.42335135 43.21965,5.42335135 C41.14937,5.42335135 39.16158,6.1757027 37.62055,7.54540541 C37.3322,7.80081081 37.05845,8.07956757 36.80806,8.37364865 L25.14339,22.0290811 C24.6229,22.7033514 24.03963,23.3331081 23.39212,23.9088649 C20.878,26.1418378 17.63242,27.3721622 14.25617,27.3721622 C6.69775,27.3721622 0.54896,21.267973 0.54896,13.7641622 C0.54896,6.26035135 6.69775,0.156162162 14.25617,0.156162162 C18.29672,0.156162162 22.11243,1.91335135 24.72437,4.97748649 L24.72437,4.97748649 L27.4772,8.20872973 C27.61663,8.37291892 27.61663,8.61227027 27.4772,8.77572973 L24.57764,12.1704324 C24.49442,12.2689459 24.37032,12.3258649 24.24038,12.3244054 C24.11044,12.3244054 23.98634,12.2689459 23.90239,12.168973 L20.67652,8.38459459 L20.67287,8.38021622 L20.67287,8.38021622 L20.67287,8.37875676 C19.07052,6.50043243 16.73233,5.42262162 14.25544,5.42262162 C9.62286,5.42262162 5.85314,9.16394595 5.85314,13.7634324 C5.85314,18.3629189 9.62286,22.1042432 14.25544,22.1042432 C16.32499,22.1042432 18.31351,21.3504324 19.85308,19.9821892 C20.01149,19.8428108 33.61358,4.03467568 34.08224,3.61872973 C36.59709,1.38502703 39.84194,0.155432432 43.21892,0.155432432 C48.94431,0.155432432 53.85867,3.66032432 55.90705,8.6202973 C56.02312,8.90416216 55.99027,9.22597297 55.81872,9.47991892 C55.6479,9.73386486 55.35955,9.88637838 55.05149,9.88637838 L51.19271,9.88637838 L51.19271,9.88564865 Z" fill="#FFFFFF"></path>
                                <path d="M43.21965,27.3721622 C39.1791,27.3721622 35.36339,25.6135135 32.75145,22.5493784 L32.75145,22.5493784 L32.75145,22.5493784 L29.98402,19.3042703 C29.84532,19.1400811 29.84532,18.9007297 29.98475,18.7372703 L32.88431,15.3425676 C32.96826,15.2440541 33.09163,15.1871351 33.2223,15.1885946 C33.35224,15.1885946 33.47561,15.2440541 33.55883,15.344027 L36.80222,19.1481081 C38.40311,21.0264324 40.74276,22.1057027 43.21965,22.1057027 C46.2601,22.1057027 48.92679,20.4922703 50.40285,18.0834324 C50.57002,17.8097838 50.87078,17.6419459 51.19271,17.6419459 L55.05222,17.6419459 C55.36028,17.6419459 55.6479,17.7944595 55.81945,18.0484054 C55.99173,18.3038108 56.02385,18.6256216 55.90778,18.908027 C53.8594,23.8672703 48.94504,27.3721622 43.21965,27.3721622 L43.21965,27.3721622 Z" fill="#59B570"></path>
                            </g>
                            <path d="M88.94028,26.8489459 C89.07752,23.2499189 87.84674,20.0836216 85.28882,17.4325135 C82.77689,14.7843243 79.64738,13.3744865 75.98716,13.2394865 C72.19189,13.0957297 68.91784,14.4085135 66.25334,17.1172703 C63.56548,19.8041351 62.20257,23.0813514 62.20257,26.8584324 C62.20257,30.4647568 63.47423,33.6376216 65.98105,36.2865405 C68.46305,38.9011622 71.54949,40.2942162 75.15861,40.4343243 C75.32432,40.4394324 75.48784,40.4430811 75.65209,40.4430811 C78.79401,40.4430811 81.57823,39.4156216 83.95584,37.3898919 L83.95584,39.519973 C83.95584,40.0293243 84.36902,40.4430811 84.87929,40.4430811 L88.01902,40.4430811 C88.52856,40.4430811 88.94247,40.0300541 88.94247,39.519973 L88.94247,26.9846757 L88.94028,26.8489459 L88.94028,26.8489459 Z M75.73896,18.2191622 C77.99028,18.2191622 79.84375,19.0174865 81.40449,20.655 C83.02509,22.3538108 83.8332,24.2890541 83.86897,26.5738378 C83.91058,29.0527297 83.09079,31.1258919 81.36288,32.931973 C79.76272,34.6081622 77.9129,35.4232703 75.71049,35.4232703 C75.56814,35.4232703 75.42141,35.4188919 75.27833,35.4079459 C73.00292,35.2941081 71.13777,34.4045676 69.57995,32.6940811 C68.01337,30.9777568 67.27242,28.9870541 67.31403,26.6183514 C67.35199,24.254027 68.16813,22.3071081 69.80552,20.6695946 C71.45459,19.0225946 73.39785,18.2191622 75.73896,18.2191622 L75.73896,18.2191622 Z" id="Shape" fill="#FFFFFF"></path>
                            <path d="M55.3413,13.2278108 C54.83176,13.2278108 54.41785,13.6408378 54.41785,14.1509189 L54.41785,30.2232162 C54.41785,33.1435946 52.04097,35.5203243 49.11878,35.5203243 C46.19659,35.5203243 43.81971,33.1435946 43.81971,30.2232162 L43.81971,14.1509189 C43.81971,13.6415676 43.40653,13.2278108 42.89626,13.2278108 L39.88501,13.2278108 C39.37547,13.2278108 38.96156,13.6408378 38.96156,14.1509189 L38.96156,30.2232162 C38.96156,33.1435946 36.58395,35.5203243 33.66176,35.5203243 C30.7403,35.5203243 28.36196,33.1435946 28.36196,30.2232162 L28.36196,14.1509189 C28.36196,13.6415676 27.94878,13.2278108 27.43851,13.2278108 L24.42799,13.2278108 C23.91845,13.2278108 23.50454,13.6408378 23.50454,14.1509189 L23.50454,30.2232162 C23.50454,35.8217027 28.06047,40.3759459 33.66103,40.3759459 C36.75258,40.3759459 39.52439,38.9865405 41.38881,36.801 C43.25396,38.9865405 46.02577,40.3759459 49.11732,40.3759459 C54.71788,40.3759459 59.27381,35.8217027 59.27381,30.2232162 L59.27381,14.1509189 C59.27381,13.6415676 58.86063,13.2278108 58.35036,13.2278108 L55.3413,13.2278108 L55.3413,13.2278108 Z" id="Shape" fill="#FFFFFF"></path>
                            <path d="M16.41478,25.9506486 C13.5707,24.4773243 11.54641,24.4233243 9.12646,23.7592703 C6.57365,23.0587297 5.2998,22.2472703 5.58012,20.2952432 C5.88234,18.189973 7.65405,17.2967838 10.19591,17.3142973 C14.16346,17.3412973 15.13436,19.4626216 15.36869,20.6236216 C15.45483,21.0541622 15.83297,21.3642973 16.2717,21.3642973 L19.87498,21.365027 C20.05675,21.365027 20.22976,21.2869459 20.35021,21.1497568 C20.46993,21.0125676 20.52468,20.8315946 20.50132,20.6498919 C20.24071,18.6664865 18.75589,13.2372973 10.3003,13.2445946 C1.73083,13.2518919 0.44749,18.4986486 0.48399,21.1161892 C0.5402,25.2428108 4.57126,27.0357568 5.85752,27.513 C7.06494,27.9581351 11.28872,28.9286757 12.18881,29.2461081 C15.34387,30.3582162 15.50958,31.8300811 15.48111,32.7152432 C15.49717,34.7913243 13.66195,36.2332703 10.53025,36.0654324 C6.9642,35.8727838 5.99841,32.9524054 5.73999,31.5381892 C5.66042,31.1003514 5.27863,30.7821892 4.83406,30.7814595 L1.53227,30.78 C1.26509,30.78 1.01032,30.896027 0.83512,31.0981622 C0.65919,31.3002973 0.57889,31.5695676 0.61685,31.8344595 C0.79351,33.0611351 1.26144,35.1138649 2.49149,36.6521351 C4.32671,38.9456757 6.09039,40.3686486 11.11425,40.3686486 C17.02725,40.3686486 19.95309,37.2483243 20.49475,33.723 C20.90063,31.0718919 20.13632,27.8793243 16.41478,25.9506486 L16.41478,25.9506486 Z" id="Shape" fill="#FFFFFF"></path>
                        </g>
                    </g>
                </g>
            </g>
        </g>
    </g>
</svg>