<svg id="Calque_1" data-name="Calque 1" xmlns="http://www.w3.org/2000/svg" viewBox="0 0 299.2 71.61"><defs><style>.cls-1{fill:#5bc0a8;}.cls-2{fill:#262f3d;}</style></defs><title>Plan de travail 1</title><path class="cls-1" d="M292.26,20.23V21.7a18,18,0,0,0-2-1.47,17.6,17.6,0,0,0-8.89-2.67h-.7a18.16,18.16,0,0,0-3.21.29,16.47,16.47,0,0,0-6,2.39A19.8,19.8,0,0,0,268.12,23a18.29,18.29,0,0,0-5.55,13.36,18.2,18.2,0,0,0,5.12,12.92,17.36,17.36,0,0,0,9.81,5.34,19.13,19.13,0,0,0,2.83.3H281a17.75,17.75,0,0,0,12.68-5.33,17.5,17.5,0,0,0,5.5-13.31v-35A1.25,1.25,0,0,0,298,0H293.6a1.27,1.27,0,0,0-1.34,1.18V20.23Zm-3.5,24.35A10.1,10.1,0,0,1,281,48h-.64a11.28,11.28,0,0,1-3-.5,10.81,10.81,0,0,1-4.81-3.16A11.91,11.91,0,0,1,277.42,25a11.15,11.15,0,0,1,3.35-.51H281a10.24,10.24,0,0,1,7.77,3.34A11.61,11.61,0,0,1,292.14,36a11.41,11.41,0,0,1-3.34,8.62Z"/><path class="cls-1" d="M267.26,20.43a.61.61,0,0,0,.07-.86.58.58,0,0,0-.17-.14,13.88,13.88,0,0,0-14.24.17v-.77a1.25,1.25,0,0,0-1.26-1.26h-4.12a1.25,1.25,0,0,0-1.28,1.24v34.7a1.25,1.25,0,0,0,1.26,1.26h4.12a1.25,1.25,0,0,0,1.26-1.26v-22a7.25,7.25,0,0,1,10-6.71.6.6,0,0,0,.73-.22,22.31,22.31,0,0,1,2.74-3.31A7.08,7.08,0,0,1,267.26,20.43Z"/><path class="cls-1" d="M242.1,36.24a17,17,0,0,0-5-12.9,17.91,17.91,0,0,0-12.74-5.75A17.11,17.11,0,0,0,211,22.9a18.76,18.76,0,0,0-.37,26.27,17.74,17.74,0,0,0,12.61,5.68h.67a17.06,17.06,0,0,0,11.33-4.17V53.6a1.25,1.25,0,0,0,1.26,1.26h4.29a1.25,1.25,0,0,0,1.26-1.26V36.24Zm-10.4,8.33A10.27,10.27,0,0,1,224,48h-.59a10.81,10.81,0,0,1-7.8-3.72,11.52,11.52,0,0,1-3.11-8.33,11.27,11.27,0,0,1,3.42-8.15A11,11,0,0,1,224,24.42a10.2,10.2,0,0,1,7.76,3.34,11.58,11.58,0,0,1,3.38,8.11,11.82,11.82,0,0,1-3.43,8.7Z"/><path class="cls-2" d="M126.2,47.92a.61.61,0,0,0-.68-.24.6.6,0,0,0-.43.58V70.35a1.25,1.25,0,0,0,1.26,1.26h4.75a1.25,1.25,0,0,0,1.27-1.25h0V54.64a1.26,1.26,0,0,0-.54-1A21.28,21.28,0,0,1,126.2,47.92Z"/><path class="cls-2" d="M194.46,31a1.26,1.26,0,0,1-1.08-.61,11.54,11.54,0,0,0-15.88-3.8,11.33,11.33,0,0,0-2.74,2.33l-16,18.71a18.65,18.65,0,1,1-3.48-26.14,18.16,18.16,0,0,1,2.91,2.77h0L162,28.68a.6.6,0,0,1,0,.78l-4,4.65a.61.61,0,0,1-.86.06l-.06-.06-4.42-5.19h0A11.44,11.44,0,1,0,151.25,45l.25-.22C151.72,44.63,170.35,23,171,22.4a18.83,18.83,0,0,1,29.9,6.85,1.24,1.24,0,0,1-.12,1.18,1.27,1.27,0,0,1-1.05.56Z"/><path class="cls-1" d="M183.54,55a18.8,18.8,0,0,1-14.34-6.61h0l-3.79-4.45a.6.6,0,0,1,0-.78l4-4.65a.61.61,0,0,1,.86-.06l.06.06,4.44,5.21a11.55,11.55,0,0,0,18.63-1.46,1.26,1.26,0,0,1,1.08-.61h5.29a1.27,1.27,0,0,1,1,.56,1.24,1.24,0,0,1,.12,1.18A18.8,18.8,0,0,1,183.54,55Z"/><path class="cls-2" d="M121.17,36.24a17.08,17.08,0,0,0-5-12.9,17.91,17.91,0,0,0-12.74-5.75A17.11,17.11,0,0,0,90.09,22.9a18.77,18.77,0,0,0-.37,26.27,17.72,17.72,0,0,0,12.54,5.68h.68a17.07,17.07,0,0,0,11.37-4.18V53.6a1.25,1.25,0,0,0,1.26,1.26h4.3a1.25,1.25,0,0,0,1.26-1.26h0V36.24ZM103.09,24.41a10.2,10.2,0,0,1,7.76,3.34,11.55,11.55,0,0,1,3.41,8.11,11.76,11.76,0,0,1-3.43,8.71A10.25,10.25,0,0,1,103.09,48h-.59a10.82,10.82,0,0,1-7.81-3.72,11.51,11.51,0,0,1-3.1-8.33A11.26,11.26,0,0,1,95,27.78,11,11,0,0,1,103.09,24.41Z"/><path class="cls-2" d="M75.15,17.57a1.25,1.25,0,0,0-1.26,1.26h0v22a7.26,7.26,0,0,1-14.52,0h0v-22a1.25,1.25,0,0,0-1.26-1.26H54a1.25,1.25,0,0,0-1.26,1.26v22a7.26,7.26,0,1,1-14.52,0v-22a1.25,1.25,0,0,0-1.26-1.26H32.8a1.25,1.25,0,0,0-1.26,1.26v22a13.9,13.9,0,0,0,24.5,9,13.91,13.91,0,0,0,24.5-9v-22a1.25,1.25,0,0,0-1.26-1.26H75.15Z"/><path class="cls-2" d="M21.82,35c-3.9-2-6.67-2.09-10-3C8.32,31,6.58,29.94,7,27.26c.43-2.89,2.86-4.16,6.3-4.09,5.44,0,6.76,2.94,7.09,4.54a1.25,1.25,0,0,0,1.24,1h5a.87.87,0,0,0,.87-.87.57.57,0,0,0,0-.13C27.06,25,25,17.55,13.42,17.56S-.08,24.76,0,28.35c.08,5.66,5.6,8.11,7.36,8.77S14.77,39.06,16,39.5C20.32,41,20.55,43,20.51,44.25c0,2.84-2.49,4.82-6.78,4.59-4.88-.26-6.21-4.27-6.56-6.2a1.25,1.25,0,0,0-1.24-1H1.43A1.26,1.26,0,0,0,.17,42.92a1.09,1.09,0,0,0,0,.18,14.16,14.16,0,0,0,2.57,6.6c2.51,3.11,4.93,5.06,11.81,5.06,8.1,0,12.11-4.28,12.85-9.11A9.75,9.75,0,0,0,21.82,35Z"/></svg>