<?xml version="1.0" encoding="UTF-8" standalone="no"?>
<svg width="257px" height="63px" viewBox="0 0 257 63" version="1.1" xmlns="http://www.w3.org/2000/svg" xmlns:xlink="http://www.w3.org/1999/xlink">
    <!-- Generator: sketchtool 3.7 (28169) - http://www.bohemiancoding.com/sketch -->
    <title>301C47B3-5DCD-42EE-A010-1377AE33082D</title>
    <desc>Created with sketchtool.</desc>
    <defs>
        <polygon id="path-1" points="0.0772212264 46.9430284 100.490088 46.9430284 100.490088 0.0200723969 0.0772212264 0.0200723969 0.0772212264 46.9430284"></polygon>
    </defs>
    <g id="BUSINESS" stroke="none" stroke-width="1" fill="none" fill-rule="evenodd">
        <g id="BUSINESS-|-Desktop-HD" transform="translate(-62.000000, -38.000000)">
            <g id="TEASING" transform="translate(-83.000000, -140.000000)">
                <g id="Logo_Swapcard_blue" transform="translate(145.000000, 178.000000)">
                    <path d="M247.795193,39.0958466 C245.953038,41.0891932 243.791702,42.058483 241.17047,42.058483 C241.001442,42.058483 240.822117,42.053267 240.623916,42.0428352 C239.721285,42.0089318 238.877,41.8628864 238.077331,41.6046989 C236.530333,41.116142 235.159227,40.2077045 233.947712,38.8541761 C232.092686,36.7999773 231.181476,34.3598011 231.229524,31.6075398 C231.274141,28.7926875 232.2334,26.4733466 234.154493,24.520858 C235.329113,23.3307614 236.6393,22.5092557 238.077331,22.0433011 C238.987684,21.7503409 239.943511,21.5990795 240.949103,21.5990795 L241.138724,21.6008182 C243.789128,21.6008182 245.963334,22.5492443 247.80549,24.5008636 C249.707706,26.5281136 250.659243,28.8352841 250.702144,31.5805909 C250.793093,34.4736818 249.846704,36.9242898 247.795193,39.0958466 L247.795193,39.0958466 Z M250.800815,17.9262102 L250.800815,19.2032386 C250.237958,18.7251136 249.657083,18.3087102 249.057331,17.9262102 C246.80333,16.4927045 244.250739,15.7059716 241.428732,15.6068693 C241.227957,15.5981761 241.029756,15.5946989 240.832413,15.5946989 C239.886882,15.5946989 238.965375,15.6833693 238.076473,15.8468011 C236.226596,16.1849659 234.497698,16.8856364 232.897503,17.9262102 C231.890195,18.5799375 230.931794,19.3536307 230.028305,20.2794545 C226.867383,23.4837614 225.264614,27.3904773 225.264614,31.8935455 C225.264614,36.2357898 226.743829,40.0155852 229.657643,43.1286136 C232.024045,45.6548523 234.8512,47.1970227 238.076473,47.7681648 C238.861556,47.9037784 239.664656,48.006358 240.503794,48.0263523 C240.703711,48.0367841 240.908776,48.039392 241.117273,48.039392 C245.197128,48.039392 248.85913,46.4850511 251.992596,43.4094034 C255.234172,40.1798864 256.818923,36.2818636 256.715103,31.8387784 L256.715103,1.44219886 C256.715103,0.835414773 256.229467,0.343380682 255.630574,0.343380682 L251.885344,0.343380682 C251.286451,0.343380682 250.800815,0.835414773 250.800815,1.44219886 L250.800815,17.9262102 L250.800815,17.9262102 Z" id="Fill-1" fill="#1E3352"></path>
                    <path d="M229.282691,18.0974659 C229.405387,17.9853239 229.468022,17.8201534 229.45172,17.6532443 C229.43456,17.4854659 229.340178,17.3368125 229.19689,17.2524886 C227.435388,16.2119148 225.389884,15.6146932 223.207955,15.6146932 C220.926497,15.6146932 218.793475,16.2675511 216.978776,17.3967955 L216.978776,16.7143807 C216.978776,16.1067273 216.492282,15.6146932 215.893389,15.6146932 L212.354083,15.6146932 C211.755189,15.6146932 211.268695,16.1067273 211.268695,16.7143807 L211.268695,46.85625 C211.268695,47.4639034 211.755189,47.9559375 212.354083,47.9559375 L215.893389,47.9559375 C216.492282,47.9559375 216.978776,47.4639034 216.978776,46.85625 L216.978776,27.709517 C216.978776,24.2296364 219.773326,21.3991364 223.207955,21.3991364 C224.045376,21.3991364 224.844187,21.5686534 225.573499,21.8729148 C225.80173,21.9685398 226.063424,21.8885625 226.201564,21.6807955 C226.874247,20.6723864 227.65504,19.7109205 228.551664,18.802483 C228.787618,18.5599432 229.033009,18.3252273 229.282691,18.0974659" id="Fill-3" fill="#1E3352"></path>
                    <g id="Group-7" transform="translate(107.251703, 15.596591)">
                        <mask id="mask-2" fill="white">
                            <use xlink:href="#path-1"></use>
                        </mask>
                        <g id="Clip-5"></g>
                        <path d="M91.5577761,23.4870852 C89.6710041,25.4821705 87.5019457,26.4531989 84.9081705,26.4531989 C84.7434319,26.4531989 84.5692551,26.4410284 84.4002264,26.4332045 C81.730946,26.2967216 79.5370052,25.2413693 77.7068621,23.2019489 C75.870713,21.1573125 74.9946811,18.7858125 75.0418718,15.9640057 C75.0864885,13.1465455 76.0448897,10.8245966 77.9737044,8.87645455 C79.9110991,6.91527273 82.1934154,5.95815341 84.9484971,5.95815341 C87.5911791,5.95815341 89.7696757,6.9091875 91.6049669,8.8599375 C93.5123311,10.8819716 94.4561461,13.189142 94.5059109,15.9109773 C94.5505276,18.8640511 93.5852623,21.3337841 91.5577761,23.4870852 L91.5577761,23.4870852 Z M100.477686,16.2456648 C100.640708,11.9581875 99.1958134,8.18534659 96.1867596,5.02798295 C93.2394828,1.87670455 89.5603204,0.195443182 85.2582401,0.0328806818 C80.783699,-0.139244318 76.945804,1.42465909 73.8140543,4.6524375 C70.6582802,7.85326705 69.0503626,11.757375 69.0503626,16.2569659 C69.0503626,20.5531364 70.5450224,24.3329318 73.4940152,27.4885568 C76.4155516,30.6033239 80.0406592,32.2628523 84.2826786,32.428892 C84.4791637,32.4349773 84.6670687,32.4393239 84.8592637,32.4393239 C88.5564444,32.4393239 91.8280504,31.2153239 94.6226008,28.8020966 L94.6226008,31.3396364 C94.6226008,31.9464205 95.1090945,32.4393239 95.707988,32.4393239 L99.3931565,32.4393239 C99.9920501,32.4393239 100.477686,31.9464205 100.477686,31.3396364 L100.477686,16.2456648 L100.477686,16.2456648 Z" id="Fill-4" fill="#1E3352" mask="url(#mask-2)"></path>
                        <path d="M1.02875834,26.4036477 C0.902630335,26.2123977 0.664960561,26.1272045 0.446167086,26.1932727 C0.226515597,26.2593409 0.0772212264,26.4636307 0.0772212264,26.694 L0.0772212264,45.9007159 C0.0772212264,46.5057614 0.562856939,46.9943182 1.16346648,46.9943182 L5.22701901,46.9943182 C5.82677054,46.9943182 6.31240625,46.5057614 6.31240625,45.9007159 L6.31240625,32.2480739 C6.31240625,31.8899148 6.13822949,31.5534886 5.84650485,31.3483295 C3.94686268,30.024358 2.30891467,28.3430966 1.02875834,26.4036477" id="Fill-6" fill="#FFFFFF" mask="url(#mask-2)"></path>
                    </g>
                    <path d="M166.85362,27.2818125 C166.472662,27.2818125 166.120876,27.0827386 165.925249,26.7550057 C164.190346,23.8862557 161.056022,21.9659318 157.482395,21.9659318 C155.049068,21.9659318 152.712697,22.8621989 150.901431,24.4939091 C150.563373,24.7973011 150.241618,25.13025 149.946461,25.4805852 L136.236262,41.747267 C135.624498,42.550517 134.939803,43.301608 134.177887,43.9875 C131.222888,46.6476136 127.408159,48.1132841 123.439846,48.1132841 C114.555973,48.1132841 107.328925,40.8405682 107.328925,31.9013693 C107.328925,22.9621705 114.555973,15.6903239 123.439846,15.6903239 C128.188952,15.6903239 132.673789,17.783642 135.743762,21.4339091 L138.980189,25.28325 C139.14407,25.4788466 139.14407,25.763983 138.980189,25.9587102 L135.572159,30.0036477 C135.474346,30.1201364 135.328483,30.1888125 135.175757,30.1870739 C135.02303,30.1870739 134.877168,30.1201364 134.778497,30.0019091 L130.986934,25.493625 L130.982644,25.4884091 L130.982644,25.4866705 C129.099304,23.2490455 126.351087,21.9659318 123.439846,21.9659318 C117.994892,21.9659318 113.56411,26.4229261 113.56411,31.9013693 C113.56411,37.3806818 117.994892,41.8376761 123.439846,41.8376761 C125.872315,41.8376761 128.209544,40.9396705 130.019095,39.3096989 C130.205284,39.1427898 146.192652,20.3116193 146.743497,19.816108 C149.700212,17.155125 153.513224,15.6903239 157.482395,15.6903239 C164.211796,15.6903239 169.987944,19.8656591 172.39553,25.7735455 C172.531954,26.1117102 172.493344,26.4959489 172.29171,26.7976023 C172.090077,27.100125 171.75202,27.2818125 171.389938,27.2818125 L166.85362,27.2818125" id="Fill-8" fill="#FFFFFF"></path>
                    <path d="M157.482395,48.1132841 C152.73329,48.1132841 148.248452,46.0182273 145.17848,42.3670909 L141.92575,38.501233 C141.762727,38.3056364 141.762727,38.0205 141.926608,37.8257727 L145.334638,33.7808352 C145.43331,33.6643466 145.578314,33.5956705 145.731898,33.5974091 C145.883767,33.5974091 146.028771,33.6643466 146.127443,33.7825739 L149.939597,38.3143295 C151.821221,40.5519545 154.571155,41.8376761 157.482395,41.8376761 C161.056022,41.8376761 164.190346,39.9156136 165.925249,37.0459943 C166.120876,36.72 166.474378,36.5200568 166.85362,36.5200568 L171.389938,36.5200568 C171.75202,36.5200568 172.090077,36.7017443 172.29171,37.0033977 C172.494202,37.3076591 172.531954,37.6910284 172.39553,38.0274545 C169.987944,43.9379489 164.211796,48.1132841 157.482395,48.1132841" id="Fill-9" fill="#1E3352"></path>
                    <path d="M88.4526248,21.5616989 C91.0987388,21.5616989 93.2772354,22.5118636 95.1116685,24.463483 C97.0156008,26.4872557 97.9662799,28.7926875 98.0083226,31.5145227 C98.0563713,34.4667273 97.092822,36.9373295 95.0627618,39.088892 C93.1819959,41.0857159 91.0077894,42.0567443 88.4191623,42.0567443 C88.2518496,42.0567443 88.0785308,42.0515284 87.9112182,42.0376193 C85.2367897,41.9020057 83.0445649,40.8423068 81.2135638,38.8054943 C79.3731246,36.760858 78.5013827,34.389358 78.5502895,31.5675511 C78.5949062,28.7500909 79.5541655,26.43075 81.47869,24.48 C83.4169428,22.5188182 85.7009751,21.5616989 88.4526248,21.5616989 L88.4526248,21.5616989 Z M103.968943,31.8422557 C104.129392,27.5547784 102.683639,23.7819375 99.6771591,20.6245739 C96.7247342,17.4698182 93.0464297,15.7902955 88.7443494,15.6294716 C84.2826786,15.4573466 80.4353455,17.02125 77.3035957,20.2490284 C74.1443895,23.449858 72.5424781,27.3539659 72.5424781,31.8535568 C72.5424781,36.1497273 74.0371378,39.9295227 76.9835566,43.0851477 C79.900803,46.1999148 83.5284846,47.8594432 87.770504,48.025483 C87.9652731,48.0315682 88.1574681,48.0359148 88.3505212,48.0359148 C92.0425538,48.0359148 95.3158758,46.8119148 98.1104262,44.3986875 L98.1104262,46.9362273 C98.1104262,47.5430114 98.5960619,48.0359148 99.1949554,48.0359148 L102.885272,48.0359148 C103.484166,48.0359148 103.970659,47.5430114 103.970659,46.9362273 L103.970659,32.0030795 L103.968943,31.8422557 L103.968943,31.8422557 Z" id="Fill-10" fill="#FFFFFF"></path>
                    <g id="Group-14" transform="translate(0.000000, 15.596591)" fill="#FFFFFF">
                        <path d="M64.47715,0.0189715909 C63.8782565,0.0189715909 63.3926208,0.511005682 63.3926208,1.11865909 L63.3926208,20.265392 C63.3926208,23.7444034 60.5989284,26.5757727 57.1642999,26.5757727 C53.7296713,26.5757727 50.935979,23.7444034 50.935979,20.265392 L50.935979,1.11865909 C50.935979,0.511005682 50.4503432,0.0189715909 49.8514497,0.0189715909 L46.3121435,0.0189715909 C45.712392,0.0189715909 45.2267563,0.511005682 45.2267563,1.11865909 L45.2267563,20.265392 C45.2267563,23.7444034 42.4322059,26.5757727 38.9975774,26.5757727 C35.5638068,26.5757727 32.7683984,23.7444034 32.7683984,20.265392 L32.7683984,1.11865909 C32.7683984,0.511005682 32.2827627,0.0189715909 31.6838692,0.0189715909 L28.145421,0.0189715909 C27.5456695,0.0189715909 27.0600338,0.511005682 27.0600338,1.11865909 L27.0600338,20.265392 C27.0600338,26.9348011 32.4148968,32.3602159 38.9975774,32.3602159 C42.6321231,32.3602159 45.8891428,30.7050341 48.0805096,28.1014261 C50.2727344,30.7050341 53.5306122,32.3602159 57.1642999,32.3602159 C63.7469804,32.3602159 69.1018435,26.9348011 69.1018435,20.265392 L69.1018435,1.11865909 C69.1018435,0.511005682 68.6162078,0.0189715909 68.0164562,0.0189715909 L64.47715,0.0189715909" id="Fill-11"></path>
                        <path d="M18.7252894,15.1755341 C15.3833263,13.42125 13.0031965,13.3569205 10.1588813,12.5658409 C7.15840769,11.7312955 5.66117391,10.7637443 5.98979313,8.43831818 C6.34586878,5.93120455 8.42740984,4.86628977 11.4158713,4.88715341 C16.0791754,4.9201875 17.2194755,7.44729545 17.4957559,8.83038068 C17.5970015,9.34240909 18.0405945,9.71186932 18.5571187,9.71186932 L22.791416,9.71273864 C23.0050614,9.71273864 23.2092686,9.61972159 23.3508409,9.45628977 C23.4915551,9.29372727 23.5559061,9.07726705 23.5284497,8.86167614 C23.2221388,6.49886932 21.4769391,0.0311420455 11.5385673,0.0389659091 C1.46634529,0.0476590909 -0.0420426677,6.29892614 0.000858013627,9.41630114 C0.0669250629,14.3331648 4.80487631,16.4690795 6.31669632,17.0367443 C7.73670887,17.5670284 12.7011757,18.7232216 13.7582485,19.101375 C17.4665834,20.4262159 17.6613525,22.1796307 17.62789,23.2341136 C17.6467663,25.7073239 15.48972,27.4250966 11.8088415,27.2251534 C7.61744498,26.9956534 6.48229295,23.516642 6.17769811,21.8319034 C6.08417463,21.3103125 5.6354335,20.9312898 5.1129032,20.9304205 L1.23210757,20.9286818 C0.917216567,20.9286818 0.618627825,21.0669034 0.411846541,21.3068352 C0.205065257,21.5485057 0.111541771,21.8684148 0.15615848,22.1839773 C0.363797778,23.6453011 0.913784513,26.0906932 2.35953747,27.9232159 C4.51658373,30.6546136 6.58954465,32.3497841 12.4943944,32.3497841 C19.4443048,32.3497841 22.8840814,28.6325795 23.5198695,24.4329034 C23.9977831,21.2764091 23.0994429,17.473142 18.7252894,15.1755341" id="Fill-13"></path>
                    </g>
                </g>
            </g>
        </g>
    </g>
</svg>