<?xml version="1.0" encoding="UTF-8"?>
<svg width="1018px" height="500px" viewBox="0 0 1018 500" version="1.1" xmlns="http://www.w3.org/2000/svg" xmlns:xlink="http://www.w3.org/1999/xlink">
    <!-- Generator: Sketch 52.4 (67378) - http://www.bohemiancoding.com/sketch -->
    <title>picto_official_RVB</title>
    <desc>Created with Sketch.</desc>
    <g id="Page-1" stroke="none" stroke-width="1" fill="none" fill-rule="evenodd">
        <g id="picto_official_RVB">
            <path d="M930,178.75 C924.080818,178.769074 918.582018,175.693538 915.5,170.64 C889.611337,128.407234 845.071339,101.118281 795.687802,97.2329598 C746.304265,93.3476388 698.044699,113.335452 665.87,151 L451.66,401.84 C403.901111,463.868012 330.003867,500.147663 251.72,500 C112.91,500 0,387.86 0,250 C0,112.14 112.91,0 251.72,0 C325.706949,-0.121797536 396.011833,32.2664207 444,88.58 L494.56,147.94 C497.132125,150.937146 497.132125,155.362854 494.56,158.36 L441.32,220.73 C439.778935,222.544059 437.51011,223.577676 435.13,223.55 C432.741293,223.560911 430.469263,222.518192 428.92,220.7 L369.68,151.18 L369.61,151.11 C340.193768,116.597777 297.1076,96.7419458 251.76,96.8 C166.69,96.8 97.46,165.54 97.46,250.03 C97.46,334.52 166.69,403.26 251.76,403.26 C289.648235,403.297679 326.23084,389.419064 354.56,364.26 C357.47,361.69 607.26,71.26 615.87,63.65 C676.919177,9.49542903 760.371625,-11.8264927 839.915745,6.40679221 C919.459864,24.6400771 985.293477,80.1816909 1016.66,155.52 C1018.79359,160.723197 1018.18569,166.648439 1015.04,171.31 C1011.87283,175.981363 1006.59381,178.77636 1000.95,178.77 L930,178.75 Z" id="Path" fill="#262F3D"></path>
            <path d="M783.61,500 C709.633364,500.097136 639.346813,467.699657 591.37,411.39 L540.55,351.77 C537.977875,348.772854 537.977875,344.347146 540.55,341.35 L593.81,279 C595.365697,277.200964 597.626613,276.167058 600.005,276.167058 C602.383387,276.167058 604.644303,277.200964 606.2,279 L665.76,348.88 C697.929302,386.590556 746.210136,406.617945 795.626623,402.750017 C845.043111,398.882089 889.619884,371.586549 915.53,329.33 C918.620816,324.284313 924.112898,321.208747 930.03,321.21 L1000.91,321.21 C1006.55381,321.20364 1011.83283,323.998637 1015,328.67 C1018.15264,333.329035 1018.76092,339.257864 1016.62,344.46 C977.55698,438.66161 885.589704,500.052065 783.61,500 Z" id="Path" fill="#00CC88"></path>
        </g>
    </g>
</svg>