<?xml version="1.0" encoding="utf-8"?>
<!-- Generator: Adobe Illustrator 23.0.1, SVG Export Plug-In . SVG Version: 6.00 Build 0)  -->
<svg version="1.1" id="Calque_2_1_" xmlns="http://www.w3.org/2000/svg" xmlns:xlink="http://www.w3.org/1999/xlink" x="0px"
	 y="0px" viewBox="0 0 304.5 77.8" style="enable-background:new 0 0 304.5 77.8;" xml:space="preserve">
<style type="text/css">
	.st0{fill:#00CC88;}
	.st1{clip-path:url(#SVGID_2_);}
	.st2{clip-path:url(#SVGID_4_);fill:#00CC88;}
	.st3{clip-path:url(#SVGID_4_);fill:#262F3D;}
</style>
<g>
	<path class="st0" d="M175,74.7v1.1h-4.3v-6.9h4.2V70h-3v1.9h2.6v1.1h-2.6v1.7H175z"/>
	<path class="st0" d="M185,68.9l-2.1,6.9h-1.1l-2.1-6.9h1.3l1.4,4.9l1.4-4.9H185z"/>
	<path class="st0" d="M194.4,74.7v1.1h-4.3v-6.9h4.2V70h-3v1.9h2.6v1.1h-2.6v1.7H194.4z"/>
	<path class="st0" d="M204.9,68.9v6.9h-1.1l-2.7-4.6v4.6h-1.2v-6.9h1.1l2.7,4.6v-4.6H204.9z"/>
	<path class="st0" d="M215.1,70h-2v5.8h-1.2V70h-2v-1.1h5.2V70z"/>
	<path class="st0" d="M233,75.8l-0.5-4.6l-1.9,3.8h-1l-1.9-3.8l-0.6,4.6h-1.2l0.8-6.9h1.1l2.2,4.7l2.2-4.7h1.1l0.8,6.9H233z"/>
	<path class="st0" d="M243.3,74.1h-2.7l-0.6,1.7h-1.3l2.6-6.9h1.3l2.6,6.9h-1.3L243.3,74.1z M242.9,73l-1-2.8l-1,2.8H242.9z"/>
	<path class="st0" d="M255.1,68.9v6.9H254l-2.7-4.6v4.6H250v-6.9h1.1l2.7,4.6v-4.6H255.1z"/>
	<path class="st0" d="M264.6,74.1h-2.7l-0.6,1.7H260l2.6-6.9h1.3l2.6,6.9h-1.3L264.6,74.1z M264.2,73l-1-2.8l-1,2.8H264.2z"/>
	<path class="st0" d="M270.7,72.3c0-2,1.5-3.5,3.5-3.5c1,0,1.9,0.4,2.5,1l-0.9,0.8c-0.4-0.4-1-0.7-1.6-0.7c-1.3,0-2.3,1.1-2.3,2.4
		c0,1.3,1,2.4,2.3,2.4c1,0,1.8-0.5,1.9-1.4c0,0,0-0.1,0-0.2h-2v-1h3.3c0,2.5-1.3,3.6-3.3,3.6C272.3,75.9,270.7,74.3,270.7,72.3z"/>
	<path class="st0" d="M287.1,74.7v1.1h-4.3v-6.9h4.2V70h-3v1.9h2.6v1.1h-2.6v1.7H287.1z"/>
	<path class="st0" d="M294.3,73.3h-0.6v2.5h-1.2v-6.9h2.7c1.5,0,2.2,1.1,2.2,2.2c0,1-0.5,1.9-1.7,2.1l1.8,2.5H296L294.3,73.3z
		 M293.7,72.2h1.2c0.9,0,1.2-0.5,1.2-1.1s-0.4-1.1-1.1-1.1h-1.4V72.2z"/>
</g>
<g id="Logo_x5F_RVB_1_">
	<g>
		<defs>
			<rect id="SVGID_1_" x="2.6" y="2.8" width="299.2" height="71.6"/>
		</defs>
		<clipPath id="SVGID_2_">
			<use xlink:href="#SVGID_1_"  style="overflow:visible;"/>
		</clipPath>
		<g class="st1">
			<defs>
				<rect id="SVGID_3_" x="2.6" y="2.8" width="299.2" height="71.6"/>
			</defs>
			<clipPath id="SVGID_4_">
				<use xlink:href="#SVGID_3_"  style="overflow:visible;"/>
			</clipPath>
			<path class="st2" d="M295,23.1v1.5c-0.7-0.5-1.3-1-2-1.5c-2.6-1.6-5.6-2.6-8.9-2.7c-0.2,0-0.5,0-0.7,0c-1.1,0-2.2,0.1-3.2,0.3
				c-2.2,0.4-4.2,1.2-6,2.4c-1.2,0.8-2.3,1.6-3.3,2.7c-3.7,3.7-5.6,8.2-5.6,13.4c0,5,1.7,9.3,5.1,12.9c2.8,2.9,6.1,4.7,9.8,5.3
				c0.9,0.2,1.9,0.3,2.8,0.3c0.2,0,0.5,0,0.7,0c4.8,0,9-1.8,12.7-5.3c3.8-3.7,5.6-8.2,5.5-13.3v-16v-19c0-0.7-0.6-1.3-1.3-1.3h-4.4
				c-0.7,0-1.3,0.6-1.3,1.3V23.1z M291.4,47.4c-2.1,2.3-4.7,3.4-7.7,3.4c-0.2,0-0.4,0-0.6,0c-1.1,0-2-0.2-3-0.5
				c-1.8-0.6-3.4-1.6-4.8-3.2c-2.2-2.4-3.2-5.2-3.2-8.3c0.1-3.2,1.2-5.9,3.4-8.2c1.4-1.4,2.9-2.3,4.6-2.8c1.1-0.3,2.2-0.5,3.3-0.5
				l0.2,0c3.1,0,5.6,1.1,7.8,3.3c2.2,2.3,3.3,5,3.4,8.1C294.9,42.1,293.8,44.9,291.4,47.4"/>
			<path class="st2" d="M269.9,23.3c0.1-0.1,0.2-0.3,0.2-0.5c0-0.2-0.1-0.4-0.3-0.5c-2.1-1.2-4.4-1.9-7-1.9c-2.7,0-5.1,0.8-7.3,2
				v-0.8c0-0.7-0.6-1.3-1.3-1.3h-4.1c-0.7,0-1.3,0.6-1.3,1.3v12.6v22c0,0.7,0.6,1.3,1.3,1.3h4.1c0.7,0,1.3-0.6,1.3-1.3v-22
				c0-4,3.3-7.3,7.3-7.3c1,0,1.9,0.2,2.8,0.5c0.3,0.1,0.6,0,0.7-0.2c0.8-1.2,1.7-2.3,2.7-3.3C269.3,23.8,269.6,23.5,269.9,23.3"/>
			<path class="st2" d="M244.8,39.1c0.2-4.9-1.5-9.3-5-12.9c-3.4-3.6-7.7-5.6-12.7-5.7c-5.2-0.2-9.7,1.6-13.3,5.3
				c-3.7,3.7-5.6,8.2-5.6,13.3c0,4.9,1.7,9.3,5.2,12.9c3.4,3.6,7.6,5.5,12.6,5.7c0.2,0,0.4,0,0.7,0c4.3,0,8.1-1.4,11.4-4.2v2.9
				c0,0.7,0.6,1.3,1.3,1.3h4.3c0.7,0,1.3-0.6,1.3-1.3V39.2V39.1z M234.4,47.4c-2.2,2.3-4.7,3.4-7.8,3.4c-0.2,0-0.4,0-0.6,0
				c-3.1-0.2-5.7-1.4-7.8-3.7c-2.1-2.4-3.2-5.1-3.1-8.3c0.1-3.2,1.2-5.9,3.4-8.2c2.3-2.3,4.9-3.4,8.1-3.4c3.1,0,5.6,1.1,7.8,3.3
				c2.2,2.3,3.3,5,3.4,8.1C237.8,42.1,236.7,44.9,234.4,47.4"/>
			<path class="st3" d="M128.8,50.7c-0.1-0.2-0.4-0.3-0.7-0.2c-0.3,0.1-0.4,0.3-0.4,0.6v22.1c0,0.7,0.6,1.3,1.3,1.3h4.7
				c0.7,0,1.3-0.6,1.3-1.3V57.5c0-0.4-0.2-0.8-0.5-1C132.2,54.9,130.3,53,128.8,50.7"/>
			<path class="st3" d="M197.1,33.8c-0.4,0-0.9-0.2-1.1-0.6c-2-3.3-5.7-5.5-9.8-5.5c-2.8,0-5.6,1-7.7,2.9c-0.4,0.3-0.8,0.7-1.1,1.1
				l-16,18.7c-0.7,0.9-1.5,1.8-2.4,2.6c-3.4,3.1-7.9,4.7-12.5,4.7c-10.4,0-18.8-8.4-18.8-18.6c0-10.3,8.4-18.6,18.8-18.6
				c5.5,0,10.8,2.4,14.3,6.6l3.8,4.4c0.2,0.2,0.2,0.6,0,0.8l-4,4.7c-0.1,0.1-0.3,0.2-0.5,0.2c-0.2,0-0.3-0.1-0.5-0.2l-4.4-5.2l0,0v0
				c-2.2-2.6-5.4-4.1-8.8-4.1c-6.3,0-11.5,5.1-11.5,11.4s5.2,11.4,11.5,11.4c2.8,0,5.6-1,7.7-2.9c0.2-0.2,18.8-21.9,19.5-22.4
				c3.4-3.1,7.9-4.7,12.5-4.7c7.8,0,14.6,4.8,17.4,11.6c0.2,0.4,0.1,0.8-0.1,1.2c-0.2,0.3-0.6,0.6-1.1,0.6H197.1z"/>
			<path class="st2" d="M186.2,57.8c-5.5,0-10.8-2.4-14.3-6.6l-3.8-4.4c-0.2-0.2-0.2-0.6,0-0.8l4-4.7c0.1-0.1,0.3-0.2,0.5-0.2
				c0.2,0,0.3,0.1,0.5,0.2l4.4,5.2c2.2,2.6,5.4,4.1,8.8,4.1c4.2,0,7.8-2.2,9.8-5.5c0.2-0.4,0.6-0.6,1.1-0.6h5.3
				c0.4,0,0.8,0.2,1.1,0.6c0.2,0.3,0.3,0.8,0.1,1.2C200.8,53,194,57.8,186.2,57.8"/>
			<path class="st3" d="M123.8,39.1c0.2-4.9-1.5-9.3-5-12.9c-3.4-3.6-7.7-5.6-12.7-5.7c-5.2-0.2-9.7,1.6-13.3,5.3
				c-3.7,3.7-5.5,8.2-5.5,13.3c0,4.9,1.7,9.3,5.2,12.9c3.4,3.6,7.6,5.5,12.6,5.7c0.2,0,0.5,0,0.7,0c4.3,0,8.1-1.4,11.4-4.2v2.9
				c0,0.7,0.6,1.3,1.3,1.3h4.3c0.7,0,1.3-0.6,1.3-1.3V39.2L123.8,39.1z M105.7,27.2c3.1,0,5.6,1.1,7.8,3.3c2.2,2.3,3.3,5,3.4,8.1
				c0.1,3.4-1.1,6.2-3.4,8.7c-2.2,2.3-4.7,3.4-7.7,3.4c-0.2,0-0.4,0-0.6,0c-3.1-0.2-5.7-1.4-7.8-3.7c-2.1-2.4-3.2-5.1-3.1-8.3
				c0.1-3.2,1.2-5.9,3.4-8.2C99.9,28.3,102.5,27.2,105.7,27.2"/>
			<path class="st3" d="M77.8,20.4c-0.7,0-1.3,0.6-1.3,1.3v22c0,4-3.3,7.3-7.3,7.3S62,47.7,62,43.7v-22c0-0.7-0.6-1.3-1.3-1.3h-4.1
				c-0.7,0-1.3,0.6-1.3,1.3v22c0,4-3.3,7.3-7.3,7.3c-4,0-7.3-3.3-7.3-7.3v-22c0-0.7-0.6-1.3-1.3-1.3h-4.1c-0.7,0-1.3,0.6-1.3,1.3v22
				c0,7.7,6.2,13.9,13.9,13.9c4.2,0,8-1.9,10.6-4.9c2.6,3,6.4,4.9,10.6,4.9c7.7,0,13.9-6.2,13.9-13.9v-22c0-0.7-0.6-1.3-1.3-1.3
				H77.8z"/>
			<path class="st3" d="M24.5,37.8c-3.9-2-6.7-2.1-10-3c-3.5-1-5.2-2.1-4.9-4.7C10,27.2,12.5,26,16,26c5.4,0,6.8,2.9,7.1,4.5
				c0.1,0.6,0.6,1,1.2,1l4.9,0c0.2,0,0.5-0.1,0.7-0.3c0.2-0.2,0.2-0.4,0.2-0.7c-0.4-2.7-2.4-10.2-14-10.1
				c-11.7,0-13.5,7.2-13.4,10.8c0.1,5.7,5.6,8.1,7.4,8.8c1.7,0.6,7.4,1.9,8.7,2.4c4.3,1.5,4.5,3.5,4.5,4.8c0,2.8-2.5,4.8-6.8,4.6
				c-4.9-0.3-6.2-4.3-6.6-6.2c-0.1-0.6-0.6-1-1.2-1l-4.5,0c-0.4,0-0.7,0.2-1,0.4c-0.2,0.3-0.4,0.6-0.3,1c0.2,1.7,0.9,4.5,2.6,6.6
				c2.5,3.1,4.9,5.1,11.8,5.1c8.1,0,12.1-4.3,12.9-9.1C30.6,44.8,29.6,40.5,24.5,37.8"/>
		</g>
	</g>
</g>
</svg>
