<?xml version="1.0" encoding="utf-8"?>
<!-- Generator: Adobe Illustrator 23.0.2, SVG Export Plug-In . SVG Version: 6.00 Build 0)  -->
<svg version="1.1" id="Calque_1" xmlns="http://www.w3.org/2000/svg" xmlns:xlink="http://www.w3.org/1999/xlink" x="0px" y="0px"
	 viewBox="0 0 1538 457" style="enable-background:new 0 0 1538 457;" xml:space="preserve">
<style type="text/css">
	.st0{fill:#262F3D;}
	.st1{fill:#FFFFFF;}
</style>
<title>Download_on_the_App_Store_Badge_US-UK_135x40</title>
<desc>Created with Sketch.</desc>
<path id="Shape" class="st0" d="M1482.5,455.6H54.6c-29.7,0-53.8-24.2-53.8-53.8V55C0.8,25.4,25,1.3,54.6,1.3h1427.9
	c29.7,0,54.7,24.1,54.7,53.7v346.9C1537.2,431.5,1512.2,455.6,1482.5,455.6z"/>
<path class="st1" d="M167.9,122.3c-10.7,0-19.3,8.6-19.3,19.3v135.1c0,10.7,8.6,19.3,19.3,19.3h74.8l-4.8,19.3h-12.1
	c-5.3-0.1-9.7,4.2-9.8,9.5s4.2,9.7,9.5,9.8c0.1,0,0.2,0,0.3,0H303c5.3,0.1,9.7-4.2,9.8-9.5c0.1-5.3-4.2-9.7-9.5-9.8
	c-0.1,0-0.2,0-0.3,0h-12.1l-4.8-19.3h74.8c10.7,0,19.3-8.6,19.3-19.3V141.6c0-10.7-8.6-19.3-19.3-19.3
	C360.9,122.3,167.9,122.3,167.9,122.3z M167.9,141.6h193v115.8h-193V141.6z M264.4,267c5.3,0,9.6,4.3,9.6,9.6s-4.3,9.6-9.6,9.6
	s-9.6-4.3-9.6-9.6S259.1,267,264.4,267z"/>
<g>
	<path class="st1" d="M502.3,118.5c0-19.3,15.4-34.9,34.6-34.9c11.2,0,21,5.2,27.1,13.3l-9.1,6.9c-4.2-5.4-10.3-8.9-17.7-8.9
		c-13,0-22.8,10.6-22.8,23.7s9.6,23.7,22.8,23.7c7.4,0,13.6-3.5,17.7-8.8l9.1,6.8c-6.1,8.1-15.9,13.3-27.1,13.3
		C517.8,153.5,502.3,137.8,502.3,118.5z"/>
	<path class="st1" d="M570.4,129.3c0-14.7,11.4-24,24.6-24s24.7,9.3,24.7,24s-11.5,24.3-24.7,24.3S570.4,144,570.4,129.3z
		 M608,129.3c0-7.9-5.9-13.3-13.1-13.3s-13,5.3-13,13.3c0,8.1,5.8,13.6,13,13.6S608,137.4,608,129.3z"/>
	<path class="st1" d="M674.7,126.6v25.9h-11.5v-24.8c0-7.3-4.5-11.1-9.6-11.1c-5.2,0-11.8,2.9-11.8,11.8v24.2h-11.5v-46.2h11.5v7.3
		c2.4-5.7,9.6-8.3,14.4-8.3C668.1,105.4,674.7,113.2,674.7,126.6z"/>
	<path class="st1" d="M732.1,126.6v25.9h-11.5v-24.8c0-7.3-4.5-11.1-9.6-11.1c-5.2,0-11.8,2.9-11.8,11.8v24.2h-11.5v-46.2h11.5v7.3
		c2.4-5.7,9.6-8.3,14.4-8.3C725.5,105.4,732.1,113.2,732.1,126.6z"/>
	<path class="st1" d="M789.9,133.5h-35.7c1.3,6.4,6.2,9.7,13.1,9.7c5,0,9.8-2,12.6-5.7l7.6,5.8c-4.3,6.7-12.4,10.3-20.8,10.3
		c-13.9,0-24.4-9.7-24.4-24.2c0-14.8,11.1-24.1,24.3-24.1c13.3,0,23.7,9.2,23.7,23.7C790.2,130.3,790.1,131.8,789.9,133.5z
		 M778.7,125.5c-0.7-6.3-5.5-10-12-10c-6.2,0-11.2,3-12.6,10H778.7z"/>
	<path class="st1" d="M797.9,129.4c0-14.7,11.8-24.1,25.1-24.1c8,0,14.6,3.5,18.8,8.9l-8.2,6.4c-2.4-2.9-6.3-4.7-10.4-4.7
		c-8,0-13.8,5.5-13.8,13.4c0,7.7,5.7,13.4,13.8,13.4c4.1,0,8-1.8,10.4-4.7l8.2,6.4c-4.3,5.3-10.8,8.9-18.8,8.9
		C809.6,153.5,797.9,144.1,797.9,129.4z"/>
	<path class="st1" d="M877.1,115.6h-9.8v37h-11.5v-37h-8.3v-9.2h8.3v-17h11.5v17h9.8V115.6z"/>
	<path class="st1" d="M929.7,133.5H894c1.3,6.4,6.2,9.7,13.1,9.7c5,0,9.8-2,12.6-5.7l7.6,5.8c-4.3,6.7-12.4,10.3-20.8,10.3
		c-13.9,0-24.4-9.7-24.4-24.2c0-14.8,11.1-24.1,24.3-24.1c13.3,0,23.7,9.2,23.7,23.7C930,130.3,929.9,131.8,929.7,133.5z
		 M918.5,125.5c-0.7-6.3-5.5-10-12-10c-6.2,0-11.2,3-12.6,10H918.5z"/>
	<path class="st1" d="M978.3,115.4l-24.9,26.5h24.9v10.7h-41.2v-8.9l24.6-26.6h-23.1v-10.7h39.7V115.4z"/>
	<path class="st1" d="M987.6,123.9h34.7v10.5h-34.7V123.9z"/>
	<path class="st1" d="M1077.7,106.4l-19.5,46.2h-10.5l-19.3-46.2h12.4l12.3,31.7l12.2-31.7H1077.7z"/>
	<path class="st1" d="M1081.3,129.3c0-14.7,11.4-24,24.6-24s24.7,9.3,24.7,24s-11.5,24.3-24.7,24.3S1081.3,144,1081.3,129.3z
		 M1118.9,129.3c0-7.9-5.9-13.3-13.1-13.3s-13,5.3-13,13.3c0,8.1,5.8,13.6,13,13.6S1118.9,137.4,1118.9,129.3z"/>
	<path class="st1" d="M1185,106.4v46.2h-11.5v-7.2c-2.4,5.7-9.7,8.3-14.4,8.3c-11.9,0-18.5-7.9-18.5-21.4v-25.9h11.5v24.8
		c0,7.4,4.5,11.2,9.6,11.2c5.2,0,11.8-2.9,11.8-11.9v-24.2H1185z"/>
	<path class="st1" d="M1195.5,138.1h10.8c0,3.2,2.8,6.1,7.6,6.1c4.6,0,7.5-2.1,7.5-5c0-2.6-2-3.8-5.4-4.6l-6.1-1.6
		c-10.4-2.8-13.1-8.3-13.1-14.2c0-7.2,7.1-13.6,17.2-13.6c8.2,0,17.5,4.1,17.4,14.5h-11c0-3.3-2.9-5.2-6.1-5.2c-3.6,0-6,2-6,4.9
		c0,2.4,2.3,3.8,5,4.4l7.4,2c10.4,2.7,12.3,9.2,12.3,13.5c0,9.4-9.4,14.4-18.8,14.4C1204.9,153.6,1195.7,148,1195.5,138.1z"/>
	<path class="st1" d="M1264.6,138.1h10.8c0,3.2,2.8,6.1,7.6,6.1c4.6,0,7.5-2.1,7.5-5c0-2.6-2-3.8-5.4-4.6l-6.1-1.6
		c-10.4-2.8-13.1-8.3-13.1-14.2c0-7.2,7.1-13.6,17.2-13.6c8.2,0,17.5,4.1,17.4,14.5h-11c0-3.3-2.9-5.2-6.1-5.2c-3.6,0-6,2-6,4.9
		c0,2.4,2.3,3.8,5,4.4l7.4,2c10.4,2.7,12.3,9.2,12.3,13.5c0,9.4-9.4,14.4-18.8,14.4C1274,153.6,1264.8,148,1264.6,138.1z"/>
	<path class="st1" d="M1356.5,106.4v46.2H1345v-7.2c-2.4,5.7-9.7,8.3-14.4,8.3c-11.9,0-18.5-7.9-18.5-21.4v-25.9h11.5v24.8
		c0,7.4,4.5,11.2,9.6,11.2c5.2,0,11.8-2.9,11.8-11.9v-24.2H1356.5z"/>
	<path class="st1" d="M1402.4,106.9l-2.3,10.9c-2.7-1.4-5-1.7-6.7-1.7c-7.5,0-11.7,7.3-11.7,20.3v16.1h-11.6v-46.2h11.5v9.9
		c2.5-7.7,7.5-10.9,13.3-10.9C1397.7,105.4,1400.7,106,1402.4,106.9z"/>
</g>
<g>
	<path class="st1" d="M512,210.3h27.9v98h44.9v24.3H512V210.3z"/>
	<path class="st1" d="M685.5,249.9v82.7h-26.1v-9.4c-6,7.8-17.2,11-25.7,11c-20.6,0-40.1-16.3-40.1-43.1c0-26.8,19.5-43.1,40.1-43.1
		c8.5,0,19.7,3.2,25.7,11v-9.1H685.5z M658.3,291c0-10.7-9.1-18.6-19-18.6c-10.3,0-19.2,8.2-19.2,18.6s8.9,18.6,19.2,18.6
		C649.4,309.7,658.3,301.7,658.3,291z"/>
	<path class="st1" d="M893.9,210.3l-41.5,122.3h-21.7l-16.3-62.1l-15.8,62.1h-21.8l-41.2-122.3h30l22.5,73.1l15.1-55.7h22.9
		l14.9,56.1l22.5-73.5H893.9z"/>
	<path class="st1" d="M978.2,298.9h-60.5c2.5,7.8,9.4,12.4,19.4,12.4c7.8,0,15.6-3,21-8l13.5,17c-8.2,8.9-22.4,13.8-36.4,13.8
		c-26.1,0-44.7-17.6-44.7-42.8c0-27,20.9-43.7,44.7-43.7c23.6,0,43.7,16.5,43.7,41.7C978.7,291.8,978.6,294.8,978.2,298.9z
		 M952.5,283.4c-0.2-8.2-7.5-13.5-16.9-13.5c-8,0-15.4,3.6-18.1,13.5H952.5z"/>
	<path class="st1" d="M1087.6,291c0,26.8-19.5,43.1-40.3,43.1c-8.5,0-19.5-3.2-25.6-10.8v9.2h-26.3V206.2h26.3v52.5
		c6-7.6,17-10.8,25.6-10.8C1068,247.9,1087.6,264.2,1087.6,291z M1060.9,291c0-10.5-8.9-18.6-19.2-18.6c-9.9,0-19.2,8-19.2,18.6
		c0,10.7,9.1,18.6,19.2,18.6C1052.1,309.7,1060.9,301.5,1060.9,291z"/>
	<path class="st1" d="M1174.2,304.2h-43l-9.1,28.4h-29.8l45.3-122.3h30.4l45.1,122.3h-29.6L1174.2,304.2z M1166.4,280l-13.8-42.8
		l-13.7,42.8H1166.4z"/>
	<path class="st1" d="M1314.6,290.9c0,26.8-19.5,43.1-40.3,43.1c-8.5,0-19.5-3.2-25.6-10.8v50.2h-26.3V249.9h26.3v8.9
		c6-7.8,17-11,25.6-11C1295.1,247.7,1314.6,264.2,1314.6,290.9z M1288,290.9c0-10.5-8.9-18.6-19.2-18.6c-10.1,0-19.2,8-19.2,18.6
		c0,10.8,9.2,18.8,19.2,18.8C1279.1,309.7,1288,301.5,1288,290.9z"/>
	<path class="st1" d="M1424,290.9c0,26.8-19.5,43.1-40.3,43.1c-8.5,0-19.5-3.2-25.6-10.8v50.2h-26.3V249.9h26.3v8.9
		c6-7.8,17-11,25.6-11C1404.5,247.7,1424,264.2,1424,290.9z M1397.4,290.9c0-10.5-8.9-18.6-19.2-18.6c-10.1,0-19.2,8-19.2,18.6
		c0,10.8,9.2,18.8,19.2,18.8C1388.5,309.7,1397.4,301.5,1397.4,290.9z"/>
</g>
</svg>
