<?xml version="1.0" encoding="utf-8"?>
<!-- Generator: Adobe Illustrator 23.0.2, SVG Export Plug-In . SVG Version: 6.00 Build 0)  -->
<svg version="1.1" id="Calque_1" xmlns="http://www.w3.org/2000/svg" xmlns:xlink="http://www.w3.org/1999/xlink" x="0px" y="0px"
	 viewBox="0 0 1538 457" style="enable-background:new 0 0 1538 457;" xml:space="preserve">
<style type="text/css">
	.st0{fill:#262F3D;}
	.st1{fill:#FFFFFF;}
</style>
<title>Download_on_the_App_Store_Badge_US-UK_135x40</title>
<desc>Created with Sketch.</desc>
<path id="Shape" class="st0" d="M1482.5,455.6H54.6c-29.7,0-53.8-24.2-53.8-53.8V55C0.8,25.4,25,1.3,54.6,1.3h1427.9
	c29.7,0,54.7,24.1,54.7,53.7v346.9C1537.2,431.5,1512.2,455.6,1482.5,455.6z"/>
<g>
	<path class="st1" d="M501.3,151.4V71.8h13v68.4H548v11.2H501.3z"/>
	<path class="st1" d="M619.3,121.2c0,9.8-2.5,17.5-7.6,23c-5,5.5-12.1,8.3-21.1,8.3c-5.6,0-10.6-1.3-14.9-3.8
		c-4.3-2.5-7.6-6.2-10-10.9c-2.3-4.8-3.5-10.3-3.5-16.5c0-9.8,2.5-17.4,7.5-22.8c5-5.5,12.1-8.2,21.2-8.2c8.7,0,15.6,2.8,20.7,8.4
		C616.8,104.1,619.3,111.7,619.3,121.2z M575.5,121.2c0,13.9,5.1,20.8,15.4,20.8c10.2,0,15.2-6.9,15.2-20.8
		c0-13.7-5.1-20.6-15.3-20.6c-5.4,0-9.3,1.8-11.7,5.3C576.7,109.4,575.5,114.5,575.5,121.2z"/>
	<path class="st1" d="M690.4,91.2v7l-10.3,1.9c0.9,1.3,1.7,2.8,2.3,4.7c0.6,1.8,0.9,3.8,0.9,5.9c0,6.2-2.1,11.1-6.4,14.6
		c-4.3,3.6-10.2,5.3-17.7,5.3c-1.9,0-3.7-0.1-5.2-0.4c-2.8,1.7-4.1,3.7-4.1,6c0,1.4,0.6,2.4,1.9,3.1c1.3,0.7,3.7,1,7.1,1h10.5
		c6.6,0,11.7,1.4,15.1,4.2c3.4,2.8,5.2,6.9,5.2,12.2c0,6.8-2.8,12.1-8.4,15.8c-5.6,3.7-13.7,5.5-24.4,5.5c-8.2,0-14.5-1.5-18.8-4.4
		s-6.5-7-6.5-12.4c0-3.7,1.2-6.8,3.5-9.3s5.6-4.3,9.8-5.2c-1.7-0.7-3.1-1.9-4.2-3.5c-1.1-1.6-1.7-3.3-1.7-5.1c0-2.2,0.6-4.2,1.9-5.7
		c1.3-1.6,3.2-3.1,5.7-4.6c-3.1-1.3-5.6-3.5-7.6-6.6c-1.9-3-2.9-6.6-2.9-10.6c0-6.5,2.1-11.6,6.2-15.2c4.1-3.6,10-5.4,17.6-5.4
		c1.7,0,3.5,0.1,5.4,0.4c1.9,0.2,3.3,0.5,4.2,0.7L690.4,91.2L690.4,91.2z M643.1,160.7c0,2.8,1.2,4.9,3.7,6.4s6,2.2,10.5,2.2
		c7,0,12.1-1,15.6-3c3.4-2,5.1-4.6,5.1-7.9c0-2.6-0.9-4.5-2.8-5.6c-1.9-1.1-5.3-1.7-10.4-1.7h-9.7c-3.7,0-6.6,0.9-8.7,2.6
		C644.2,155.4,643.1,157.8,643.1,160.7z M648.6,110.7c0,3.8,1,6.7,2.9,8.7s4.7,3,8.4,3c7.4,0,11.1-4,11.1-11.9
		c0-3.9-0.9-6.9-2.7-9.1c-1.8-2.1-4.6-3.2-8.4-3.2c-3.7,0-6.5,1.1-8.4,3.2C649.5,103.6,648.6,106.6,648.6,110.7z"/>
	<path class="st1" d="M706.3,75.2c0-2.3,0.6-4,1.9-5.3c1.3-1.2,3-1.8,5.4-1.8c2.2,0,4,0.6,5.2,1.8c1.3,1.2,1.9,3,1.9,5.3
		c0,2.2-0.6,3.9-1.9,5.1c-1.3,1.3-3,1.9-5.2,1.9c-2.3,0-4.1-0.6-5.4-1.9C707,79.1,706.3,77.4,706.3,75.2z M719.9,151.4h-12.8V91.2
		h12.8V151.4z"/>
	<path class="st1" d="M796.7,151.4h-12.8v-37c0-4.6-0.9-8.1-2.8-10.4c-1.9-2.3-4.8-3.4-8.9-3.4c-5.4,0-9.4,1.6-11.9,4.8
		c-2.5,3.2-3.8,8.5-3.8,16v30h-12.8V91.2h10l1.8,7.9h0.7c1.8-2.9,4.4-5.1,7.7-6.6c3.3-1.6,7-2.3,11.1-2.3c14.4,0,21.7,7.3,21.7,22
		V151.4z"/>
	<path class="st1" d="M877,142.1c3.1,0,6.2-0.5,9.4-1.5v9.6c-1.4,0.6-3.2,1.1-5.5,1.6c-2.2,0.4-4.5,0.6-6.9,0.6
		c-12.1,0-18.2-6.4-18.2-19.2v-32.4h-8.2v-5.7l8.8-4.7l4.4-12.7h7.9v13.4h17.1v9.7h-17.1v32.3c0,3.1,0.8,5.4,2.3,6.8
		C872.4,141.4,874.5,142.1,877,142.1z"/>
	<path class="st1" d="M957.3,121.2c0,9.8-2.5,17.5-7.6,23c-5,5.5-12.1,8.3-21.1,8.3c-5.6,0-10.6-1.3-14.9-3.8
		c-4.3-2.5-7.6-6.2-10-10.9c-2.3-4.8-3.5-10.3-3.5-16.5c0-9.8,2.5-17.4,7.5-22.8c5-5.5,12.1-8.2,21.2-8.2c8.7,0,15.6,2.8,20.7,8.4
		C954.7,104.1,957.3,111.7,957.3,121.2z M913.5,121.2c0,13.9,5.1,20.8,15.4,20.8c10.2,0,15.2-6.9,15.2-20.8
		c0-13.7-5.1-20.6-15.3-20.6c-5.4,0-9.3,1.8-11.7,5.3C914.7,109.4,913.5,114.5,913.5,121.2z"/>
	<path class="st1" d="M1034.5,142.1c3.1,0,6.2-0.5,9.4-1.5v9.6c-1.4,0.6-3.2,1.1-5.5,1.6c-2.2,0.4-4.5,0.6-6.9,0.6
		c-12.1,0-18.2-6.4-18.2-19.2v-32.4h-8.2v-5.7l8.8-4.7l4.4-12.7h7.9v13.4h17.1v9.7h-17.1v32.3c0,3.1,0.8,5.4,2.3,6.8
		C1029.9,141.4,1032,142.1,1034.5,142.1z"/>
	<path class="st1" d="M1114.4,151.4h-12.8v-37c0-4.6-0.9-8.1-2.8-10.4s-4.8-3.4-8.9-3.4c-5.4,0-9.3,1.6-11.8,4.8
		c-2.5,3.2-3.8,8.6-3.8,16.1v29.9h-12.8V66.7h12.8v21.5c0,3.4-0.2,7.1-0.7,11h0.8c1.7-2.9,4.2-5.1,7.3-6.7c3.1-1.6,6.7-2.4,10.9-2.4
		c14.6,0,21.9,7.3,21.9,22L1114.4,151.4L1114.4,151.4z"/>
	<path class="st1" d="M1164,152.4c-9.4,0-16.7-2.7-22-8.2s-7.9-13-7.9-22.6c0-9.8,2.4-17.6,7.3-23.2c4.9-5.6,11.6-8.4,20.2-8.4
		c7.9,0,14.2,2.4,18.8,7.2c4.6,4.8,6.9,11.5,6.9,19.9v6.9h-40.1c0.2,5.8,1.8,10.3,4.7,13.5c3,3.1,7.2,4.7,12.6,4.7
		c3.6,0,6.9-0.3,9.9-1c3.1-0.7,6.4-1.8,9.9-3.3v10.4c-3.1,1.5-6.3,2.5-9.5,3.2C1171.7,152.1,1168.1,152.4,1164,152.4z M1161.7,99.8
		c-4.1,0-7.3,1.3-9.8,3.9c-2.4,2.6-3.9,6.3-4.4,11.3h27.3c-0.1-5-1.3-8.7-3.6-11.3C1168.9,101.1,1165.7,99.8,1161.7,99.8z"/>
	<path class="st1" d="M646.8,346.3h-41.9l-12.6-57.2c-0.6-2.4-1.5-7.2-2.8-14.3c-1.3-7.1-2.2-13.1-2.8-17.9
		c-0.5,3.9-1.3,8.7-2.3,14.5c-1.1,5.8-2.1,11.1-3.2,15.9c-1,4.8-5.4,24.5-13.1,58.9h-41.9l-32.6-131.1h34.2l14.3,65.8
		c3.2,14.5,5.4,26.1,6.6,34.7c0.8-6.1,2.2-14.4,4.2-24.9s3.9-19.1,5.6-26l11.6-49.6H603l11.2,49.6c1.9,8,3.9,17.1,5.8,27.6
		s3.3,18.2,3.9,23.3c0.8-6.6,2.9-18.2,6.4-34.6l14.5-66H679L646.8,346.3z"/>
	<path class="st1" d="M752.3,348.1c-16.9,0-30.1-4.5-39.5-13.5s-14-21.8-14-38.5c0-17.2,4.3-30.4,13-39.5
		c8.7-9.2,21.1-13.8,37.2-13.8c15.3,0,27.2,4,35.5,12c8.3,8,12.5,19.5,12.5,34.5v15.6h-62.7c0.2,5.7,2.3,10.1,6.2,13.4
		c3.9,3.2,9.3,4.8,16,4.8c6.2,0,11.8-0.6,17-1.8c5.2-1.2,10.8-3.2,16.8-6v25.2c-5.5,2.8-11.2,4.8-17.1,5.8
		C767.4,347.6,760.4,348.1,752.3,348.1z M750.2,266.7c-4.1,0-7.6,1.3-10.4,3.9c-2.8,2.6-4.4,6.7-4.9,12.3h30.2
		c-0.1-4.9-1.5-8.8-4.2-11.8C758.3,268.2,754.7,266.7,750.2,266.7z"/>
	<path class="st1" d="M888.1,242.8c11.1,0,19.9,4.6,26.3,13.9c6.5,9.3,9.7,22.1,9.7,38.5c0,16.5-3.3,29.5-9.8,38.8
		c-6.6,9.4-15.7,14-27.3,14c-3.8,0-7.1-0.4-10.1-1.2c-2.9-0.8-5.6-1.9-7.9-3.4c-2.3-1.4-5-3.8-8-7.2h-2.2l-5.6,10H826V206.7h35.1
		v31.6c0,3.8-0.4,10.3-1.3,19.5h1.3c3.4-5.3,7.3-9.1,11.8-11.4C877.4,244,882.4,242.8,888.1,242.8z M875.3,270.4
		c-4.9,0-8.5,1.7-10.8,5.1s-3.4,8.8-3.4,16.1v4.9c0,8.3,1.1,14.3,3.4,17.9c2.3,3.6,6,5.4,11.1,5.4c4.1,0,7.3-2.1,9.5-6.3
		c2.2-4.2,3.3-10.4,3.3-18.6C888.5,278.6,884.1,270.4,875.3,270.4z"/>
	<path class="st1" d="M1036,346.3l-6.5-24.6h-42.6l-6.6,24.6h-39l42.8-131.8h47.3l43.4,131.8H1036z M1022.2,292.7l-5.7-21.5
		c-1.3-4.8-2.9-11-4.8-18.6c-1.9-7.6-3.1-13-3.7-16.3c-0.5,3.1-1.6,8.1-3.2,15.1c-1.6,7-5.1,20.8-10.5,41.4h27.9V292.7z"/>
	<path class="st1" d="M1157.1,348.1c-5.1,0-9.8-0.9-13.8-2.6c-4.1-1.7-8.1-4.8-12.1-9.2h-1.6c1.1,7.1,1.6,11.5,1.6,13.3v40.8h-35.1
		V244.6h28.5l4.9,12.9h1.6c6.5-9.8,15.5-14.7,27-14.7c11.2,0,20.1,4.7,26.5,14c6.4,9.3,9.6,22.1,9.6,38.4c0,16.4-3.3,29.3-10,38.7
		C1177.6,343.4,1168.6,348.1,1157.1,348.1z M1145.4,270.4c-5.1,0-8.8,1.8-10.8,5.5c-2.1,3.7-3.2,9.1-3.4,16.4v2.8
		c0,8.7,1.2,15.1,3.5,18.9c2.3,3.9,6,5.8,11,5.8c4.5,0,7.7-1.9,9.8-5.8c2-3.9,3.1-10.2,3.1-19.2c0-8.7-1-15-3.1-18.8
		C1153.5,272.3,1150.1,270.4,1145.4,270.4z"/>
	<path class="st1" d="M1284.5,348.1c-5.1,0-9.8-0.9-13.8-2.6c-4.1-1.7-8.1-4.8-12.1-9.2h-1.6c1.1,7.1,1.6,11.5,1.6,13.3v40.8h-35.1
		V244.6h28.5l4.9,12.9h1.6c6.5-9.8,15.5-14.7,27-14.7c11.2,0,20.1,4.7,26.5,14c6.4,9.3,9.6,22.1,9.6,38.4c0,16.4-3.3,29.3-10,38.7
		C1305,343.4,1296,348.1,1284.5,348.1z M1272.8,270.4c-5.1,0-8.8,1.8-10.8,5.5c-2.1,3.7-3.2,9.1-3.4,16.4v2.8
		c0,8.7,1.2,15.1,3.5,18.9c2.3,3.9,6,5.8,11,5.8c4.5,0,7.7-1.9,9.8-5.8c2-3.9,3.1-10.2,3.1-19.2c0-8.7-1-15-3.1-18.8
		C1280.9,272.3,1277.5,270.4,1272.8,270.4z"/>
</g>
<path class="st1" d="M167.9,122.4c-10.7,0-19.3,8.6-19.3,19.3v135.1c0,10.7,8.6,19.3,19.3,19.3h74.8l-4.8,19.3h-12.1
	c-5.3-0.1-9.7,4.2-9.8,9.5s4.2,9.7,9.5,9.8c0.1,0,0.2,0,0.3,0H303c5.3,0.1,9.7-4.2,9.8-9.5c0.1-5.3-4.2-9.7-9.5-9.8
	c-0.1,0-0.2,0-0.3,0h-12.1l-4.8-19.3h74.8c10.7,0,19.3-8.6,19.3-19.3V141.7c0-10.7-8.6-19.3-19.3-19.3H167.9z M167.9,141.7h193
	v115.8h-193V141.7z M264.4,267.1c5.3,0,9.6,4.3,9.6,9.6s-4.3,9.6-9.6,9.6s-9.6-4.3-9.6-9.6S259.1,267.1,264.4,267.1z"/>
</svg>
