<svg id="Layer_1" data-name="Layer 1" xmlns="http://www.w3.org/2000/svg" viewBox="0 0 1440 50"><defs><style>.cls-1,.cls-3{fill:#fff;}.cls-1{opacity:0.15;}.cls-10,.cls-11,.cls-12,.cls-13,.cls-2,.cls-5,.cls-6,.cls-7,.cls-9{fill:none;}.cls-12,.cls-13,.cls-2,.cls-9{stroke:#0c8;}.cls-10,.cls-11,.cls-12,.cls-13,.cls-2,.cls-5,.cls-6,.cls-7,.cls-8,.cls-9{stroke-miterlimit:10;}.cls-2{stroke-width:0.87px;}.cls-4{fill:#0c8;}.cls-10,.cls-11,.cls-5,.cls-6,.cls-7,.cls-8{stroke:#fff;}.cls-10,.cls-12,.cls-13,.cls-6,.cls-7,.cls-8,.cls-9{stroke-linecap:round;}.cls-7,.cls-8{stroke-width:0.51px;}.cls-8{fill:#233656;}.cls-9{stroke-width:1.48px;}.cls-10{stroke-width:0.6px;}.cls-11{stroke-width:1.23px;}.cls-12{stroke-width:1px;}.cls-13{stroke-width:1.12px;}</style></defs><path class="cls-1" d="M226.5,0H.5V50H96.71S139.22,0,226.5,0Z"/><path class="cls-1" d="M1440.5,0V50h-221s65.94,4,114-50Z"/><rect class="cls-2" x="1247.93" y="21.19" width="13.35" height="11.47" rx="1.31" transform="translate(62.91 -366.28) rotate(17.03)"/><path class="cls-2" d="M1263.66,34l-1.94-3.65a1.68,1.68,0,0,1,.7-2.27l3.65-1.94a.3.3,0,0,1,.42.34L1264.2,34A.29.29,0,0,1,1263.66,34Z"/><circle class="cls-3" cx="61.5" cy="38" r="1"/><circle class="cls-4" cx="206" cy="15.5" r="2.5"/><circle class="cls-3" cx="179.5" cy="13" r="1"/><circle class="cls-3" cx="237.5" cy="19" r="1"/><circle class="cls-4" cx="216" cy="31.5" r="0.5"/><circle class="cls-4" cx="63" cy="15.5" r="0.5"/><circle class="cls-3" cx="128.5" cy="30" r="1"/><circle class="cls-3" cx="8.5" cy="14" r="1"/><circle class="cls-5" cx="80" cy="16.5" r="2"/><circle class="cls-5" cx="193" cy="41.5" r="2"/><circle class="cls-3" cx="41.76" cy="27.95" r="1.74"/><path class="cls-6" d="M36.32,40.4A21.66,21.66,0,0,1,11.15,23"/><circle class="cls-6" cx="32.25" cy="20.93" r="11.25"/><path class="cls-4" d="M32,18.42a2.17,2.17,0,0,1,1.11-.6,2,2,0,0,1,2.24,2.61,4.88,4.88,0,0,1-1.21,1.85c-.6.61-1.24,1.16-1.87,1.73-.22.19-.32.18-.55,0a11.36,11.36,0,0,1-2.64-2.72,3.79,3.79,0,0,1-.51-1.12,2,2,0,0,1,3.17-2Z"/><path class="cls-3" d="M157.8,26.69a2.77,2.77,0,0,1,1.57-.42,2.57,2.57,0,0,1,2,3.93,6.13,6.13,0,0,1-2.07,2c-.92.58-1.9,1.09-2.86,1.61-.33.19-.46.14-.69-.16a14.53,14.53,0,0,1-2.52-4.19,5.13,5.13,0,0,1-.3-1.55,2.57,2.57,0,0,1,4.56-1.54Z"/><line class="cls-7" x1="116.84" y1="39.69" x2="123.5" y2="43.17"/><line class="cls-8" x1="121.91" y1="38.1" x2="118.43" y2="44.76"/><line class="cls-9" x1="123.35" y1="9.1" x2="121.26" y2="21.49"/><line class="cls-9" x1="128.5" y1="16.34" x2="116.11" y2="14.25"/><path class="cls-4" d="M89.16,36.1c.3,1.27.59,2.54.92,3.8a1.45,1.45,0,0,0,2.62.73c1.84-1.78,3.67-3.59,5.48-5.41,1-1.07.77-2.16-.68-2.63q-3.61-1.16-7.25-2.25c-1.54-.47-2.39.37-2,2C88.53,33.57,88.85,34.84,89.16,36.1Z"/><circle class="cls-3" cx="1297.5" cy="42" r="1"/><circle class="cls-3" cx="1219.5" cy="39" r="1"/><circle class="cls-4" cx="1346.5" cy="40" r="1"/><circle class="cls-4" cx="1283.5" cy="27" r="1"/><circle class="cls-3" cx="1420.5" cy="10" r="1"/><circle class="cls-3" cx="1281.5" cy="16" r="1"/><circle class="cls-4" cx="1315" cy="15.5" r="0.5"/><circle class="cls-4" cx="1405" cy="7.5" r="0.5"/><circle class="cls-4" cx="1214" cy="13.5" r="0.5"/><circle class="cls-3" cx="1394.5" cy="18" r="1"/><circle class="cls-3" cx="1386.5" cy="43" r="1"/><circle class="cls-3" cx="1357.5" cy="19" r="1"/><circle class="cls-4" cx="1434.5" cy="11" r="2"/><circle class="cls-5" cx="1148" cy="28.5" r="2"/><circle class="cls-5" cx="1274" cy="7.5" r="2"/><circle class="cls-3" cx="1195.75" cy="25.02" r="1.74"/><path class="cls-10" d="M1429.53,34.93a9,9,0,0,1-10.34,7.42"/><path class="cls-10" d="M1429.88,19.28A17,17,0,0,1,1433.63,43"/><path class="cls-10" d="M1412.19,29.35a9,9,0,0,1,10.34-7.42"/><circle class="cls-10" cx="1254.86" cy="27.37" r="15.87"/><circle class="cls-10" cx="1420.57" cy="32.61" r="6.73"/><circle class="cls-10" cx="1420.57" cy="32.61" r="13.11"/><path class="cls-4" d="M1172,11.49a2.22,2.22,0,0,1,1.1-.6,2,2,0,0,1,2.25,2.61,5,5,0,0,1-1.21,1.86c-.6.6-1.24,1.15-1.87,1.72-.22.19-.33.18-.55,0a11.32,11.32,0,0,1-2.64-2.71,4,4,0,0,1-.51-1.13,2,2,0,0,1,3.17-2Z"/><path class="cls-11" d="M1316,31a3.5,3.5,0,0,1,1.75-.94,3.17,3.17,0,0,1,3.56,4.12,7.63,7.63,0,0,1-1.92,2.94c-.94,1-2,1.83-3,2.73-.35.3-.51.29-.88,0a18.11,18.11,0,0,1-4.17-4.3,6.14,6.14,0,0,1-.8-1.77,3.15,3.15,0,0,1,5-3.11C1315.75,30.77,1315.87,30.88,1316,31Z"/><line class="cls-12" x1="1172.51" y1="35.16" x2="1171.99" y2="43.66"/><line class="cls-12" x1="1176.5" y1="39.67" x2="1168" y2="39.15"/><line class="cls-13" x1="1371.59" y1="30.16" x2="1370.01" y2="39.56"/><line class="cls-13" x1="1375.5" y1="35.65" x2="1366.1" y2="34.07"/><path class="cls-4" d="M1329.15,13.17c.3,1.27.59,2.54.92,3.8a1.45,1.45,0,0,0,2.62.73c1.84-1.78,3.67-3.59,5.47-5.41,1.06-1.07.78-2.16-.68-2.62q-3.6-1.17-7.25-2.26c-1.54-.46-2.38.37-2,2C1328.52,10.64,1328.84,11.91,1329.15,13.17Z"/></svg>