<svg id="Layer_1" data-name="Layer 1" xmlns="http://www.w3.org/2000/svg" viewBox="0 0 1440 72"><defs><style>.cls-1,.cls-2{fill:#fff;}.cls-1{opacity:0.15;}.cls-10,.cls-11,.cls-3,.cls-5,.cls-6,.cls-8,.cls-9{fill:none;}.cls-11,.cls-3,.cls-8,.cls-9{stroke:#0c8;}.cls-10,.cls-11,.cls-3,.cls-5,.cls-6,.cls-7,.cls-8,.cls-9{stroke-miterlimit:10;}.cls-3{stroke-width:0.87px;}.cls-4{fill:#0c8;}.cls-10,.cls-5,.cls-6,.cls-7{stroke:#fff;}.cls-10,.cls-6,.cls-7,.cls-8,.cls-9{stroke-linecap:round;}.cls-7{fill:#233656;}.cls-8{stroke-width:1.48px;}.cls-10{stroke-width:0.71px;}.cls-11{stroke-width:0.56px;}</style></defs><path class="cls-1" d="M226.5,0H.5V71.9H96.71S139.22,0,226.5,0Z"/><path class="cls-1" d="M1440.5,0V71.9h-221s65.94,5.76,114-71.9Z"/><path class="cls-2" d="M442.66,26.49a16,16,0,0,0-3.81-1.07c-1.33-.34-2-.74-1.85-1.69s1.08-1.47,2.41-1.46c2.07,0,2.58,1.05,2.7,1.62a.49.49,0,0,0,.48.36h1.88a.32.32,0,0,0,.33-.31v0c-.14-1-.92-3.63-5.33-3.62s-5.16,2.57-5.14,3.85c0,2,2.14,2.89,2.81,3.12s2.84.7,3.31.85c1.65.55,1.74,1.27,1.72,1.7,0,1-.95,1.72-2.58,1.64a2.58,2.58,0,0,1-2.51-2.22.47.47,0,0,0-.47-.37h-1.73a.46.46,0,0,0-.48.45v.07a4.94,4.94,0,0,0,1,2.35c1,1.12,1.88,1.82,4.51,1.82,3.09,0,4.62-1.53,4.9-3.25a3.41,3.41,0,0,0-2.13-3.8"/><rect class="cls-3" x="1265.93" y="28.19" width="13.35" height="11.47" rx="1.31" transform="translate(65.75 -371.24) rotate(17.03)"/><path class="cls-3" d="M1281.66,41l-1.94-3.65a1.68,1.68,0,0,1,.7-2.27l3.65-1.94a.3.3,0,0,1,.42.34L1282.2,41A.29.29,0,0,1,1281.66,41Z"/><circle class="cls-2" cx="58.5" cy="49" r="1"/><circle class="cls-4" cx="203" cy="26.5" r="2.5"/><circle class="cls-4" cx="154" cy="19.5" r="2.5"/><circle class="cls-2" cx="176.5" cy="24" r="1"/><circle class="cls-2" cx="234.5" cy="30" r="1"/><circle class="cls-2" cx="136.5" cy="56" r="1"/><circle class="cls-4" cx="213" cy="42.5" r="0.5"/><circle class="cls-2" cx="125.5" cy="41" r="1"/><circle class="cls-2" cx="5.5" cy="25" r="1"/><circle class="cls-5" cx="77" cy="27.5" r="2"/><circle class="cls-5" cx="190" cy="52.5" r="2"/><circle class="cls-2" cx="38.76" cy="38.95" r="1.74"/><path class="cls-6" d="M33.32,51.4A21.66,21.66,0,0,1,8.15,34"/><circle class="cls-6" cx="29.25" cy="31.93" r="11.25"/><path class="cls-4" d="M29,29.42a2.17,2.17,0,0,1,1.11-.6,2,2,0,0,1,2.24,2.61,4.88,4.88,0,0,1-1.21,1.85c-.6.61-1.24,1.16-1.87,1.73-.22.19-.32.18-.55,0a11.36,11.36,0,0,1-2.64-2.72,3.79,3.79,0,0,1-.51-1.12,2,2,0,0,1,3.17-2Z"/><path class="cls-2" d="M154.8,37.69a2.77,2.77,0,0,1,1.57-.42,2.57,2.57,0,0,1,2,3.93,6.13,6.13,0,0,1-2.07,2c-.92.58-1.9,1.09-2.86,1.61-.33.19-.46.14-.69-.16a14.53,14.53,0,0,1-2.52-4.19,5.13,5.13,0,0,1-.3-1.55,2.57,2.57,0,0,1,4.56-1.54Z"/><line class="cls-6" x1="113.84" y1="50.69" x2="120.5" y2="54.17"/><line class="cls-7" x1="118.91" y1="49.1" x2="115.43" y2="55.76"/><line class="cls-8" x1="120.35" y1="20.1" x2="118.26" y2="32.49"/><line class="cls-8" x1="125.5" y1="27.34" x2="113.11" y2="25.25"/><path class="cls-4" d="M86.16,47.1c.3,1.27.59,2.54.92,3.8a1.45,1.45,0,0,0,2.62.73c1.84-1.78,3.67-3.59,5.48-5.41,1-1.07.77-2.16-.68-2.63q-3.61-1.16-7.25-2.25c-1.54-.47-2.39.37-2,2C85.53,44.57,85.85,45.84,86.16,47.1Z"/><circle class="cls-2" cx="1297.5" cy="57" r="1"/><circle class="cls-2" cx="1230.5" cy="7" r="1"/><circle class="cls-2" cx="1249.5" cy="56" r="1"/><circle class="cls-4" cx="1340.5" cy="41" r="1"/><circle class="cls-4" cx="1296.5" cy="32" r="1"/><circle class="cls-2" cx="1411.5" cy="19" r="1"/><circle class="cls-2" cx="1289.5" cy="18" r="1"/><circle class="cls-2" cx="1177.5" cy="54" r="1"/><circle class="cls-4" cx="1314" cy="8.5" r="0.5"/><circle class="cls-4" cx="1395" cy="7.5" r="0.5"/><circle class="cls-4" cx="1344" cy="61.5" r="0.5"/><circle class="cls-4" cx="1244" cy="19.5" r="0.5"/><circle class="cls-2" cx="1384.5" cy="18" r="1"/><circle class="cls-2" cx="1384.5" cy="55" r="1"/><circle class="cls-2" cx="1352.5" cy="13" r="1"/><circle class="cls-4" cx="1427.5" cy="14" r="2"/><circle class="cls-5" cx="1231" cy="33.5" r="2"/><circle class="cls-9" cx="1275" cy="65.5" r="2"/><circle class="cls-9" cx="1428" cy="65.5" r="2"/><circle class="cls-5" cx="1275" cy="11.5" r="2"/><path class="cls-6" d="M1422.74,45.91a10.72,10.72,0,0,1-12.31,8.84"/><path class="cls-10" d="M1423.16,27.28a20.25,20.25,0,0,1,4.47,28.28"/><path class="cls-6" d="M1402.09,39.27a10.72,10.72,0,0,1,12.31-8.84"/><circle class="cls-6" cx="1272.86" cy="34.37" r="15.87"/><circle class="cls-6" cx="1412.07" cy="43.16" r="8.01"/><circle class="cls-6" cx="1412.07" cy="43.16" r="15.61"/><path class="cls-4" d="M1208,55.49a2.22,2.22,0,0,1,1.1-.6,2,2,0,0,1,2.25,2.61,5,5,0,0,1-1.21,1.86c-.6.6-1.24,1.15-1.87,1.72-.22.19-.33.18-.55,0a11.32,11.32,0,0,1-2.64-2.71,4,4,0,0,1-.51-1.13,2,2,0,0,1,3.17-2Z"/><path class="cls-4" d="M1368,6.49a2.22,2.22,0,0,1,1.1-.6,2,2,0,0,1,2.25,2.61,5,5,0,0,1-1.21,1.86c-.6.6-1.24,1.15-1.87,1.72-.22.19-.33.18-.55,0a11.32,11.32,0,0,1-2.64-2.71,4,4,0,0,1-.51-1.13,2,2,0,0,1,3.17-2Z"/><path class="cls-5" d="M1315,46a3.5,3.5,0,0,1,1.75-.94,3.17,3.17,0,0,1,3.56,4.12,7.63,7.63,0,0,1-1.92,2.94c-.94,1-2,1.83-3,2.73-.35.3-.51.29-.88,0a18.11,18.11,0,0,1-4.17-4.3,6.14,6.14,0,0,1-.8-1.77,3.15,3.15,0,0,1,5-3.11C1314.75,45.77,1314.87,45.88,1315,46Z"/><line class="cls-9" x1="1217.51" y1="13.16" x2="1216.99" y2="21.66"/><line class="cls-9" x1="1221.5" y1="17.67" x2="1213" y2="17.15"/><line class="cls-9" x1="1364.59" y1="41.16" x2="1363.01" y2="50.56"/><line class="cls-9" x1="1368.5" y1="46.65" x2="1359.1" y2="45.07"/><path class="cls-4" d="M1319.15,22.17c.3,1.27.59,2.54.92,3.8a1.45,1.45,0,0,0,2.62.73c1.84-1.78,3.67-3.59,5.47-5.41,1.06-1.07.78-2.16-.68-2.62q-3.6-1.17-7.25-2.26c-1.54-.46-2.38.37-2,2C1318.52,19.64,1318.84,20.91,1319.15,22.17Z"/><path class="cls-5" d="M1187.15,28.17c.3,1.27.59,2.54.92,3.8a1.45,1.45,0,0,0,2.62.73c1.84-1.78,3.67-3.59,5.47-5.41,1.06-1.07.78-2.16-.68-2.62q-3.6-1.17-7.25-2.26c-1.54-.46-2.38.37-2,2C1186.52,25.64,1186.84,26.91,1187.15,28.17Z"/><rect class="cls-11" x="53.55" y="13.82" width="8.59" height="7.38" rx="1.31" transform="translate(7.66 -16.18) rotate(17.03)"/><path class="cls-11" d="M63.68,22.06l-1.25-2.35a1.08,1.08,0,0,1,.44-1.46L65.22,17a.19.19,0,0,1,.27.22L64,22A.18.18,0,0,1,63.68,22.06Z"/><circle class="cls-2" cx="51.5" cy="6" r="1"/><circle class="cls-2" cx="71.5" cy="62" r="1"/><circle class="cls-4" cx="44.5" cy="59" r="1"/><circle class="cls-2" cx="135.5" cy="11" r="1"/><circle class="cls-2" cx="95.5" cy="12" r="1"/><circle class="cls-4" cx="111" cy="7.5" r="0.5"/><circle class="cls-2" cx="106.5" cy="67" r="1"/><circle class="cls-2" cx="189.5" cy="11" r="1"/><circle class="cls-2" cx="172.5" cy="59" r="1"/><circle class="cls-4" cx="156.5" cy="65" r="2"/><circle class="cls-4" cx="25.5" cy="13" r="2"/><circle class="cls-9" cx="10" cy="65.5" r="2"/><path class="cls-4" d="M221,59.49a2.22,2.22,0,0,1,1.1-.6,2,2,0,0,1,2.25,2.61,5,5,0,0,1-1.21,1.86c-.6.6-1.24,1.15-1.87,1.72-.22.19-.33.18-.55,0a11.32,11.32,0,0,1-2.64-2.71,4,4,0,0,1-.51-1.13,2,2,0,0,1,3.17-2Z"/></svg>