<?xml version="1.0" encoding="UTF-8"?>
<svg width="1232px" height="62px" viewBox="0 0 1232 62" version="1.1" xmlns="http://www.w3.org/2000/svg" xmlns:xlink="http://www.w3.org/1999/xlink">
    <title>Artboard</title>
    <g id="Artboard" stroke="none" stroke-width="1" fill="none" fill-rule="evenodd">
        <g id="banner-design-72px">
            <path d="M193.648855,0 L0.427480916,0 L0.427480916,61.4717557 L82.6833588,61.4717557 C82.6833588,61.4717557 119.027786,0 193.648855,0 Z" id="Path" fill="#FFFFFF" fill-rule="nonzero" opacity="0.15"></path>
            <path d="M1231.57252,0 L1231.57252,61.4717557 L1042.62595,61.4717557 C1042.62595,61.4717557 1099.00214,66.3963359 1140.0916,0 L1231.57252,0 Z" id="Path" fill="#FFFFFF" fill-rule="nonzero" opacity="0.15"></path>
            <path d="M1083.64255,24.0870979 L1092.43629,24.0870979 C1093.15978,24.0870979 1093.74629,24.6736049 1093.74629,25.3970979 L1093.74629,32.5835101 C1093.74629,33.3070031 1093.15978,33.8935101 1092.43629,33.8935101 L1083.64255,33.8935101 C1082.91906,33.8935101 1082.33255,33.3070031 1082.33255,32.5835101 L1082.33255,25.3970979 C1082.33255,24.6736049 1082.91906,24.0870979 1083.64255,24.0870979 Z" id="Rectangle" stroke="#00CC88" stroke-width="0.87" transform="translate(1088.039419, 28.990304) rotate(17.030000) translate(-1088.039419, -28.990304) "></path>
            <path d="M1095.77038,35.0534351 L1094.11176,31.9328244 C1093.74124,31.2316201 1094.00915,30.3628164 1094.71023,29.9920611 L1097.83084,28.3334351 C1097.91988,28.2914424 1098.02511,28.3041223 1098.10162,28.3660663 C1098.17814,28.4280103 1098.21246,28.5282861 1098.18992,28.6241221 L1096.23206,35.0534351 C1096.19483,35.1484117 1096.10323,35.2108934 1096.00122,35.2108934 C1095.89921,35.2108934 1095.80761,35.1484117 1095.77038,35.0534351 L1095.77038,35.0534351 Z" id="Path" stroke="#00CC88" stroke-width="0.87"></path>
            <circle id="Oval" fill="#FFFFFF" fill-rule="nonzero" cx="50.0152672" cy="41.8931298" r="1"></circle>
            <circle id="Oval" fill="#00CC88" fill-rule="nonzero" cx="173.557252" cy="22.6564885" r="2.13740458"></circle>
            <circle id="Oval" fill="#00CC88" fill-rule="nonzero" cx="131.664122" cy="16.6717557" r="2.13740458"></circle>
            <circle id="Oval" fill="#FFFFFF" fill-rule="nonzero" cx="150.900763" cy="20.519084" r="1"></circle>
            <circle id="Oval" fill="#FFFFFF" fill-rule="nonzero" cx="200.48855" cy="25.648855" r="1"></circle>
            <circle id="Oval" fill="#FFFFFF" fill-rule="nonzero" cx="116.70229" cy="47.8778626" r="1"></circle>
            <circle id="Oval" fill="#00CC88" fill-rule="nonzero" cx="182.10687" cy="36.3358779" r="1"></circle>
            <circle id="Oval" fill="#FFFFFF" fill-rule="nonzero" cx="107.29771" cy="35.0534351" r="1"></circle>
            <circle id="Oval" fill="#FFFFFF" fill-rule="nonzero" cx="4.70229008" cy="21.3740458" r="1"></circle>
            <circle id="Oval" stroke="#FFFFFF" cx="65.8320611" cy="23.5114504" r="1.70992366"></circle>
            <circle id="Oval" stroke="#FFFFFF" cx="162.442748" cy="44.8854962" r="1.70992366"></circle>
            <circle id="Oval" fill="#FFFFFF" fill-rule="nonzero" cx="33.1383206" cy="33.3007634" r="1.48763359"></circle>
            <path d="M28.4873282,43.9450382 C18.4394379,45.7678219 8.81237416,39.1126407 6.96793893,29.0687023" id="Path" stroke="#FFFFFF" stroke-linecap="round"></path>
            <circle id="Oval" stroke="#FFFFFF" stroke-linecap="round" cx="25.0076336" cy="27.2989313" r="9.61832061"></circle>
            <path d="M24.7938931,25.1529771 C25.0524353,24.8917596 25.3827373,24.713218 25.7429008,24.64 C26.3372925,24.5358546 26.9425686,24.7527206 27.3355753,25.2106437 C27.7285821,25.6685667 27.8511213,26.2997355 27.6580153,26.8714504 C27.4387051,27.4708667 27.0847912,28.0119746 26.6235115,28.4531298 C26.1105344,28.9746565 25.5633588,29.4448855 25.0247328,29.9322137 C24.8366412,30.0946565 24.751145,30.0861069 24.5545038,29.9322137 C23.6772088,29.2889264 22.9142233,28.5028202 22.2974046,27.6067176 C22.1008642,27.3134182 21.9535795,26.9899693 21.861374,26.6491603 C21.7152335,25.9502206 22.0187962,25.2340606 22.6227023,24.8530473 C23.2266084,24.472034 24.0036891,24.5064001 24.5716031,24.9392366 L24.7938931,25.1529771 Z" id="Path" fill="#00CC88" fill-rule="nonzero"></path>
            <path d="M132.348092,32.2235115 C132.749554,31.9722992 133.217113,31.8472198 133.690382,31.8644275 C134.460993,31.9175828 135.147092,32.3714789 135.497435,33.0599026 C135.847778,33.7483263 135.8109,34.5701497 135.400305,35.2244275 C134.954456,35.9267864 134.34781,36.5129178 133.630534,36.9343511 C132.843969,37.430229 132.006107,37.8662595 131.185344,38.3108397 C130.903206,38.4732824 130.792061,38.4305344 130.59542,38.1740458 C129.680055,37.1102231 128.951576,35.898981 128.440916,34.5917557 C128.287553,34.1659063 128.201033,33.7188835 128.184427,33.2665649 C128.214575,32.3510185 128.809559,31.5502377 129.677445,31.257136 C130.545331,30.9640342 131.503994,31.2401182 132.083053,31.9499237 L132.348092,32.2235115 Z" id="Path" fill="#FFFFFF" fill-rule="nonzero"></path>
            <line x1="97.328855" y1="43.3380153" x2="103.022901" y2="46.3132824" id="Path" stroke="#FFFFFF" stroke-linecap="round"></line>
            <line x1="101.663511" y1="41.978626" x2="98.6882443" y2="47.6726718" id="Path" stroke="#FFFFFF" fill="#233656" fill-rule="nonzero" stroke-linecap="round"></line>
            <line x1="102.894656" y1="17.1847328" x2="101.107786" y2="27.7777099" id="Path" stroke="#00CC88" stroke-width="1.48" stroke-linecap="round"></line>
            <line x1="107.29771" y1="23.3746565" x2="96.7047328" y2="21.5877863" id="Path" stroke="#00CC88" stroke-width="1.48" stroke-linecap="round"></line>
            <path d="M73.6635115,40.2687023 C73.92,41.3545038 74.1679389,42.4403053 74.4500763,43.5175573 C74.492901,44.0345383 74.8530855,44.4701886 75.3528026,44.6094228 C75.8525197,44.7486569 76.386087,44.562029 76.6900763,44.1416794 C78.2632061,42.6198473 79.8277863,41.0723664 81.3752672,39.5163359 C82.230229,38.6015267 82.0335878,37.6696183 80.7938931,37.2677863 C78.736285,36.6066158 76.6701272,35.9653944 74.5954198,35.3441221 C73.2787786,34.9422901 72.5520611,35.660458 72.8854962,37.0540458 C73.1248855,38.1056489 73.3984733,39.1914504 73.6635115,40.2687023 Z" id="Path" fill="#00CC88" fill-rule="nonzero"></path>
            <circle id="Oval" fill="#FFFFFF" fill-rule="nonzero" cx="1109.31298" cy="48.7328244" r="1"></circle>
            <circle id="Oval" fill="#FFFFFF" fill-rule="nonzero" cx="1052.03053" cy="5.98473282" r="1"></circle>
            <circle id="Oval" fill="#FFFFFF" fill-rule="nonzero" cx="1068.27481" cy="47.8778626" r="1"></circle>
            <circle id="Oval" fill="#00CC88" fill-rule="nonzero" cx="1146.07634" cy="35.0534351" r="1"></circle>
            <circle id="Oval" fill="#00CC88" fill-rule="nonzero" cx="1108.45802" cy="27.3587786" r="1"></circle>
            <circle id="Oval" fill="#FFFFFF" fill-rule="nonzero" cx="1206.77863" cy="16.2442748" r="1"></circle>
            <circle id="Oval" fill="#FFFFFF" fill-rule="nonzero" cx="1102.47328" cy="15.389313" r="1"></circle>
            <circle id="Oval" fill="#FFFFFF" fill-rule="nonzero" cx="1006.71756" cy="46.1679389" r="1"></circle>
            <circle id="Oval" fill="#00CC88" fill-rule="nonzero" cx="1123.41985" cy="7.26717557" r="1"></circle>
            <circle id="Oval" fill="#00CC88" fill-rule="nonzero" cx="1192.67176" cy="6.41221374" r="1"></circle>
            <circle id="Oval" fill="#00CC88" fill-rule="nonzero" cx="1149.0687" cy="52.5801527" r="1"></circle>
            <circle id="Oval" fill="#00CC88" fill-rule="nonzero" cx="1063.57252" cy="16.6717557" r="1"></circle>
            <circle id="Oval" fill="#FFFFFF" fill-rule="nonzero" cx="1183.69466" cy="15.389313" r="1"></circle>
            <circle id="Oval" fill="#FFFFFF" fill-rule="nonzero" cx="1183.69466" cy="47.0229008" r="1"></circle>
            <circle id="Oval" fill="#FFFFFF" fill-rule="nonzero" cx="1156.33588" cy="11.1145038" r="1"></circle>
            <circle id="Oval" fill="#00CC88" fill-rule="nonzero" cx="1220.45802" cy="11.9694656" r="1.70992366"></circle>
            <circle id="Oval" stroke="#FFFFFF" cx="1052.45802" cy="28.6412214" r="1.70992366"></circle>
            <circle id="Oval" stroke="#00CC88" stroke-linecap="round" cx="1090.07634" cy="56" r="1.70992366"></circle>
            <circle id="Oval" stroke="#00CC88" stroke-linecap="round" cx="1220.8855" cy="56" r="1.70992366"></circle>
            <circle id="Oval" stroke="#FFFFFF" cx="1090.07634" cy="9.83206107" r="1.70992366"></circle>
            <path d="M1216.3884,39.2512977 C1215.56759,44.2436521 1210.85672,47.6265976 1205.86382,46.8091603" id="Path" stroke="#FFFFFF" stroke-linecap="round"></path>
            <path d="M1216.74748,23.3233588 C1224.47739,28.9459604 1226.18813,39.7691243 1220.56916,47.5016794" id="Path" stroke="#FFFFFF" stroke-width="0.71" stroke-linecap="round"></path>
            <path d="M1198.73344,33.5743511 C1199.55424,28.5819968 1204.26511,25.1990512 1209.25802,26.0164885" id="Path" stroke="#FFFFFF" stroke-linecap="round"></path>
            <circle id="Oval" stroke="#FFFFFF" stroke-linecap="round" cx="1088.24672" cy="29.3850382" r="13.5682443"></circle>
            <circle id="Oval" stroke="#FFFFFF" stroke-linecap="round" cx="1207.26595" cy="36.9001527" r="6.84824427"></circle>
            <circle id="Oval" stroke="#FFFFFF" stroke-linecap="round" cx="1207.26595" cy="36.9001527" r="13.3459542"></circle>
            <path d="M1032.79389,47.4418321 C1033.05162,47.1840839 1033.37811,47.0059971 1033.73435,46.928855 C1034.33009,46.8211515 1034.93838,47.0364887 1035.33367,47.4950246 C1035.72896,47.9535605 1035.85232,48.5869339 1035.65802,49.1603053 C1035.43664,49.7611736 1035.0831,50.3046312 1034.62351,50.7505344 C1034.11053,51.2635115 1033.56336,51.7337405 1033.02473,52.2210687 C1032.83664,52.3835115 1032.7426,52.3749618 1032.5545,52.2210687 C1031.67749,51.5808389 1030.91447,50.7975866 1030.2974,49.9041221 C1030.10274,49.6067043 1029.95563,49.2807546 1029.86137,48.9380153 C1029.71523,48.2390756 1030.0188,47.5229156 1030.6227,47.1419022 C1031.22661,46.7608889 1032.00369,46.795255 1032.5716,47.2280916 L1032.79389,47.4418321 Z" id="Path" fill="#00CC88" fill-rule="nonzero"></path>
            <path d="M1169.58779,5.54870229 C1169.84551,5.29095412 1170.17201,5.11286737 1170.52824,5.03572519 C1171.12399,4.92802175 1171.73227,5.14335888 1172.12756,5.60189479 C1172.52285,6.0604307 1172.64621,6.69380414 1172.45191,7.26717557 C1172.23053,7.86804388 1171.87699,8.4115014 1171.4174,8.85740458 C1170.90443,9.37038168 1170.35725,9.84061069 1169.81863,10.3279389 C1169.63053,10.4903817 1169.53649,10.4818321 1169.3484,10.3279389 C1168.47138,9.68770916 1167.70836,8.90445679 1167.0913,8.01099237 C1166.89663,7.71357451 1166.74952,7.3876248 1166.65527,7.0448855 C1166.50913,6.34594582 1166.81269,5.62978578 1167.4166,5.24877247 C1168.0205,4.86775916 1168.79758,4.90212525 1169.3655,5.33496183 L1169.58779,5.54870229 Z" id="Path" fill="#00CC88" fill-rule="nonzero"></path>
            <path d="M1124.27481,39.3282443 C1124.68545,38.9214778 1125.20511,38.6423454 1125.77099,38.5245802 C1126.71097,38.3585777 1127.66897,38.699283 1128.29305,39.421531 C1128.91713,40.1437791 1129.11526,41.1410678 1128.81466,42.0470229 C1128.47034,43.0011113 1127.90828,43.8617631 1127.17313,44.5606107 C1126.36947,45.4155725 1125.46321,46.1251908 1124.60824,46.8946565 C1124.30901,47.151145 1124.17221,47.1425954 1123.85588,46.8946565 C1122.47166,45.8756006 1121.26678,44.6331648 1120.29069,43.2183206 C1119.98385,42.7533792 1119.75297,42.2425613 1119.60672,41.7050382 C1119.39238,40.6078391 1119.87818,39.4923074 1120.82747,38.9018506 C1121.77675,38.3113938 1122.99212,38.3688008 1123.88153,39.0461069 C1124.06107,39.1316031 1124.16366,39.2256489 1124.27481,39.3282443 Z" id="Path" stroke="#FFFFFF"></path>
            <line x1="1040.92458" y1="11.2512977" x2="1040.48" y2="18.5184733" id="Path" stroke="#00CC88" stroke-linecap="round"></line>
            <line x1="1044.33588" y1="15.1071756" x2="1037.0687" y2="14.6625954" id="Path" stroke="#00CC88" stroke-linecap="round"></line>
            <line x1="1166.67237" y1="35.190229" x2="1165.32153" y2="43.2268702" id="Path" stroke="#00CC88" stroke-linecap="round"></line>
            <line x1="1170.01527" y1="39.8839695" x2="1161.97863" y2="38.5331298" id="Path" stroke="#00CC88" stroke-linecap="round"></line>
            <path d="M1127.8229,18.9545038 C1128.07939,20.0403053 1128.32733,21.1261069 1128.60947,22.2033588 C1128.65229,22.7203398 1129.01247,23.1559902 1129.51219,23.2952243 C1130.01191,23.4344585 1130.54548,23.2478305 1130.84947,22.8274809 C1132.4226,21.3056489 1133.98718,19.7581679 1135.52611,18.2021374 C1136.43237,17.2873282 1136.19298,16.3554198 1134.94473,15.9621374 C1132.89282,15.2952672 1130.82667,14.6511959 1128.74626,14.0299237 C1127.42962,13.6366412 1126.71145,14.3462595 1127.03634,15.7398473 C1127.28427,16.7914504 1127.55786,17.8772519 1127.8229,18.9545038 Z" id="Path" fill="#00CC88" fill-rule="nonzero"></path>
            <path d="M47.089265,11.8099439 L51.8133872,11.8099439 C52.5368802,11.8099439 53.1233872,12.3964509 53.1233872,13.1199439 L53.1233872,16.8095622 C53.1233872,17.5330553 52.5368802,18.1195622 51.8133872,18.1195622 L47.089265,18.1195622 C46.365772,18.1195622 45.779265,17.5330553 45.779265,16.8095622 L45.779265,13.1199439 C45.779265,12.3964509 46.365772,11.8099439 47.089265,11.8099439 Z" id="Rectangle" stroke="#00CC88" stroke-width="0.56" transform="translate(49.451326, 14.964753) rotate(17.030000) translate(-49.451326, -14.964753) "></path>
            <path d="M54.4439695,18.860458 L53.3752672,16.8512977 C53.1353469,16.4026353 53.3035719,15.8444341 53.7514504,15.6030534 L55.7606107,14.5343511 C55.8180349,14.5047753 55.8875257,14.5120321 55.9376005,14.5528338 C55.9876753,14.5936355 56.0088182,14.6602284 55.9914504,14.7224427 L54.7175573,18.8091603 C54.7025045,18.8667816 54.6555566,18.9105451 54.5970217,18.9215204 C54.5384868,18.9324957 54.4788739,18.9087123 54.4439695,18.860458 Z" id="Path" stroke="#00CC88" stroke-width="0.56"></path>
            <circle id="Oval" fill="#FFFFFF" fill-rule="nonzero" cx="44.0305344" cy="5.12977099" r="1"></circle>
            <circle id="Oval" fill="#FFFFFF" fill-rule="nonzero" cx="61.129771" cy="53.0076336" r="1"></circle>
            <circle id="Oval" fill="#00CC88" fill-rule="nonzero" cx="38.0458015" cy="50.4427481" r="1"></circle>
            <circle id="Oval" fill="#FFFFFF" fill-rule="nonzero" cx="115.847328" cy="9.40458015" r="1"></circle>
            <circle id="Oval" fill="#FFFFFF" fill-rule="nonzero" cx="81.648855" cy="10.259542" r="1"></circle>
            <circle id="Oval" fill="#00CC88" fill-rule="nonzero" cx="94.9007634" cy="6.41221374" r="1"></circle>
            <circle id="Oval" fill="#FFFFFF" fill-rule="nonzero" cx="91.0534351" cy="57.2824427" r="1"></circle>
            <circle id="Oval" fill="#FFFFFF" fill-rule="nonzero" cx="162.015267" cy="9.40458015" r="1"></circle>
            <circle id="Oval" fill="#FFFFFF" fill-rule="nonzero" cx="147.480916" cy="50.4427481" r="1"></circle>
            <circle id="Oval" fill="#00CC88" fill-rule="nonzero" cx="133.801527" cy="55.5725191" r="1.70992366"></circle>
            <circle id="Oval" fill="#00CC88" fill-rule="nonzero" cx="21.8015267" cy="11.1145038" r="1.70992366"></circle>
            <circle id="Oval" stroke="#00CC88" stroke-linecap="round" cx="8.54961832" cy="56" r="1.70992366"></circle>
            <path d="M188.946565,50.8616794 C189.204292,50.6039312 189.530784,50.4258445 189.887023,50.3487023 C190.482765,50.2409988 191.09105,50.456336 191.486339,50.9148719 C191.881629,51.3734078 192.004991,52.0067812 191.810687,52.5801527 C191.58931,53.181021 191.235771,53.7244785 190.776183,54.1703817 C190.263206,54.6833588 189.716031,55.1535878 189.177405,55.640916 C188.989313,55.8033588 188.895267,55.7948092 188.707176,55.640916 C187.830162,55.0006863 187.067141,54.2174339 186.450076,53.3239695 C186.255407,53.0265516 186.108297,52.7006019 186.014046,52.3578626 C185.867905,51.6589229 186.171468,50.9427629 186.775374,50.5617496 C187.37928,50.1807363 188.156361,50.2151023 188.724275,50.6479389 L188.946565,50.8616794 Z" id="Path" fill="#00CC88" fill-rule="nonzero"></path>
        </g>
    </g>
</svg>