<svg xmlns="http://www.w3.org/2000/svg" viewBox="0 0 238 59"><defs><style>.cls-1,.cls-2{fill:none;}.cls-2,.cls-3{stroke:#fff;stroke-miterlimit:10;}.cls-2{stroke-linecap:round;stroke-width:1.5px;}.cls-3,.cls-4{fill:#fff;}.cls-3{stroke-width:0.25px;}</style></defs><g id="Layer_2" data-name="Layer 2"><g id="Layer_1-2" data-name="Layer 1"><rect class="cls-1" width="238" height="59"/><line class="cls-2" x1="135.79" y1="32.72" x2="150.44" y2="32.72"/><line class="cls-2" x1="143.11" y1="25.39" x2="143.11" y2="40.04"/><path class="cls-3" d="M169.18,19h.73l8.54,22.45h-.7l-2.36-6.33H163.64l-2.45,6.33h-.67Zm6,15.54-5.64-14.87-5.67,14.87Z"/><path class="cls-3" d="M175.72,23.56h.67l6.94,16.75,6.88-16.75h.67l-7.32,17.86h-.45Z"/><path class="cls-3" d="M192.67,34.54v-4.2c0-4.3,2.48-7.07,6.81-7.07s6.79,2.77,6.79,7.07v4.2c0,4.43-2.55,7.2-6.79,7.2S192.67,39,192.67,34.54Zm13,0v-4.2c0-3.92-2.29-6.43-6.15-6.43s-6.17,2.51-6.17,6.43v4.2c0,4.05,2.22,6.56,6.17,6.56S205.63,38.59,205.63,34.54Z"/><path class="cls-3" d="M210.44,17.7h.64V41.45h-.64Z"/><path class="cls-3" d="M214.87,19.48a.6.6,0,0,1,.6-.6.59.59,0,0,1,.61.6.6.6,0,0,1-.61.6A.62.62,0,0,1,214.87,19.48Zm.28,4.08h.64V41.45h-.64Z"/><path class="cls-3" d="M219.38,34.54v-4.2c0-4.3,2.49-7.07,6.82-7.07S233,26,233,30.34v4.2c0,4.43-2.55,7.2-6.78,7.2S219.38,39,219.38,34.54Zm13,0v-4.2c0-3.92-2.29-6.43-6.14-6.43S220,26.42,220,30.34v4.2c0,4.05,2.23,6.56,6.18,6.56S232.34,38.59,232.34,34.54Z"/><path class="cls-4" d="M119.71,27.66v.6a7.2,7.2,0,0,0-.82-.6,7,7,0,0,0-3.59-1.08H115a6.9,6.9,0,0,0-3.73,1.09,7.86,7.86,0,0,0-1.35,1.09,7.61,7.61,0,0,0-.17,10.61,7,7,0,0,0,4,2.16,10.47,10.47,0,0,0,1.14.12h.29a7.24,7.24,0,0,0,5.12-2.15,7.07,7.07,0,0,0,2.22-5.37V20a.51.51,0,0,0-.51-.51h-1.76a.51.51,0,0,0-.51.51Zm-1.41,9.83a4.11,4.11,0,0,1-3.12,1.37h-.25a4.31,4.31,0,0,1-1.2-.2,4.24,4.24,0,0,1-1.94-1.28A4.7,4.7,0,0,1,110.51,34a4.58,4.58,0,0,1,1.37-3.29,4.48,4.48,0,0,1,1.85-1.15,4.38,4.38,0,0,1,1.35-.21h.09a4.14,4.14,0,0,1,3.13,1.34A4.7,4.7,0,0,1,119.66,34a4.61,4.61,0,0,1-1.36,3.5"/><path class="cls-4" d="M109.59,27.74a.24.24,0,0,0,0-.34.15.15,0,0,0-.06,0,5.62,5.62,0,0,0-5.75.07V27.1a.5.5,0,0,0-.5-.5h-1.67a.5.5,0,0,0-.51.5h0v14a.51.51,0,0,0,.51.51h1.67a.5.5,0,0,0,.5-.51V32.2a2.93,2.93,0,0,1,2.93-2.93,2.82,2.82,0,0,1,1.11.22.25.25,0,0,0,.3-.09,8.81,8.81,0,0,1,1.1-1.34l.35-.32"/><path class="cls-4" d="M99.46,34.12a6.86,6.86,0,0,0-2-5.2A7.19,7.19,0,0,0,92.3,26.6a6.89,6.89,0,0,0-5.38,2.14,7.56,7.56,0,0,0-.14,10.6,7.12,7.12,0,0,0,5.07,2.29h.27a6.88,6.88,0,0,0,4.59-1.69v1.18a.5.5,0,0,0,.51.5H99a.5.5,0,0,0,.51-.5v-7Zm-4.19,3.36a4.17,4.17,0,0,1-3.13,1.37h-.25a4.41,4.41,0,0,1-3.14-1.5A4.72,4.72,0,0,1,87.49,34a4.59,4.59,0,0,1,1.38-3.29,4.42,4.42,0,0,1,3.28-1.35,4.14,4.14,0,0,1,3.13,1.34A4.7,4.7,0,0,1,96.65,34a4.78,4.78,0,0,1-1.38,3.51"/><path class="cls-4" d="M52.7,38.84a.25.25,0,0,0-.28-.1.26.26,0,0,0-.18.23v8.92a.52.52,0,0,0,.51.51h1.91a.51.51,0,0,0,.51-.51h0V41.56a.51.51,0,0,0-.22-.42,8.94,8.94,0,0,1-2.25-2.3"/><path class="cls-4" d="M80.24,32a.48.48,0,0,1-.43-.25,4.66,4.66,0,0,0-6.42-1.52,4.36,4.36,0,0,0-.65.48,4.89,4.89,0,0,0-.45.46l-6.45,7.55a7.53,7.53,0,1,1-.23-9.44l1.52,1.78a.24.24,0,0,1,0,.32l-1.6,1.87a.23.23,0,0,1-.18.09.23.23,0,0,1-.19-.09l-1.79-2.09h0a4.62,4.62,0,1,0-.45,6.41c.08-.08,7.6-8.82,7.86-9a7.58,7.58,0,0,1,10.72.64,7.34,7.34,0,0,1,1.33,2.13.47.47,0,0,1,0,.47.5.5,0,0,1-.42.23Z"/><path class="cls-4" d="M75.83,41.67A7.58,7.58,0,0,1,70.05,39l-1.53-1.8a.23.23,0,0,1,0-.31L70.12,35a.24.24,0,0,1,.34,0l0,0,1.79,2.1a4.67,4.67,0,0,0,6.57.53,5,5,0,0,0,1-1.11.51.51,0,0,1,.43-.25h2.14a.52.52,0,0,1,.42.23.47.47,0,0,1,0,.47,7.57,7.57,0,0,1-7,4.68"/><path class="cls-4" d="M50.67,34.12a6.9,6.9,0,0,0-2-5.2,7.19,7.19,0,0,0-5.14-2.32,6.87,6.87,0,0,0-5.38,2.14A7.57,7.57,0,0,0,38,39.34a7.14,7.14,0,0,0,5.07,2.29h.28A7,7,0,0,0,47.92,40v1.17a.52.52,0,0,0,.5.52h1.74a.51.51,0,0,0,.51-.52v-7Zm-7.29-4.77a4.14,4.14,0,0,1,3.13,1.34,4.89,4.89,0,0,1,0,6.8,4.14,4.14,0,0,1-3.12,1.37h-.24A4.37,4.37,0,0,1,40,37.36,4.64,4.64,0,0,1,38.73,34a4.58,4.58,0,0,1,1.37-3.29,4.42,4.42,0,0,1,3.28-1.36"/><path class="cls-4" d="M32.1,26.59a.5.5,0,0,0-.5.51h0V36a2.93,2.93,0,0,1-5.86,0V27.1a.51.51,0,0,0-.51-.51H23.56a.5.5,0,0,0-.5.51V36a2.93,2.93,0,0,1-5.86,0V27.1a.51.51,0,0,0-.51-.51H15a.51.51,0,0,0-.51.51V36a5.61,5.61,0,0,0,9.88,3.63A5.61,5.61,0,0,0,34.29,36V27.1a.51.51,0,0,0-.51-.51Z"/><path class="cls-4" d="M10.59,33.62a16.13,16.13,0,0,0-4-1.2c-1.41-.39-2.12-.84-2-1.92s1.14-1.66,2.55-1.65c2.19,0,2.73,1.19,2.85,1.83a.51.51,0,0,0,.5.41h2a.35.35,0,0,0,.35-.35v0c-.15-1.09-1-4.09-5.65-4.09S1.76,29.5,1.78,31c0,2.29,2.26,3.28,3,3.53s3,.78,3.5,1c1.75.61,1.83,1.43,1.82,1.92,0,1.15-1,1.94-2.74,1.85a2.79,2.79,0,0,1-2.64-2.5.51.51,0,0,0-.5-.42H2.36a.52.52,0,0,0-.52.51.15.15,0,0,0,0,.07,5.79,5.79,0,0,0,1,2.67c1,1.27,2,2.05,4.76,2.05,3.27,0,4.89-1.72,5.19-3.68a3.94,3.94,0,0,0-2.25-4.29"/></g></g></svg>