<svg xmlns="http://www.w3.org/2000/svg" viewBox="0 0 220.65 29.53"><defs><style>.cls-1{fill:none;}.cls-1,.cls-2{stroke:#262f3d;stroke-linecap:round;stroke-miterlimit:10;stroke-width:1.5px;}.cls-2,.cls-3{fill:#233656;}.cls-4{fill:#fff;}.cls-5{fill:#262f3d;}</style></defs><g id="Layer_2" data-name="Layer 2"><g id="Layer_1-2" data-name="Layer 1"><line class="cls-1" x1="124.45" y1="14.96" x2="139.1" y2="14.96"/><line class="cls-2" x1="131.78" y1="7.64" x2="131.78" y2="22.29"/><path class="cls-3" d="M156.85,1.31h.73l8.53,22.45h-.7l-2.35-6.34H151.31l-2.46,6.34h-.66Zm6,15.54L157.2,2l-5.67,14.88Z"/><path class="cls-3" d="M163.39,5.86h.67L171,22.61l6.88-16.75h.67l-7.33,17.86h-.44Z"/><path class="cls-3" d="M180.33,16.85V12.64c0-4.3,2.49-7.07,6.82-7.07s6.78,2.77,6.78,7.07v4.21c0,4.42-2.54,7.19-6.78,7.19S180.33,21.27,180.33,16.85Zm13,0V12.64c0-3.91-2.3-6.43-6.15-6.43S181,8.73,181,12.64v4.21c0,4,2.23,6.56,6.18,6.56S193.3,20.89,193.3,16.85Z"/><path class="cls-3" d="M198.11,0h.64V23.76h-.64Z"/><path class="cls-3" d="M202.53,1.78a.6.6,0,0,1,.61-.6.58.58,0,0,1,.6.6.6.6,0,0,1-.6.61A.63.63,0,0,1,202.53,1.78Zm.29,4.08h.64v17.9h-.64Z"/><path class="cls-3" d="M207.05,16.85V12.64c0-4.3,2.48-7.07,6.81-7.07s6.79,2.77,6.79,7.07v4.21c0,4.42-2.55,7.19-6.79,7.19S207.05,21.27,207.05,16.85Zm13,0V12.64c0-3.91-2.29-6.43-6.15-6.43s-6.17,2.52-6.17,6.43v4.21c0,4,2.23,6.56,6.17,6.56S220,20.89,220,16.85Z"/><path class="cls-4" d="M111.53,11.2v.52a5.77,5.77,0,0,0-.77-.52,7,7,0,0,0-3.39-1h-.27a7.09,7.09,0,0,0-1.22.1,6.45,6.45,0,0,0-2.31.86,7.06,7.06,0,0,0-1.27,1,6.43,6.43,0,0,0-.17,9.38,6.8,6.8,0,0,0,3.75,1.91,7.6,7.6,0,0,0,1.07.1h.28a7,7,0,0,0,4.83-1.9,6,6,0,0,0,2.1-4.75V4.43a.46.46,0,0,0-.48-.45H112a.47.47,0,0,0-.49.45Zm-1.33,8.69a4,4,0,0,1-3,1.21H107a5.23,5.23,0,0,1-1.13-.18A4.26,4.26,0,0,1,104,19.79a4.05,4.05,0,0,1-1.21-3,3.93,3.93,0,0,1,1.3-2.91,4.45,4.45,0,0,1,1.75-1,4.2,4.2,0,0,1,1.27-.19h.09a4.24,4.24,0,0,1,4.25,4.1,3.93,3.93,0,0,1-1.29,3.08"/><path class="cls-4" d="M102,11.27a.2.2,0,0,0,0-.31.15.15,0,0,0-.06,0,5.61,5.61,0,0,0-5.43.06V10.7a.47.47,0,0,0-.48-.45H94.43a.47.47,0,0,0-.48.45h0V23.07a.47.47,0,0,0,.48.45H96a.47.47,0,0,0,.48-.45V15.21a2.68,2.68,0,0,1,2.77-2.59,2.88,2.88,0,0,1,1,.2.25.25,0,0,0,.28-.08,7.84,7.84,0,0,1,1-1.18l.32-.29"/><path class="cls-4" d="M92.38,16.91a5.86,5.86,0,0,0-1.91-4.61,7.07,7.07,0,0,0-4.86-2.05,6.77,6.77,0,0,0-5.09,1.9,6.38,6.38,0,0,0-.14,9.37,7,7,0,0,0,4.8,2h.25a6.77,6.77,0,0,0,4.35-1.49v1a.46.46,0,0,0,.48.45H91.9a.47.47,0,0,0,.48-.45V16.91Zm-4,3a4,4,0,0,1-3,1.22h-.23a4.27,4.27,0,0,1-3-1.33,4,4,0,0,1-1.18-3,3.88,3.88,0,0,1,1.3-2.91,4.36,4.36,0,0,1,3.1-1.19,4.26,4.26,0,0,1,4.26,4.08,4.07,4.07,0,0,1-1.31,3.11"/><path class="cls-5" d="M48.15,21.08a.24.24,0,0,0-.26-.09.21.21,0,0,0-.16.21v7.88a.47.47,0,0,0,.48.45H50a.47.47,0,0,0,.48-.45h0v-5.6a.44.44,0,0,0-.21-.37,8.12,8.12,0,0,1-2.14-2"/><path class="cls-5" d="M74.2,15a.48.48,0,0,1-.41-.22,4.59,4.59,0,0,0-6.06-1.35,3.81,3.81,0,0,0-.62.43,4.07,4.07,0,0,0-.43.4L60.59,21a7.38,7.38,0,0,1-5.69,2.61,6.93,6.93,0,0,1-7.17-6.66,6.93,6.93,0,0,1,7.17-6.65,7.4,7.4,0,0,1,5.47,2.35l1.44,1.58a.21.21,0,0,1,0,.28l-1.52,1.66a.23.23,0,0,1-.18.08.23.23,0,0,1-.17-.08L58.25,14.3h0a4.53,4.53,0,0,0-3.35-1.45,4.25,4.25,0,0,0-4.39,4.08A4.25,4.25,0,0,0,54.9,21a4.55,4.55,0,0,0,2.92-1c.09-.07,7.2-7.79,7.44-8a7.55,7.55,0,0,1,10.15.57,6.74,6.74,0,0,1,1.26,1.88.43.43,0,0,1,0,.42.51.51,0,0,1-.4.2Z"/><path class="cls-4" d="M70,23.59a7.41,7.41,0,0,1-5.47-2.36l-1.44-1.59a.19.19,0,0,1,0-.28l1.51-1.66a.24.24,0,0,1,.32,0l0,0,1.69,1.86a4.61,4.61,0,0,0,6.21.46,4,4,0,0,0,.9-1,.49.49,0,0,1,.41-.21h2a.48.48,0,0,1,.4.2.42.42,0,0,1,0,.42A7.21,7.21,0,0,1,70,23.59"/><path class="cls-5" d="M46.24,16.91a5.92,5.92,0,0,0-1.91-4.61,7.11,7.11,0,0,0-4.86-2.05,6.75,6.75,0,0,0-5.09,1.9,6.38,6.38,0,0,0-.14,9.37,7,7,0,0,0,4.79,2h.26a6.81,6.81,0,0,0,4.34-1.5v1a.46.46,0,0,0,.48.45h1.64a.46.46,0,0,0,.48-.45V16.91Zm-6.9-4.22a4.16,4.16,0,0,1,2.94,7.19,4.06,4.06,0,0,1-3,1.22h-.23a4.26,4.26,0,0,1-3-1.32,4,4,0,0,1-1.18-3,3.94,3.94,0,0,1,1.3-2.9,4.38,4.38,0,0,1,3.11-1.2"/><path class="cls-5" d="M28.67,10.25a.47.47,0,0,0-.48.45h0v7.86a2.78,2.78,0,0,1-5.54,0V10.7a.46.46,0,0,0-.48-.45H20.6a.46.46,0,0,0-.48.45v7.86a2.78,2.78,0,0,1-5.54,0V10.7a.47.47,0,0,0-.49-.45H12.52a.47.47,0,0,0-.49.45v7.86a5.15,5.15,0,0,0,5.31,5,5.47,5.47,0,0,0,4-1.75,5.56,5.56,0,0,0,7.48.57,4.81,4.81,0,0,0,1.87-3.78V10.7a.47.47,0,0,0-.48-.45Z"/><path class="cls-5" d="M8.33,16.47A16.16,16.16,0,0,0,4.52,15.4c-1.34-.35-2-.74-1.86-1.7s1.09-1.46,2.42-1.45c2.07,0,2.58,1.05,2.7,1.61a.48.48,0,0,0,.47.37h1.89a.32.32,0,0,0,.33-.31s0,0,0,0c-.13-1-.91-3.63-5.33-3.62S0,12.82,0,14.11c0,2,2.14,2.89,2.81,3.12s2.84.7,3.31.85c1.65.54,1.73,1.26,1.72,1.7,0,1-1,1.72-2.59,1.63a2.55,2.55,0,0,1-2.5-2.21.48.48,0,0,0-.48-.37H.55a.47.47,0,0,0-.49.45.13.13,0,0,1,0,.06,4.87,4.87,0,0,0,1,2.36c1,1.12,1.88,1.82,4.51,1.82,3.09,0,4.62-1.53,4.9-3.25a3.43,3.43,0,0,0-2.13-3.8"/></g></g></svg>